<?xml version="1.0" encoding="UTF-8" standalone="no"?>
<!DOCTYPE svg PUBLIC "-//W3C//DTD SVG 1.1//EN"
 "http://www.w3.org/Graphics/SVG/1.1/DTD/svg11.dtd">
<!-- Generated by graphviz version 2.43.0 (0)
 -->
<!-- Title: %3 Pages: 1 -->
<svg width="2660pt" height="479pt"
 viewBox="0.00 0.00 2660.04 479.00" xmlns="http://www.w3.org/2000/svg" xmlns:xlink="http://www.w3.org/1999/xlink">
<g id="graph0" class="graph" transform="scale(1 1) rotate(0) translate(4 475)">
<title>%3</title>
<polygon fill="white" stroke="transparent" points="-4,4 -4,-475 2656.04,-475 2656.04,4 -4,4"/>
<!-- 0 -->
<g id="node1" class="node">
<title>0</title>
<ellipse fill="none" stroke="black" cx="950.94" cy="-453" rx="123.48" ry="18"/>
<text text-anchor="middle" x="950.94" y="-449.3" font-family="Times,serif" font-size="14.00">regime_vol_ratio&lt;0.792340517</text>
</g>
<!-- 1 -->
<g id="node2" class="node">
<title>1</title>
<ellipse fill="none" stroke="black" cx="766.94" cy="-366" rx="106.68" ry="18"/>
<text text-anchor="middle" x="766.94" y="-362.3" font-family="Times,serif" font-size="14.00">D_EMA200&lt;0.747741222</text>
</g>
<!-- 0&#45;&gt;1 -->
<g id="edge1" class="edge">
<title>0&#45;&gt;1</title>
<path fill="none" stroke="#ff0000" d="M915.47,-435.61C885.62,-421.82 842.82,-402.05 810.82,-387.27"/>
<polygon fill="#ff0000" stroke="#ff0000" points="812.23,-384.07 801.69,-383.05 809.3,-390.42 812.23,-384.07"/>
<text text-anchor="middle" x="880.44" y="-405.8" font-family="Times,serif" font-size="14.00">yes</text>
</g>
<!-- 2 -->
<g id="node3" class="node">
<title>2</title>
<ellipse fill="none" stroke="black" cx="1296.94" cy="-366" rx="123.48" ry="18"/>
<text text-anchor="middle" x="1296.94" y="-362.3" font-family="Times,serif" font-size="14.00">regime_vol_ratio&lt;0.811057627</text>
</g>
<!-- 0&#45;&gt;2 -->
<g id="edge2" class="edge">
<title>0&#45;&gt;2</title>
<path fill="none" stroke="#0000ff" d="M1011.21,-437.19C1071.31,-422.43 1163.55,-399.77 1226.88,-384.21"/>
<polygon fill="#0000ff" stroke="#0000ff" points="1227.91,-387.56 1236.79,-381.78 1226.24,-380.77 1227.91,-387.56"/>
<text text-anchor="middle" x="1176.94" y="-405.8" font-family="Times,serif" font-size="14.00">no, missing</text>
</g>
<!-- 3 -->
<g id="node4" class="node">
<title>3</title>
<ellipse fill="none" stroke="black" cx="473.94" cy="-279" rx="103.98" ry="18"/>
<text text-anchor="middle" x="473.94" y="-275.3" font-family="Times,serif" font-size="14.00">MACD_Hist&lt;321.458649</text>
</g>
<!-- 1&#45;&gt;3 -->
<g id="edge3" class="edge">
<title>1&#45;&gt;3</title>
<path fill="none" stroke="#ff0000" d="M715.91,-350.19C665.43,-335.55 588.18,-313.14 534.6,-297.6"/>
<polygon fill="#ff0000" stroke="#ff0000" points="535.46,-294.2 524.89,-294.78 533.51,-300.93 535.46,-294.2"/>
<text text-anchor="middle" x="648.44" y="-318.8" font-family="Times,serif" font-size="14.00">yes</text>
</g>
<!-- 4 -->
<g id="node5" class="node">
<title>4</title>
<ellipse fill="none" stroke="black" cx="766.94" cy="-279" rx="137.28" ry="18"/>
<text text-anchor="middle" x="766.94" y="-275.3" font-family="Times,serif" font-size="14.00">regime_ema_spread&lt;&#45;0.247444794</text>
</g>
<!-- 1&#45;&gt;4 -->
<g id="edge4" class="edge">
<title>1&#45;&gt;4</title>
<path fill="none" stroke="#0000ff" d="M766.94,-347.8C766.94,-336.16 766.94,-320.55 766.94,-307.24"/>
<polygon fill="#0000ff" stroke="#0000ff" points="770.44,-307.18 766.94,-297.18 763.44,-307.18 770.44,-307.18"/>
<text text-anchor="middle" x="798.94" y="-318.8" font-family="Times,serif" font-size="14.00">no, missing</text>
</g>
<!-- 5 -->
<g id="node18" class="node">
<title>5</title>
<ellipse fill="none" stroke="black" cx="1296.94" cy="-279" rx="97.48" ry="18"/>
<text text-anchor="middle" x="1296.94" y="-275.3" font-family="Times,serif" font-size="14.00">Log_Ret&lt;0.0139052384</text>
</g>
<!-- 2&#45;&gt;5 -->
<g id="edge17" class="edge">
<title>2&#45;&gt;5</title>
<path fill="none" stroke="#ff0000" d="M1296.94,-347.8C1296.94,-336.16 1296.94,-320.55 1296.94,-307.24"/>
<polygon fill="#ff0000" stroke="#ff0000" points="1300.44,-307.18 1296.94,-297.18 1293.44,-307.18 1300.44,-307.18"/>
<text text-anchor="middle" x="1306.44" y="-318.8" font-family="Times,serif" font-size="14.00">yes</text>
</g>
<!-- 6 -->
<g id="node19" class="node">
<title>6</title>
<ellipse fill="none" stroke="black" cx="1625.94" cy="-279" rx="137.28" ry="18"/>
<text text-anchor="middle" x="1625.94" y="-275.3" font-family="Times,serif" font-size="14.00">regime_ema_spread&lt;&#45;0.182988867</text>
</g>
<!-- 2&#45;&gt;6 -->
<g id="edge18" class="edge">
<title>2&#45;&gt;6</title>
<path fill="none" stroke="#0000ff" d="M1355,-350C1411.45,-335.42 1497.19,-313.27 1557.05,-297.8"/>
<polygon fill="#0000ff" stroke="#0000ff" points="1557.99,-301.17 1566.8,-295.28 1556.24,-294.39 1557.99,-301.17"/>
<text text-anchor="middle" x="1513.94" y="-318.8" font-family="Times,serif" font-size="14.00">no, missing</text>
</g>
<!-- 7 -->
<g id="node6" class="node">
<title>7</title>
<ellipse fill="none" stroke="black" cx="285.94" cy="-192" rx="83.39" ry="18"/>
<text text-anchor="middle" x="285.94" y="-188.3" font-family="Times,serif" font-size="14.00">BBW&lt;0.167772084</text>
</g>
<!-- 3&#45;&gt;7 -->
<g id="edge5" class="edge">
<title>3&#45;&gt;7</title>
<path fill="none" stroke="#ff0000" d="M438.58,-262.01C407.7,-248.05 362.76,-227.73 329.63,-212.75"/>
<polygon fill="#ff0000" stroke="#ff0000" points="330.75,-209.42 320.19,-208.49 327.86,-215.8 330.75,-209.42"/>
<text text-anchor="middle" x="401.44" y="-231.8" font-family="Times,serif" font-size="14.00">yes</text>
</g>
<!-- 8 -->
<g id="node7" class="node">
<title>8</title>
<ellipse fill="none" stroke="black" cx="473.94" cy="-192" rx="87.18" ry="18"/>
<text text-anchor="middle" x="473.94" y="-188.3" font-family="Times,serif" font-size="14.00">leaf=&#45;0.00723118847</text>
</g>
<!-- 3&#45;&gt;8 -->
<g id="edge6" class="edge">
<title>3&#45;&gt;8</title>
<path fill="none" stroke="#0000ff" d="M473.94,-260.8C473.94,-249.16 473.94,-233.55 473.94,-220.24"/>
<polygon fill="#0000ff" stroke="#0000ff" points="477.44,-220.18 473.94,-210.18 470.44,-220.18 477.44,-220.18"/>
<text text-anchor="middle" x="505.94" y="-231.8" font-family="Times,serif" font-size="14.00">no, missing</text>
</g>
<!-- 9 -->
<g id="node12" class="node">
<title>9</title>
<ellipse fill="none" stroke="black" cx="661.94" cy="-192" rx="83.39" ry="18"/>
<text text-anchor="middle" x="661.94" y="-188.3" font-family="Times,serif" font-size="14.00">leaf=&#45;0.0571936332</text>
</g>
<!-- 4&#45;&gt;9 -->
<g id="edge11" class="edge">
<title>4&#45;&gt;9</title>
<path fill="none" stroke="#ff0000" d="M746.2,-261.21C730.28,-248.32 708.11,-230.38 690.51,-216.13"/>
<polygon fill="#ff0000" stroke="#ff0000" points="692.26,-213.04 682.29,-209.47 687.86,-218.48 692.26,-213.04"/>
<text text-anchor="middle" x="730.44" y="-231.8" font-family="Times,serif" font-size="14.00">yes</text>
</g>
<!-- 10 -->
<g id="node13" class="node">
<title>10</title>
<ellipse fill="none" stroke="black" cx="866.94" cy="-192" rx="103.98" ry="18"/>
<text text-anchor="middle" x="866.94" y="-188.3" font-family="Times,serif" font-size="14.00">MACD_Hist&lt;376.484375</text>
</g>
<!-- 4&#45;&gt;10 -->
<g id="edge12" class="edge">
<title>4&#45;&gt;10</title>
<path fill="none" stroke="#0000ff" d="M787.18,-260.8C802.19,-248.04 822.82,-230.5 839.34,-216.46"/>
<polygon fill="#0000ff" stroke="#0000ff" points="841.73,-219.03 847.08,-209.89 837.19,-213.7 841.73,-219.03"/>
<text text-anchor="middle" x="854.94" y="-231.8" font-family="Times,serif" font-size="14.00">no, missing</text>
</g>
<!-- 15 -->
<g id="node8" class="node">
<title>15</title>
<ellipse fill="none" stroke="black" cx="168.94" cy="-105" rx="87.99" ry="18"/>
<text text-anchor="middle" x="168.94" y="-101.3" font-family="Times,serif" font-size="14.00">MACD&lt;&#45;143.097534</text>
</g>
<!-- 7&#45;&gt;15 -->
<g id="edge7" class="edge">
<title>7&#45;&gt;15</title>
<path fill="none" stroke="#ff0000" d="M263.38,-174.61C245.37,-161.53 219.94,-143.05 200,-128.56"/>
<polygon fill="#ff0000" stroke="#ff0000" points="201.98,-125.67 191.83,-122.63 197.86,-131.34 201.98,-125.67"/>
<text text-anchor="middle" x="244.44" y="-144.8" font-family="Times,serif" font-size="14.00">yes</text>
</g>
<!-- 16 -->
<g id="node9" class="node">
<title>16</title>
<ellipse fill="none" stroke="black" cx="361.94" cy="-105" rx="87.18" ry="18"/>
<text text-anchor="middle" x="361.94" y="-101.3" font-family="Times,serif" font-size="14.00">leaf=&#45;0.00411559083</text>
</g>
<!-- 7&#45;&gt;16 -->
<g id="edge8" class="edge">
<title>7&#45;&gt;16</title>
<path fill="none" stroke="#0000ff" d="M300.96,-174.21C312.1,-161.75 327.45,-144.57 339.97,-130.57"/>
<polygon fill="#0000ff" stroke="#0000ff" points="342.9,-132.55 346.96,-122.76 337.68,-127.88 342.9,-132.55"/>
<text text-anchor="middle" x="360.94" y="-144.8" font-family="Times,serif" font-size="14.00">no, missing</text>
</g>
<!-- 25 -->
<g id="node10" class="node">
<title>25</title>
<ellipse fill="none" stroke="black" cx="79.94" cy="-18" rx="79.89" ry="18"/>
<text text-anchor="middle" x="79.94" y="-14.3" font-family="Times,serif" font-size="14.00">leaf=0.0732053965</text>
</g>
<!-- 15&#45;&gt;25 -->
<g id="edge9" class="edge">
<title>15&#45;&gt;25</title>
<path fill="none" stroke="#ff0000" d="M151.36,-87.21C138.07,-74.52 119.66,-56.93 104.86,-42.79"/>
<polygon fill="#ff0000" stroke="#ff0000" points="107.14,-40.13 97.49,-35.76 102.3,-45.2 107.14,-40.13"/>
<text text-anchor="middle" x="139.44" y="-57.8" font-family="Times,serif" font-size="14.00">yes</text>
</g>
<!-- 26 -->
<g id="node11" class="node">
<title>26</title>
<ellipse fill="none" stroke="black" cx="257.94" cy="-18" rx="79.89" ry="18"/>
<text text-anchor="middle" x="257.94" y="-14.3" font-family="Times,serif" font-size="14.00">leaf=0.0263563339</text>
</g>
<!-- 15&#45;&gt;26 -->
<g id="edge10" class="edge">
<title>15&#45;&gt;26</title>
<path fill="none" stroke="#0000ff" d="M186.53,-87.21C199.81,-74.52 218.23,-56.93 233.03,-42.79"/>
<polygon fill="#0000ff" stroke="#0000ff" points="235.58,-45.2 240.4,-35.76 230.75,-40.13 235.58,-45.2"/>
<text text-anchor="middle" x="250.94" y="-57.8" font-family="Times,serif" font-size="14.00">no, missing</text>
</g>
<!-- 17 -->
<g id="node14" class="node">
<title>17</title>
<ellipse fill="none" stroke="black" cx="674.94" cy="-105" rx="93.68" ry="18"/>
<text text-anchor="middle" x="674.94" y="-101.3" font-family="Times,serif" font-size="14.00">Vol_Chg&lt;0.101545803</text>
</g>
<!-- 10&#45;&gt;17 -->
<g id="edge13" class="edge">
<title>10&#45;&gt;17</title>
<path fill="none" stroke="#ff0000" d="M830.83,-175.01C799.35,-161.08 753.58,-140.81 719.77,-125.84"/>
<polygon fill="#ff0000" stroke="#ff0000" points="721.13,-122.62 710.57,-121.77 718.3,-129.02 721.13,-122.62"/>
<text text-anchor="middle" x="792.44" y="-144.8" font-family="Times,serif" font-size="14.00">yes</text>
</g>
<!-- 18 -->
<g id="node15" class="node">
<title>18</title>
<ellipse fill="none" stroke="black" cx="866.94" cy="-105" rx="79.89" ry="18"/>
<text text-anchor="middle" x="866.94" y="-101.3" font-family="Times,serif" font-size="14.00">leaf=0.0588414669</text>
</g>
<!-- 10&#45;&gt;18 -->
<g id="edge14" class="edge">
<title>10&#45;&gt;18</title>
<path fill="none" stroke="#0000ff" d="M866.94,-173.8C866.94,-162.16 866.94,-146.55 866.94,-133.24"/>
<polygon fill="#0000ff" stroke="#0000ff" points="870.44,-133.18 866.94,-123.18 863.44,-133.18 870.44,-133.18"/>
<text text-anchor="middle" x="898.94" y="-144.8" font-family="Times,serif" font-size="14.00">no, missing</text>
</g>
<!-- 27 -->
<g id="node16" class="node">
<title>27</title>
<ellipse fill="none" stroke="black" cx="583.94" cy="-18" rx="83.39" ry="18"/>
<text text-anchor="middle" x="583.94" y="-14.3" font-family="Times,serif" font-size="14.00">leaf=&#45;0.0101492768</text>
</g>
<!-- 17&#45;&gt;27 -->
<g id="edge15" class="edge">
<title>17&#45;&gt;27</title>
<path fill="none" stroke="#ff0000" d="M656.96,-87.21C643.38,-74.52 624.55,-56.93 609.41,-42.79"/>
<polygon fill="#ff0000" stroke="#ff0000" points="611.58,-40.03 601.88,-35.76 606.8,-45.14 611.58,-40.03"/>
<text text-anchor="middle" x="644.44" y="-57.8" font-family="Times,serif" font-size="14.00">yes</text>
</g>
<!-- 28 -->
<g id="node17" class="node">
<title>28</title>
<ellipse fill="none" stroke="black" cx="764.94" cy="-18" rx="79.89" ry="18"/>
<text text-anchor="middle" x="764.94" y="-14.3" font-family="Times,serif" font-size="14.00">leaf=0.0172179993</text>
</g>
<!-- 17&#45;&gt;28 -->
<g id="edge16" class="edge">
<title>17&#45;&gt;28</title>
<path fill="none" stroke="#0000ff" d="M692.72,-87.21C706.16,-74.52 724.78,-56.93 739.75,-42.79"/>
<polygon fill="#0000ff" stroke="#0000ff" points="742.33,-45.17 747.2,-35.76 737.53,-40.08 742.33,-45.17"/>
<text text-anchor="middle" x="757.94" y="-57.8" font-family="Times,serif" font-size="14.00">no, missing</text>
</g>
<!-- 11 -->
<g id="node20" class="node">
<title>11</title>
<ellipse fill="none" stroke="black" cx="1159.94" cy="-192" rx="94.78" ry="18"/>
<text text-anchor="middle" x="1159.94" y="-188.3" font-family="Times,serif" font-size="14.00">OBV&lt;7.70523136e+11</text>
</g>
<!-- 5&#45;&gt;11 -->
<g id="edge19" class="edge">
<title>5&#45;&gt;11</title>
<path fill="none" stroke="#ff0000" d="M1270.53,-261.61C1249.02,-248.26 1218.46,-229.31 1194.92,-214.7"/>
<polygon fill="#ff0000" stroke="#ff0000" points="1196.62,-211.64 1186.28,-209.34 1192.93,-217.58 1196.62,-211.64"/>
<text text-anchor="middle" x="1246.44" y="-231.8" font-family="Times,serif" font-size="14.00">yes</text>
</g>
<!-- 12 -->
<g id="node21" class="node">
<title>12</title>
<ellipse fill="none" stroke="black" cx="1352.94" cy="-192" rx="79.89" ry="18"/>
<text text-anchor="middle" x="1352.94" y="-188.3" font-family="Times,serif" font-size="14.00">leaf=0.0306227934</text>
</g>
<!-- 5&#45;&gt;12 -->
<g id="edge20" class="edge">
<title>5&#45;&gt;12</title>
<path fill="none" stroke="#0000ff" d="M1308.28,-260.8C1316.3,-248.62 1327.19,-232.09 1336.21,-218.4"/>
<polygon fill="#0000ff" stroke="#0000ff" points="1339.24,-220.16 1341.82,-209.89 1333.39,-216.31 1339.24,-220.16"/>
<text text-anchor="middle" x="1360.94" y="-231.8" font-family="Times,serif" font-size="14.00">no, missing</text>
</g>
<!-- 13 -->
<g id="node24" class="node">
<title>13</title>
<ellipse fill="none" stroke="black" cx="1625.94" cy="-192" rx="106.68" ry="18"/>
<text text-anchor="middle" x="1625.94" y="-188.3" font-family="Times,serif" font-size="14.00">D_EMA200&lt;0.710936964</text>
</g>
<!-- 6&#45;&gt;13 -->
<g id="edge23" class="edge">
<title>6&#45;&gt;13</title>
<path fill="none" stroke="#ff0000" d="M1625.94,-260.8C1625.94,-249.16 1625.94,-233.55 1625.94,-220.24"/>
<polygon fill="#ff0000" stroke="#ff0000" points="1629.44,-220.18 1625.94,-210.18 1622.44,-220.18 1629.44,-220.18"/>
<text text-anchor="middle" x="1635.44" y="-231.8" font-family="Times,serif" font-size="14.00">yes</text>
</g>
<!-- 14 -->
<g id="node25" class="node">
<title>14</title>
<ellipse fill="none" stroke="black" cx="2074.94" cy="-192" rx="137.28" ry="18"/>
<text text-anchor="middle" x="2074.94" y="-188.3" font-family="Times,serif" font-size="14.00">regime_ema_spread&lt;&#45;0.130656257</text>
</g>
<!-- 6&#45;&gt;14 -->
<g id="edge24" class="edge">
<title>6&#45;&gt;14</title>
<path fill="none" stroke="#0000ff" d="M1700.59,-263.87C1780.39,-248.76 1906.66,-224.86 1990.15,-209.05"/>
<polygon fill="#0000ff" stroke="#0000ff" points="1990.94,-212.46 2000.12,-207.17 1989.64,-205.59 1990.94,-212.46"/>
<text text-anchor="middle" x="1909.94" y="-231.8" font-family="Times,serif" font-size="14.00">no, missing</text>
</g>
<!-- 19 -->
<g id="node22" class="node">
<title>19</title>
<ellipse fill="none" stroke="black" cx="1048.94" cy="-105" rx="84.49" ry="18"/>
<text text-anchor="middle" x="1048.94" y="-101.3" font-family="Times,serif" font-size="14.00">leaf=0.00238180393</text>
</g>
<!-- 11&#45;&gt;19 -->
<g id="edge21" class="edge">
<title>11&#45;&gt;19</title>
<path fill="none" stroke="#ff0000" d="M1138.28,-174.41C1121.24,-161.36 1097.32,-143.05 1078.52,-128.65"/>
<polygon fill="#ff0000" stroke="#ff0000" points="1080.62,-125.85 1070.55,-122.55 1076.37,-131.41 1080.62,-125.85"/>
<text text-anchor="middle" x="1121.44" y="-144.8" font-family="Times,serif" font-size="14.00">yes</text>
</g>
<!-- 20 -->
<g id="node23" class="node">
<title>20</title>
<ellipse fill="none" stroke="black" cx="1234.94" cy="-105" rx="83.39" ry="18"/>
<text text-anchor="middle" x="1234.94" y="-101.3" font-family="Times,serif" font-size="14.00">leaf=&#45;0.0680948645</text>
</g>
<!-- 11&#45;&gt;20 -->
<g id="edge22" class="edge">
<title>11&#45;&gt;20</title>
<path fill="none" stroke="#0000ff" d="M1174.76,-174.21C1185.75,-161.75 1200.91,-144.57 1213.26,-130.57"/>
<polygon fill="#0000ff" stroke="#0000ff" points="1216.16,-132.57 1220.16,-122.76 1210.92,-127.94 1216.16,-132.57"/>
<text text-anchor="middle" x="1233.94" y="-144.8" font-family="Times,serif" font-size="14.00">no, missing</text>
</g>
<!-- 21 -->
<g id="node26" class="node">
<title>21</title>
<ellipse fill="none" stroke="black" cx="1469.94" cy="-105" rx="133.78" ry="18"/>
<text text-anchor="middle" x="1469.94" y="-101.3" font-family="Times,serif" font-size="14.00">regime_vol_trend&lt;0.00593745476</text>
</g>
<!-- 13&#45;&gt;21 -->
<g id="edge25" class="edge">
<title>13&#45;&gt;21</title>
<path fill="none" stroke="#ff0000" d="M1595.86,-174.61C1571.31,-161.23 1536.42,-142.22 1509.59,-127.6"/>
<polygon fill="#ff0000" stroke="#ff0000" points="1510.92,-124.34 1500.46,-122.63 1507.57,-130.49 1510.92,-124.34"/>
<text text-anchor="middle" x="1567.44" y="-144.8" font-family="Times,serif" font-size="14.00">yes</text>
</g>
<!-- 22 -->
<g id="node27" class="node">
<title>22</title>
<ellipse fill="none" stroke="black" cx="1753.94" cy="-105" rx="132.68" ry="18"/>
<text text-anchor="middle" x="1753.94" y="-101.3" font-family="Times,serif" font-size="14.00">regime_vol_trend&lt;&#45;0.0102440277</text>
</g>
<!-- 13&#45;&gt;22 -->
<g id="edge26" class="edge">
<title>13&#45;&gt;22</title>
<path fill="none" stroke="#0000ff" d="M1650.93,-174.41C1670.62,-161.33 1698.29,-142.96 1719.99,-128.55"/>
<polygon fill="#0000ff" stroke="#0000ff" points="1722.19,-131.29 1728.58,-122.84 1718.32,-125.46 1722.19,-131.29"/>
<text text-anchor="middle" x="1729.94" y="-144.8" font-family="Times,serif" font-size="14.00">no, missing</text>
</g>
<!-- 23 -->
<g id="node32" class="node">
<title>23</title>
<ellipse fill="none" stroke="black" cx="2074.94" cy="-105" rx="97.48" ry="18"/>
<text text-anchor="middle" x="2074.94" y="-101.3" font-family="Times,serif" font-size="14.00">Log_Ret&lt;0.0063851825</text>
</g>
<!-- 14&#45;&gt;23 -->
<g id="edge31" class="edge">
<title>14&#45;&gt;23</title>
<path fill="none" stroke="#ff0000" d="M2074.94,-173.8C2074.94,-162.16 2074.94,-146.55 2074.94,-133.24"/>
<polygon fill="#ff0000" stroke="#ff0000" points="2078.44,-133.18 2074.94,-123.18 2071.44,-133.18 2078.44,-133.18"/>
<text text-anchor="middle" x="2084.44" y="-144.8" font-family="Times,serif" font-size="14.00">yes</text>
</g>
<!-- 24 -->
<g id="node33" class="node">
<title>24</title>
<ellipse fill="none" stroke="black" cx="2379.94" cy="-105" rx="137.28" ry="18"/>
<text text-anchor="middle" x="2379.94" y="-101.3" font-family="Times,serif" font-size="14.00">regime_vol_trend&lt;&#45;0.00447376492</text>
</g>
<!-- 14&#45;&gt;24 -->
<g id="edge32" class="edge">
<title>14&#45;&gt;24</title>
<path fill="none" stroke="#0000ff" d="M2130.53,-175.51C2182.29,-161.08 2259.49,-139.57 2314.27,-124.3"/>
<polygon fill="#0000ff" stroke="#0000ff" points="2315.53,-127.58 2324.22,-121.53 2313.65,-120.84 2315.53,-127.58"/>
<text text-anchor="middle" x="2277.94" y="-144.8" font-family="Times,serif" font-size="14.00">no, missing</text>
</g>
<!-- 29 -->
<g id="node28" class="node">
<title>29</title>
<ellipse fill="none" stroke="black" cx="1288.94" cy="-18" rx="83.39" ry="18"/>
<text text-anchor="middle" x="1288.94" y="-14.3" font-family="Times,serif" font-size="14.00">leaf=&#45;0.0151705062</text>
</g>
<!-- 21&#45;&gt;29 -->
<g id="edge27" class="edge">
<title>21&#45;&gt;29</title>
<path fill="none" stroke="#ff0000" d="M1435.04,-87.61C1405.53,-73.75 1363.14,-53.84 1331.62,-39.04"/>
<polygon fill="#ff0000" stroke="#ff0000" points="1332.75,-35.7 1322.21,-34.62 1329.77,-42.04 1332.75,-35.7"/>
<text text-anchor="middle" x="1400.44" y="-57.8" font-family="Times,serif" font-size="14.00">yes</text>
</g>
<!-- 30 -->
<g id="node29" class="node">
<title>30</title>
<ellipse fill="none" stroke="black" cx="1469.94" cy="-18" rx="79.89" ry="18"/>
<text text-anchor="middle" x="1469.94" y="-14.3" font-family="Times,serif" font-size="14.00">leaf=0.0289802589</text>
</g>
<!-- 21&#45;&gt;30 -->
<g id="edge28" class="edge">
<title>21&#45;&gt;30</title>
<path fill="none" stroke="#0000ff" d="M1469.94,-86.8C1469.94,-75.16 1469.94,-59.55 1469.94,-46.24"/>
<polygon fill="#0000ff" stroke="#0000ff" points="1473.44,-46.18 1469.94,-36.18 1466.44,-46.18 1473.44,-46.18"/>
<text text-anchor="middle" x="1501.94" y="-57.8" font-family="Times,serif" font-size="14.00">no, missing</text>
</g>
<!-- 31 -->
<g id="node30" class="node">
<title>31</title>
<ellipse fill="none" stroke="black" cx="1654.94" cy="-18" rx="87.18" ry="18"/>
<text text-anchor="middle" x="1654.94" y="-14.3" font-family="Times,serif" font-size="14.00">leaf=&#45;0.00391302351</text>
</g>
<!-- 22&#45;&gt;31 -->
<g id="edge29" class="edge">
<title>22&#45;&gt;31</title>
<path fill="none" stroke="#ff0000" d="M1733.91,-86.8C1718.95,-73.96 1698.36,-56.27 1681.95,-42.19"/>
<polygon fill="#ff0000" stroke="#ff0000" points="1684.14,-39.46 1674.27,-35.6 1679.58,-44.77 1684.14,-39.46"/>
<text text-anchor="middle" x="1720.44" y="-57.8" font-family="Times,serif" font-size="14.00">yes</text>
</g>
<!-- 32 -->
<g id="node31" class="node">
<title>32</title>
<ellipse fill="none" stroke="black" cx="1842.94" cy="-18" rx="83.39" ry="18"/>
<text text-anchor="middle" x="1842.94" y="-14.3" font-family="Times,serif" font-size="14.00">leaf=&#45;0.0521809049</text>
</g>
<!-- 22&#45;&gt;32 -->
<g id="edge30" class="edge">
<title>22&#45;&gt;32</title>
<path fill="none" stroke="#0000ff" d="M1771.95,-86.8C1785.19,-74.16 1803.34,-56.82 1817.97,-42.85"/>
<polygon fill="#0000ff" stroke="#0000ff" points="1820.45,-45.32 1825.26,-35.89 1815.61,-40.26 1820.45,-45.32"/>
<text text-anchor="middle" x="1835.94" y="-57.8" font-family="Times,serif" font-size="14.00">no, missing</text>
</g>
<!-- 33 -->
<g id="node34" class="node">
<title>33</title>
<ellipse fill="none" stroke="black" cx="2023.94" cy="-18" rx="79.89" ry="18"/>
<text text-anchor="middle" x="2023.94" y="-14.3" font-family="Times,serif" font-size="14.00">leaf=0.0598839484</text>
</g>
<!-- 23&#45;&gt;33 -->
<g id="edge33" class="edge">
<title>23&#45;&gt;33</title>
<path fill="none" stroke="#ff0000" d="M2064.62,-86.8C2057.39,-74.74 2047.58,-58.4 2039.42,-44.79"/>
<polygon fill="#ff0000" stroke="#ff0000" points="2042.22,-42.66 2034.07,-35.89 2036.22,-46.26 2042.22,-42.66"/>
<text text-anchor="middle" x="2062.44" y="-57.8" font-family="Times,serif" font-size="14.00">yes</text>
</g>
<!-- 34 -->
<g id="node35" class="node">
<title>34</title>
<ellipse fill="none" stroke="black" cx="2201.94" cy="-18" rx="79.89" ry="18"/>
<text text-anchor="middle" x="2201.94" y="-14.3" font-family="Times,serif" font-size="14.00">leaf=0.0124978563</text>
</g>
<!-- 23&#45;&gt;34 -->
<g id="edge34" class="edge">
<title>23&#45;&gt;34</title>
<path fill="none" stroke="#0000ff" d="M2099.73,-87.41C2119.53,-74.16 2147.44,-55.48 2169.09,-40.99"/>
<polygon fill="#0000ff" stroke="#0000ff" points="2171.28,-43.73 2177.65,-35.26 2167.39,-37.91 2171.28,-43.73"/>
<text text-anchor="middle" x="2178.94" y="-57.8" font-family="Times,serif" font-size="14.00">no, missing</text>
</g>
<!-- 35 -->
<g id="node36" class="node">
<title>35</title>
<ellipse fill="none" stroke="black" cx="2379.94" cy="-18" rx="79.89" ry="18"/>
<text text-anchor="middle" x="2379.94" y="-14.3" font-family="Times,serif" font-size="14.00">leaf=0.0103514325</text>
</g>
<!-- 24&#45;&gt;35 -->
<g id="edge35" class="edge">
<title>24&#45;&gt;35</title>
<path fill="none" stroke="#ff0000" d="M2379.94,-86.8C2379.94,-75.16 2379.94,-59.55 2379.94,-46.24"/>
<polygon fill="#ff0000" stroke="#ff0000" points="2383.44,-46.18 2379.94,-36.18 2376.44,-46.18 2383.44,-46.18"/>
<text text-anchor="middle" x="2389.44" y="-57.8" font-family="Times,serif" font-size="14.00">yes</text>
</g>
<!-- 36 -->
<g id="node37" class="node">
<title>36</title>
<ellipse fill="none" stroke="black" cx="2564.94" cy="-18" rx="87.18" ry="18"/>
<text text-anchor="middle" x="2564.94" y="-14.3" font-family="Times,serif" font-size="14.00">leaf=&#45;0.00383995287</text>
</g>
<!-- 24&#45;&gt;36 -->
<g id="edge36" class="edge">
<title>24&#45;&gt;36</title>
<path fill="none" stroke="#0000ff" d="M2415.61,-87.61C2445.91,-73.69 2489.48,-53.67 2521.74,-38.85"/>
<polygon fill="#0000ff" stroke="#0000ff" points="2523.32,-41.98 2530.94,-34.62 2520.4,-35.62 2523.32,-41.98"/>
<text text-anchor="middle" x="2515.94" y="-57.8" font-family="Times,serif" font-size="14.00">no, missing</text>
</g>
</g>
</svg>
