<?xml version="1.0" encoding="UTF-8" standalone="no"?>
<!DOCTYPE svg PUBLIC "-//W3C//DTD SVG 1.1//EN"
 "http://www.w3.org/Graphics/SVG/1.1/DTD/svg11.dtd">
<!-- Generated by graphviz version 2.43.0 (0)
 -->
<!-- Title: %3 Pages: 1 -->
<svg width="2074pt" height="479pt"
 viewBox="0.00 0.00 2074.14 479.00" xmlns="http://www.w3.org/2000/svg" xmlns:xlink="http://www.w3.org/1999/xlink">
<g id="graph0" class="graph" transform="scale(1 1) rotate(0) translate(4 475)">
<title>%3</title>
<polygon fill="white" stroke="transparent" points="-4,4 -4,-475 2070.14,-475 2070.14,4 -4,4"/>
<!-- 0 -->
<g id="node1" class="node">
<title>0</title>
<ellipse fill="none" stroke="black" cx="1134.94" cy="-453" rx="74.99" ry="18"/>
<text text-anchor="middle" x="1134.94" y="-449.3" font-family="Times,serif" font-size="14.00">ATR&lt;3587.06567</text>
</g>
<!-- 1 -->
<g id="node2" class="node">
<title>1</title>
<ellipse fill="none" stroke="black" cx="848.94" cy="-366" rx="106.68" ry="18"/>
<text text-anchor="middle" x="848.94" y="-362.3" font-family="Times,serif" font-size="14.00">MACD_Hist&lt;&#45;751.830505</text>
</g>
<!-- 0&#45;&gt;1 -->
<g id="edge1" class="edge">
<title>0&#45;&gt;1</title>
<path fill="none" stroke="#ff0000" d="M1089.94,-438.63C1041.22,-424.14 963.25,-400.97 909.25,-384.92"/>
<polygon fill="#ff0000" stroke="#ff0000" points="910.05,-381.51 899.46,-382.01 908.05,-388.22 910.05,-381.51"/>
<text text-anchor="middle" x="1019.44" y="-405.8" font-family="Times,serif" font-size="14.00">yes</text>
</g>
<!-- 2 -->
<g id="node3" class="node">
<title>2</title>
<ellipse fill="none" stroke="black" cx="1444.94" cy="-366" rx="100.98" ry="18"/>
<text text-anchor="middle" x="1444.94" y="-362.3" font-family="Times,serif" font-size="14.00">Log_Ret&lt;&#45;0.0168436561</text>
</g>
<!-- 0&#45;&gt;2 -->
<g id="edge2" class="edge">
<title>0&#45;&gt;2</title>
<path fill="none" stroke="#0000ff" d="M1182.36,-439C1235.91,-424.31 1323.27,-400.36 1382.38,-384.15"/>
<polygon fill="#0000ff" stroke="#0000ff" points="1383.62,-387.44 1392.34,-381.42 1381.77,-380.69 1383.62,-387.44"/>
<text text-anchor="middle" x="1340.94" y="-405.8" font-family="Times,serif" font-size="14.00">no, missing</text>
</g>
<!-- 3 -->
<g id="node4" class="node">
<title>3</title>
<ellipse fill="none" stroke="black" cx="385.94" cy="-279" rx="118.88" ry="18"/>
<text text-anchor="middle" x="385.94" y="-275.3" font-family="Times,serif" font-size="14.00">regime_vol_ratio&lt;1.00952971</text>
</g>
<!-- 1&#45;&gt;3 -->
<g id="edge3" class="edge">
<title>1&#45;&gt;3</title>
<path fill="none" stroke="#ff0000" d="M779.63,-352.27C696.43,-337 557.08,-311.42 468.42,-295.14"/>
<polygon fill="#ff0000" stroke="#ff0000" points="468.87,-291.67 458.41,-293.3 467.61,-298.55 468.87,-291.67"/>
<text text-anchor="middle" x="655.44" y="-318.8" font-family="Times,serif" font-size="14.00">yes</text>
</g>
<!-- 4 -->
<g id="node5" class="node">
<title>4</title>
<ellipse fill="none" stroke="black" cx="848.94" cy="-279" rx="106.68" ry="18"/>
<text text-anchor="middle" x="848.94" y="-275.3" font-family="Times,serif" font-size="14.00">MACD_Hist&lt;&#45;685.197266</text>
</g>
<!-- 1&#45;&gt;4 -->
<g id="edge4" class="edge">
<title>1&#45;&gt;4</title>
<path fill="none" stroke="#0000ff" d="M848.94,-347.8C848.94,-336.16 848.94,-320.55 848.94,-307.24"/>
<polygon fill="#0000ff" stroke="#0000ff" points="852.44,-307.18 848.94,-297.18 845.44,-307.18 852.44,-307.18"/>
<text text-anchor="middle" x="880.94" y="-318.8" font-family="Times,serif" font-size="14.00">no, missing</text>
</g>
<!-- 5 -->
<g id="node22" class="node">
<title>5</title>
<ellipse fill="none" stroke="black" cx="1444.94" cy="-279" rx="102.08" ry="18"/>
<text text-anchor="middle" x="1444.94" y="-275.3" font-family="Times,serif" font-size="14.00">D_EMA20&lt;0.977384627</text>
</g>
<!-- 2&#45;&gt;5 -->
<g id="edge21" class="edge">
<title>2&#45;&gt;5</title>
<path fill="none" stroke="#ff0000" d="M1444.94,-347.8C1444.94,-336.16 1444.94,-320.55 1444.94,-307.24"/>
<polygon fill="#ff0000" stroke="#ff0000" points="1448.44,-307.18 1444.94,-297.18 1441.44,-307.18 1448.44,-307.18"/>
<text text-anchor="middle" x="1454.44" y="-318.8" font-family="Times,serif" font-size="14.00">yes</text>
</g>
<!-- 6 -->
<g id="node23" class="node">
<title>6</title>
<ellipse fill="none" stroke="black" cx="1698.94" cy="-279" rx="94.78" ry="18"/>
<text text-anchor="middle" x="1698.94" y="-275.3" font-family="Times,serif" font-size="14.00">OBV&lt;1.26350223e+12</text>
</g>
<!-- 2&#45;&gt;6 -->
<g id="edge22" class="edge">
<title>2&#45;&gt;6</title>
<path fill="none" stroke="#0000ff" d="M1490.06,-349.9C1533.31,-335.43 1598.66,-313.56 1644.72,-298.14"/>
<polygon fill="#0000ff" stroke="#0000ff" points="1645.87,-301.45 1654.25,-294.96 1643.65,-294.81 1645.87,-301.45"/>
<text text-anchor="middle" x="1619.94" y="-318.8" font-family="Times,serif" font-size="14.00">no, missing</text>
</g>
<!-- 7 -->
<g id="node6" class="node">
<title>7</title>
<ellipse fill="none" stroke="black" cx="182.94" cy="-192" rx="83.39" ry="18"/>
<text text-anchor="middle" x="182.94" y="-188.3" font-family="Times,serif" font-size="14.00">leaf=&#45;0.0219578724</text>
</g>
<!-- 3&#45;&gt;7 -->
<g id="edge5" class="edge">
<title>3&#45;&gt;7</title>
<path fill="none" stroke="#ff0000" d="M347.28,-261.81C313.49,-247.66 264.38,-227.1 228.65,-212.14"/>
<polygon fill="#ff0000" stroke="#ff0000" points="229.99,-208.9 219.41,-208.27 227.28,-215.36 229.99,-208.9"/>
<text text-anchor="middle" x="306.44" y="-231.8" font-family="Times,serif" font-size="14.00">yes</text>
</g>
<!-- 8 -->
<g id="node7" class="node">
<title>8</title>
<ellipse fill="none" stroke="black" cx="385.94" cy="-192" rx="102.08" ry="18"/>
<text text-anchor="middle" x="385.94" y="-188.3" font-family="Times,serif" font-size="14.00">D_EMA20&lt;0.960063517</text>
</g>
<!-- 3&#45;&gt;8 -->
<g id="edge6" class="edge">
<title>3&#45;&gt;8</title>
<path fill="none" stroke="#0000ff" d="M385.94,-260.8C385.94,-249.16 385.94,-233.55 385.94,-220.24"/>
<polygon fill="#0000ff" stroke="#0000ff" points="389.44,-220.18 385.94,-210.18 382.44,-220.18 389.44,-220.18"/>
<text text-anchor="middle" x="417.94" y="-231.8" font-family="Times,serif" font-size="14.00">no, missing</text>
</g>
<!-- 9 -->
<g id="node12" class="node">
<title>9</title>
<ellipse fill="none" stroke="black" cx="755.94" cy="-192" rx="92.88" ry="18"/>
<text text-anchor="middle" x="755.94" y="-188.3" font-family="Times,serif" font-size="14.00">Day_Sin&lt;0.781831503</text>
</g>
<!-- 4&#45;&gt;9 -->
<g id="edge11" class="edge">
<title>4&#45;&gt;9</title>
<path fill="none" stroke="#ff0000" d="M830.57,-261.21C816.69,-248.52 797.44,-230.93 781.97,-216.79"/>
<polygon fill="#ff0000" stroke="#ff0000" points="784.02,-213.92 774.28,-209.76 779.3,-219.09 784.02,-213.92"/>
<text text-anchor="middle" x="818.44" y="-231.8" font-family="Times,serif" font-size="14.00">yes</text>
</g>
<!-- 10 -->
<g id="node13" class="node">
<title>10</title>
<ellipse fill="none" stroke="black" cx="961.94" cy="-192" rx="71.49" ry="18"/>
<text text-anchor="middle" x="961.94" y="-188.3" font-family="Times,serif" font-size="14.00">RSI&lt;37.2837715</text>
</g>
<!-- 4&#45;&gt;10 -->
<g id="edge12" class="edge">
<title>4&#45;&gt;10</title>
<path fill="none" stroke="#0000ff" d="M871.27,-261.21C888.75,-248.06 913.22,-229.65 932.34,-215.27"/>
<polygon fill="#0000ff" stroke="#0000ff" points="934.54,-217.99 940.43,-209.18 930.34,-212.4 934.54,-217.99"/>
<text text-anchor="middle" x="944.94" y="-231.8" font-family="Times,serif" font-size="14.00">no, missing</text>
</g>
<!-- 15 -->
<g id="node8" class="node">
<title>15</title>
<ellipse fill="none" stroke="black" cx="168.94" cy="-105" rx="114.28" ry="18"/>
<text text-anchor="middle" x="168.94" y="-101.3" font-family="Times,serif" font-size="14.00">regime_vol_ratio&lt;1.0386951</text>
</g>
<!-- 8&#45;&gt;15 -->
<g id="edge7" class="edge">
<title>8&#45;&gt;15</title>
<path fill="none" stroke="#ff0000" d="M346.14,-175.41C310.39,-161.4 257.72,-140.77 219.09,-125.64"/>
<polygon fill="#ff0000" stroke="#ff0000" points="220.18,-122.31 209.6,-121.92 217.63,-128.83 220.18,-122.31"/>
<text text-anchor="middle" x="300.44" y="-144.8" font-family="Times,serif" font-size="14.00">yes</text>
</g>
<!-- 16 -->
<g id="node9" class="node">
<title>16</title>
<ellipse fill="none" stroke="black" cx="385.94" cy="-105" rx="84.49" ry="18"/>
<text text-anchor="middle" x="385.94" y="-101.3" font-family="Times,serif" font-size="14.00">leaf=0.00276952819</text>
</g>
<!-- 8&#45;&gt;16 -->
<g id="edge8" class="edge">
<title>8&#45;&gt;16</title>
<path fill="none" stroke="#0000ff" d="M385.94,-173.8C385.94,-162.16 385.94,-146.55 385.94,-133.24"/>
<polygon fill="#0000ff" stroke="#0000ff" points="389.44,-133.18 385.94,-123.18 382.44,-133.18 389.44,-133.18"/>
<text text-anchor="middle" x="417.94" y="-144.8" font-family="Times,serif" font-size="14.00">no, missing</text>
</g>
<!-- 25 -->
<g id="node10" class="node">
<title>25</title>
<ellipse fill="none" stroke="black" cx="79.94" cy="-18" rx="79.89" ry="18"/>
<text text-anchor="middle" x="79.94" y="-14.3" font-family="Times,serif" font-size="14.00">leaf=0.0155380163</text>
</g>
<!-- 15&#45;&gt;25 -->
<g id="edge9" class="edge">
<title>15&#45;&gt;25</title>
<path fill="none" stroke="#ff0000" d="M151.36,-87.21C138.07,-74.52 119.66,-56.93 104.86,-42.79"/>
<polygon fill="#ff0000" stroke="#ff0000" points="107.14,-40.13 97.49,-35.76 102.3,-45.2 107.14,-40.13"/>
<text text-anchor="middle" x="139.44" y="-57.8" font-family="Times,serif" font-size="14.00">yes</text>
</g>
<!-- 26 -->
<g id="node11" class="node">
<title>26</title>
<ellipse fill="none" stroke="black" cx="257.94" cy="-18" rx="79.89" ry="18"/>
<text text-anchor="middle" x="257.94" y="-14.3" font-family="Times,serif" font-size="14.00">leaf=0.0667603835</text>
</g>
<!-- 15&#45;&gt;26 -->
<g id="edge10" class="edge">
<title>15&#45;&gt;26</title>
<path fill="none" stroke="#0000ff" d="M186.53,-87.21C199.81,-74.52 218.23,-56.93 233.03,-42.79"/>
<polygon fill="#0000ff" stroke="#0000ff" points="235.58,-45.2 240.4,-35.76 230.75,-40.13 235.58,-45.2"/>
<text text-anchor="middle" x="250.94" y="-57.8" font-family="Times,serif" font-size="14.00">no, missing</text>
</g>
<!-- 17 -->
<g id="node14" class="node">
<title>17</title>
<ellipse fill="none" stroke="black" cx="571.94" cy="-105" rx="83.39" ry="18"/>
<text text-anchor="middle" x="571.94" y="-101.3" font-family="Times,serif" font-size="14.00">leaf=&#45;0.0092682438</text>
</g>
<!-- 9&#45;&gt;17 -->
<g id="edge13" class="edge">
<title>9&#45;&gt;17</title>
<path fill="none" stroke="#ff0000" d="M721.77,-175.21C691.59,-161.27 647.46,-140.89 614.9,-125.85"/>
<polygon fill="#ff0000" stroke="#ff0000" points="616.17,-122.58 605.63,-121.56 613.24,-128.93 616.17,-122.58"/>
<text text-anchor="middle" x="685.44" y="-144.8" font-family="Times,serif" font-size="14.00">yes</text>
</g>
<!-- 18 -->
<g id="node15" class="node">
<title>18</title>
<ellipse fill="none" stroke="black" cx="755.94" cy="-105" rx="83.39" ry="18"/>
<text text-anchor="middle" x="755.94" y="-101.3" font-family="Times,serif" font-size="14.00">leaf=&#45;0.0569973402</text>
</g>
<!-- 9&#45;&gt;18 -->
<g id="edge14" class="edge">
<title>9&#45;&gt;18</title>
<path fill="none" stroke="#0000ff" d="M755.94,-173.8C755.94,-162.16 755.94,-146.55 755.94,-133.24"/>
<polygon fill="#0000ff" stroke="#0000ff" points="759.44,-133.18 755.94,-123.18 752.44,-133.18 759.44,-133.18"/>
<text text-anchor="middle" x="787.94" y="-144.8" font-family="Times,serif" font-size="14.00">no, missing</text>
</g>
<!-- 19 -->
<g id="node16" class="node">
<title>19</title>
<ellipse fill="none" stroke="black" cx="961.94" cy="-105" rx="104.78" ry="18"/>
<text text-anchor="middle" x="961.94" y="-101.3" font-family="Times,serif" font-size="14.00">Log_Ret&lt;&#45;0.00360374711</text>
</g>
<!-- 10&#45;&gt;19 -->
<g id="edge15" class="edge">
<title>10&#45;&gt;19</title>
<path fill="none" stroke="#ff0000" d="M961.94,-173.8C961.94,-162.16 961.94,-146.55 961.94,-133.24"/>
<polygon fill="#ff0000" stroke="#ff0000" points="965.44,-133.18 961.94,-123.18 958.44,-133.18 965.44,-133.18"/>
<text text-anchor="middle" x="971.44" y="-144.8" font-family="Times,serif" font-size="14.00">yes</text>
</g>
<!-- 20 -->
<g id="node17" class="node">
<title>20</title>
<ellipse fill="none" stroke="black" cx="1155.94" cy="-105" rx="71.49" ry="18"/>
<text text-anchor="middle" x="1155.94" y="-101.3" font-family="Times,serif" font-size="14.00">RSI&lt;38.7029076</text>
</g>
<!-- 10&#45;&gt;20 -->
<g id="edge16" class="edge">
<title>10&#45;&gt;20</title>
<path fill="none" stroke="#0000ff" d="M996.18,-176C1028.59,-161.8 1077.39,-140.42 1112.53,-125.02"/>
<polygon fill="#0000ff" stroke="#0000ff" points="1114.29,-128.07 1122.05,-120.85 1111.48,-121.66 1114.29,-128.07"/>
<text text-anchor="middle" x="1102.94" y="-144.8" font-family="Times,serif" font-size="14.00">no, missing</text>
</g>
<!-- 27 -->
<g id="node18" class="node">
<title>27</title>
<ellipse fill="none" stroke="black" cx="771.94" cy="-18" rx="91.78" ry="18"/>
<text text-anchor="middle" x="771.94" y="-14.3" font-family="Times,serif" font-size="14.00">leaf=&#45;0.000328569411</text>
</g>
<!-- 19&#45;&gt;27 -->
<g id="edge17" class="edge">
<title>19&#45;&gt;27</title>
<path fill="none" stroke="#ff0000" d="M926.21,-88.01C895.19,-74.14 850.14,-53.98 816.73,-39.04"/>
<polygon fill="#ff0000" stroke="#ff0000" points="817.76,-35.66 807.2,-34.77 814.9,-42.05 817.76,-35.66"/>
<text text-anchor="middle" x="888.44" y="-57.8" font-family="Times,serif" font-size="14.00">yes</text>
</g>
<!-- 28 -->
<g id="node19" class="node">
<title>28</title>
<ellipse fill="none" stroke="black" cx="961.94" cy="-18" rx="79.89" ry="18"/>
<text text-anchor="middle" x="961.94" y="-14.3" font-family="Times,serif" font-size="14.00">leaf=0.0314017795</text>
</g>
<!-- 19&#45;&gt;28 -->
<g id="edge18" class="edge">
<title>19&#45;&gt;28</title>
<path fill="none" stroke="#0000ff" d="M961.94,-86.8C961.94,-75.16 961.94,-59.55 961.94,-46.24"/>
<polygon fill="#0000ff" stroke="#0000ff" points="965.44,-46.18 961.94,-36.18 958.44,-46.18 965.44,-46.18"/>
<text text-anchor="middle" x="993.94" y="-57.8" font-family="Times,serif" font-size="14.00">no, missing</text>
</g>
<!-- 29 -->
<g id="node20" class="node">
<title>29</title>
<ellipse fill="none" stroke="black" cx="1142.94" cy="-18" rx="83.39" ry="18"/>
<text text-anchor="middle" x="1142.94" y="-14.3" font-family="Times,serif" font-size="14.00">leaf=&#45;0.0387791879</text>
</g>
<!-- 20&#45;&gt;29 -->
<g id="edge19" class="edge">
<title>20&#45;&gt;29</title>
<path fill="none" stroke="#ff0000" d="M1153.31,-86.8C1151.53,-75.16 1149.14,-59.55 1147.11,-46.24"/>
<polygon fill="#ff0000" stroke="#ff0000" points="1150.54,-45.53 1145.57,-36.18 1143.62,-46.59 1150.54,-45.53"/>
<text text-anchor="middle" x="1160.44" y="-57.8" font-family="Times,serif" font-size="14.00">yes</text>
</g>
<!-- 30 -->
<g id="node21" class="node">
<title>30</title>
<ellipse fill="none" stroke="black" cx="1332.94" cy="-18" rx="89.08" ry="18"/>
<text text-anchor="middle" x="1332.94" y="-14.3" font-family="Times,serif" font-size="14.00">leaf=0.000303004868</text>
</g>
<!-- 20&#45;&gt;30 -->
<g id="edge20" class="edge">
<title>20&#45;&gt;30</title>
<path fill="none" stroke="#0000ff" d="M1187.59,-88.8C1216.46,-74.94 1259.33,-54.35 1291.03,-39.13"/>
<polygon fill="#0000ff" stroke="#0000ff" points="1292.57,-42.27 1300.07,-34.78 1289.54,-35.96 1292.57,-42.27"/>
<text text-anchor="middle" x="1287.94" y="-57.8" font-family="Times,serif" font-size="14.00">no, missing</text>
</g>
<!-- 11 -->
<g id="node24" class="node">
<title>11</title>
<ellipse fill="none" stroke="black" cx="1328.94" cy="-192" rx="96.38" ry="18"/>
<text text-anchor="middle" x="1328.94" y="-188.3" font-family="Times,serif" font-size="14.00">Day_Sin&lt;&#45;0.433883727</text>
</g>
<!-- 5&#45;&gt;11 -->
<g id="edge23" class="edge">
<title>5&#45;&gt;11</title>
<path fill="none" stroke="#ff0000" d="M1422.3,-261.41C1404.5,-248.36 1379.5,-230.05 1359.86,-215.65"/>
<polygon fill="#ff0000" stroke="#ff0000" points="1361.66,-212.64 1351.53,-209.55 1357.52,-218.28 1361.66,-212.64"/>
<text text-anchor="middle" x="1403.44" y="-231.8" font-family="Times,serif" font-size="14.00">yes</text>
</g>
<!-- 12 -->
<g id="node25" class="node">
<title>12</title>
<ellipse fill="none" stroke="black" cx="1518.94" cy="-192" rx="75.29" ry="18"/>
<text text-anchor="middle" x="1518.94" y="-188.3" font-family="Times,serif" font-size="14.00">leaf=0.053021457</text>
</g>
<!-- 5&#45;&gt;12 -->
<g id="edge24" class="edge">
<title>5&#45;&gt;12</title>
<path fill="none" stroke="#0000ff" d="M1459.92,-260.8C1470.72,-248.39 1485.46,-231.46 1497.51,-217.62"/>
<polygon fill="#0000ff" stroke="#0000ff" points="1500.32,-219.73 1504.24,-209.89 1495.04,-215.13 1500.32,-219.73"/>
<text text-anchor="middle" x="1518.94" y="-231.8" font-family="Times,serif" font-size="14.00">no, missing</text>
</g>
<!-- 13 -->
<g id="node30" class="node">
<title>13</title>
<ellipse fill="none" stroke="black" cx="1698.94" cy="-192" rx="87.18" ry="18"/>
<text text-anchor="middle" x="1698.94" y="-188.3" font-family="Times,serif" font-size="14.00">leaf=&#45;0.00160864647</text>
</g>
<!-- 6&#45;&gt;13 -->
<g id="edge29" class="edge">
<title>6&#45;&gt;13</title>
<path fill="none" stroke="#ff0000" d="M1698.94,-260.8C1698.94,-249.16 1698.94,-233.55 1698.94,-220.24"/>
<polygon fill="#ff0000" stroke="#ff0000" points="1702.44,-220.18 1698.94,-210.18 1695.44,-220.18 1702.44,-220.18"/>
<text text-anchor="middle" x="1708.44" y="-231.8" font-family="Times,serif" font-size="14.00">yes</text>
</g>
<!-- 14 -->
<g id="node31" class="node">
<title>14</title>
<ellipse fill="none" stroke="black" cx="1886.94" cy="-192" rx="83.39" ry="18"/>
<text text-anchor="middle" x="1886.94" y="-188.3" font-family="Times,serif" font-size="14.00">BBW&lt;0.289337903</text>
</g>
<!-- 6&#45;&gt;14 -->
<g id="edge30" class="edge">
<title>6&#45;&gt;14</title>
<path fill="none" stroke="#0000ff" d="M1733.86,-262.21C1764.69,-248.27 1809.78,-227.89 1843.05,-212.85"/>
<polygon fill="#0000ff" stroke="#0000ff" points="1844.86,-215.87 1852.53,-208.56 1841.97,-209.49 1844.86,-215.87"/>
<text text-anchor="middle" x="1836.94" y="-231.8" font-family="Times,serif" font-size="14.00">no, missing</text>
</g>
<!-- 21 -->
<g id="node26" class="node">
<title>21</title>
<ellipse fill="none" stroke="black" cx="1328.94" cy="-105" rx="79.89" ry="18"/>
<text text-anchor="middle" x="1328.94" y="-101.3" font-family="Times,serif" font-size="14.00">leaf=0.0231190678</text>
</g>
<!-- 11&#45;&gt;21 -->
<g id="edge25" class="edge">
<title>11&#45;&gt;21</title>
<path fill="none" stroke="#ff0000" d="M1328.94,-173.8C1328.94,-162.16 1328.94,-146.55 1328.94,-133.24"/>
<polygon fill="#ff0000" stroke="#ff0000" points="1332.44,-133.18 1328.94,-123.18 1325.44,-133.18 1332.44,-133.18"/>
<text text-anchor="middle" x="1338.44" y="-144.8" font-family="Times,serif" font-size="14.00">yes</text>
</g>
<!-- 22 -->
<g id="node27" class="node">
<title>22</title>
<ellipse fill="none" stroke="black" cx="1522.94" cy="-105" rx="74.99" ry="18"/>
<text text-anchor="middle" x="1522.94" y="-101.3" font-family="Times,serif" font-size="14.00">ATR&lt;4148.49854</text>
</g>
<!-- 11&#45;&gt;22 -->
<g id="edge26" class="edge">
<title>11&#45;&gt;22</title>
<path fill="none" stroke="#0000ff" d="M1364.98,-175.21C1397.23,-161.08 1444.6,-140.32 1479.05,-125.23"/>
<polygon fill="#0000ff" stroke="#0000ff" points="1480.65,-128.35 1488.4,-121.13 1477.84,-121.94 1480.65,-128.35"/>
<text text-anchor="middle" x="1469.94" y="-144.8" font-family="Times,serif" font-size="14.00">no, missing</text>
</g>
<!-- 31 -->
<g id="node28" class="node">
<title>31</title>
<ellipse fill="none" stroke="black" cx="1522.94" cy="-18" rx="83.39" ry="18"/>
<text text-anchor="middle" x="1522.94" y="-14.3" font-family="Times,serif" font-size="14.00">leaf=&#45;0.0447550043</text>
</g>
<!-- 22&#45;&gt;31 -->
<g id="edge27" class="edge">
<title>22&#45;&gt;31</title>
<path fill="none" stroke="#ff0000" d="M1522.94,-86.8C1522.94,-75.16 1522.94,-59.55 1522.94,-46.24"/>
<polygon fill="#ff0000" stroke="#ff0000" points="1526.44,-46.18 1522.94,-36.18 1519.44,-46.18 1526.44,-46.18"/>
<text text-anchor="middle" x="1532.44" y="-57.8" font-family="Times,serif" font-size="14.00">yes</text>
</g>
<!-- 32 -->
<g id="node29" class="node">
<title>32</title>
<ellipse fill="none" stroke="black" cx="1708.94" cy="-18" rx="84.49" ry="18"/>
<text text-anchor="middle" x="1708.94" y="-14.3" font-family="Times,serif" font-size="14.00">leaf=0.00158533105</text>
</g>
<!-- 22&#45;&gt;32 -->
<g id="edge28" class="edge">
<title>22&#45;&gt;32</title>
<path fill="none" stroke="#0000ff" d="M1556.2,-88.8C1586.72,-74.85 1632.15,-54.09 1665.53,-38.84"/>
<polygon fill="#0000ff" stroke="#0000ff" points="1667.39,-41.84 1675.04,-34.5 1664.49,-35.47 1667.39,-41.84"/>
<text text-anchor="middle" x="1659.94" y="-57.8" font-family="Times,serif" font-size="14.00">no, missing</text>
</g>
<!-- 23 -->
<g id="node32" class="node">
<title>23</title>
<ellipse fill="none" stroke="black" cx="1794.94" cy="-105" rx="87.18" ry="18"/>
<text text-anchor="middle" x="1794.94" y="-101.3" font-family="Times,serif" font-size="14.00">leaf=&#45;0.00931724627</text>
</g>
<!-- 14&#45;&gt;23 -->
<g id="edge31" class="edge">
<title>14&#45;&gt;23</title>
<path fill="none" stroke="#ff0000" d="M1868.77,-174.21C1855.03,-161.52 1836,-143.93 1820.69,-129.79"/>
<polygon fill="#ff0000" stroke="#ff0000" points="1822.8,-126.97 1813.08,-122.76 1818.05,-132.12 1822.8,-126.97"/>
<text text-anchor="middle" x="1856.44" y="-144.8" font-family="Times,serif" font-size="14.00">yes</text>
</g>
<!-- 24 -->
<g id="node33" class="node">
<title>24</title>
<ellipse fill="none" stroke="black" cx="1982.94" cy="-105" rx="83.39" ry="18"/>
<text text-anchor="middle" x="1982.94" y="-101.3" font-family="Times,serif" font-size="14.00">leaf=&#45;0.0693483502</text>
</g>
<!-- 14&#45;&gt;24 -->
<g id="edge32" class="edge">
<title>14&#45;&gt;24</title>
<path fill="none" stroke="#0000ff" d="M1905.91,-174.21C1920.37,-161.4 1940.47,-143.61 1956.51,-129.4"/>
<polygon fill="#0000ff" stroke="#0000ff" points="1958.85,-132.01 1964.02,-122.76 1954.21,-126.77 1958.85,-132.01"/>
<text text-anchor="middle" x="1971.94" y="-144.8" font-family="Times,serif" font-size="14.00">no, missing</text>
</g>
</g>
</svg>
