<?xml version="1.0" encoding="UTF-8" standalone="no"?>
<!DOCTYPE svg PUBLIC "-//W3C//DTD SVG 1.1//EN"
 "http://www.w3.org/Graphics/SVG/1.1/DTD/svg11.dtd">
<!-- Generated by graphviz version 2.43.0 (0)
 -->
<!-- Title: %3 Pages: 1 -->
<svg width="2563pt" height="479pt"
 viewBox="0.00 0.00 2563.13 479.00" xmlns="http://www.w3.org/2000/svg" xmlns:xlink="http://www.w3.org/1999/xlink">
<g id="graph0" class="graph" transform="scale(1 1) rotate(0) translate(4 475)">
<title>%3</title>
<polygon fill="white" stroke="transparent" points="-4,4 -4,-475 2559.13,-475 2559.13,4 -4,4"/>
<!-- 0 -->
<g id="node1" class="node">
<title>0</title>
<ellipse fill="none" stroke="black" cx="1690.04" cy="-453" rx="103.98" ry="18"/>
<text text-anchor="middle" x="1690.04" y="-449.3" font-family="Times,serif" font-size="14.00">MACD_Hist&lt;1139.34351</text>
</g>
<!-- 1 -->
<g id="node2" class="node">
<title>1</title>
<ellipse fill="none" stroke="black" cx="1582.04" cy="-366" rx="83.39" ry="18"/>
<text text-anchor="middle" x="1582.04" y="-362.3" font-family="Times,serif" font-size="14.00">BBW&lt;0.428937346</text>
</g>
<!-- 0&#45;&gt;1 -->
<g id="edge1" class="edge">
<title>0&#45;&gt;1</title>
<path fill="none" stroke="#ff0000" d="M1668.7,-435.21C1652.18,-422.2 1629.12,-404.05 1610.94,-389.74"/>
<polygon fill="#ff0000" stroke="#ff0000" points="1612.99,-386.9 1602.97,-383.47 1608.66,-392.4 1612.99,-386.9"/>
<text text-anchor="middle" x="1652.54" y="-405.8" font-family="Times,serif" font-size="14.00">yes</text>
</g>
<!-- 2 -->
<g id="node3" class="node">
<title>2</title>
<ellipse fill="none" stroke="black" cx="1799.04" cy="-366" rx="100.18" ry="18"/>
<text text-anchor="middle" x="1799.04" y="-362.3" font-family="Times,serif" font-size="14.00">regime_adx&lt;28.5574455</text>
</g>
<!-- 0&#45;&gt;2 -->
<g id="edge2" class="edge">
<title>0&#45;&gt;2</title>
<path fill="none" stroke="#0000ff" d="M1711.58,-435.21C1728.15,-422.28 1751.23,-404.28 1769.53,-390.02"/>
<polygon fill="#0000ff" stroke="#0000ff" points="1771.82,-392.67 1777.55,-383.76 1767.51,-387.15 1771.82,-392.67"/>
<text text-anchor="middle" x="1784.04" y="-405.8" font-family="Times,serif" font-size="14.00">no, missing</text>
</g>
<!-- 3 -->
<g id="node4" class="node">
<title>3</title>
<ellipse fill="none" stroke="black" cx="1102.04" cy="-279" rx="85.29" ry="18"/>
<text text-anchor="middle" x="1102.04" y="-275.3" font-family="Times,serif" font-size="14.00">MACD&lt;2427.72607</text>
</g>
<!-- 1&#45;&gt;3 -->
<g id="edge3" class="edge">
<title>1&#45;&gt;3</title>
<path fill="none" stroke="#ff0000" d="M1519.78,-353.97C1431.18,-338.29 1269.06,-309.58 1174.96,-292.91"/>
<polygon fill="#ff0000" stroke="#ff0000" points="1175.41,-289.44 1164.95,-291.14 1174.19,-296.33 1175.41,-289.44"/>
<text text-anchor="middle" x="1380.54" y="-318.8" font-family="Times,serif" font-size="14.00">yes</text>
</g>
<!-- 4 -->
<g id="node5" class="node">
<title>4</title>
<ellipse fill="none" stroke="black" cx="1582.04" cy="-279" rx="111.58" ry="18"/>
<text text-anchor="middle" x="1582.04" y="-275.3" font-family="Times,serif" font-size="14.00">MACD_Signal&lt;1154.36694</text>
</g>
<!-- 1&#45;&gt;4 -->
<g id="edge4" class="edge">
<title>1&#45;&gt;4</title>
<path fill="none" stroke="#0000ff" d="M1582.04,-347.8C1582.04,-336.16 1582.04,-320.55 1582.04,-307.24"/>
<polygon fill="#0000ff" stroke="#0000ff" points="1585.54,-307.18 1582.04,-297.18 1578.54,-307.18 1585.54,-307.18"/>
<text text-anchor="middle" x="1614.04" y="-318.8" font-family="Times,serif" font-size="14.00">no, missing</text>
</g>
<!-- 5 -->
<g id="node32" class="node">
<title>5</title>
<ellipse fill="none" stroke="black" cx="1799.04" cy="-279" rx="87.18" ry="18"/>
<text text-anchor="middle" x="1799.04" y="-275.3" font-family="Times,serif" font-size="14.00">leaf=&#45;0.00390629051</text>
</g>
<!-- 2&#45;&gt;5 -->
<g id="edge31" class="edge">
<title>2&#45;&gt;5</title>
<path fill="none" stroke="#ff0000" d="M1799.04,-347.8C1799.04,-336.16 1799.04,-320.55 1799.04,-307.24"/>
<polygon fill="#ff0000" stroke="#ff0000" points="1802.54,-307.18 1799.04,-297.18 1795.54,-307.18 1802.54,-307.18"/>
<text text-anchor="middle" x="1808.54" y="-318.8" font-family="Times,serif" font-size="14.00">yes</text>
</g>
<!-- 6 -->
<g id="node33" class="node">
<title>6</title>
<ellipse fill="none" stroke="black" cx="1983.04" cy="-279" rx="78.79" ry="18"/>
<text text-anchor="middle" x="1983.04" y="-275.3" font-family="Times,serif" font-size="14.00">leaf=&#45;0.042641405</text>
</g>
<!-- 2&#45;&gt;6 -->
<g id="edge32" class="edge">
<title>2&#45;&gt;6</title>
<path fill="none" stroke="#0000ff" d="M1833.65,-349.01C1863.97,-335.01 1908.14,-314.6 1940.59,-299.61"/>
<polygon fill="#0000ff" stroke="#0000ff" points="1942.22,-302.71 1949.83,-295.34 1939.28,-296.36 1942.22,-302.71"/>
<text text-anchor="middle" x="1935.04" y="-318.8" font-family="Times,serif" font-size="14.00">no, missing</text>
</g>
<!-- 7 -->
<g id="node6" class="node">
<title>7</title>
<ellipse fill="none" stroke="black" cx="556.04" cy="-192" rx="71.49" ry="18"/>
<text text-anchor="middle" x="556.04" y="-188.3" font-family="Times,serif" font-size="14.00">RSI&lt;81.0070953</text>
</g>
<!-- 3&#45;&gt;7 -->
<g id="edge5" class="edge">
<title>3&#45;&gt;7</title>
<path fill="none" stroke="#ff0000" d="M1035.64,-267.66C931.57,-251.46 731.04,-220.24 625.26,-203.78"/>
<polygon fill="#ff0000" stroke="#ff0000" points="625.74,-200.31 615.32,-202.23 624.67,-207.23 625.74,-200.31"/>
<text text-anchor="middle" x="871.54" y="-231.8" font-family="Times,serif" font-size="14.00">yes</text>
</g>
<!-- 8 -->
<g id="node7" class="node">
<title>8</title>
<ellipse fill="none" stroke="black" cx="1102.04" cy="-192" rx="83.39" ry="18"/>
<text text-anchor="middle" x="1102.04" y="-188.3" font-family="Times,serif" font-size="14.00">BBW&lt;0.281468868</text>
</g>
<!-- 3&#45;&gt;8 -->
<g id="edge6" class="edge">
<title>3&#45;&gt;8</title>
<path fill="none" stroke="#0000ff" d="M1102.04,-260.8C1102.04,-249.16 1102.04,-233.55 1102.04,-220.24"/>
<polygon fill="#0000ff" stroke="#0000ff" points="1105.54,-220.18 1102.04,-210.18 1098.54,-220.18 1105.54,-220.18"/>
<text text-anchor="middle" x="1134.04" y="-231.8" font-family="Times,serif" font-size="14.00">no, missing</text>
</g>
<!-- 9 -->
<g id="node20" class="node">
<title>9</title>
<ellipse fill="none" stroke="black" cx="1582.04" cy="-192" rx="118.88" ry="18"/>
<text text-anchor="middle" x="1582.04" y="-188.3" font-family="Times,serif" font-size="14.00">regime_vol_ratio&lt;0.91425252</text>
</g>
<!-- 4&#45;&gt;9 -->
<g id="edge19" class="edge">
<title>4&#45;&gt;9</title>
<path fill="none" stroke="#ff0000" d="M1582.04,-260.8C1582.04,-249.16 1582.04,-233.55 1582.04,-220.24"/>
<polygon fill="#ff0000" stroke="#ff0000" points="1585.54,-220.18 1582.04,-210.18 1578.54,-220.18 1585.54,-220.18"/>
<text text-anchor="middle" x="1591.54" y="-231.8" font-family="Times,serif" font-size="14.00">yes</text>
</g>
<!-- 10 -->
<g id="node21" class="node">
<title>10</title>
<ellipse fill="none" stroke="black" cx="1944.04" cy="-192" rx="133.78" ry="18"/>
<text text-anchor="middle" x="1944.04" y="-188.3" font-family="Times,serif" font-size="14.00">regime_ema_spread&lt;0.899649084</text>
</g>
<!-- 4&#45;&gt;10 -->
<g id="edge20" class="edge">
<title>4&#45;&gt;10</title>
<path fill="none" stroke="#0000ff" d="M1642.63,-263.77C1705.33,-249.05 1803.31,-226.05 1870.43,-210.29"/>
<polygon fill="#0000ff" stroke="#0000ff" points="1871.58,-213.61 1880.51,-207.92 1869.98,-206.8 1871.58,-213.61"/>
<text text-anchor="middle" x="1817.04" y="-231.8" font-family="Times,serif" font-size="14.00">no, missing</text>
</g>
<!-- 11 -->
<g id="node8" class="node">
<title>11</title>
<ellipse fill="none" stroke="black" cx="276.04" cy="-105" rx="71.49" ry="18"/>
<text text-anchor="middle" x="276.04" y="-101.3" font-family="Times,serif" font-size="14.00">RSI&lt;78.2578964</text>
</g>
<!-- 7&#45;&gt;11 -->
<g id="edge7" class="edge">
<title>7&#45;&gt;11</title>
<path fill="none" stroke="#ff0000" d="M512.29,-177.72C462.92,-162.73 382.58,-138.34 329.52,-122.24"/>
<polygon fill="#ff0000" stroke="#ff0000" points="330.53,-118.88 319.95,-119.33 328.5,-125.58 330.53,-118.88"/>
<text text-anchor="middle" x="442.54" y="-144.8" font-family="Times,serif" font-size="14.00">yes</text>
</g>
<!-- 12 -->
<g id="node9" class="node">
<title>12</title>
<ellipse fill="none" stroke="black" cx="556.04" cy="-105" rx="94.78" ry="18"/>
<text text-anchor="middle" x="556.04" y="-101.3" font-family="Times,serif" font-size="14.00">OBV&lt;8.31589188e+11</text>
</g>
<!-- 7&#45;&gt;12 -->
<g id="edge8" class="edge">
<title>7&#45;&gt;12</title>
<path fill="none" stroke="#0000ff" d="M556.04,-173.8C556.04,-162.16 556.04,-146.55 556.04,-133.24"/>
<polygon fill="#0000ff" stroke="#0000ff" points="559.54,-133.18 556.04,-123.18 552.54,-133.18 559.54,-133.18"/>
<text text-anchor="middle" x="588.04" y="-144.8" font-family="Times,serif" font-size="14.00">no, missing</text>
</g>
<!-- 13 -->
<g id="node14" class="node">
<title>13</title>
<ellipse fill="none" stroke="black" cx="980.04" cy="-105" rx="102.08" ry="18"/>
<text text-anchor="middle" x="980.04" y="-101.3" font-family="Times,serif" font-size="14.00">D_EMA200&lt;1.32589328</text>
</g>
<!-- 8&#45;&gt;13 -->
<g id="edge13" class="edge">
<title>8&#45;&gt;13</title>
<path fill="none" stroke="#ff0000" d="M1078.52,-174.61C1059.65,-161.47 1032.98,-142.88 1012.15,-128.37"/>
<polygon fill="#ff0000" stroke="#ff0000" points="1014.11,-125.47 1003.91,-122.63 1010.11,-131.22 1014.11,-125.47"/>
<text text-anchor="middle" x="1058.54" y="-144.8" font-family="Times,serif" font-size="14.00">yes</text>
</g>
<!-- 14 -->
<g id="node15" class="node">
<title>14</title>
<ellipse fill="none" stroke="black" cx="1201.04" cy="-105" rx="100.98" ry="18"/>
<text text-anchor="middle" x="1201.04" y="-101.3" font-family="Times,serif" font-size="14.00">Log_Ret&lt;&#45;0.0168436561</text>
</g>
<!-- 8&#45;&gt;14 -->
<g id="edge14" class="edge">
<title>8&#45;&gt;14</title>
<path fill="none" stroke="#0000ff" d="M1121.6,-174.21C1136.52,-161.4 1157.24,-143.61 1173.78,-129.4"/>
<polygon fill="#0000ff" stroke="#0000ff" points="1176.22,-131.93 1181.52,-122.76 1171.66,-126.62 1176.22,-131.93"/>
<text text-anchor="middle" x="1190.04" y="-144.8" font-family="Times,serif" font-size="14.00">no, missing</text>
</g>
<!-- 19 -->
<g id="node10" class="node">
<title>19</title>
<ellipse fill="none" stroke="black" cx="89.04" cy="-18" rx="89.08" ry="18"/>
<text text-anchor="middle" x="89.04" y="-14.3" font-family="Times,serif" font-size="14.00">leaf=0.000329259026</text>
</g>
<!-- 11&#45;&gt;19 -->
<g id="edge9" class="edge">
<title>11&#45;&gt;19</title>
<path fill="none" stroke="#ff0000" d="M243.04,-89C212.37,-75.06 166.48,-54.2 132.78,-38.88"/>
<polygon fill="#ff0000" stroke="#ff0000" points="134.17,-35.67 123.61,-34.71 131.27,-42.04 134.17,-35.67"/>
<text text-anchor="middle" x="203.54" y="-57.8" font-family="Times,serif" font-size="14.00">yes</text>
</g>
<!-- 20 -->
<g id="node11" class="node">
<title>20</title>
<ellipse fill="none" stroke="black" cx="276.04" cy="-18" rx="79.89" ry="18"/>
<text text-anchor="middle" x="276.04" y="-14.3" font-family="Times,serif" font-size="14.00">leaf=0.0357389376</text>
</g>
<!-- 11&#45;&gt;20 -->
<g id="edge10" class="edge">
<title>11&#45;&gt;20</title>
<path fill="none" stroke="#0000ff" d="M276.04,-86.8C276.04,-75.16 276.04,-59.55 276.04,-46.24"/>
<polygon fill="#0000ff" stroke="#0000ff" points="279.54,-46.18 276.04,-36.18 272.54,-46.18 279.54,-46.18"/>
<text text-anchor="middle" x="308.04" y="-57.8" font-family="Times,serif" font-size="14.00">no, missing</text>
</g>
<!-- 21 -->
<g id="node12" class="node">
<title>21</title>
<ellipse fill="none" stroke="black" cx="454.04" cy="-18" rx="79.89" ry="18"/>
<text text-anchor="middle" x="454.04" y="-14.3" font-family="Times,serif" font-size="14.00">leaf=0.0233634263</text>
</g>
<!-- 12&#45;&gt;21 -->
<g id="edge11" class="edge">
<title>12&#45;&gt;21</title>
<path fill="none" stroke="#ff0000" d="M535.89,-87.21C520.42,-74.32 498.89,-56.38 481.8,-42.13"/>
<polygon fill="#ff0000" stroke="#ff0000" points="483.73,-39.18 473.81,-35.47 479.25,-44.56 483.73,-39.18"/>
<text text-anchor="middle" x="521.54" y="-57.8" font-family="Times,serif" font-size="14.00">yes</text>
</g>
<!-- 22 -->
<g id="node13" class="node">
<title>22</title>
<ellipse fill="none" stroke="black" cx="635.04" cy="-18" rx="83.39" ry="18"/>
<text text-anchor="middle" x="635.04" y="-14.3" font-family="Times,serif" font-size="14.00">leaf=&#45;0.0574078746</text>
</g>
<!-- 12&#45;&gt;22 -->
<g id="edge12" class="edge">
<title>12&#45;&gt;22</title>
<path fill="none" stroke="#0000ff" d="M571.65,-87.21C583.34,-74.63 599.49,-57.25 612.57,-43.18"/>
<polygon fill="#0000ff" stroke="#0000ff" points="615.22,-45.47 619.47,-35.76 610.1,-40.7 615.22,-45.47"/>
<text text-anchor="middle" x="633.04" y="-57.8" font-family="Times,serif" font-size="14.00">no, missing</text>
</g>
<!-- 23 -->
<g id="node16" class="node">
<title>23</title>
<ellipse fill="none" stroke="black" cx="816.04" cy="-18" rx="79.89" ry="18"/>
<text text-anchor="middle" x="816.04" y="-14.3" font-family="Times,serif" font-size="14.00">leaf=0.0314999111</text>
</g>
<!-- 13&#45;&gt;23 -->
<g id="edge15" class="edge">
<title>13&#45;&gt;23</title>
<path fill="none" stroke="#ff0000" d="M948.81,-87.81C922.23,-74.03 883.91,-54.17 855.26,-39.33"/>
<polygon fill="#ff0000" stroke="#ff0000" points="856.82,-36.19 846.33,-34.7 853.6,-42.41 856.82,-36.19"/>
<text text-anchor="middle" x="917.54" y="-57.8" font-family="Times,serif" font-size="14.00">yes</text>
</g>
<!-- 24 -->
<g id="node17" class="node">
<title>24</title>
<ellipse fill="none" stroke="black" cx="997.04" cy="-18" rx="83.39" ry="18"/>
<text text-anchor="middle" x="997.04" y="-14.3" font-family="Times,serif" font-size="14.00">leaf=&#45;0.0239366721</text>
</g>
<!-- 13&#45;&gt;24 -->
<g id="edge16" class="edge">
<title>13&#45;&gt;24</title>
<path fill="none" stroke="#0000ff" d="M983.48,-86.8C985.81,-75.16 988.93,-59.55 991.59,-46.24"/>
<polygon fill="#0000ff" stroke="#0000ff" points="995.08,-46.67 993.61,-36.18 988.21,-45.29 995.08,-46.67"/>
<text text-anchor="middle" x="1022.04" y="-57.8" font-family="Times,serif" font-size="14.00">no, missing</text>
</g>
<!-- 25 -->
<g id="node18" class="node">
<title>25</title>
<ellipse fill="none" stroke="black" cx="1183.04" cy="-18" rx="84.49" ry="18"/>
<text text-anchor="middle" x="1183.04" y="-14.3" font-family="Times,serif" font-size="14.00">leaf=0.00297082099</text>
</g>
<!-- 14&#45;&gt;25 -->
<g id="edge17" class="edge">
<title>14&#45;&gt;25</title>
<path fill="none" stroke="#ff0000" d="M1197.4,-86.8C1194.94,-75.16 1191.63,-59.55 1188.81,-46.24"/>
<polygon fill="#ff0000" stroke="#ff0000" points="1192.18,-45.23 1186.68,-36.18 1185.33,-46.68 1192.18,-45.23"/>
<text text-anchor="middle" x="1203.54" y="-57.8" font-family="Times,serif" font-size="14.00">yes</text>
</g>
<!-- 26 -->
<g id="node19" class="node">
<title>26</title>
<ellipse fill="none" stroke="black" cx="1369.04" cy="-18" rx="83.39" ry="18"/>
<text text-anchor="middle" x="1369.04" y="-14.3" font-family="Times,serif" font-size="14.00">leaf=&#45;0.0466408283</text>
</g>
<!-- 14&#45;&gt;26 -->
<g id="edge18" class="edge">
<title>14&#45;&gt;26</title>
<path fill="none" stroke="#0000ff" d="M1233.04,-87.81C1260.18,-74.08 1299.28,-54.3 1328.59,-39.47"/>
<polygon fill="#0000ff" stroke="#0000ff" points="1330.39,-42.48 1337.73,-34.84 1327.23,-36.23 1330.39,-42.48"/>
<text text-anchor="middle" x="1328.04" y="-57.8" font-family="Times,serif" font-size="14.00">no, missing</text>
</g>
<!-- 15 -->
<g id="node22" class="node">
<title>15</title>
<ellipse fill="none" stroke="black" cx="1490.04" cy="-105" rx="83.39" ry="18"/>
<text text-anchor="middle" x="1490.04" y="-101.3" font-family="Times,serif" font-size="14.00">leaf=&#45;0.0511418097</text>
</g>
<!-- 9&#45;&gt;15 -->
<g id="edge21" class="edge">
<title>9&#45;&gt;15</title>
<path fill="none" stroke="#ff0000" d="M1563.87,-174.21C1550.13,-161.52 1531.1,-143.93 1515.79,-129.79"/>
<polygon fill="#ff0000" stroke="#ff0000" points="1517.9,-126.97 1508.18,-122.76 1513.15,-132.12 1517.9,-126.97"/>
<text text-anchor="middle" x="1551.54" y="-144.8" font-family="Times,serif" font-size="14.00">yes</text>
</g>
<!-- 16 -->
<g id="node23" class="node">
<title>16</title>
<ellipse fill="none" stroke="black" cx="1698.04" cy="-105" rx="106.68" ry="18"/>
<text text-anchor="middle" x="1698.04" y="-101.3" font-family="Times,serif" font-size="14.00">Log_Ret&lt;0.000694439514</text>
</g>
<!-- 9&#45;&gt;16 -->
<g id="edge22" class="edge">
<title>9&#45;&gt;16</title>
<path fill="none" stroke="#0000ff" d="M1604.96,-174.21C1622.67,-161.23 1647.38,-143.12 1666.89,-128.83"/>
<polygon fill="#0000ff" stroke="#0000ff" points="1669.17,-131.49 1675.17,-122.76 1665.04,-125.85 1669.17,-131.49"/>
<text text-anchor="middle" x="1679.04" y="-144.8" font-family="Times,serif" font-size="14.00">no, missing</text>
</g>
<!-- 17 -->
<g id="node26" class="node">
<title>17</title>
<ellipse fill="none" stroke="black" cx="1944.04" cy="-105" rx="97.48" ry="18"/>
<text text-anchor="middle" x="1944.04" y="-101.3" font-family="Times,serif" font-size="14.00">Log_Ret&lt;0.0128681967</text>
</g>
<!-- 10&#45;&gt;17 -->
<g id="edge25" class="edge">
<title>10&#45;&gt;17</title>
<path fill="none" stroke="#ff0000" d="M1944.04,-173.8C1944.04,-162.16 1944.04,-146.55 1944.04,-133.24"/>
<polygon fill="#ff0000" stroke="#ff0000" points="1947.54,-133.18 1944.04,-123.18 1940.54,-133.18 1947.54,-133.18"/>
<text text-anchor="middle" x="1953.54" y="-144.8" font-family="Times,serif" font-size="14.00">yes</text>
</g>
<!-- 18 -->
<g id="node27" class="node">
<title>18</title>
<ellipse fill="none" stroke="black" cx="2280.04" cy="-105" rx="83.39" ry="18"/>
<text text-anchor="middle" x="2280.04" y="-101.3" font-family="Times,serif" font-size="14.00">BBW&lt;0.603609502</text>
</g>
<!-- 10&#45;&gt;18 -->
<g id="edge26" class="edge">
<title>10&#45;&gt;18</title>
<path fill="none" stroke="#0000ff" d="M2004.11,-175.8C2064.55,-160.51 2157.3,-137.05 2218.32,-121.61"/>
<polygon fill="#0000ff" stroke="#0000ff" points="2219.37,-124.96 2228.2,-119.11 2217.65,-118.17 2219.37,-124.96"/>
<text text-anchor="middle" x="2164.04" y="-144.8" font-family="Times,serif" font-size="14.00">no, missing</text>
</g>
<!-- 27 -->
<g id="node24" class="node">
<title>27</title>
<ellipse fill="none" stroke="black" cx="1550.04" cy="-18" rx="79.89" ry="18"/>
<text text-anchor="middle" x="1550.04" y="-14.3" font-family="Times,serif" font-size="14.00">leaf=0.0356916115</text>
</g>
<!-- 16&#45;&gt;27 -->
<g id="edge23" class="edge">
<title>16&#45;&gt;27</title>
<path fill="none" stroke="#ff0000" d="M1669.51,-87.61C1645.91,-74.06 1612.25,-54.73 1586.67,-40.04"/>
<polygon fill="#ff0000" stroke="#ff0000" points="1588.4,-37 1577.99,-35.05 1584.92,-43.07 1588.4,-37"/>
<text text-anchor="middle" x="1642.54" y="-57.8" font-family="Times,serif" font-size="14.00">yes</text>
</g>
<!-- 28 -->
<g id="node25" class="node">
<title>28</title>
<ellipse fill="none" stroke="black" cx="1731.04" cy="-18" rx="83.39" ry="18"/>
<text text-anchor="middle" x="1731.04" y="-14.3" font-family="Times,serif" font-size="14.00">leaf=&#45;0.0152106434</text>
</g>
<!-- 16&#45;&gt;28 -->
<g id="edge24" class="edge">
<title>16&#45;&gt;28</title>
<path fill="none" stroke="#0000ff" d="M1704.72,-86.8C1709.28,-75.05 1715.42,-59.24 1720.62,-45.84"/>
<polygon fill="#0000ff" stroke="#0000ff" points="1724.02,-46.76 1724.37,-36.18 1717.49,-44.23 1724.02,-46.76"/>
<text text-anchor="middle" x="1749.04" y="-57.8" font-family="Times,serif" font-size="14.00">no, missing</text>
</g>
<!-- 29 -->
<g id="node28" class="node">
<title>29</title>
<ellipse fill="none" stroke="black" cx="1912.04" cy="-18" rx="79.89" ry="18"/>
<text text-anchor="middle" x="1912.04" y="-14.3" font-family="Times,serif" font-size="14.00">leaf=0.0641661063</text>
</g>
<!-- 17&#45;&gt;29 -->
<g id="edge27" class="edge">
<title>17&#45;&gt;29</title>
<path fill="none" stroke="#ff0000" d="M1937.57,-86.8C1933.14,-75.05 1927.19,-59.24 1922.15,-45.84"/>
<polygon fill="#ff0000" stroke="#ff0000" points="1925.31,-44.3 1918.51,-36.18 1918.76,-46.77 1925.31,-44.3"/>
<text text-anchor="middle" x="1939.54" y="-57.8" font-family="Times,serif" font-size="14.00">yes</text>
</g>
<!-- 30 -->
<g id="node29" class="node">
<title>30</title>
<ellipse fill="none" stroke="black" cx="2094.04" cy="-18" rx="84.49" ry="18"/>
<text text-anchor="middle" x="2094.04" y="-14.3" font-family="Times,serif" font-size="14.00">leaf=0.00822980143</text>
</g>
<!-- 17&#45;&gt;30 -->
<g id="edge28" class="edge">
<title>17&#45;&gt;30</title>
<path fill="none" stroke="#0000ff" d="M1972.96,-87.61C1996.88,-74.06 2030.99,-54.73 2056.92,-40.04"/>
<polygon fill="#0000ff" stroke="#0000ff" points="2058.74,-43.03 2065.72,-35.05 2055.29,-36.94 2058.74,-43.03"/>
<text text-anchor="middle" x="2059.04" y="-57.8" font-family="Times,serif" font-size="14.00">no, missing</text>
</g>
<!-- 31 -->
<g id="node30" class="node">
<title>31</title>
<ellipse fill="none" stroke="black" cx="2280.04" cy="-18" rx="83.39" ry="18"/>
<text text-anchor="middle" x="2280.04" y="-14.3" font-family="Times,serif" font-size="14.00">leaf=&#45;0.0425196514</text>
</g>
<!-- 18&#45;&gt;31 -->
<g id="edge29" class="edge">
<title>18&#45;&gt;31</title>
<path fill="none" stroke="#ff0000" d="M2280.04,-86.8C2280.04,-75.16 2280.04,-59.55 2280.04,-46.24"/>
<polygon fill="#ff0000" stroke="#ff0000" points="2283.54,-46.18 2280.04,-36.18 2276.54,-46.18 2283.54,-46.18"/>
<text text-anchor="middle" x="2289.54" y="-57.8" font-family="Times,serif" font-size="14.00">yes</text>
</g>
<!-- 32 -->
<g id="node31" class="node">
<title>32</title>
<ellipse fill="none" stroke="black" cx="2468.04" cy="-18" rx="87.18" ry="18"/>
<text text-anchor="middle" x="2468.04" y="-14.3" font-family="Times,serif" font-size="14.00">leaf=&#45;0.00277802418</text>
</g>
<!-- 18&#45;&gt;32 -->
<g id="edge30" class="edge">
<title>18&#45;&gt;32</title>
<path fill="none" stroke="#0000ff" d="M2314.52,-88.41C2345.3,-74.49 2390.54,-54.04 2423.94,-38.94"/>
<polygon fill="#0000ff" stroke="#0000ff" points="2425.79,-41.94 2433.46,-34.64 2422.91,-35.57 2425.79,-41.94"/>
<text text-anchor="middle" x="2417.04" y="-57.8" font-family="Times,serif" font-size="14.00">no, missing</text>
</g>
</g>
</svg>
