<?xml version="1.0" encoding="UTF-8" standalone="no"?>
<!DOCTYPE svg PUBLIC "-//W3C//DTD SVG 1.1//EN"
 "http://www.w3.org/Graphics/SVG/1.1/DTD/svg11.dtd">
<!-- Generated by graphviz version 2.43.0 (0)
 -->
<!-- Title: %3 Pages: 1 -->
<svg width="2557pt" height="479pt"
 viewBox="0.00 0.00 2557.14 479.00" xmlns="http://www.w3.org/2000/svg" xmlns:xlink="http://www.w3.org/1999/xlink">
<g id="graph0" class="graph" transform="scale(1 1) rotate(0) translate(4 475)">
<title>%3</title>
<polygon fill="white" stroke="transparent" points="-4,4 -4,-475 2553.14,-475 2553.14,4 -4,4"/>
<!-- 0 -->
<g id="node1" class="node">
<title>0</title>
<ellipse fill="none" stroke="black" cx="678.19" cy="-453" rx="74.99" ry="18"/>
<text text-anchor="middle" x="678.19" y="-449.3" font-family="Times,serif" font-size="14.00">ATR&lt;305.443207</text>
</g>
<!-- 1 -->
<g id="node2" class="node">
<title>1</title>
<ellipse fill="none" stroke="black" cx="578.19" cy="-366" rx="53.09" ry="18"/>
<text text-anchor="middle" x="578.19" y="-362.3" font-family="Times,serif" font-size="14.00">Day_Cos&lt;1</text>
</g>
<!-- 0&#45;&gt;1 -->
<g id="edge1" class="edge">
<title>0&#45;&gt;1</title>
<path fill="none" stroke="#ff0000" d="M658.44,-435.21C643.08,-422.15 621.62,-403.91 604.76,-389.58"/>
<polygon fill="#ff0000" stroke="#ff0000" points="606.78,-386.71 596.89,-382.9 602.25,-392.04 606.78,-386.71"/>
<text text-anchor="middle" x="643.69" y="-405.8" font-family="Times,serif" font-size="14.00">yes</text>
</g>
<!-- 2 -->
<g id="node3" class="node">
<title>2</title>
<ellipse fill="none" stroke="black" cx="896.19" cy="-366" rx="71.49" ry="18"/>
<text text-anchor="middle" x="896.19" y="-362.3" font-family="Times,serif" font-size="14.00">RSI&lt;37.2837715</text>
</g>
<!-- 0&#45;&gt;2 -->
<g id="edge2" class="edge">
<title>0&#45;&gt;2</title>
<path fill="none" stroke="#0000ff" d="M715.67,-437.39C752.78,-422.92 809.7,-400.72 849.68,-385.13"/>
<polygon fill="#0000ff" stroke="#0000ff" points="851.16,-388.32 859.21,-381.42 848.62,-381.79 851.16,-388.32"/>
<text text-anchor="middle" x="833.19" y="-405.8" font-family="Times,serif" font-size="14.00">no, missing</text>
</g>
<!-- 3 -->
<g id="node4" class="node">
<title>3</title>
<ellipse fill="none" stroke="black" cx="282.19" cy="-279" rx="96.68" ry="18"/>
<text text-anchor="middle" x="282.19" y="-275.3" font-family="Times,serif" font-size="14.00">Vol_Chg&lt;&#45;0.067652151</text>
</g>
<!-- 1&#45;&gt;3 -->
<g id="edge3" class="edge">
<title>1&#45;&gt;3</title>
<path fill="none" stroke="#ff0000" d="M538.89,-353.71C488.64,-339.28 401.14,-314.16 342.45,-297.3"/>
<polygon fill="#ff0000" stroke="#ff0000" points="343.14,-293.86 332.56,-294.46 341.21,-300.59 343.14,-293.86"/>
<text text-anchor="middle" x="457.69" y="-318.8" font-family="Times,serif" font-size="14.00">yes</text>
</g>
<!-- 4 -->
<g id="node5" class="node">
<title>4</title>
<ellipse fill="none" stroke="black" cx="578.19" cy="-279" rx="87.18" ry="18"/>
<text text-anchor="middle" x="578.19" y="-275.3" font-family="Times,serif" font-size="14.00">leaf=&#45;0.00722202985</text>
</g>
<!-- 1&#45;&gt;4 -->
<g id="edge4" class="edge">
<title>1&#45;&gt;4</title>
<path fill="none" stroke="#0000ff" d="M578.19,-347.8C578.19,-336.16 578.19,-320.55 578.19,-307.24"/>
<polygon fill="#0000ff" stroke="#0000ff" points="581.69,-307.18 578.19,-297.18 574.69,-307.18 581.69,-307.18"/>
<text text-anchor="middle" x="610.19" y="-318.8" font-family="Times,serif" font-size="14.00">no, missing</text>
</g>
<!-- 5 -->
<g id="node12" class="node">
<title>5</title>
<ellipse fill="none" stroke="black" cx="896.19" cy="-279" rx="94.78" ry="18"/>
<text text-anchor="middle" x="896.19" y="-275.3" font-family="Times,serif" font-size="14.00">OBV&lt;1.51542917e+12</text>
</g>
<!-- 2&#45;&gt;5 -->
<g id="edge11" class="edge">
<title>2&#45;&gt;5</title>
<path fill="none" stroke="#ff0000" d="M896.19,-347.8C896.19,-336.16 896.19,-320.55 896.19,-307.24"/>
<polygon fill="#ff0000" stroke="#ff0000" points="899.69,-307.18 896.19,-297.18 892.69,-307.18 899.69,-307.18"/>
<text text-anchor="middle" x="905.69" y="-318.8" font-family="Times,serif" font-size="14.00">yes</text>
</g>
<!-- 6 -->
<g id="node13" class="node">
<title>6</title>
<ellipse fill="none" stroke="black" cx="1440.19" cy="-279" rx="138.38" ry="18"/>
<text text-anchor="middle" x="1440.19" y="-275.3" font-family="Times,serif" font-size="14.00">regime_ema_spread&lt;0.0987475067</text>
</g>
<!-- 2&#45;&gt;6 -->
<g id="edge12" class="edge">
<title>2&#45;&gt;6</title>
<path fill="none" stroke="#0000ff" d="M955.19,-355.78C1048.9,-341.14 1232.67,-312.43 1345.14,-294.85"/>
<polygon fill="#0000ff" stroke="#0000ff" points="1345.78,-298.29 1355.12,-293.29 1344.7,-291.38 1345.78,-298.29"/>
<text text-anchor="middle" x="1233.19" y="-318.8" font-family="Times,serif" font-size="14.00">no, missing</text>
</g>
<!-- 7 -->
<g id="node6" class="node">
<title>7</title>
<ellipse fill="none" stroke="black" cx="113.19" cy="-192" rx="79.89" ry="18"/>
<text text-anchor="middle" x="113.19" y="-188.3" font-family="Times,serif" font-size="14.00">leaf=0.0598432384</text>
</g>
<!-- 3&#45;&gt;7 -->
<g id="edge5" class="edge">
<title>3&#45;&gt;7</title>
<path fill="none" stroke="#ff0000" d="M250.01,-261.81C222.61,-248.03 183.13,-228.17 153.61,-213.33"/>
<polygon fill="#ff0000" stroke="#ff0000" points="154.91,-210.06 144.4,-208.7 151.76,-216.32 154.91,-210.06"/>
<text text-anchor="middle" x="217.69" y="-231.8" font-family="Times,serif" font-size="14.00">yes</text>
</g>
<!-- 8 -->
<g id="node7" class="node">
<title>8</title>
<ellipse fill="none" stroke="black" cx="282.19" cy="-192" rx="71.49" ry="18"/>
<text text-anchor="middle" x="282.19" y="-188.3" font-family="Times,serif" font-size="14.00">RSI&lt;50.7593956</text>
</g>
<!-- 3&#45;&gt;8 -->
<g id="edge6" class="edge">
<title>3&#45;&gt;8</title>
<path fill="none" stroke="#0000ff" d="M282.19,-260.8C282.19,-249.16 282.19,-233.55 282.19,-220.24"/>
<polygon fill="#0000ff" stroke="#0000ff" points="285.69,-220.18 282.19,-210.18 278.69,-220.18 285.69,-220.18"/>
<text text-anchor="middle" x="314.19" y="-231.8" font-family="Times,serif" font-size="14.00">no, missing</text>
</g>
<!-- 13 -->
<g id="node8" class="node">
<title>13</title>
<ellipse fill="none" stroke="black" cx="83.19" cy="-105" rx="83.39" ry="18"/>
<text text-anchor="middle" x="83.19" y="-101.3" font-family="Times,serif" font-size="14.00">leaf=&#45;0.0176102892</text>
</g>
<!-- 8&#45;&gt;13 -->
<g id="edge7" class="edge">
<title>8&#45;&gt;13</title>
<path fill="none" stroke="#ff0000" d="M247.53,-176.19C214.51,-162.09 164.62,-140.78 128.48,-125.34"/>
<polygon fill="#ff0000" stroke="#ff0000" points="129.71,-122.06 119.14,-121.35 126.96,-128.5 129.71,-122.06"/>
<text text-anchor="middle" x="204.69" y="-144.8" font-family="Times,serif" font-size="14.00">yes</text>
</g>
<!-- 14 -->
<g id="node9" class="node">
<title>14</title>
<ellipse fill="none" stroke="black" cx="282.19" cy="-105" rx="98.28" ry="18"/>
<text text-anchor="middle" x="282.19" y="-101.3" font-family="Times,serif" font-size="14.00">Day_Cos&lt;&#45;0.222520933</text>
</g>
<!-- 8&#45;&gt;14 -->
<g id="edge8" class="edge">
<title>8&#45;&gt;14</title>
<path fill="none" stroke="#0000ff" d="M282.19,-173.8C282.19,-162.16 282.19,-146.55 282.19,-133.24"/>
<polygon fill="#0000ff" stroke="#0000ff" points="285.69,-133.18 282.19,-123.18 278.69,-133.18 285.69,-133.18"/>
<text text-anchor="middle" x="314.19" y="-144.8" font-family="Times,serif" font-size="14.00">no, missing</text>
</g>
<!-- 21 -->
<g id="node10" class="node">
<title>21</title>
<ellipse fill="none" stroke="black" cx="100.19" cy="-18" rx="84.49" ry="18"/>
<text text-anchor="middle" x="100.19" y="-14.3" font-family="Times,serif" font-size="14.00">leaf=0.00639495347</text>
</g>
<!-- 14&#45;&gt;21 -->
<g id="edge9" class="edge">
<title>14&#45;&gt;21</title>
<path fill="none" stroke="#ff0000" d="M247.96,-88.01C218.16,-74.09 174.83,-53.86 142.79,-38.89"/>
<polygon fill="#ff0000" stroke="#ff0000" points="144.2,-35.69 133.66,-34.63 141.24,-42.03 144.2,-35.69"/>
<text text-anchor="middle" x="211.69" y="-57.8" font-family="Times,serif" font-size="14.00">yes</text>
</g>
<!-- 22 -->
<g id="node11" class="node">
<title>22</title>
<ellipse fill="none" stroke="black" cx="282.19" cy="-18" rx="79.89" ry="18"/>
<text text-anchor="middle" x="282.19" y="-14.3" font-family="Times,serif" font-size="14.00">leaf=0.0538689755</text>
</g>
<!-- 14&#45;&gt;22 -->
<g id="edge10" class="edge">
<title>14&#45;&gt;22</title>
<path fill="none" stroke="#0000ff" d="M282.19,-86.8C282.19,-75.16 282.19,-59.55 282.19,-46.24"/>
<polygon fill="#0000ff" stroke="#0000ff" points="285.69,-46.18 282.19,-36.18 278.69,-46.18 285.69,-46.18"/>
<text text-anchor="middle" x="314.19" y="-57.8" font-family="Times,serif" font-size="14.00">no, missing</text>
</g>
<!-- 9 -->
<g id="node14" class="node">
<title>9</title>
<ellipse fill="none" stroke="black" cx="726.19" cy="-192" rx="132.68" ry="18"/>
<text text-anchor="middle" x="726.19" y="-188.3" font-family="Times,serif" font-size="14.00">regime_ema_spread&lt;&#45;0.36439684</text>
</g>
<!-- 5&#45;&gt;9 -->
<g id="edge13" class="edge">
<title>5&#45;&gt;9</title>
<path fill="none" stroke="#ff0000" d="M864.22,-262.01C837.14,-248.47 798.11,-228.96 768.46,-214.13"/>
<polygon fill="#ff0000" stroke="#ff0000" points="769.69,-210.84 759.18,-209.5 766.56,-217.1 769.69,-210.84"/>
<text text-anchor="middle" x="831.69" y="-231.8" font-family="Times,serif" font-size="14.00">yes</text>
</g>
<!-- 10 -->
<g id="node15" class="node">
<title>10</title>
<ellipse fill="none" stroke="black" cx="955.19" cy="-192" rx="78.79" ry="18"/>
<text text-anchor="middle" x="955.19" y="-188.3" font-family="Times,serif" font-size="14.00">leaf=&#45;0.048578009</text>
</g>
<!-- 5&#45;&gt;10 -->
<g id="edge14" class="edge">
<title>5&#45;&gt;10</title>
<path fill="none" stroke="#0000ff" d="M908.13,-260.8C916.58,-248.62 928.06,-232.09 937.56,-218.4"/>
<polygon fill="#0000ff" stroke="#0000ff" points="940.65,-220.1 943.47,-209.89 934.89,-216.1 940.65,-220.1"/>
<text text-anchor="middle" x="962.19" y="-231.8" font-family="Times,serif" font-size="14.00">no, missing</text>
</g>
<!-- 11 -->
<g id="node22" class="node">
<title>11</title>
<ellipse fill="none" stroke="black" cx="1440.19" cy="-192" rx="100.18" ry="18"/>
<text text-anchor="middle" x="1440.19" y="-188.3" font-family="Times,serif" font-size="14.00">regime_adx&lt;16.3915634</text>
</g>
<!-- 6&#45;&gt;11 -->
<g id="edge21" class="edge">
<title>6&#45;&gt;11</title>
<path fill="none" stroke="#ff0000" d="M1440.19,-260.8C1440.19,-249.16 1440.19,-233.55 1440.19,-220.24"/>
<polygon fill="#ff0000" stroke="#ff0000" points="1443.69,-220.18 1440.19,-210.18 1436.69,-220.18 1443.69,-220.18"/>
<text text-anchor="middle" x="1449.69" y="-231.8" font-family="Times,serif" font-size="14.00">yes</text>
</g>
<!-- 12 -->
<g id="node23" class="node">
<title>12</title>
<ellipse fill="none" stroke="black" cx="1999.19" cy="-192" rx="102.08" ry="18"/>
<text text-anchor="middle" x="1999.19" y="-188.3" font-family="Times,serif" font-size="14.00">Log_Ret&lt;0.00385181746</text>
</g>
<!-- 6&#45;&gt;12 -->
<g id="edge22" class="edge">
<title>6&#45;&gt;12</title>
<path fill="none" stroke="#0000ff" d="M1526.31,-264.91C1631.93,-248.84 1809.82,-221.8 1914.69,-205.85"/>
<polygon fill="#0000ff" stroke="#0000ff" points="1915.25,-209.3 1924.61,-204.34 1914.2,-202.38 1915.25,-209.3"/>
<text text-anchor="middle" x="1785.19" y="-231.8" font-family="Times,serif" font-size="14.00">no, missing</text>
</g>
<!-- 15 -->
<g id="node16" class="node">
<title>15</title>
<ellipse fill="none" stroke="black" cx="630.19" cy="-105" rx="94.78" ry="18"/>
<text text-anchor="middle" x="630.19" y="-101.3" font-family="Times,serif" font-size="14.00">OBV&lt;1.13254243e+12</text>
</g>
<!-- 9&#45;&gt;15 -->
<g id="edge15" class="edge">
<title>9&#45;&gt;15</title>
<path fill="none" stroke="#ff0000" d="M706.77,-173.8C692.49,-161.16 672.91,-143.82 657.12,-129.85"/>
<polygon fill="#ff0000" stroke="#ff0000" points="659.07,-126.89 649.26,-122.89 654.43,-132.13 659.07,-126.89"/>
<text text-anchor="middle" x="693.69" y="-144.8" font-family="Times,serif" font-size="14.00">yes</text>
</g>
<!-- 16 -->
<g id="node17" class="node">
<title>16</title>
<ellipse fill="none" stroke="black" cx="838.19" cy="-105" rx="95.58" ry="18"/>
<text text-anchor="middle" x="838.19" y="-101.3" font-family="Times,serif" font-size="14.00">regime_adx&lt;36.513031</text>
</g>
<!-- 9&#45;&gt;16 -->
<g id="edge16" class="edge">
<title>9&#45;&gt;16</title>
<path fill="none" stroke="#0000ff" d="M748.32,-174.21C765.42,-161.23 789.28,-143.12 808.12,-128.83"/>
<polygon fill="#0000ff" stroke="#0000ff" points="810.26,-131.59 816.11,-122.76 806.03,-126.02 810.26,-131.59"/>
<text text-anchor="middle" x="821.19" y="-144.8" font-family="Times,serif" font-size="14.00">no, missing</text>
</g>
<!-- 23 -->
<g id="node18" class="node">
<title>23</title>
<ellipse fill="none" stroke="black" cx="460.19" cy="-18" rx="79.89" ry="18"/>
<text text-anchor="middle" x="460.19" y="-14.3" font-family="Times,serif" font-size="14.00">leaf=0.0280374121</text>
</g>
<!-- 15&#45;&gt;23 -->
<g id="edge17" class="edge">
<title>15&#45;&gt;23</title>
<path fill="none" stroke="#ff0000" d="M598.22,-88.01C570.62,-74.21 530.6,-54.2 500.76,-39.28"/>
<polygon fill="#ff0000" stroke="#ff0000" points="501.96,-35.97 491.45,-34.63 498.83,-42.23 501.96,-35.97"/>
<text text-anchor="middle" x="565.69" y="-57.8" font-family="Times,serif" font-size="14.00">yes</text>
</g>
<!-- 24 -->
<g id="node19" class="node">
<title>24</title>
<ellipse fill="none" stroke="black" cx="641.19" cy="-18" rx="83.39" ry="18"/>
<text text-anchor="middle" x="641.19" y="-14.3" font-family="Times,serif" font-size="14.00">leaf=&#45;0.0489827879</text>
</g>
<!-- 15&#45;&gt;24 -->
<g id="edge18" class="edge">
<title>15&#45;&gt;24</title>
<path fill="none" stroke="#0000ff" d="M632.42,-86.8C633.92,-75.16 635.95,-59.55 637.67,-46.24"/>
<polygon fill="#0000ff" stroke="#0000ff" points="641.16,-46.54 638.97,-36.18 634.22,-45.64 641.16,-46.54"/>
<text text-anchor="middle" x="669.19" y="-57.8" font-family="Times,serif" font-size="14.00">no, missing</text>
</g>
<!-- 25 -->
<g id="node20" class="node">
<title>25</title>
<ellipse fill="none" stroke="black" cx="827.19" cy="-18" rx="84.49" ry="18"/>
<text text-anchor="middle" x="827.19" y="-14.3" font-family="Times,serif" font-size="14.00">leaf=0.00967344176</text>
</g>
<!-- 16&#45;&gt;25 -->
<g id="edge19" class="edge">
<title>16&#45;&gt;25</title>
<path fill="none" stroke="#ff0000" d="M835.97,-86.8C834.46,-75.16 832.44,-59.55 830.72,-46.24"/>
<polygon fill="#ff0000" stroke="#ff0000" points="834.17,-45.64 829.42,-36.18 827.23,-46.54 834.17,-45.64"/>
<text text-anchor="middle" x="843.69" y="-57.8" font-family="Times,serif" font-size="14.00">yes</text>
</g>
<!-- 26 -->
<g id="node21" class="node">
<title>26</title>
<ellipse fill="none" stroke="black" cx="1009.19" cy="-18" rx="79.89" ry="18"/>
<text text-anchor="middle" x="1009.19" y="-14.3" font-family="Times,serif" font-size="14.00">leaf=0.0467573814</text>
</g>
<!-- 16&#45;&gt;26 -->
<g id="edge20" class="edge">
<title>16&#45;&gt;26</title>
<path fill="none" stroke="#0000ff" d="M870.36,-88.01C898.24,-74.15 938.72,-54.03 968.78,-39.09"/>
<polygon fill="#0000ff" stroke="#0000ff" points="970.35,-42.21 977.75,-34.63 967.24,-35.95 970.35,-42.21"/>
<text text-anchor="middle" x="966.19" y="-57.8" font-family="Times,serif" font-size="14.00">no, missing</text>
</g>
<!-- 17 -->
<g id="node24" class="node">
<title>17</title>
<ellipse fill="none" stroke="black" cx="1358.19" cy="-105" rx="92.88" ry="18"/>
<text text-anchor="middle" x="1358.19" y="-101.3" font-family="Times,serif" font-size="14.00">D_EMA200&lt;1.077263</text>
</g>
<!-- 11&#45;&gt;17 -->
<g id="edge23" class="edge">
<title>11&#45;&gt;17</title>
<path fill="none" stroke="#ff0000" d="M1423.99,-174.21C1411.86,-161.63 1395.09,-144.25 1381.52,-130.18"/>
<polygon fill="#ff0000" stroke="#ff0000" points="1383.82,-127.53 1374.36,-122.76 1378.78,-132.39 1383.82,-127.53"/>
<text text-anchor="middle" x="1413.69" y="-144.8" font-family="Times,serif" font-size="14.00">yes</text>
</g>
<!-- 18 -->
<g id="node25" class="node">
<title>18</title>
<ellipse fill="none" stroke="black" cx="1563.19" cy="-105" rx="93.68" ry="18"/>
<text text-anchor="middle" x="1563.19" y="-101.3" font-family="Times,serif" font-size="14.00">Vol_Chg&lt;0.384643704</text>
</g>
<!-- 11&#45;&gt;18 -->
<g id="edge24" class="edge">
<title>11&#45;&gt;18</title>
<path fill="none" stroke="#0000ff" d="M1464.2,-174.41C1483.25,-161.25 1510.06,-142.72 1530.97,-128.27"/>
<polygon fill="#0000ff" stroke="#0000ff" points="1533.01,-131.11 1539.25,-122.55 1529.03,-125.35 1533.01,-131.11"/>
<text text-anchor="middle" x="1541.19" y="-144.8" font-family="Times,serif" font-size="14.00">no, missing</text>
</g>
<!-- 19 -->
<g id="node30" class="node">
<title>19</title>
<ellipse fill="none" stroke="black" cx="1999.19" cy="-105" rx="94.78" ry="18"/>
<text text-anchor="middle" x="1999.19" y="-101.3" font-family="Times,serif" font-size="14.00">OBV&lt;7.14041459e+11</text>
</g>
<!-- 12&#45;&gt;19 -->
<g id="edge29" class="edge">
<title>12&#45;&gt;19</title>
<path fill="none" stroke="#ff0000" d="M1999.19,-173.8C1999.19,-162.16 1999.19,-146.55 1999.19,-133.24"/>
<polygon fill="#ff0000" stroke="#ff0000" points="2002.69,-133.18 1999.19,-123.18 1995.69,-133.18 2002.69,-133.18"/>
<text text-anchor="middle" x="2008.69" y="-144.8" font-family="Times,serif" font-size="14.00">yes</text>
</g>
<!-- 20 -->
<g id="node31" class="node">
<title>20</title>
<ellipse fill="none" stroke="black" cx="2288.19" cy="-105" rx="97.48" ry="18"/>
<text text-anchor="middle" x="2288.19" y="-101.3" font-family="Times,serif" font-size="14.00">Mon_Cos&lt;0.866025388</text>
</g>
<!-- 12&#45;&gt;20 -->
<g id="edge30" class="edge">
<title>12&#45;&gt;20</title>
<path fill="none" stroke="#0000ff" d="M2049.2,-176.29C2099.24,-161.57 2176.19,-138.94 2229.19,-123.35"/>
<polygon fill="#0000ff" stroke="#0000ff" points="2230.19,-126.71 2238.79,-120.53 2228.21,-119.99 2230.19,-126.71"/>
<text text-anchor="middle" x="2193.19" y="-144.8" font-family="Times,serif" font-size="14.00">no, missing</text>
</g>
<!-- 27 -->
<g id="node26" class="node">
<title>27</title>
<ellipse fill="none" stroke="black" cx="1187.19" cy="-18" rx="79.89" ry="18"/>
<text text-anchor="middle" x="1187.19" y="-14.3" font-family="Times,serif" font-size="14.00">leaf=0.0247138124</text>
</g>
<!-- 17&#45;&gt;27 -->
<g id="edge25" class="edge">
<title>17&#45;&gt;27</title>
<path fill="none" stroke="#ff0000" d="M1326.03,-88.01C1298.15,-74.15 1257.67,-54.03 1227.6,-39.09"/>
<polygon fill="#ff0000" stroke="#ff0000" points="1229.15,-35.95 1218.63,-34.63 1226.03,-42.21 1229.15,-35.95"/>
<text text-anchor="middle" x="1292.69" y="-57.8" font-family="Times,serif" font-size="14.00">yes</text>
</g>
<!-- 28 -->
<g id="node27" class="node">
<title>28</title>
<ellipse fill="none" stroke="black" cx="1368.19" cy="-18" rx="83.39" ry="18"/>
<text text-anchor="middle" x="1368.19" y="-14.3" font-family="Times,serif" font-size="14.00">leaf=&#45;0.0511456318</text>
</g>
<!-- 17&#45;&gt;28 -->
<g id="edge26" class="edge">
<title>17&#45;&gt;28</title>
<path fill="none" stroke="#0000ff" d="M1360.22,-86.8C1361.59,-75.16 1363.42,-59.55 1364.99,-46.24"/>
<polygon fill="#0000ff" stroke="#0000ff" points="1368.48,-46.52 1366.17,-36.18 1361.53,-45.7 1368.48,-46.52"/>
<text text-anchor="middle" x="1396.19" y="-57.8" font-family="Times,serif" font-size="14.00">no, missing</text>
</g>
<!-- 29 -->
<g id="node28" class="node">
<title>29</title>
<ellipse fill="none" stroke="black" cx="1552.19" cy="-18" rx="83.39" ry="18"/>
<text text-anchor="middle" x="1552.19" y="-14.3" font-family="Times,serif" font-size="14.00">leaf=&#45;0.0175961442</text>
</g>
<!-- 18&#45;&gt;29 -->
<g id="edge27" class="edge">
<title>18&#45;&gt;29</title>
<path fill="none" stroke="#ff0000" d="M1560.97,-86.8C1559.46,-75.16 1557.44,-59.55 1555.72,-46.24"/>
<polygon fill="#ff0000" stroke="#ff0000" points="1559.17,-45.64 1554.42,-36.18 1552.23,-46.54 1559.17,-45.64"/>
<text text-anchor="middle" x="1568.69" y="-57.8" font-family="Times,serif" font-size="14.00">yes</text>
</g>
<!-- 30 -->
<g id="node29" class="node">
<title>30</title>
<ellipse fill="none" stroke="black" cx="1738.19" cy="-18" rx="84.49" ry="18"/>
<text text-anchor="middle" x="1738.19" y="-14.3" font-family="Times,serif" font-size="14.00">leaf=0.00949067902</text>
</g>
<!-- 18&#45;&gt;30 -->
<g id="edge28" class="edge">
<title>18&#45;&gt;30</title>
<path fill="none" stroke="#0000ff" d="M1596.11,-88.01C1624.55,-74.2 1665.81,-54.16 1696.54,-39.23"/>
<polygon fill="#0000ff" stroke="#0000ff" points="1698.25,-42.29 1705.72,-34.77 1695.2,-35.99 1698.25,-42.29"/>
<text text-anchor="middle" x="1693.19" y="-57.8" font-family="Times,serif" font-size="14.00">no, missing</text>
</g>
<!-- 31 -->
<g id="node32" class="node">
<title>31</title>
<ellipse fill="none" stroke="black" cx="1920.19" cy="-18" rx="79.89" ry="18"/>
<text text-anchor="middle" x="1920.19" y="-14.3" font-family="Times,serif" font-size="14.00">leaf=0.0543183088</text>
</g>
<!-- 19&#45;&gt;31 -->
<g id="edge31" class="edge">
<title>19&#45;&gt;31</title>
<path fill="none" stroke="#ff0000" d="M1983.58,-87.21C1971.9,-74.63 1955.74,-57.25 1942.67,-43.18"/>
<polygon fill="#ff0000" stroke="#ff0000" points="1945.14,-40.7 1935.77,-35.76 1940.01,-45.47 1945.14,-40.7"/>
<text text-anchor="middle" x="1974.69" y="-57.8" font-family="Times,serif" font-size="14.00">yes</text>
</g>
<!-- 32 -->
<g id="node33" class="node">
<title>32</title>
<ellipse fill="none" stroke="black" cx="2102.19" cy="-18" rx="84.49" ry="18"/>
<text text-anchor="middle" x="2102.19" y="-14.3" font-family="Times,serif" font-size="14.00">leaf=0.00562043721</text>
</g>
<!-- 19&#45;&gt;32 -->
<g id="edge32" class="edge">
<title>19&#45;&gt;32</title>
<path fill="none" stroke="#0000ff" d="M2019.54,-87.21C2035.06,-74.4 2056.62,-56.61 2073.83,-42.4"/>
<polygon fill="#0000ff" stroke="#0000ff" points="2076.4,-44.82 2081.89,-35.76 2071.94,-39.42 2076.4,-44.82"/>
<text text-anchor="middle" x="2089.19" y="-57.8" font-family="Times,serif" font-size="14.00">no, missing</text>
</g>
<!-- 33 -->
<g id="node34" class="node">
<title>33</title>
<ellipse fill="none" stroke="black" cx="2288.19" cy="-18" rx="83.39" ry="18"/>
<text text-anchor="middle" x="2288.19" y="-14.3" font-family="Times,serif" font-size="14.00">leaf=&#45;0.0220227931</text>
</g>
<!-- 20&#45;&gt;33 -->
<g id="edge33" class="edge">
<title>20&#45;&gt;33</title>
<path fill="none" stroke="#ff0000" d="M2288.19,-86.8C2288.19,-75.16 2288.19,-59.55 2288.19,-46.24"/>
<polygon fill="#ff0000" stroke="#ff0000" points="2291.69,-46.18 2288.19,-36.18 2284.69,-46.18 2291.69,-46.18"/>
<text text-anchor="middle" x="2297.69" y="-57.8" font-family="Times,serif" font-size="14.00">yes</text>
</g>
<!-- 34 -->
<g id="node35" class="node">
<title>34</title>
<ellipse fill="none" stroke="black" cx="2469.19" cy="-18" rx="79.89" ry="18"/>
<text text-anchor="middle" x="2469.19" y="-14.3" font-family="Times,serif" font-size="14.00">leaf=0.0196073614</text>
</g>
<!-- 20&#45;&gt;34 -->
<g id="edge34" class="edge">
<title>20&#45;&gt;34</title>
<path fill="none" stroke="#0000ff" d="M2322.24,-88.01C2351.97,-74.05 2395.24,-53.73 2427.13,-38.75"/>
<polygon fill="#0000ff" stroke="#0000ff" points="2428.65,-41.9 2436.22,-34.49 2425.68,-35.57 2428.65,-41.9"/>
<text text-anchor="middle" x="2422.19" y="-57.8" font-family="Times,serif" font-size="14.00">no, missing</text>
</g>
</g>
</svg>
