<?xml version="1.0" encoding="UTF-8" standalone="no"?>
<!DOCTYPE svg PUBLIC "-//W3C//DTD SVG 1.1//EN"
 "http://www.w3.org/Graphics/SVG/1.1/DTD/svg11.dtd">
<!-- Generated by graphviz version 2.43.0 (0)
 -->
<!-- Title: %3 Pages: 1 -->
<svg width="1550pt" height="479pt"
 viewBox="0.00 0.00 1550.04 479.00" xmlns="http://www.w3.org/2000/svg" xmlns:xlink="http://www.w3.org/1999/xlink">
<g id="graph0" class="graph" transform="scale(1 1) rotate(0) translate(4 475)">
<title>%3</title>
<polygon fill="white" stroke="transparent" points="-4,4 -4,-475 1546.04,-475 1546.04,4 -4,4"/>
<!-- 0 -->
<g id="node1" class="node">
<title>0</title>
<ellipse fill="none" stroke="black" cx="554.94" cy="-453" rx="74.99" ry="18"/>
<text text-anchor="middle" x="554.94" y="-449.3" font-family="Times,serif" font-size="14.00">ATR&lt;272.028625</text>
</g>
<!-- 1 -->
<g id="node2" class="node">
<title>1</title>
<ellipse fill="none" stroke="black" cx="432.94" cy="-366" rx="94.78" ry="18"/>
<text text-anchor="middle" x="432.94" y="-362.3" font-family="Times,serif" font-size="14.00">OBV&lt;6.75583951e+11</text>
</g>
<!-- 0&#45;&gt;1 -->
<g id="edge1" class="edge">
<title>0&#45;&gt;1</title>
<path fill="none" stroke="#ff0000" d="M531.71,-435.81C512.87,-422.69 486.11,-404.05 465.2,-389.47"/>
<polygon fill="#ff0000" stroke="#ff0000" points="467.13,-386.55 456.92,-383.71 463.13,-392.3 467.13,-386.55"/>
<text text-anchor="middle" x="511.44" y="-405.8" font-family="Times,serif" font-size="14.00">yes</text>
</g>
<!-- 2 -->
<g id="node3" class="node">
<title>2</title>
<ellipse fill="none" stroke="black" cx="677.94" cy="-366" rx="132.68" ry="18"/>
<text text-anchor="middle" x="677.94" y="-362.3" font-family="Times,serif" font-size="14.00">regime_vol_trend&lt;&#45;0.0301756114</text>
</g>
<!-- 0&#45;&gt;2 -->
<g id="edge2" class="edge">
<title>0&#45;&gt;2</title>
<path fill="none" stroke="#0000ff" d="M578.37,-435.81C597.36,-422.69 624.34,-404.05 645.42,-389.47"/>
<polygon fill="#0000ff" stroke="#0000ff" points="647.53,-392.27 653.76,-383.71 643.55,-386.51 647.53,-392.27"/>
<text text-anchor="middle" x="655.94" y="-405.8" font-family="Times,serif" font-size="14.00">no, missing</text>
</g>
<!-- 3 -->
<g id="node4" class="node">
<title>3</title>
<ellipse fill="none" stroke="black" cx="249.94" cy="-279" rx="98.28" ry="18"/>
<text text-anchor="middle" x="249.94" y="-275.3" font-family="Times,serif" font-size="14.00">Vol_Chg&lt;0.0634765103</text>
</g>
<!-- 1&#45;&gt;3 -->
<g id="edge3" class="edge">
<title>1&#45;&gt;3</title>
<path fill="none" stroke="#ff0000" d="M398.52,-349.01C368.74,-335.18 325.54,-315.11 293.38,-300.18"/>
<polygon fill="#ff0000" stroke="#ff0000" points="294.75,-296.95 284.21,-295.92 291.8,-303.3 294.75,-296.95"/>
<text text-anchor="middle" x="362.44" y="-318.8" font-family="Times,serif" font-size="14.00">yes</text>
</g>
<!-- 4 -->
<g id="node5" class="node">
<title>4</title>
<ellipse fill="none" stroke="black" cx="445.94" cy="-279" rx="79.89" ry="18"/>
<text text-anchor="middle" x="445.94" y="-275.3" font-family="Times,serif" font-size="14.00">leaf=0.0481998064</text>
</g>
<!-- 1&#45;&gt;4 -->
<g id="edge4" class="edge">
<title>1&#45;&gt;4</title>
<path fill="none" stroke="#0000ff" d="M435.57,-347.8C437.35,-336.16 439.74,-320.55 441.78,-307.24"/>
<polygon fill="#0000ff" stroke="#0000ff" points="445.26,-307.59 443.32,-297.18 438.34,-306.53 445.26,-307.59"/>
<text text-anchor="middle" x="472.94" y="-318.8" font-family="Times,serif" font-size="14.00">no, missing</text>
</g>
<!-- 5 -->
<g id="node8" class="node">
<title>5</title>
<ellipse fill="none" stroke="black" cx="640.94" cy="-279" rx="94.78" ry="18"/>
<text text-anchor="middle" x="640.94" y="-275.3" font-family="Times,serif" font-size="14.00">OBV&lt;6.65671893e+11</text>
</g>
<!-- 2&#45;&gt;5 -->
<g id="edge7" class="edge">
<title>2&#45;&gt;5</title>
<path fill="none" stroke="#ff0000" d="M668.58,-347.74C665.68,-342.14 662.56,-335.87 659.94,-330 656.63,-322.57 653.36,-314.37 650.49,-306.79"/>
<polygon fill="#ff0000" stroke="#ff0000" points="653.74,-305.48 646.98,-297.32 647.17,-307.91 653.74,-305.48"/>
<text text-anchor="middle" x="669.44" y="-318.8" font-family="Times,serif" font-size="14.00">yes</text>
</g>
<!-- 6 -->
<g id="node9" class="node">
<title>6</title>
<ellipse fill="none" stroke="black" cx="909.94" cy="-279" rx="132.68" ry="18"/>
<text text-anchor="middle" x="909.94" y="-275.3" font-family="Times,serif" font-size="14.00">regime_vol_trend&lt;&#45;0.0268826857</text>
</g>
<!-- 2&#45;&gt;6 -->
<g id="edge8" class="edge">
<title>2&#45;&gt;6</title>
<path fill="none" stroke="#0000ff" d="M721.85,-348.91C760.16,-334.88 815.85,-314.47 856.69,-299.51"/>
<polygon fill="#0000ff" stroke="#0000ff" points="858.03,-302.75 866.21,-296.02 855.62,-296.18 858.03,-302.75"/>
<text text-anchor="middle" x="839.94" y="-318.8" font-family="Times,serif" font-size="14.00">no, missing</text>
</g>
<!-- 7 -->
<g id="node6" class="node">
<title>7</title>
<ellipse fill="none" stroke="black" cx="79.94" cy="-192" rx="79.89" ry="18"/>
<text text-anchor="middle" x="79.94" y="-188.3" font-family="Times,serif" font-size="14.00">leaf=0.0248725992</text>
</g>
<!-- 3&#45;&gt;7 -->
<g id="edge5" class="edge">
<title>3&#45;&gt;7</title>
<path fill="none" stroke="#ff0000" d="M217.57,-261.81C190.01,-248.03 150.29,-228.17 120.6,-213.33"/>
<polygon fill="#ff0000" stroke="#ff0000" points="121.85,-210.04 111.34,-208.7 118.72,-216.3 121.85,-210.04"/>
<text text-anchor="middle" x="185.44" y="-231.8" font-family="Times,serif" font-size="14.00">yes</text>
</g>
<!-- 8 -->
<g id="node7" class="node">
<title>8</title>
<ellipse fill="none" stroke="black" cx="260.94" cy="-192" rx="83.39" ry="18"/>
<text text-anchor="middle" x="260.94" y="-188.3" font-family="Times,serif" font-size="14.00">leaf=&#45;0.0133039579</text>
</g>
<!-- 3&#45;&gt;8 -->
<g id="edge6" class="edge">
<title>3&#45;&gt;8</title>
<path fill="none" stroke="#0000ff" d="M252.17,-260.8C253.67,-249.16 255.7,-233.55 257.42,-220.24"/>
<polygon fill="#0000ff" stroke="#0000ff" points="260.91,-220.54 258.72,-210.18 253.97,-219.64 260.91,-220.54"/>
<text text-anchor="middle" x="288.94" y="-231.8" font-family="Times,serif" font-size="14.00">no, missing</text>
</g>
<!-- 9 -->
<g id="node10" class="node">
<title>9</title>
<ellipse fill="none" stroke="black" cx="447.94" cy="-192" rx="75.29" ry="18"/>
<text text-anchor="middle" x="447.94" y="-188.3" font-family="Times,serif" font-size="14.00">leaf=0.021203192</text>
</g>
<!-- 5&#45;&gt;9 -->
<g id="edge9" class="edge">
<title>5&#45;&gt;9</title>
<path fill="none" stroke="#ff0000" d="M605.09,-262.21C573.01,-248.08 525.88,-227.32 491.61,-212.23"/>
<polygon fill="#ff0000" stroke="#ff0000" points="492.87,-208.96 482.3,-208.13 490.04,-215.37 492.87,-208.96"/>
<text text-anchor="middle" x="566.44" y="-231.8" font-family="Times,serif" font-size="14.00">yes</text>
</g>
<!-- 10 -->
<g id="node11" class="node">
<title>10</title>
<ellipse fill="none" stroke="black" cx="640.94" cy="-192" rx="99.38" ry="18"/>
<text text-anchor="middle" x="640.94" y="-188.3" font-family="Times,serif" font-size="14.00">MACD_Hist&lt;144.53923</text>
</g>
<!-- 5&#45;&gt;10 -->
<g id="edge10" class="edge">
<title>5&#45;&gt;10</title>
<path fill="none" stroke="#0000ff" d="M640.94,-260.8C640.94,-249.16 640.94,-233.55 640.94,-220.24"/>
<polygon fill="#0000ff" stroke="#0000ff" points="644.44,-220.18 640.94,-210.18 637.44,-220.18 644.44,-220.18"/>
<text text-anchor="middle" x="672.94" y="-231.8" font-family="Times,serif" font-size="14.00">no, missing</text>
</g>
<!-- 11 -->
<g id="node14" class="node">
<title>11</title>
<ellipse fill="none" stroke="black" cx="909.94" cy="-192" rx="103.98" ry="18"/>
<text text-anchor="middle" x="909.94" y="-188.3" font-family="Times,serif" font-size="14.00">MACD_Hist&lt;132.467667</text>
</g>
<!-- 6&#45;&gt;11 -->
<g id="edge13" class="edge">
<title>6&#45;&gt;11</title>
<path fill="none" stroke="#ff0000" d="M909.94,-260.8C909.94,-249.16 909.94,-233.55 909.94,-220.24"/>
<polygon fill="#ff0000" stroke="#ff0000" points="913.44,-220.18 909.94,-210.18 906.44,-220.18 913.44,-220.18"/>
<text text-anchor="middle" x="919.44" y="-231.8" font-family="Times,serif" font-size="14.00">yes</text>
</g>
<!-- 12 -->
<g id="node15" class="node">
<title>12</title>
<ellipse fill="none" stroke="black" cx="1189.94" cy="-192" rx="132.68" ry="18"/>
<text text-anchor="middle" x="1189.94" y="-188.3" font-family="Times,serif" font-size="14.00">regime_vol_trend&lt;&#45;0.0256753378</text>
</g>
<!-- 6&#45;&gt;12 -->
<g id="edge14" class="edge">
<title>6&#45;&gt;12</title>
<path fill="none" stroke="#0000ff" d="M961.63,-262.31C1008.88,-247.96 1078.83,-226.73 1128.84,-211.55"/>
<polygon fill="#0000ff" stroke="#0000ff" points="1130.01,-214.85 1138.56,-208.6 1127.98,-208.15 1130.01,-214.85"/>
<text text-anchor="middle" x="1098.94" y="-231.8" font-family="Times,serif" font-size="14.00">no, missing</text>
</g>
<!-- 13 -->
<g id="node12" class="node">
<title>13</title>
<ellipse fill="none" stroke="black" cx="456.94" cy="-105" rx="83.39" ry="18"/>
<text text-anchor="middle" x="456.94" y="-101.3" font-family="Times,serif" font-size="14.00">leaf=&#45;0.0595532134</text>
</g>
<!-- 10&#45;&gt;13 -->
<g id="edge11" class="edge">
<title>10&#45;&gt;13</title>
<path fill="none" stroke="#ff0000" d="M606.33,-175.01C576.11,-161.05 532.12,-140.73 499.7,-125.75"/>
<polygon fill="#ff0000" stroke="#ff0000" points="501.01,-122.5 490.47,-121.49 498.08,-128.86 501.01,-122.5"/>
<text text-anchor="middle" x="570.44" y="-144.8" font-family="Times,serif" font-size="14.00">yes</text>
</g>
<!-- 14 -->
<g id="node13" class="node">
<title>14</title>
<ellipse fill="none" stroke="black" cx="640.94" cy="-105" rx="83.39" ry="18"/>
<text text-anchor="middle" x="640.94" y="-101.3" font-family="Times,serif" font-size="14.00">leaf=&#45;0.0180495959</text>
</g>
<!-- 10&#45;&gt;14 -->
<g id="edge12" class="edge">
<title>10&#45;&gt;14</title>
<path fill="none" stroke="#0000ff" d="M640.94,-173.8C640.94,-162.16 640.94,-146.55 640.94,-133.24"/>
<polygon fill="#0000ff" stroke="#0000ff" points="644.44,-133.18 640.94,-123.18 637.44,-133.18 644.44,-133.18"/>
<text text-anchor="middle" x="672.94" y="-144.8" font-family="Times,serif" font-size="14.00">no, missing</text>
</g>
<!-- 15 -->
<g id="node16" class="node">
<title>15</title>
<ellipse fill="none" stroke="black" cx="821.94" cy="-105" rx="79.89" ry="18"/>
<text text-anchor="middle" x="821.94" y="-101.3" font-family="Times,serif" font-size="14.00">leaf=0.0581483021</text>
</g>
<!-- 11&#45;&gt;15 -->
<g id="edge15" class="edge">
<title>11&#45;&gt;15</title>
<path fill="none" stroke="#ff0000" d="M892.56,-174.21C879.42,-161.52 861.21,-143.93 846.58,-129.79"/>
<polygon fill="#ff0000" stroke="#ff0000" points="848.92,-127.19 839.29,-122.76 844.05,-132.22 848.92,-127.19"/>
<text text-anchor="middle" x="881.44" y="-144.8" font-family="Times,serif" font-size="14.00">yes</text>
</g>
<!-- 16 -->
<g id="node17" class="node">
<title>16</title>
<ellipse fill="none" stroke="black" cx="1003.94" cy="-105" rx="84.49" ry="18"/>
<text text-anchor="middle" x="1003.94" y="-101.3" font-family="Times,serif" font-size="14.00">leaf=0.00449576089</text>
</g>
<!-- 11&#45;&gt;16 -->
<g id="edge16" class="edge">
<title>11&#45;&gt;16</title>
<path fill="none" stroke="#0000ff" d="M928.51,-174.21C942.55,-161.52 962,-143.93 977.63,-129.79"/>
<polygon fill="#0000ff" stroke="#0000ff" points="980.34,-132.06 985.41,-122.76 975.65,-126.87 980.34,-132.06"/>
<text text-anchor="middle" x="994.94" y="-144.8" font-family="Times,serif" font-size="14.00">no, missing</text>
</g>
<!-- 17 -->
<g id="node18" class="node">
<title>17</title>
<ellipse fill="none" stroke="black" cx="1189.94" cy="-105" rx="83.39" ry="18"/>
<text text-anchor="middle" x="1189.94" y="-101.3" font-family="Times,serif" font-size="14.00">leaf=&#45;0.0482899956</text>
</g>
<!-- 12&#45;&gt;17 -->
<g id="edge17" class="edge">
<title>12&#45;&gt;17</title>
<path fill="none" stroke="#ff0000" d="M1189.94,-173.8C1189.94,-162.16 1189.94,-146.55 1189.94,-133.24"/>
<polygon fill="#ff0000" stroke="#ff0000" points="1193.44,-133.18 1189.94,-123.18 1186.44,-133.18 1193.44,-133.18"/>
<text text-anchor="middle" x="1199.44" y="-144.8" font-family="Times,serif" font-size="14.00">yes</text>
</g>
<!-- 18 -->
<g id="node19" class="node">
<title>18</title>
<ellipse fill="none" stroke="black" cx="1362.94" cy="-105" rx="71.49" ry="18"/>
<text text-anchor="middle" x="1362.94" y="-101.3" font-family="Times,serif" font-size="14.00">RSI&lt;37.2837715</text>
</g>
<!-- 12&#45;&gt;18 -->
<g id="edge18" class="edge">
<title>12&#45;&gt;18</title>
<path fill="none" stroke="#0000ff" d="M1223.71,-174.41C1252.01,-160.5 1292.5,-140.61 1322.53,-125.86"/>
<polygon fill="#0000ff" stroke="#0000ff" points="1324.45,-128.81 1331.88,-121.26 1321.36,-122.53 1324.45,-128.81"/>
<text text-anchor="middle" x="1318.94" y="-144.8" font-family="Times,serif" font-size="14.00">no, missing</text>
</g>
<!-- 19 -->
<g id="node20" class="node">
<title>19</title>
<ellipse fill="none" stroke="black" cx="1269.94" cy="-18" rx="79.89" ry="18"/>
<text text-anchor="middle" x="1269.94" y="-14.3" font-family="Times,serif" font-size="14.00">leaf=0.0119578587</text>
</g>
<!-- 18&#45;&gt;19 -->
<g id="edge19" class="edge">
<title>18&#45;&gt;19</title>
<path fill="none" stroke="#ff0000" d="M1344.57,-87.21C1330.69,-74.52 1311.44,-56.93 1295.97,-42.79"/>
<polygon fill="#ff0000" stroke="#ff0000" points="1298.02,-39.92 1288.28,-35.76 1293.3,-45.09 1298.02,-39.92"/>
<text text-anchor="middle" x="1332.44" y="-57.8" font-family="Times,serif" font-size="14.00">yes</text>
</g>
<!-- 20 -->
<g id="node21" class="node">
<title>20</title>
<ellipse fill="none" stroke="black" cx="1454.94" cy="-18" rx="87.18" ry="18"/>
<text text-anchor="middle" x="1454.94" y="-14.3" font-family="Times,serif" font-size="14.00">leaf=&#45;0.00184259645</text>
</g>
<!-- 18&#45;&gt;20 -->
<g id="edge20" class="edge">
<title>18&#45;&gt;20</title>
<path fill="none" stroke="#0000ff" d="M1381.12,-87.21C1394.85,-74.52 1413.89,-56.93 1429.19,-42.79"/>
<polygon fill="#0000ff" stroke="#0000ff" points="1431.83,-45.12 1436.8,-35.76 1427.08,-39.97 1431.83,-45.12"/>
<text text-anchor="middle" x="1445.94" y="-57.8" font-family="Times,serif" font-size="14.00">no, missing</text>
</g>
</g>
</svg>
