<?xml version="1.0" encoding="UTF-8" standalone="no"?>
<!DOCTYPE svg PUBLIC "-//W3C//DTD SVG 1.1//EN"
 "http://www.w3.org/Graphics/SVG/1.1/DTD/svg11.dtd">
<!-- Generated by graphviz version 2.43.0 (0)
 -->
<!-- Title: %3 Pages: 1 -->
<svg width="1464pt" height="479pt"
 viewBox="0.00 0.00 1463.58 479.00" xmlns="http://www.w3.org/2000/svg" xmlns:xlink="http://www.w3.org/1999/xlink">
<g id="graph0" class="graph" transform="scale(1 1) rotate(0) translate(4 475)">
<title>%3</title>
<polygon fill="white" stroke="transparent" points="-4,4 -4,-475 1459.58,-475 1459.58,4 -4,4"/>
<!-- 0 -->
<g id="node1" class="node">
<title>0</title>
<ellipse fill="none" stroke="black" cx="795.09" cy="-453" rx="96.68" ry="18"/>
<text text-anchor="middle" x="795.09" y="-449.3" font-family="Times,serif" font-size="14.00">Vol_Chg&lt;&#45;0.503857255</text>
</g>
<!-- 1 -->
<g id="node2" class="node">
<title>1</title>
<ellipse fill="none" stroke="black" cx="699.09" cy="-366" rx="71.49" ry="18"/>
<text text-anchor="middle" x="699.09" y="-362.3" font-family="Times,serif" font-size="14.00">RSI&lt;43.6409988</text>
</g>
<!-- 0&#45;&gt;1 -->
<g id="edge1" class="edge">
<title>0&#45;&gt;1</title>
<path fill="none" stroke="#ff0000" d="M776.13,-435.21C761.57,-422.32 741.3,-404.38 725.21,-390.13"/>
<polygon fill="#ff0000" stroke="#ff0000" points="727.5,-387.48 717.69,-383.47 722.86,-392.72 727.5,-387.48"/>
<text text-anchor="middle" x="762.59" y="-405.8" font-family="Times,serif" font-size="14.00">yes</text>
</g>
<!-- 2 -->
<g id="node3" class="node">
<title>2</title>
<ellipse fill="none" stroke="black" cx="892.09" cy="-366" rx="103.98" ry="18"/>
<text text-anchor="middle" x="892.09" y="-362.3" font-family="Times,serif" font-size="14.00">MACD_Hist&lt;1139.34351</text>
</g>
<!-- 0&#45;&gt;2 -->
<g id="edge2" class="edge">
<title>0&#45;&gt;2</title>
<path fill="none" stroke="#0000ff" d="M814.26,-435.21C828.87,-422.4 849.18,-404.61 865.38,-390.4"/>
<polygon fill="#0000ff" stroke="#0000ff" points="867.75,-392.98 872.97,-383.76 863.14,-387.72 867.75,-392.98"/>
<text text-anchor="middle" x="882.09" y="-405.8" font-family="Times,serif" font-size="14.00">no, missing</text>
</g>
<!-- 3 -->
<g id="node4" class="node">
<title>3</title>
<ellipse fill="none" stroke="black" cx="516.09" cy="-279" rx="79.89" ry="18"/>
<text text-anchor="middle" x="516.09" y="-275.3" font-family="Times,serif" font-size="14.00">leaf=0.0463478751</text>
</g>
<!-- 1&#45;&gt;3 -->
<g id="edge3" class="edge">
<title>1&#45;&gt;3</title>
<path fill="none" stroke="#ff0000" d="M666.38,-349.8C636.34,-335.85 591.65,-315.09 558.81,-299.84"/>
<polygon fill="#ff0000" stroke="#ff0000" points="560,-296.53 549.45,-295.5 557.05,-302.88 560,-296.53"/>
<text text-anchor="middle" x="628.59" y="-318.8" font-family="Times,serif" font-size="14.00">yes</text>
</g>
<!-- 4 -->
<g id="node5" class="node">
<title>4</title>
<ellipse fill="none" stroke="black" cx="701.09" cy="-279" rx="87.18" ry="18"/>
<text text-anchor="middle" x="701.09" y="-275.3" font-family="Times,serif" font-size="14.00">leaf=&#45;0.00324707036</text>
</g>
<!-- 1&#45;&gt;4 -->
<g id="edge4" class="edge">
<title>1&#45;&gt;4</title>
<path fill="none" stroke="#0000ff" d="M699.5,-347.8C699.77,-336.16 700.14,-320.55 700.45,-307.24"/>
<polygon fill="#0000ff" stroke="#0000ff" points="703.95,-307.26 700.69,-297.18 696.95,-307.09 703.95,-307.26"/>
<text text-anchor="middle" x="733.09" y="-318.8" font-family="Times,serif" font-size="14.00">no, missing</text>
</g>
<!-- 5 -->
<g id="node6" class="node">
<title>5</title>
<ellipse fill="none" stroke="black" cx="890.09" cy="-279" rx="83.39" ry="18"/>
<text text-anchor="middle" x="890.09" y="-275.3" font-family="Times,serif" font-size="14.00">BBW&lt;0.428937346</text>
</g>
<!-- 2&#45;&gt;5 -->
<g id="edge5" class="edge">
<title>2&#45;&gt;5</title>
<path fill="none" stroke="#ff0000" d="M891.69,-347.8C891.41,-336.16 891.05,-320.55 890.73,-307.24"/>
<polygon fill="#ff0000" stroke="#ff0000" points="894.23,-307.09 890.5,-297.18 887.23,-307.26 894.23,-307.09"/>
<text text-anchor="middle" x="901.59" y="-318.8" font-family="Times,serif" font-size="14.00">yes</text>
</g>
<!-- 6 -->
<g id="node7" class="node">
<title>6</title>
<ellipse fill="none" stroke="black" cx="1098.09" cy="-279" rx="100.18" ry="18"/>
<text text-anchor="middle" x="1098.09" y="-275.3" font-family="Times,serif" font-size="14.00">regime_adx&lt;28.5574455</text>
</g>
<!-- 2&#45;&gt;6 -->
<g id="edge6" class="edge">
<title>2&#45;&gt;6</title>
<path fill="none" stroke="#0000ff" d="M930.36,-349.21C964.32,-335.2 1014.08,-314.66 1050.59,-299.6"/>
<polygon fill="#0000ff" stroke="#0000ff" points="1052.12,-302.75 1060.03,-295.7 1049.45,-296.28 1052.12,-302.75"/>
<text text-anchor="middle" x="1040.09" y="-318.8" font-family="Times,serif" font-size="14.00">no, missing</text>
</g>
<!-- 7 -->
<g id="node8" class="node">
<title>7</title>
<ellipse fill="none" stroke="black" cx="529.09" cy="-192" rx="71.49" ry="18"/>
<text text-anchor="middle" x="529.09" y="-188.3" font-family="Times,serif" font-size="14.00">RSI&lt;81.0070953</text>
</g>
<!-- 5&#45;&gt;7 -->
<g id="edge7" class="edge">
<title>5&#45;&gt;7</title>
<path fill="none" stroke="#ff0000" d="M836.05,-265.27C769.87,-249.69 658.12,-223.38 589.26,-207.17"/>
<polygon fill="#ff0000" stroke="#ff0000" points="589.96,-203.74 579.43,-204.85 588.36,-210.55 589.96,-203.74"/>
<text text-anchor="middle" x="741.59" y="-231.8" font-family="Times,serif" font-size="14.00">yes</text>
</g>
<!-- 8 -->
<g id="node9" class="node">
<title>8</title>
<ellipse fill="none" stroke="black" cx="890.09" cy="-192" rx="102.88" ry="18"/>
<text text-anchor="middle" x="890.09" y="-188.3" font-family="Times,serif" font-size="14.00">Vol_Chg&lt;0.00169939105</text>
</g>
<!-- 5&#45;&gt;8 -->
<g id="edge8" class="edge">
<title>5&#45;&gt;8</title>
<path fill="none" stroke="#0000ff" d="M890.09,-260.8C890.09,-249.16 890.09,-233.55 890.09,-220.24"/>
<polygon fill="#0000ff" stroke="#0000ff" points="893.59,-220.18 890.09,-210.18 886.59,-220.18 893.59,-220.18"/>
<text text-anchor="middle" x="922.09" y="-231.8" font-family="Times,serif" font-size="14.00">no, missing</text>
</g>
<!-- 9 -->
<g id="node22" class="node">
<title>9</title>
<ellipse fill="none" stroke="black" cx="1098.09" cy="-192" rx="87.18" ry="18"/>
<text text-anchor="middle" x="1098.09" y="-188.3" font-family="Times,serif" font-size="14.00">leaf=&#45;0.00325576821</text>
</g>
<!-- 6&#45;&gt;9 -->
<g id="edge21" class="edge">
<title>6&#45;&gt;9</title>
<path fill="none" stroke="#ff0000" d="M1098.09,-260.8C1098.09,-249.16 1098.09,-233.55 1098.09,-220.24"/>
<polygon fill="#ff0000" stroke="#ff0000" points="1101.59,-220.18 1098.09,-210.18 1094.59,-220.18 1101.59,-220.18"/>
<text text-anchor="middle" x="1107.59" y="-231.8" font-family="Times,serif" font-size="14.00">yes</text>
</g>
<!-- 10 -->
<g id="node23" class="node">
<title>10</title>
<ellipse fill="none" stroke="black" cx="1286.09" cy="-192" rx="83.39" ry="18"/>
<text text-anchor="middle" x="1286.09" y="-188.3" font-family="Times,serif" font-size="14.00">leaf=&#45;0.0398548432</text>
</g>
<!-- 6&#45;&gt;10 -->
<g id="edge22" class="edge">
<title>6&#45;&gt;10</title>
<path fill="none" stroke="#0000ff" d="M1133.45,-262.01C1164.34,-248.05 1209.28,-227.73 1242.4,-212.75"/>
<polygon fill="#0000ff" stroke="#0000ff" points="1244.17,-215.8 1251.84,-208.49 1241.29,-209.42 1244.17,-215.8"/>
<text text-anchor="middle" x="1236.09" y="-231.8" font-family="Times,serif" font-size="14.00">no, missing</text>
</g>
<!-- 11 -->
<g id="node10" class="node">
<title>11</title>
<ellipse fill="none" stroke="black" cx="272.09" cy="-105" rx="71.49" ry="18"/>
<text text-anchor="middle" x="272.09" y="-101.3" font-family="Times,serif" font-size="14.00">RSI&lt;74.1398621</text>
</g>
<!-- 7&#45;&gt;11 -->
<g id="edge9" class="edge">
<title>7&#45;&gt;11</title>
<path fill="none" stroke="#ff0000" d="M487.52,-177.25C442.73,-162.44 371.41,-138.85 323.22,-122.91"/>
<polygon fill="#ff0000" stroke="#ff0000" points="324.2,-119.55 313.61,-119.73 322,-126.19 324.2,-119.55"/>
<text text-anchor="middle" x="425.59" y="-144.8" font-family="Times,serif" font-size="14.00">yes</text>
</g>
<!-- 12 -->
<g id="node11" class="node">
<title>12</title>
<ellipse fill="none" stroke="black" cx="529.09" cy="-105" rx="85.29" ry="18"/>
<text text-anchor="middle" x="529.09" y="-101.3" font-family="Times,serif" font-size="14.00">MACD&lt;478.973053</text>
</g>
<!-- 7&#45;&gt;12 -->
<g id="edge10" class="edge">
<title>7&#45;&gt;12</title>
<path fill="none" stroke="#0000ff" d="M529.09,-173.8C529.09,-162.16 529.09,-146.55 529.09,-133.24"/>
<polygon fill="#0000ff" stroke="#0000ff" points="532.59,-133.18 529.09,-123.18 525.59,-133.18 532.59,-133.18"/>
<text text-anchor="middle" x="561.09" y="-144.8" font-family="Times,serif" font-size="14.00">no, missing</text>
</g>
<!-- 13 -->
<g id="node16" class="node">
<title>13</title>
<ellipse fill="none" stroke="black" cx="890.09" cy="-105" rx="106.68" ry="18"/>
<text text-anchor="middle" x="890.09" y="-101.3" font-family="Times,serif" font-size="14.00">MACD_Hist&lt;&#45;156.793091</text>
</g>
<!-- 8&#45;&gt;13 -->
<g id="edge15" class="edge">
<title>8&#45;&gt;13</title>
<path fill="none" stroke="#ff0000" d="M890.09,-173.8C890.09,-162.16 890.09,-146.55 890.09,-133.24"/>
<polygon fill="#ff0000" stroke="#ff0000" points="893.59,-133.18 890.09,-123.18 886.59,-133.18 893.59,-133.18"/>
<text text-anchor="middle" x="899.59" y="-144.8" font-family="Times,serif" font-size="14.00">yes</text>
</g>
<!-- 14 -->
<g id="node17" class="node">
<title>14</title>
<ellipse fill="none" stroke="black" cx="1185.09" cy="-105" rx="98.28" ry="18"/>
<text text-anchor="middle" x="1185.09" y="-101.3" font-family="Times,serif" font-size="14.00">Vol_Chg&lt;0.0721081719</text>
</g>
<!-- 8&#45;&gt;14 -->
<g id="edge16" class="edge">
<title>8&#45;&gt;14</title>
<path fill="none" stroke="#0000ff" d="M941.14,-176.29C992.22,-161.57 1070.77,-138.94 1124.86,-123.35"/>
<polygon fill="#0000ff" stroke="#0000ff" points="1126.03,-126.66 1134.67,-120.53 1124.09,-119.93 1126.03,-126.66"/>
<text text-anchor="middle" x="1088.09" y="-144.8" font-family="Times,serif" font-size="14.00">no, missing</text>
</g>
<!-- 15 -->
<g id="node12" class="node">
<title>15</title>
<ellipse fill="none" stroke="black" cx="87.09" cy="-18" rx="87.18" ry="18"/>
<text text-anchor="middle" x="87.09" y="-14.3" font-family="Times,serif" font-size="14.00">leaf=&#45;0.00137679838</text>
</g>
<!-- 11&#45;&gt;15 -->
<g id="edge11" class="edge">
<title>11&#45;&gt;15</title>
<path fill="none" stroke="#ff0000" d="M239.02,-88.8C208.75,-74.9 163.75,-54.22 130.58,-38.98"/>
<polygon fill="#ff0000" stroke="#ff0000" points="131.68,-35.63 121.13,-34.64 128.76,-42 131.68,-35.63"/>
<text text-anchor="middle" x="200.59" y="-57.8" font-family="Times,serif" font-size="14.00">yes</text>
</g>
<!-- 16 -->
<g id="node13" class="node">
<title>16</title>
<ellipse fill="none" stroke="black" cx="272.09" cy="-18" rx="79.89" ry="18"/>
<text text-anchor="middle" x="272.09" y="-14.3" font-family="Times,serif" font-size="14.00">leaf=0.0248182919</text>
</g>
<!-- 11&#45;&gt;16 -->
<g id="edge12" class="edge">
<title>11&#45;&gt;16</title>
<path fill="none" stroke="#0000ff" d="M272.09,-86.8C272.09,-75.16 272.09,-59.55 272.09,-46.24"/>
<polygon fill="#0000ff" stroke="#0000ff" points="275.59,-46.18 272.09,-36.18 268.59,-46.18 275.59,-46.18"/>
<text text-anchor="middle" x="304.09" y="-57.8" font-family="Times,serif" font-size="14.00">no, missing</text>
</g>
<!-- 17 -->
<g id="node14" class="node">
<title>17</title>
<ellipse fill="none" stroke="black" cx="450.09" cy="-18" rx="79.89" ry="18"/>
<text text-anchor="middle" x="450.09" y="-14.3" font-family="Times,serif" font-size="14.00">leaf=0.0247074924</text>
</g>
<!-- 12&#45;&gt;17 -->
<g id="edge13" class="edge">
<title>12&#45;&gt;17</title>
<path fill="none" stroke="#ff0000" d="M513.48,-87.21C501.8,-74.63 485.64,-57.25 472.57,-43.18"/>
<polygon fill="#ff0000" stroke="#ff0000" points="475.04,-40.7 465.67,-35.76 469.91,-45.47 475.04,-40.7"/>
<text text-anchor="middle" x="504.59" y="-57.8" font-family="Times,serif" font-size="14.00">yes</text>
</g>
<!-- 18 -->
<g id="node15" class="node">
<title>18</title>
<ellipse fill="none" stroke="black" cx="631.09" cy="-18" rx="83.39" ry="18"/>
<text text-anchor="middle" x="631.09" y="-14.3" font-family="Times,serif" font-size="14.00">leaf=&#45;0.0546237826</text>
</g>
<!-- 12&#45;&gt;18 -->
<g id="edge14" class="edge">
<title>12&#45;&gt;18</title>
<path fill="none" stroke="#0000ff" d="M549.24,-87.21C564.61,-74.4 585.96,-56.61 603.01,-42.4"/>
<polygon fill="#0000ff" stroke="#0000ff" points="605.54,-44.85 610.98,-35.76 601.06,-39.47 605.54,-44.85"/>
<text text-anchor="middle" x="619.09" y="-57.8" font-family="Times,serif" font-size="14.00">no, missing</text>
</g>
<!-- 19 -->
<g id="node18" class="node">
<title>19</title>
<ellipse fill="none" stroke="black" cx="819.09" cy="-18" rx="87.18" ry="18"/>
<text text-anchor="middle" x="819.09" y="-14.3" font-family="Times,serif" font-size="14.00">leaf=&#45;0.00374458404</text>
</g>
<!-- 13&#45;&gt;19 -->
<g id="edge17" class="edge">
<title>13&#45;&gt;19</title>
<path fill="none" stroke="#ff0000" d="M875.72,-86.8C865.36,-74.39 851.22,-57.46 839.66,-43.62"/>
<polygon fill="#ff0000" stroke="#ff0000" points="842.29,-41.32 833.2,-35.89 836.92,-45.8 842.29,-41.32"/>
<text text-anchor="middle" x="868.59" y="-57.8" font-family="Times,serif" font-size="14.00">yes</text>
</g>
<!-- 20 -->
<g id="node19" class="node">
<title>20</title>
<ellipse fill="none" stroke="black" cx="1004.09" cy="-18" rx="79.89" ry="18"/>
<text text-anchor="middle" x="1004.09" y="-14.3" font-family="Times,serif" font-size="14.00">leaf=0.0390433557</text>
</g>
<!-- 13&#45;&gt;20 -->
<g id="edge18" class="edge">
<title>13&#45;&gt;20</title>
<path fill="none" stroke="#0000ff" d="M912.62,-87.21C930.14,-74.14 954.62,-55.88 973.85,-41.55"/>
<polygon fill="#0000ff" stroke="#0000ff" points="976.08,-44.25 982,-35.47 971.9,-38.64 976.08,-44.25"/>
<text text-anchor="middle" x="986.09" y="-57.8" font-family="Times,serif" font-size="14.00">no, missing</text>
</g>
<!-- 21 -->
<g id="node20" class="node">
<title>21</title>
<ellipse fill="none" stroke="black" cx="1185.09" cy="-18" rx="83.39" ry="18"/>
<text text-anchor="middle" x="1185.09" y="-14.3" font-family="Times,serif" font-size="14.00">leaf=&#45;0.0347451903</text>
</g>
<!-- 14&#45;&gt;21 -->
<g id="edge19" class="edge">
<title>14&#45;&gt;21</title>
<path fill="none" stroke="#ff0000" d="M1185.09,-86.8C1185.09,-75.16 1185.09,-59.55 1185.09,-46.24"/>
<polygon fill="#ff0000" stroke="#ff0000" points="1188.59,-46.18 1185.09,-36.18 1181.59,-46.18 1188.59,-46.18"/>
<text text-anchor="middle" x="1194.59" y="-57.8" font-family="Times,serif" font-size="14.00">yes</text>
</g>
<!-- 22 -->
<g id="node21" class="node">
<title>22</title>
<ellipse fill="none" stroke="black" cx="1371.09" cy="-18" rx="84.49" ry="18"/>
<text text-anchor="middle" x="1371.09" y="-14.3" font-family="Times,serif" font-size="14.00">leaf=0.00713626295</text>
</g>
<!-- 14&#45;&gt;22 -->
<g id="edge20" class="edge">
<title>14&#45;&gt;22</title>
<path fill="none" stroke="#0000ff" d="M1220.08,-88.01C1250.54,-74.09 1294.82,-53.86 1327.56,-38.89"/>
<polygon fill="#0000ff" stroke="#0000ff" points="1329.25,-41.97 1336.89,-34.63 1326.34,-35.6 1329.25,-41.97"/>
<text text-anchor="middle" x="1321.09" y="-57.8" font-family="Times,serif" font-size="14.00">no, missing</text>
</g>
</g>
</svg>
