<?xml version="1.0" encoding="UTF-8" standalone="no"?>
<!DOCTYPE svg PUBLIC "-//W3C//DTD SVG 1.1//EN"
 "http://www.w3.org/Graphics/SVG/1.1/DTD/svg11.dtd">
<!-- Generated by graphviz version 2.43.0 (0)
 -->
<!-- Title: %3 Pages: 1 -->
<svg width="2293pt" height="479pt"
 viewBox="0.00 0.00 2293.14 479.00" xmlns="http://www.w3.org/2000/svg" xmlns:xlink="http://www.w3.org/1999/xlink">
<g id="graph0" class="graph" transform="scale(1 1) rotate(0) translate(4 475)">
<title>%3</title>
<polygon fill="white" stroke="transparent" points="-4,4 -4,-475 2289.14,-475 2289.14,4 -4,4"/>
<!-- 0 -->
<g id="node1" class="node">
<title>0</title>
<ellipse fill="none" stroke="black" cx="1212.94" cy="-453" rx="74.99" ry="18"/>
<text text-anchor="middle" x="1212.94" y="-449.3" font-family="Times,serif" font-size="14.00">ATR&lt;3587.06567</text>
</g>
<!-- 1 -->
<g id="node2" class="node">
<title>1</title>
<ellipse fill="none" stroke="black" cx="848.94" cy="-366" rx="106.68" ry="18"/>
<text text-anchor="middle" x="848.94" y="-362.3" font-family="Times,serif" font-size="14.00">MACD_Hist&lt;&#45;751.830505</text>
</g>
<!-- 0&#45;&gt;1 -->
<g id="edge1" class="edge">
<title>0&#45;&gt;1</title>
<path fill="none" stroke="#ff0000" d="M1161.18,-439.91C1097.53,-425.05 989.27,-399.77 918.43,-383.23"/>
<polygon fill="#ff0000" stroke="#ff0000" points="919.23,-379.82 908.7,-380.95 917.64,-386.64 919.23,-379.82"/>
<text text-anchor="middle" x="1062.44" y="-405.8" font-family="Times,serif" font-size="14.00">yes</text>
</g>
<!-- 2 -->
<g id="node3" class="node">
<title>2</title>
<ellipse fill="none" stroke="black" cx="1645.94" cy="-366" rx="100.98" ry="18"/>
<text text-anchor="middle" x="1645.94" y="-362.3" font-family="Times,serif" font-size="14.00">Log_Ret&lt;&#45;0.0168436561</text>
</g>
<!-- 0&#45;&gt;2 -->
<g id="edge2" class="edge">
<title>0&#45;&gt;2</title>
<path fill="none" stroke="#0000ff" d="M1269.11,-440.97C1346.15,-425.85 1484.81,-398.63 1570.74,-381.76"/>
<polygon fill="#0000ff" stroke="#0000ff" points="1571.55,-385.17 1580.69,-379.81 1570.2,-378.3 1571.55,-385.17"/>
<text text-anchor="middle" x="1487.94" y="-405.8" font-family="Times,serif" font-size="14.00">no, missing</text>
</g>
<!-- 3 -->
<g id="node4" class="node">
<title>3</title>
<ellipse fill="none" stroke="black" cx="380.94" cy="-279" rx="118.88" ry="18"/>
<text text-anchor="middle" x="380.94" y="-275.3" font-family="Times,serif" font-size="14.00">regime_vol_ratio&lt;1.00952971</text>
</g>
<!-- 1&#45;&gt;3 -->
<g id="edge3" class="edge">
<title>1&#45;&gt;3</title>
<path fill="none" stroke="#ff0000" d="M779.13,-352.32C694.89,-337.02 553.42,-311.33 463.75,-295.04"/>
<polygon fill="#ff0000" stroke="#ff0000" points="464.35,-291.59 453.89,-293.25 463.1,-298.48 464.35,-291.59"/>
<text text-anchor="middle" x="653.44" y="-318.8" font-family="Times,serif" font-size="14.00">yes</text>
</g>
<!-- 4 -->
<g id="node5" class="node">
<title>4</title>
<ellipse fill="none" stroke="black" cx="848.94" cy="-279" rx="106.68" ry="18"/>
<text text-anchor="middle" x="848.94" y="-275.3" font-family="Times,serif" font-size="14.00">MACD_Hist&lt;&#45;685.197266</text>
</g>
<!-- 1&#45;&gt;4 -->
<g id="edge4" class="edge">
<title>1&#45;&gt;4</title>
<path fill="none" stroke="#0000ff" d="M848.94,-347.8C848.94,-336.16 848.94,-320.55 848.94,-307.24"/>
<polygon fill="#0000ff" stroke="#0000ff" points="852.44,-307.18 848.94,-297.18 845.44,-307.18 852.44,-307.18"/>
<text text-anchor="middle" x="880.94" y="-318.8" font-family="Times,serif" font-size="14.00">no, missing</text>
</g>
<!-- 5 -->
<g id="node22" class="node">
<title>5</title>
<ellipse fill="none" stroke="black" cx="1645.94" cy="-279" rx="102.08" ry="18"/>
<text text-anchor="middle" x="1645.94" y="-275.3" font-family="Times,serif" font-size="14.00">D_EMA20&lt;0.977384627</text>
</g>
<!-- 2&#45;&gt;5 -->
<g id="edge21" class="edge">
<title>2&#45;&gt;5</title>
<path fill="none" stroke="#ff0000" d="M1645.94,-347.8C1645.94,-336.16 1645.94,-320.55 1645.94,-307.24"/>
<polygon fill="#ff0000" stroke="#ff0000" points="1649.44,-307.18 1645.94,-297.18 1642.44,-307.18 1649.44,-307.18"/>
<text text-anchor="middle" x="1655.44" y="-318.8" font-family="Times,serif" font-size="14.00">yes</text>
</g>
<!-- 6 -->
<g id="node23" class="node">
<title>6</title>
<ellipse fill="none" stroke="black" cx="1919.94" cy="-279" rx="94.78" ry="18"/>
<text text-anchor="middle" x="1919.94" y="-275.3" font-family="Times,serif" font-size="14.00">OBV&lt;1.26350223e+12</text>
</g>
<!-- 2&#45;&gt;6 -->
<g id="edge22" class="edge">
<title>2&#45;&gt;6</title>
<path fill="none" stroke="#0000ff" d="M1693.98,-350.1C1741.03,-335.5 1812.75,-313.25 1862.73,-297.75"/>
<polygon fill="#0000ff" stroke="#0000ff" points="1863.9,-301.05 1872.42,-294.74 1861.83,-294.36 1863.9,-301.05"/>
<text text-anchor="middle" x="1831.94" y="-318.8" font-family="Times,serif" font-size="14.00">no, missing</text>
</g>
<!-- 7 -->
<g id="node6" class="node">
<title>7</title>
<ellipse fill="none" stroke="black" cx="177.94" cy="-192" rx="83.39" ry="18"/>
<text text-anchor="middle" x="177.94" y="-188.3" font-family="Times,serif" font-size="14.00">leaf=&#45;0.0200460032</text>
</g>
<!-- 3&#45;&gt;7 -->
<g id="edge5" class="edge">
<title>3&#45;&gt;7</title>
<path fill="none" stroke="#ff0000" d="M342.28,-261.81C308.49,-247.66 259.38,-227.1 223.65,-212.14"/>
<polygon fill="#ff0000" stroke="#ff0000" points="224.99,-208.9 214.41,-208.27 222.28,-215.36 224.99,-208.9"/>
<text text-anchor="middle" x="301.44" y="-231.8" font-family="Times,serif" font-size="14.00">yes</text>
</g>
<!-- 8 -->
<g id="node7" class="node">
<title>8</title>
<ellipse fill="none" stroke="black" cx="380.94" cy="-192" rx="102.08" ry="18"/>
<text text-anchor="middle" x="380.94" y="-188.3" font-family="Times,serif" font-size="14.00">D_EMA20&lt;0.960063517</text>
</g>
<!-- 3&#45;&gt;8 -->
<g id="edge6" class="edge">
<title>3&#45;&gt;8</title>
<path fill="none" stroke="#0000ff" d="M380.94,-260.8C380.94,-249.16 380.94,-233.55 380.94,-220.24"/>
<polygon fill="#0000ff" stroke="#0000ff" points="384.44,-220.18 380.94,-210.18 377.44,-220.18 384.44,-220.18"/>
<text text-anchor="middle" x="412.94" y="-231.8" font-family="Times,serif" font-size="14.00">no, missing</text>
</g>
<!-- 9 -->
<g id="node12" class="node">
<title>9</title>
<ellipse fill="none" stroke="black" cx="742.94" cy="-192" rx="92.88" ry="18"/>
<text text-anchor="middle" x="742.94" y="-188.3" font-family="Times,serif" font-size="14.00">Day_Sin&lt;0.781831503</text>
</g>
<!-- 4&#45;&gt;9 -->
<g id="edge11" class="edge">
<title>4&#45;&gt;9</title>
<path fill="none" stroke="#ff0000" d="M828,-261.21C811.89,-248.28 789.44,-230.28 771.65,-216.02"/>
<polygon fill="#ff0000" stroke="#ff0000" points="773.83,-213.28 763.84,-209.76 769.45,-218.74 773.83,-213.28"/>
<text text-anchor="middle" x="812.44" y="-231.8" font-family="Times,serif" font-size="14.00">yes</text>
</g>
<!-- 10 -->
<g id="node13" class="node">
<title>10</title>
<ellipse fill="none" stroke="black" cx="954.94" cy="-192" rx="100.98" ry="18"/>
<text text-anchor="middle" x="954.94" y="-188.3" font-family="Times,serif" font-size="14.00">Log_Ret&lt;&#45;0.0504480638</text>
</g>
<!-- 4&#45;&gt;10 -->
<g id="edge12" class="edge">
<title>4&#45;&gt;10</title>
<path fill="none" stroke="#0000ff" d="M869.89,-261.21C886,-248.28 908.45,-230.28 926.24,-216.02"/>
<polygon fill="#0000ff" stroke="#0000ff" points="928.43,-218.74 934.04,-209.76 924.05,-213.28 928.43,-218.74"/>
<text text-anchor="middle" x="940.94" y="-231.8" font-family="Times,serif" font-size="14.00">no, missing</text>
</g>
<!-- 15 -->
<g id="node8" class="node">
<title>15</title>
<ellipse fill="none" stroke="black" cx="168.94" cy="-105" rx="114.28" ry="18"/>
<text text-anchor="middle" x="168.94" y="-101.3" font-family="Times,serif" font-size="14.00">regime_vol_ratio&lt;1.0386951</text>
</g>
<!-- 8&#45;&gt;15 -->
<g id="edge7" class="edge">
<title>8&#45;&gt;15</title>
<path fill="none" stroke="#ff0000" d="M341.56,-175.21C306.83,-161.28 256.04,-140.92 218.54,-125.89"/>
<polygon fill="#ff0000" stroke="#ff0000" points="219.41,-122.47 208.83,-121.99 216.81,-128.96 219.41,-122.47"/>
<text text-anchor="middle" x="297.44" y="-144.8" font-family="Times,serif" font-size="14.00">yes</text>
</g>
<!-- 16 -->
<g id="node9" class="node">
<title>16</title>
<ellipse fill="none" stroke="black" cx="380.94" cy="-105" rx="79.89" ry="18"/>
<text text-anchor="middle" x="380.94" y="-101.3" font-family="Times,serif" font-size="14.00">leaf=0.0023454763</text>
</g>
<!-- 8&#45;&gt;16 -->
<g id="edge8" class="edge">
<title>8&#45;&gt;16</title>
<path fill="none" stroke="#0000ff" d="M380.94,-173.8C380.94,-162.16 380.94,-146.55 380.94,-133.24"/>
<polygon fill="#0000ff" stroke="#0000ff" points="384.44,-133.18 380.94,-123.18 377.44,-133.18 384.44,-133.18"/>
<text text-anchor="middle" x="412.94" y="-144.8" font-family="Times,serif" font-size="14.00">no, missing</text>
</g>
<!-- 25 -->
<g id="node10" class="node">
<title>25</title>
<ellipse fill="none" stroke="black" cx="79.94" cy="-18" rx="79.89" ry="18"/>
<text text-anchor="middle" x="79.94" y="-14.3" font-family="Times,serif" font-size="14.00">leaf=0.0148962755</text>
</g>
<!-- 15&#45;&gt;25 -->
<g id="edge9" class="edge">
<title>15&#45;&gt;25</title>
<path fill="none" stroke="#ff0000" d="M151.36,-87.21C138.07,-74.52 119.66,-56.93 104.86,-42.79"/>
<polygon fill="#ff0000" stroke="#ff0000" points="107.14,-40.13 97.49,-35.76 102.3,-45.2 107.14,-40.13"/>
<text text-anchor="middle" x="139.44" y="-57.8" font-family="Times,serif" font-size="14.00">yes</text>
</g>
<!-- 26 -->
<g id="node11" class="node">
<title>26</title>
<ellipse fill="none" stroke="black" cx="257.94" cy="-18" rx="79.89" ry="18"/>
<text text-anchor="middle" x="257.94" y="-14.3" font-family="Times,serif" font-size="14.00">leaf=0.0645334795</text>
</g>
<!-- 15&#45;&gt;26 -->
<g id="edge10" class="edge">
<title>15&#45;&gt;26</title>
<path fill="none" stroke="#0000ff" d="M186.53,-87.21C199.81,-74.52 218.23,-56.93 233.03,-42.79"/>
<polygon fill="#0000ff" stroke="#0000ff" points="235.58,-45.2 240.4,-35.76 230.75,-40.13 235.58,-45.2"/>
<text text-anchor="middle" x="250.94" y="-57.8" font-family="Times,serif" font-size="14.00">no, missing</text>
</g>
<!-- 17 -->
<g id="node14" class="node">
<title>17</title>
<ellipse fill="none" stroke="black" cx="561.94" cy="-105" rx="83.39" ry="18"/>
<text text-anchor="middle" x="561.94" y="-101.3" font-family="Times,serif" font-size="14.00">leaf=&#45;0.0091641834</text>
</g>
<!-- 9&#45;&gt;17 -->
<g id="edge13" class="edge">
<title>9&#45;&gt;17</title>
<path fill="none" stroke="#ff0000" d="M709.32,-175.21C679.64,-161.27 636.23,-140.89 604.2,-125.85"/>
<polygon fill="#ff0000" stroke="#ff0000" points="605.62,-122.64 595.08,-121.56 602.64,-128.98 605.62,-122.64"/>
<text text-anchor="middle" x="673.44" y="-144.8" font-family="Times,serif" font-size="14.00">yes</text>
</g>
<!-- 18 -->
<g id="node15" class="node">
<title>18</title>
<ellipse fill="none" stroke="black" cx="745.94" cy="-105" rx="83.39" ry="18"/>
<text text-anchor="middle" x="745.94" y="-101.3" font-family="Times,serif" font-size="14.00">leaf=&#45;0.0547911935</text>
</g>
<!-- 9&#45;&gt;18 -->
<g id="edge14" class="edge">
<title>9&#45;&gt;18</title>
<path fill="none" stroke="#0000ff" d="M743.55,-173.8C743.96,-162.16 744.51,-146.55 744.98,-133.24"/>
<polygon fill="#0000ff" stroke="#0000ff" points="748.48,-133.29 745.34,-123.18 741.49,-133.05 748.48,-133.29"/>
<text text-anchor="middle" x="776.94" y="-144.8" font-family="Times,serif" font-size="14.00">no, missing</text>
</g>
<!-- 19 -->
<g id="node16" class="node">
<title>19</title>
<ellipse fill="none" stroke="black" cx="948.94" cy="-105" rx="102.08" ry="18"/>
<text text-anchor="middle" x="948.94" y="-101.3" font-family="Times,serif" font-size="14.00">D_EMA20&lt;0.898976266</text>
</g>
<!-- 10&#45;&gt;19 -->
<g id="edge15" class="edge">
<title>10&#45;&gt;19</title>
<path fill="none" stroke="#ff0000" d="M953.73,-173.8C952.91,-162.16 951.81,-146.55 950.87,-133.24"/>
<polygon fill="#ff0000" stroke="#ff0000" points="954.35,-132.9 950.16,-123.18 947.37,-133.4 954.35,-132.9"/>
<text text-anchor="middle" x="962.44" y="-144.8" font-family="Times,serif" font-size="14.00">yes</text>
</g>
<!-- 20 -->
<g id="node17" class="node">
<title>20</title>
<ellipse fill="none" stroke="black" cx="1140.94" cy="-105" rx="71.49" ry="18"/>
<text text-anchor="middle" x="1140.94" y="-101.3" font-family="Times,serif" font-size="14.00">RSI&lt;30.4654636</text>
</g>
<!-- 10&#45;&gt;20 -->
<g id="edge16" class="edge">
<title>10&#45;&gt;20</title>
<path fill="none" stroke="#0000ff" d="M989.93,-175.01C1020.77,-160.92 1065.78,-140.35 1098.64,-125.33"/>
<polygon fill="#0000ff" stroke="#0000ff" points="1100.35,-128.4 1107.99,-121.06 1097.44,-122.03 1100.35,-128.4"/>
<text text-anchor="middle" x="1091.94" y="-144.8" font-family="Times,serif" font-size="14.00">no, missing</text>
</g>
<!-- 27 -->
<g id="node18" class="node">
<title>27</title>
<ellipse fill="none" stroke="black" cx="767.94" cy="-18" rx="79.89" ry="18"/>
<text text-anchor="middle" x="767.94" y="-14.3" font-family="Times,serif" font-size="14.00">leaf=0.0137604466</text>
</g>
<!-- 19&#45;&gt;27 -->
<g id="edge17" class="edge">
<title>19&#45;&gt;27</title>
<path fill="none" stroke="#ff0000" d="M914.9,-88.01C885.17,-74.05 841.9,-53.73 810.01,-38.75"/>
<polygon fill="#ff0000" stroke="#ff0000" points="811.46,-35.57 800.92,-34.49 808.48,-41.9 811.46,-35.57"/>
<text text-anchor="middle" x="879.44" y="-57.8" font-family="Times,serif" font-size="14.00">yes</text>
</g>
<!-- 28 -->
<g id="node19" class="node">
<title>28</title>
<ellipse fill="none" stroke="black" cx="948.94" cy="-18" rx="83.39" ry="18"/>
<text text-anchor="middle" x="948.94" y="-14.3" font-family="Times,serif" font-size="14.00">leaf=&#45;0.0354980491</text>
</g>
<!-- 19&#45;&gt;28 -->
<g id="edge18" class="edge">
<title>19&#45;&gt;28</title>
<path fill="none" stroke="#0000ff" d="M948.94,-86.8C948.94,-75.16 948.94,-59.55 948.94,-46.24"/>
<polygon fill="#0000ff" stroke="#0000ff" points="952.44,-46.18 948.94,-36.18 945.44,-46.18 952.44,-46.18"/>
<text text-anchor="middle" x="980.94" y="-57.8" font-family="Times,serif" font-size="14.00">no, missing</text>
</g>
<!-- 29 -->
<g id="node20" class="node">
<title>29</title>
<ellipse fill="none" stroke="black" cx="1129.94" cy="-18" rx="79.89" ry="18"/>
<text text-anchor="middle" x="1129.94" y="-14.3" font-family="Times,serif" font-size="14.00">leaf=0.0348604769</text>
</g>
<!-- 20&#45;&gt;29 -->
<g id="edge19" class="edge">
<title>20&#45;&gt;29</title>
<path fill="none" stroke="#ff0000" d="M1138.72,-86.8C1137.21,-75.16 1135.19,-59.55 1133.47,-46.24"/>
<polygon fill="#ff0000" stroke="#ff0000" points="1136.92,-45.64 1132.17,-36.18 1129.98,-46.54 1136.92,-45.64"/>
<text text-anchor="middle" x="1146.44" y="-57.8" font-family="Times,serif" font-size="14.00">yes</text>
</g>
<!-- 30 -->
<g id="node21" class="node">
<title>30</title>
<ellipse fill="none" stroke="black" cx="1316.94" cy="-18" rx="89.08" ry="18"/>
<text text-anchor="middle" x="1316.94" y="-14.3" font-family="Times,serif" font-size="14.00">leaf=0.000479374838</text>
</g>
<!-- 20&#45;&gt;30 -->
<g id="edge20" class="edge">
<title>20&#45;&gt;30</title>
<path fill="none" stroke="#0000ff" d="M1172.41,-88.8C1200.99,-75 1243.38,-54.53 1274.86,-39.32"/>
<polygon fill="#0000ff" stroke="#0000ff" points="1276.78,-42.29 1284.26,-34.78 1273.73,-35.98 1276.78,-42.29"/>
<text text-anchor="middle" x="1271.94" y="-57.8" font-family="Times,serif" font-size="14.00">no, missing</text>
</g>
<!-- 11 -->
<g id="node24" class="node">
<title>11</title>
<ellipse fill="none" stroke="black" cx="1506.94" cy="-192" rx="129.98" ry="18"/>
<text text-anchor="middle" x="1506.94" y="-188.3" font-family="Times,serif" font-size="14.00">regime_vol_trend&lt;0.0211492181</text>
</g>
<!-- 5&#45;&gt;11 -->
<g id="edge23" class="edge">
<title>5&#45;&gt;11</title>
<path fill="none" stroke="#ff0000" d="M1619.14,-261.61C1597.46,-248.35 1566.72,-229.55 1542.89,-214.98"/>
<polygon fill="#ff0000" stroke="#ff0000" points="1544.49,-211.86 1534.14,-209.63 1540.84,-217.83 1544.49,-211.86"/>
<text text-anchor="middle" x="1594.44" y="-231.8" font-family="Times,serif" font-size="14.00">yes</text>
</g>
<!-- 12 -->
<g id="node25" class="node">
<title>12</title>
<ellipse fill="none" stroke="black" cx="1734.94" cy="-192" rx="79.89" ry="18"/>
<text text-anchor="middle" x="1734.94" y="-188.3" font-family="Times,serif" font-size="14.00">leaf=0.0506496988</text>
</g>
<!-- 5&#45;&gt;12 -->
<g id="edge24" class="edge">
<title>5&#45;&gt;12</title>
<path fill="none" stroke="#0000ff" d="M1663.53,-261.21C1676.81,-248.52 1695.23,-230.93 1710.03,-216.79"/>
<polygon fill="#0000ff" stroke="#0000ff" points="1712.58,-219.2 1717.4,-209.76 1707.75,-214.13 1712.58,-219.2"/>
<text text-anchor="middle" x="1727.94" y="-231.8" font-family="Times,serif" font-size="14.00">no, missing</text>
</g>
<!-- 13 -->
<g id="node30" class="node">
<title>13</title>
<ellipse fill="none" stroke="black" cx="1919.94" cy="-192" rx="87.18" ry="18"/>
<text text-anchor="middle" x="1919.94" y="-188.3" font-family="Times,serif" font-size="14.00">leaf=&#45;0.00152902119</text>
</g>
<!-- 6&#45;&gt;13 -->
<g id="edge29" class="edge">
<title>6&#45;&gt;13</title>
<path fill="none" stroke="#ff0000" d="M1919.94,-260.8C1919.94,-249.16 1919.94,-233.55 1919.94,-220.24"/>
<polygon fill="#ff0000" stroke="#ff0000" points="1923.44,-220.18 1919.94,-210.18 1916.44,-220.18 1923.44,-220.18"/>
<text text-anchor="middle" x="1929.44" y="-231.8" font-family="Times,serif" font-size="14.00">yes</text>
</g>
<!-- 14 -->
<g id="node31" class="node">
<title>14</title>
<ellipse fill="none" stroke="black" cx="2107.94" cy="-192" rx="83.39" ry="18"/>
<text text-anchor="middle" x="2107.94" y="-188.3" font-family="Times,serif" font-size="14.00">BBW&lt;0.289337903</text>
</g>
<!-- 6&#45;&gt;14 -->
<g id="edge30" class="edge">
<title>6&#45;&gt;14</title>
<path fill="none" stroke="#0000ff" d="M1954.86,-262.21C1985.69,-248.27 2030.78,-227.89 2064.05,-212.85"/>
<polygon fill="#0000ff" stroke="#0000ff" points="2065.86,-215.87 2073.53,-208.56 2062.97,-209.49 2065.86,-215.87"/>
<text text-anchor="middle" x="2057.94" y="-231.8" font-family="Times,serif" font-size="14.00">no, missing</text>
</g>
<!-- 21 -->
<g id="node26" class="node">
<title>21</title>
<ellipse fill="none" stroke="black" cx="1506.94" cy="-105" rx="71.49" ry="18"/>
<text text-anchor="middle" x="1506.94" y="-101.3" font-family="Times,serif" font-size="14.00">RSI&lt;36.5966949</text>
</g>
<!-- 11&#45;&gt;21 -->
<g id="edge25" class="edge">
<title>11&#45;&gt;21</title>
<path fill="none" stroke="#ff0000" d="M1506.94,-173.8C1506.94,-162.16 1506.94,-146.55 1506.94,-133.24"/>
<polygon fill="#ff0000" stroke="#ff0000" points="1510.44,-133.18 1506.94,-123.18 1503.44,-133.18 1510.44,-133.18"/>
<text text-anchor="middle" x="1516.44" y="-144.8" font-family="Times,serif" font-size="14.00">yes</text>
</g>
<!-- 22 -->
<g id="node27" class="node">
<title>22</title>
<ellipse fill="none" stroke="black" cx="1675.94" cy="-105" rx="79.89" ry="18"/>
<text text-anchor="middle" x="1675.94" y="-101.3" font-family="Times,serif" font-size="14.00">leaf=0.0227315705</text>
</g>
<!-- 11&#45;&gt;22 -->
<g id="edge26" class="edge">
<title>11&#45;&gt;22</title>
<path fill="none" stroke="#0000ff" d="M1539.93,-174.41C1567.32,-160.63 1606.39,-140.98 1635.63,-126.28"/>
<polygon fill="#0000ff" stroke="#0000ff" points="1637.39,-129.31 1644.75,-121.69 1634.25,-123.05 1637.39,-129.31"/>
<text text-anchor="middle" x="1633.94" y="-144.8" font-family="Times,serif" font-size="14.00">no, missing</text>
</g>
<!-- 31 -->
<g id="node28" class="node">
<title>31</title>
<ellipse fill="none" stroke="black" cx="1506.94" cy="-18" rx="83.39" ry="18"/>
<text text-anchor="middle" x="1506.94" y="-14.3" font-family="Times,serif" font-size="14.00">leaf=&#45;0.0463176221</text>
</g>
<!-- 21&#45;&gt;31 -->
<g id="edge27" class="edge">
<title>21&#45;&gt;31</title>
<path fill="none" stroke="#ff0000" d="M1506.94,-86.8C1506.94,-75.16 1506.94,-59.55 1506.94,-46.24"/>
<polygon fill="#ff0000" stroke="#ff0000" points="1510.44,-46.18 1506.94,-36.18 1503.44,-46.18 1510.44,-46.18"/>
<text text-anchor="middle" x="1516.44" y="-57.8" font-family="Times,serif" font-size="14.00">yes</text>
</g>
<!-- 32 -->
<g id="node29" class="node">
<title>32</title>
<ellipse fill="none" stroke="black" cx="1692.94" cy="-18" rx="84.49" ry="18"/>
<text text-anchor="middle" x="1692.94" y="-14.3" font-family="Times,serif" font-size="14.00">leaf=0.00337014976</text>
</g>
<!-- 21&#45;&gt;32 -->
<g id="edge28" class="edge">
<title>21&#45;&gt;32</title>
<path fill="none" stroke="#0000ff" d="M1539.77,-89C1570.37,-75.02 1616.2,-54.07 1649.76,-38.74"/>
<polygon fill="#0000ff" stroke="#0000ff" points="1651.23,-41.91 1658.87,-34.57 1648.32,-35.54 1651.23,-41.91"/>
<text text-anchor="middle" x="1643.94" y="-57.8" font-family="Times,serif" font-size="14.00">no, missing</text>
</g>
<!-- 23 -->
<g id="node32" class="node">
<title>23</title>
<ellipse fill="none" stroke="black" cx="2013.94" cy="-105" rx="87.18" ry="18"/>
<text text-anchor="middle" x="2013.94" y="-101.3" font-family="Times,serif" font-size="14.00">leaf=&#45;0.00897003151</text>
</g>
<!-- 14&#45;&gt;23 -->
<g id="edge31" class="edge">
<title>14&#45;&gt;23</title>
<path fill="none" stroke="#ff0000" d="M2089.37,-174.21C2075.34,-161.52 2055.89,-143.93 2040.25,-129.79"/>
<polygon fill="#ff0000" stroke="#ff0000" points="2042.24,-126.87 2032.48,-122.76 2037.55,-132.06 2042.24,-126.87"/>
<text text-anchor="middle" x="2076.44" y="-144.8" font-family="Times,serif" font-size="14.00">yes</text>
</g>
<!-- 24 -->
<g id="node33" class="node">
<title>24</title>
<ellipse fill="none" stroke="black" cx="2201.94" cy="-105" rx="83.39" ry="18"/>
<text text-anchor="middle" x="2201.94" y="-101.3" font-family="Times,serif" font-size="14.00">leaf=&#45;0.0661964342</text>
</g>
<!-- 14&#45;&gt;24 -->
<g id="edge32" class="edge">
<title>14&#45;&gt;24</title>
<path fill="none" stroke="#0000ff" d="M2126.51,-174.21C2140.55,-161.52 2160,-143.93 2175.63,-129.79"/>
<polygon fill="#0000ff" stroke="#0000ff" points="2178.34,-132.06 2183.41,-122.76 2173.65,-126.87 2178.34,-132.06"/>
<text text-anchor="middle" x="2191.94" y="-144.8" font-family="Times,serif" font-size="14.00">no, missing</text>
</g>
</g>
</svg>
