<?xml version="1.0" encoding="UTF-8" standalone="no"?>
<!DOCTYPE svg PUBLIC "-//W3C//DTD SVG 1.1//EN"
 "http://www.w3.org/Graphics/SVG/1.1/DTD/svg11.dtd">
<!-- Generated by graphviz version 2.43.0 (0)
 -->
<!-- Title: %3 Pages: 1 -->
<svg width="2488pt" height="479pt"
 viewBox="0.00 0.00 2488.23 479.00" xmlns="http://www.w3.org/2000/svg" xmlns:xlink="http://www.w3.org/1999/xlink">
<g id="graph0" class="graph" transform="scale(1 1) rotate(0) translate(4 475)">
<title>%3</title>
<polygon fill="white" stroke="transparent" points="-4,4 -4,-475 2484.23,-475 2484.23,4 -4,4"/>
<!-- 0 -->
<g id="node1" class="node">
<title>0</title>
<ellipse fill="none" stroke="black" cx="1763.04" cy="-453" rx="100.18" ry="18"/>
<text text-anchor="middle" x="1763.04" y="-449.3" font-family="Times,serif" font-size="14.00">regime_adx&lt;56.7595596</text>
</g>
<!-- 1 -->
<g id="node2" class="node">
<title>1</title>
<ellipse fill="none" stroke="black" cx="1582.04" cy="-366" rx="97.48" ry="18"/>
<text text-anchor="middle" x="1582.04" y="-362.3" font-family="Times,serif" font-size="14.00">D_EMA20&lt;1.03823972</text>
</g>
<!-- 0&#45;&gt;1 -->
<g id="edge1" class="edge">
<title>0&#45;&gt;1</title>
<path fill="none" stroke="#ff0000" d="M1729,-436.01C1699.54,-422.18 1656.81,-402.11 1625.01,-387.18"/>
<polygon fill="#ff0000" stroke="#ff0000" points="1626.47,-384 1615.93,-382.92 1623.5,-390.34 1626.47,-384"/>
<text text-anchor="middle" x="1693.54" y="-405.8" font-family="Times,serif" font-size="14.00">yes</text>
</g>
<!-- 2 -->
<g id="node3" class="node">
<title>2</title>
<ellipse fill="none" stroke="black" cx="2170.04" cy="-366" rx="98.28" ry="18"/>
<text text-anchor="middle" x="2170.04" y="-362.3" font-family="Times,serif" font-size="14.00">Vol_Chg&lt;0.0366494171</text>
</g>
<!-- 0&#45;&gt;2 -->
<g id="edge2" class="edge">
<title>0&#45;&gt;2</title>
<path fill="none" stroke="#0000ff" d="M1825.74,-438.91C1899.15,-423.57 2020.51,-398.23 2097.8,-382.09"/>
<polygon fill="#0000ff" stroke="#0000ff" points="2098.86,-385.44 2107.94,-379.97 2097.43,-378.59 2098.86,-385.44"/>
<text text-anchor="middle" x="2023.04" y="-405.8" font-family="Times,serif" font-size="14.00">no, missing</text>
</g>
<!-- 3 -->
<g id="node4" class="node">
<title>3</title>
<ellipse fill="none" stroke="black" cx="1046.04" cy="-279" rx="97.48" ry="18"/>
<text text-anchor="middle" x="1046.04" y="-275.3" font-family="Times,serif" font-size="14.00">D_EMA20&lt;1.01952136</text>
</g>
<!-- 1&#45;&gt;3 -->
<g id="edge3" class="edge">
<title>1&#45;&gt;3</title>
<path fill="none" stroke="#ff0000" d="M1510.59,-353.67C1411.29,-337.92 1232.03,-309.49 1127.61,-292.93"/>
<polygon fill="#ff0000" stroke="#ff0000" points="1127.86,-289.43 1117.43,-291.32 1126.76,-296.34 1127.86,-289.43"/>
<text text-anchor="middle" x="1356.54" y="-318.8" font-family="Times,serif" font-size="14.00">yes</text>
</g>
<!-- 4 -->
<g id="node5" class="node">
<title>4</title>
<ellipse fill="none" stroke="black" cx="1582.04" cy="-279" rx="71.49" ry="18"/>
<text text-anchor="middle" x="1582.04" y="-275.3" font-family="Times,serif" font-size="14.00">RSI&lt;59.3315506</text>
</g>
<!-- 1&#45;&gt;4 -->
<g id="edge4" class="edge">
<title>1&#45;&gt;4</title>
<path fill="none" stroke="#0000ff" d="M1582.04,-347.8C1582.04,-336.16 1582.04,-320.55 1582.04,-307.24"/>
<polygon fill="#0000ff" stroke="#0000ff" points="1585.54,-307.18 1582.04,-297.18 1578.54,-307.18 1585.54,-307.18"/>
<text text-anchor="middle" x="1614.04" y="-318.8" font-family="Times,serif" font-size="14.00">no, missing</text>
</g>
<!-- 5 -->
<g id="node30" class="node">
<title>5</title>
<ellipse fill="none" stroke="black" cx="2170.04" cy="-279" rx="125.38" ry="18"/>
<text text-anchor="middle" x="2170.04" y="-275.3" font-family="Times,serif" font-size="14.00">regime_vol_trend&lt;0.024230063</text>
</g>
<!-- 2&#45;&gt;5 -->
<g id="edge29" class="edge">
<title>2&#45;&gt;5</title>
<path fill="none" stroke="#ff0000" d="M2170.04,-347.8C2170.04,-336.16 2170.04,-320.55 2170.04,-307.24"/>
<polygon fill="#ff0000" stroke="#ff0000" points="2173.54,-307.18 2170.04,-297.18 2166.54,-307.18 2173.54,-307.18"/>
<text text-anchor="middle" x="2179.54" y="-318.8" font-family="Times,serif" font-size="14.00">yes</text>
</g>
<!-- 6 -->
<g id="node31" class="node">
<title>6</title>
<ellipse fill="none" stroke="black" cx="2397.04" cy="-279" rx="83.39" ry="18"/>
<text text-anchor="middle" x="2397.04" y="-275.3" font-family="Times,serif" font-size="14.00">leaf=&#45;0.0499165356</text>
</g>
<!-- 2&#45;&gt;6 -->
<g id="edge30" class="edge">
<title>2&#45;&gt;6</title>
<path fill="none" stroke="#0000ff" d="M2211.15,-349.61C2249.59,-335.21 2307.05,-313.7 2347.9,-298.4"/>
<polygon fill="#0000ff" stroke="#0000ff" points="2349.24,-301.64 2357.38,-294.85 2346.79,-295.08 2349.24,-301.64"/>
<text text-anchor="middle" x="2330.04" y="-318.8" font-family="Times,serif" font-size="14.00">no, missing</text>
</g>
<!-- 7 -->
<g id="node6" class="node">
<title>7</title>
<ellipse fill="none" stroke="black" cx="580.04" cy="-192" rx="87.99" ry="18"/>
<text text-anchor="middle" x="580.04" y="-188.3" font-family="Times,serif" font-size="14.00">MACD&lt;&#45;20.9116344</text>
</g>
<!-- 3&#45;&gt;7 -->
<g id="edge5" class="edge">
<title>3&#45;&gt;7</title>
<path fill="none" stroke="#ff0000" d="M979.28,-265.82C892.89,-250.06 742.88,-222.7 653.39,-206.38"/>
<polygon fill="#ff0000" stroke="#ff0000" points="653.79,-202.89 643.32,-204.54 652.53,-209.78 653.79,-202.89"/>
<text text-anchor="middle" x="850.54" y="-231.8" font-family="Times,serif" font-size="14.00">yes</text>
</g>
<!-- 8 -->
<g id="node7" class="node">
<title>8</title>
<ellipse fill="none" stroke="black" cx="1046.04" cy="-192" rx="71.49" ry="18"/>
<text text-anchor="middle" x="1046.04" y="-188.3" font-family="Times,serif" font-size="14.00">RSI&lt;53.0448112</text>
</g>
<!-- 3&#45;&gt;8 -->
<g id="edge6" class="edge">
<title>3&#45;&gt;8</title>
<path fill="none" stroke="#0000ff" d="M1046.04,-260.8C1046.04,-249.16 1046.04,-233.55 1046.04,-220.24"/>
<polygon fill="#0000ff" stroke="#0000ff" points="1049.54,-220.18 1046.04,-210.18 1042.54,-220.18 1049.54,-220.18"/>
<text text-anchor="middle" x="1078.04" y="-231.8" font-family="Times,serif" font-size="14.00">no, missing</text>
</g>
<!-- 9 -->
<g id="node20" class="node">
<title>9</title>
<ellipse fill="none" stroke="black" cx="1522.04" cy="-192" rx="83.39" ry="18"/>
<text text-anchor="middle" x="1522.04" y="-188.3" font-family="Times,serif" font-size="14.00">BBW&lt;0.179126263</text>
</g>
<!-- 4&#45;&gt;9 -->
<g id="edge19" class="edge">
<title>4&#45;&gt;9</title>
<path fill="none" stroke="#ff0000" d="M1570.19,-261.21C1561.53,-248.95 1549.65,-232.11 1539.86,-218.24"/>
<polygon fill="#ff0000" stroke="#ff0000" points="1542.7,-216.2 1534.08,-210.05 1536.98,-220.24 1542.7,-216.2"/>
<text text-anchor="middle" x="1565.54" y="-231.8" font-family="Times,serif" font-size="14.00">yes</text>
</g>
<!-- 10 -->
<g id="node21" class="node">
<title>10</title>
<ellipse fill="none" stroke="black" cx="1760.04" cy="-192" rx="137.28" ry="18"/>
<text text-anchor="middle" x="1760.04" y="-188.3" font-family="Times,serif" font-size="14.00">regime_ema_spread&lt;&#45;0.229384273</text>
</g>
<!-- 4&#45;&gt;10 -->
<g id="edge20" class="edge">
<title>4&#45;&gt;10</title>
<path fill="none" stroke="#0000ff" d="M1613.86,-262.8C1642.44,-249.16 1684.66,-229 1716.39,-213.85"/>
<polygon fill="#0000ff" stroke="#0000ff" points="1717.94,-216.98 1725.45,-209.52 1714.92,-210.67 1717.94,-216.98"/>
<text text-anchor="middle" x="1714.04" y="-231.8" font-family="Times,serif" font-size="14.00">no, missing</text>
</g>
<!-- 13 -->
<g id="node8" class="node">
<title>13</title>
<ellipse fill="none" stroke="black" cx="279.04" cy="-105" rx="97.48" ry="18"/>
<text text-anchor="middle" x="279.04" y="-101.3" font-family="Times,serif" font-size="14.00">D_EMA20&lt;1.00269377</text>
</g>
<!-- 7&#45;&gt;13 -->
<g id="edge7" class="edge">
<title>7&#45;&gt;13</title>
<path fill="none" stroke="#ff0000" d="M530.68,-177.06C478.44,-162.31 395.95,-139.01 339.77,-123.15"/>
<polygon fill="#ff0000" stroke="#ff0000" points="340.52,-119.72 329.95,-120.37 338.62,-126.46 340.52,-119.72"/>
<text text-anchor="middle" x="457.54" y="-144.8" font-family="Times,serif" font-size="14.00">yes</text>
</g>
<!-- 14 -->
<g id="node9" class="node">
<title>14</title>
<ellipse fill="none" stroke="black" cx="580.04" cy="-105" rx="123.48" ry="18"/>
<text text-anchor="middle" x="580.04" y="-101.3" font-family="Times,serif" font-size="14.00">regime_vol_ratio&lt;0.768502235</text>
</g>
<!-- 7&#45;&gt;14 -->
<g id="edge8" class="edge">
<title>7&#45;&gt;14</title>
<path fill="none" stroke="#0000ff" d="M580.04,-173.8C580.04,-162.16 580.04,-146.55 580.04,-133.24"/>
<polygon fill="#0000ff" stroke="#0000ff" points="583.54,-133.18 580.04,-123.18 576.54,-133.18 583.54,-133.18"/>
<text text-anchor="middle" x="612.04" y="-144.8" font-family="Times,serif" font-size="14.00">no, missing</text>
</g>
<!-- 15 -->
<g id="node14" class="node">
<title>15</title>
<ellipse fill="none" stroke="black" cx="996.04" cy="-105" rx="74.99" ry="18"/>
<text text-anchor="middle" x="996.04" y="-101.3" font-family="Times,serif" font-size="14.00">ATR&lt;1512.16003</text>
</g>
<!-- 8&#45;&gt;15 -->
<g id="edge13" class="edge">
<title>8&#45;&gt;15</title>
<path fill="none" stroke="#ff0000" d="M1035.92,-173.8C1028.83,-161.74 1019.22,-145.4 1011.21,-131.79"/>
<polygon fill="#ff0000" stroke="#ff0000" points="1014.06,-129.73 1005.97,-122.89 1008.03,-133.28 1014.06,-129.73"/>
<text text-anchor="middle" x="1033.54" y="-144.8" font-family="Times,serif" font-size="14.00">yes</text>
</g>
<!-- 16 -->
<g id="node15" class="node">
<title>16</title>
<ellipse fill="none" stroke="black" cx="1195.04" cy="-105" rx="106.68" ry="18"/>
<text text-anchor="middle" x="1195.04" y="-101.3" font-family="Times,serif" font-size="14.00">Mon_Sin&lt;1.22464685e&#45;16</text>
</g>
<!-- 8&#45;&gt;16 -->
<g id="edge14" class="edge">
<title>8&#45;&gt;16</title>
<path fill="none" stroke="#0000ff" d="M1073.72,-175.21C1097.28,-161.77 1131.36,-142.33 1157.4,-127.47"/>
<polygon fill="#0000ff" stroke="#0000ff" points="1159.29,-130.42 1166.24,-122.43 1155.82,-124.34 1159.29,-130.42"/>
<text text-anchor="middle" x="1162.04" y="-144.8" font-family="Times,serif" font-size="14.00">no, missing</text>
</g>
<!-- 23 -->
<g id="node10" class="node">
<title>23</title>
<ellipse fill="none" stroke="black" cx="89.04" cy="-18" rx="89.08" ry="18"/>
<text text-anchor="middle" x="89.04" y="-14.3" font-family="Times,serif" font-size="14.00">leaf=0.000154261754</text>
</g>
<!-- 13&#45;&gt;23 -->
<g id="edge9" class="edge">
<title>13&#45;&gt;23</title>
<path fill="none" stroke="#ff0000" d="M243.75,-88.21C212.56,-74.26 166.92,-53.84 133.29,-38.79"/>
<polygon fill="#ff0000" stroke="#ff0000" points="134.7,-35.59 124.15,-34.7 131.84,-41.98 134.7,-35.59"/>
<text text-anchor="middle" x="205.54" y="-57.8" font-family="Times,serif" font-size="14.00">yes</text>
</g>
<!-- 24 -->
<g id="node11" class="node">
<title>24</title>
<ellipse fill="none" stroke="black" cx="279.04" cy="-18" rx="83.39" ry="18"/>
<text text-anchor="middle" x="279.04" y="-14.3" font-family="Times,serif" font-size="14.00">leaf=&#45;0.0319393203</text>
</g>
<!-- 13&#45;&gt;24 -->
<g id="edge10" class="edge">
<title>13&#45;&gt;24</title>
<path fill="none" stroke="#0000ff" d="M279.04,-86.8C279.04,-75.16 279.04,-59.55 279.04,-46.24"/>
<polygon fill="#0000ff" stroke="#0000ff" points="282.54,-46.18 279.04,-36.18 275.54,-46.18 282.54,-46.18"/>
<text text-anchor="middle" x="311.04" y="-57.8" font-family="Times,serif" font-size="14.00">no, missing</text>
</g>
<!-- 25 -->
<g id="node12" class="node">
<title>25</title>
<ellipse fill="none" stroke="black" cx="460.04" cy="-18" rx="79.89" ry="18"/>
<text text-anchor="middle" x="460.04" y="-14.3" font-family="Times,serif" font-size="14.00">leaf=0.0531710684</text>
</g>
<!-- 14&#45;&gt;25 -->
<g id="edge11" class="edge">
<title>14&#45;&gt;25</title>
<path fill="none" stroke="#ff0000" d="M556.33,-87.21C537.81,-74.08 511.88,-55.72 491.6,-41.35"/>
<polygon fill="#ff0000" stroke="#ff0000" points="493.48,-38.39 483.29,-35.47 489.43,-44.11 493.48,-38.39"/>
<text text-anchor="middle" x="537.54" y="-57.8" font-family="Times,serif" font-size="14.00">yes</text>
</g>
<!-- 26 -->
<g id="node13" class="node">
<title>26</title>
<ellipse fill="none" stroke="black" cx="642.04" cy="-18" rx="84.49" ry="18"/>
<text text-anchor="middle" x="642.04" y="-14.3" font-family="Times,serif" font-size="14.00">leaf=0.00815699156</text>
</g>
<!-- 14&#45;&gt;26 -->
<g id="edge12" class="edge">
<title>14&#45;&gt;26</title>
<path fill="none" stroke="#0000ff" d="M592.59,-86.8C601.56,-74.51 613.76,-57.77 623.8,-44.01"/>
<polygon fill="#0000ff" stroke="#0000ff" points="626.66,-46.03 629.73,-35.89 621,-41.9 626.66,-46.03"/>
<text text-anchor="middle" x="647.04" y="-57.8" font-family="Times,serif" font-size="14.00">no, missing</text>
</g>
<!-- 27 -->
<g id="node16" class="node">
<title>27</title>
<ellipse fill="none" stroke="black" cx="828.04" cy="-18" rx="83.39" ry="18"/>
<text text-anchor="middle" x="828.04" y="-14.3" font-family="Times,serif" font-size="14.00">leaf=&#45;0.0234057643</text>
</g>
<!-- 15&#45;&gt;27 -->
<g id="edge15" class="edge">
<title>15&#45;&gt;27</title>
<path fill="none" stroke="#ff0000" d="M965.23,-88.41C938.05,-74.66 898.24,-54.52 868.5,-39.47"/>
<polygon fill="#ff0000" stroke="#ff0000" points="869.73,-36.17 859.23,-34.78 866.57,-42.42 869.73,-36.17"/>
<text text-anchor="middle" x="932.54" y="-57.8" font-family="Times,serif" font-size="14.00">yes</text>
</g>
<!-- 28 -->
<g id="node17" class="node">
<title>28</title>
<ellipse fill="none" stroke="black" cx="1009.04" cy="-18" rx="79.89" ry="18"/>
<text text-anchor="middle" x="1009.04" y="-14.3" font-family="Times,serif" font-size="14.00">leaf=0.0492025279</text>
</g>
<!-- 15&#45;&gt;28 -->
<g id="edge16" class="edge">
<title>15&#45;&gt;28</title>
<path fill="none" stroke="#0000ff" d="M998.67,-86.8C1000.45,-75.16 1002.84,-59.55 1004.88,-46.24"/>
<polygon fill="#0000ff" stroke="#0000ff" points="1008.36,-46.59 1006.42,-36.18 1001.44,-45.53 1008.36,-46.59"/>
<text text-anchor="middle" x="1036.04" y="-57.8" font-family="Times,serif" font-size="14.00">no, missing</text>
</g>
<!-- 29 -->
<g id="node18" class="node">
<title>29</title>
<ellipse fill="none" stroke="black" cx="1194.04" cy="-18" rx="87.18" ry="18"/>
<text text-anchor="middle" x="1194.04" y="-14.3" font-family="Times,serif" font-size="14.00">leaf=&#45;0.00816884544</text>
</g>
<!-- 16&#45;&gt;29 -->
<g id="edge17" class="edge">
<title>16&#45;&gt;29</title>
<path fill="none" stroke="#ff0000" d="M1194.84,-86.8C1194.7,-75.16 1194.52,-59.55 1194.36,-46.24"/>
<polygon fill="#ff0000" stroke="#ff0000" points="1197.86,-46.13 1194.24,-36.18 1190.86,-46.22 1197.86,-46.13"/>
<text text-anchor="middle" x="1204.54" y="-57.8" font-family="Times,serif" font-size="14.00">yes</text>
</g>
<!-- 30 -->
<g id="node19" class="node">
<title>30</title>
<ellipse fill="none" stroke="black" cx="1382.04" cy="-18" rx="83.39" ry="18"/>
<text text-anchor="middle" x="1382.04" y="-14.3" font-family="Times,serif" font-size="14.00">leaf=&#45;0.0481113307</text>
</g>
<!-- 16&#45;&gt;30 -->
<g id="edge18" class="edge">
<title>16&#45;&gt;30</title>
<path fill="none" stroke="#0000ff" d="M1230.66,-87.81C1261.33,-73.87 1305.7,-53.7 1338.48,-38.8"/>
<polygon fill="#0000ff" stroke="#0000ff" points="1340.17,-41.88 1347.82,-34.55 1337.27,-35.51 1340.17,-41.88"/>
<text text-anchor="middle" x="1332.04" y="-57.8" font-family="Times,serif" font-size="14.00">no, missing</text>
</g>
<!-- 17 -->
<g id="node22" class="node">
<title>17</title>
<ellipse fill="none" stroke="black" cx="1401.04" cy="-105" rx="79.89" ry="18"/>
<text text-anchor="middle" x="1401.04" y="-101.3" font-family="Times,serif" font-size="14.00">leaf=0.0693563074</text>
</g>
<!-- 9&#45;&gt;17 -->
<g id="edge21" class="edge">
<title>9&#45;&gt;17</title>
<path fill="none" stroke="#ff0000" d="M1498.71,-174.61C1479.88,-161.38 1453.2,-142.64 1432.49,-128.09"/>
<polygon fill="#ff0000" stroke="#ff0000" points="1434.5,-125.22 1424.3,-122.34 1430.47,-130.95 1434.5,-125.22"/>
<text text-anchor="middle" x="1478.54" y="-144.8" font-family="Times,serif" font-size="14.00">yes</text>
</g>
<!-- 18 -->
<g id="node23" class="node">
<title>18</title>
<ellipse fill="none" stroke="black" cx="1570.04" cy="-105" rx="71.49" ry="18"/>
<text text-anchor="middle" x="1570.04" y="-101.3" font-family="Times,serif" font-size="14.00">RSI&lt;58.2416306</text>
</g>
<!-- 9&#45;&gt;18 -->
<g id="edge22" class="edge">
<title>9&#45;&gt;18</title>
<path fill="none" stroke="#0000ff" d="M1531.76,-173.8C1538.57,-161.74 1547.79,-145.4 1555.48,-131.79"/>
<polygon fill="#0000ff" stroke="#0000ff" points="1558.64,-133.31 1560.51,-122.89 1552.54,-129.87 1558.64,-133.31"/>
<text text-anchor="middle" x="1581.04" y="-144.8" font-family="Times,serif" font-size="14.00">no, missing</text>
</g>
<!-- 19 -->
<g id="node26" class="node">
<title>19</title>
<ellipse fill="none" stroke="black" cx="1743.04" cy="-105" rx="83.39" ry="18"/>
<text text-anchor="middle" x="1743.04" y="-101.3" font-family="Times,serif" font-size="14.00">leaf=&#45;0.0481267907</text>
</g>
<!-- 10&#45;&gt;19 -->
<g id="edge25" class="edge">
<title>10&#45;&gt;19</title>
<path fill="none" stroke="#ff0000" d="M1756.6,-173.8C1754.27,-162.16 1751.15,-146.55 1748.49,-133.24"/>
<polygon fill="#ff0000" stroke="#ff0000" points="1751.87,-132.29 1746.48,-123.18 1745.01,-133.67 1751.87,-132.29"/>
<text text-anchor="middle" x="1762.54" y="-144.8" font-family="Times,serif" font-size="14.00">yes</text>
</g>
<!-- 20 -->
<g id="node27" class="node">
<title>20</title>
<ellipse fill="none" stroke="black" cx="1956.04" cy="-105" rx="111.58" ry="18"/>
<text text-anchor="middle" x="1956.04" y="-101.3" font-family="Times,serif" font-size="14.00">MACD_Signal&lt;900.507019</text>
</g>
<!-- 10&#45;&gt;20 -->
<g id="edge26" class="edge">
<title>10&#45;&gt;20</title>
<path fill="none" stroke="#0000ff" d="M1797.83,-174.61C1829.76,-160.76 1875.61,-140.88 1909.74,-126.08"/>
<polygon fill="#0000ff" stroke="#0000ff" points="1911.25,-129.24 1919.03,-122.05 1908.47,-122.82 1911.25,-129.24"/>
<text text-anchor="middle" x="1902.04" y="-144.8" font-family="Times,serif" font-size="14.00">no, missing</text>
</g>
<!-- 31 -->
<g id="node24" class="node">
<title>31</title>
<ellipse fill="none" stroke="black" cx="1570.04" cy="-18" rx="87.18" ry="18"/>
<text text-anchor="middle" x="1570.04" y="-14.3" font-family="Times,serif" font-size="14.00">leaf=&#45;0.00344955991</text>
</g>
<!-- 18&#45;&gt;31 -->
<g id="edge23" class="edge">
<title>18&#45;&gt;31</title>
<path fill="none" stroke="#ff0000" d="M1570.04,-86.8C1570.04,-75.16 1570.04,-59.55 1570.04,-46.24"/>
<polygon fill="#ff0000" stroke="#ff0000" points="1573.54,-46.18 1570.04,-36.18 1566.54,-46.18 1573.54,-46.18"/>
<text text-anchor="middle" x="1579.54" y="-57.8" font-family="Times,serif" font-size="14.00">yes</text>
</g>
<!-- 32 -->
<g id="node25" class="node">
<title>32</title>
<ellipse fill="none" stroke="black" cx="1755.04" cy="-18" rx="79.89" ry="18"/>
<text text-anchor="middle" x="1755.04" y="-14.3" font-family="Times,serif" font-size="14.00">leaf=0.0404659584</text>
</g>
<!-- 18&#45;&gt;32 -->
<g id="edge24" class="edge">
<title>18&#45;&gt;32</title>
<path fill="none" stroke="#0000ff" d="M1603.12,-88.8C1633.48,-74.85 1678.66,-54.09 1711.86,-38.84"/>
<polygon fill="#0000ff" stroke="#0000ff" points="1713.69,-41.85 1721.32,-34.5 1710.77,-35.49 1713.69,-41.85"/>
<text text-anchor="middle" x="1706.04" y="-57.8" font-family="Times,serif" font-size="14.00">no, missing</text>
</g>
<!-- 33 -->
<g id="node28" class="node">
<title>33</title>
<ellipse fill="none" stroke="black" cx="1944.04" cy="-18" rx="79.89" ry="18"/>
<text text-anchor="middle" x="1944.04" y="-14.3" font-family="Times,serif" font-size="14.00">leaf=0.0159891378</text>
</g>
<!-- 20&#45;&gt;33 -->
<g id="edge27" class="edge">
<title>20&#45;&gt;33</title>
<path fill="none" stroke="#ff0000" d="M1953.61,-86.8C1951.97,-75.16 1949.77,-59.55 1947.89,-46.24"/>
<polygon fill="#ff0000" stroke="#ff0000" points="1951.33,-45.59 1946.47,-36.18 1944.4,-46.57 1951.33,-45.59"/>
<text text-anchor="middle" x="1960.54" y="-57.8" font-family="Times,serif" font-size="14.00">yes</text>
</g>
<!-- 34 -->
<g id="node29" class="node">
<title>34</title>
<ellipse fill="none" stroke="black" cx="2129.04" cy="-18" rx="87.18" ry="18"/>
<text text-anchor="middle" x="2129.04" y="-14.3" font-family="Times,serif" font-size="14.00">leaf=&#45;0.00561825093</text>
</g>
<!-- 20&#45;&gt;34 -->
<g id="edge28" class="edge">
<title>20&#45;&gt;34</title>
<path fill="none" stroke="#0000ff" d="M1989.4,-87.61C2017.52,-73.8 2057.87,-53.97 2087.97,-39.18"/>
<polygon fill="#0000ff" stroke="#0000ff" points="2089.53,-42.31 2096.96,-34.76 2086.44,-36.03 2089.53,-42.31"/>
<text text-anchor="middle" x="2085.04" y="-57.8" font-family="Times,serif" font-size="14.00">no, missing</text>
</g>
<!-- 11 -->
<g id="node32" class="node">
<title>11</title>
<ellipse fill="none" stroke="black" cx="2170.04" cy="-192" rx="109.38" ry="18"/>
<text text-anchor="middle" x="2170.04" y="-188.3" font-family="Times,serif" font-size="14.00">Log_Ret&lt;&#45;0.000780461822</text>
</g>
<!-- 5&#45;&gt;11 -->
<g id="edge31" class="edge">
<title>5&#45;&gt;11</title>
<path fill="none" stroke="#ff0000" d="M2170.04,-260.8C2170.04,-249.16 2170.04,-233.55 2170.04,-220.24"/>
<polygon fill="#ff0000" stroke="#ff0000" points="2173.54,-220.18 2170.04,-210.18 2166.54,-220.18 2173.54,-220.18"/>
<text text-anchor="middle" x="2179.54" y="-231.8" font-family="Times,serif" font-size="14.00">yes</text>
</g>
<!-- 12 -->
<g id="node33" class="node">
<title>12</title>
<ellipse fill="none" stroke="black" cx="2380.04" cy="-192" rx="83.39" ry="18"/>
<text text-anchor="middle" x="2380.04" y="-188.3" font-family="Times,serif" font-size="14.00">leaf=&#45;0.0400704816</text>
</g>
<!-- 5&#45;&gt;12 -->
<g id="edge32" class="edge">
<title>5&#45;&gt;12</title>
<path fill="none" stroke="#0000ff" d="M2210.04,-261.81C2245.1,-247.62 2296.12,-226.97 2333.11,-212"/>
<polygon fill="#0000ff" stroke="#0000ff" points="2334.71,-215.12 2342.67,-208.13 2332.08,-208.64 2334.71,-215.12"/>
<text text-anchor="middle" x="2320.04" y="-231.8" font-family="Times,serif" font-size="14.00">no, missing</text>
</g>
<!-- 21 -->
<g id="node34" class="node">
<title>21</title>
<ellipse fill="none" stroke="black" cx="2170.04" cy="-105" rx="84.49" ry="18"/>
<text text-anchor="middle" x="2170.04" y="-101.3" font-family="Times,serif" font-size="14.00">leaf=0.00106328563</text>
</g>
<!-- 11&#45;&gt;21 -->
<g id="edge33" class="edge">
<title>11&#45;&gt;21</title>
<path fill="none" stroke="#ff0000" d="M2170.04,-173.8C2170.04,-162.16 2170.04,-146.55 2170.04,-133.24"/>
<polygon fill="#ff0000" stroke="#ff0000" points="2173.54,-133.18 2170.04,-123.18 2166.54,-133.18 2173.54,-133.18"/>
<text text-anchor="middle" x="2179.54" y="-144.8" font-family="Times,serif" font-size="14.00">yes</text>
</g>
<!-- 22 -->
<g id="node35" class="node">
<title>22</title>
<ellipse fill="none" stroke="black" cx="2352.04" cy="-105" rx="79.89" ry="18"/>
<text text-anchor="middle" x="2352.04" y="-101.3" font-family="Times,serif" font-size="14.00">leaf=0.0522327982</text>
</g>
<!-- 11&#45;&gt;22 -->
<g id="edge34" class="edge">
<title>11&#45;&gt;22</title>
<path fill="none" stroke="#0000ff" d="M2204.7,-174.81C2234.65,-160.83 2278.01,-140.58 2309.94,-125.66"/>
<polygon fill="#0000ff" stroke="#0000ff" points="2311.46,-128.81 2319.04,-121.41 2308.5,-122.47 2311.46,-128.81"/>
<text text-anchor="middle" x="2304.04" y="-144.8" font-family="Times,serif" font-size="14.00">no, missing</text>
</g>
</g>
</svg>
