<?xml version="1.0" encoding="UTF-8" standalone="no"?>
<!DOCTYPE svg PUBLIC "-//W3C//DTD SVG 1.1//EN"
 "http://www.w3.org/Graphics/SVG/1.1/DTD/svg11.dtd">
<!-- Generated by graphviz version 2.43.0 (0)
 -->
<!-- Title: %3 Pages: 1 -->
<svg width="3087pt" height="479pt"
 viewBox="0.00 0.00 3087.44 479.00" xmlns="http://www.w3.org/2000/svg" xmlns:xlink="http://www.w3.org/1999/xlink">
<g id="graph0" class="graph" transform="scale(1 1) rotate(0) translate(4 475)">
<title>%3</title>
<polygon fill="white" stroke="transparent" points="-4,4 -4,-475 3083.44,-475 3083.44,4 -4,4"/>
<!-- 0 -->
<g id="node1" class="node">
<title>0</title>
<ellipse fill="none" stroke="black" cx="759.94" cy="-453" rx="74.99" ry="18"/>
<text text-anchor="middle" x="759.94" y="-449.3" font-family="Times,serif" font-size="14.00">ATR&lt;305.443207</text>
</g>
<!-- 1 -->
<g id="node2" class="node">
<title>1</title>
<ellipse fill="none" stroke="black" cx="656.94" cy="-366" rx="53.09" ry="18"/>
<text text-anchor="middle" x="656.94" y="-362.3" font-family="Times,serif" font-size="14.00">Day_Cos&lt;1</text>
</g>
<!-- 0&#45;&gt;1 -->
<g id="edge1" class="edge">
<title>0&#45;&gt;1</title>
<path fill="none" stroke="#ff0000" d="M740.08,-435.61C724.31,-422.59 702.07,-404.24 684.56,-389.79"/>
<polygon fill="#ff0000" stroke="#ff0000" points="686.33,-386.72 676.39,-383.05 681.88,-392.11 686.33,-386.72"/>
<text text-anchor="middle" x="724.44" y="-405.8" font-family="Times,serif" font-size="14.00">yes</text>
</g>
<!-- 2 -->
<g id="node3" class="node">
<title>2</title>
<ellipse fill="none" stroke="black" cx="931.94" cy="-366" rx="96.38" ry="18"/>
<text text-anchor="middle" x="931.94" y="-362.3" font-family="Times,serif" font-size="14.00">Log_Ret&lt;&#45;0.023334248</text>
</g>
<!-- 0&#45;&gt;2 -->
<g id="edge2" class="edge">
<title>0&#45;&gt;2</title>
<path fill="none" stroke="#0000ff" d="M791.09,-436.61C818.9,-422.86 859.85,-402.63 890.43,-387.51"/>
<polygon fill="#0000ff" stroke="#0000ff" points="892.15,-390.57 899.57,-383 889.05,-384.29 892.15,-390.57"/>
<text text-anchor="middle" x="888.94" y="-405.8" font-family="Times,serif" font-size="14.00">no, missing</text>
</g>
<!-- 3 -->
<g id="node4" class="node">
<title>3</title>
<ellipse fill="none" stroke="black" cx="275.94" cy="-279" rx="102.88" ry="18"/>
<text text-anchor="middle" x="275.94" y="-275.3" font-family="Times,serif" font-size="14.00">Vol_Chg&lt;0.00597857917</text>
</g>
<!-- 1&#45;&gt;3 -->
<g id="edge3" class="edge">
<title>1&#45;&gt;3</title>
<path fill="none" stroke="#ff0000" d="M613.61,-355.33C548.52,-340.81 424.82,-313.21 346.57,-295.76"/>
<polygon fill="#ff0000" stroke="#ff0000" points="347.31,-292.34 336.79,-293.57 345.79,-299.17 347.31,-292.34"/>
<text text-anchor="middle" x="499.44" y="-318.8" font-family="Times,serif" font-size="14.00">yes</text>
</g>
<!-- 4 -->
<g id="node5" class="node">
<title>4</title>
<ellipse fill="none" stroke="black" cx="656.94" cy="-279" rx="87.18" ry="18"/>
<text text-anchor="middle" x="656.94" y="-275.3" font-family="Times,serif" font-size="14.00">leaf=&#45;0.00965637248</text>
</g>
<!-- 1&#45;&gt;4 -->
<g id="edge4" class="edge">
<title>1&#45;&gt;4</title>
<path fill="none" stroke="#0000ff" d="M656.94,-347.8C656.94,-336.16 656.94,-320.55 656.94,-307.24"/>
<polygon fill="#0000ff" stroke="#0000ff" points="660.44,-307.18 656.94,-297.18 653.44,-307.18 660.44,-307.18"/>
<text text-anchor="middle" x="688.94" y="-318.8" font-family="Times,serif" font-size="14.00">no, missing</text>
</g>
<!-- 5 -->
<g id="node10" class="node">
<title>5</title>
<ellipse fill="none" stroke="black" cx="931.94" cy="-279" rx="100.98" ry="18"/>
<text text-anchor="middle" x="931.94" y="-275.3" font-family="Times,serif" font-size="14.00">Log_Ret&lt;&#45;0.0428305306</text>
</g>
<!-- 2&#45;&gt;5 -->
<g id="edge9" class="edge">
<title>2&#45;&gt;5</title>
<path fill="none" stroke="#ff0000" d="M931.94,-347.8C931.94,-336.16 931.94,-320.55 931.94,-307.24"/>
<polygon fill="#ff0000" stroke="#ff0000" points="935.44,-307.18 931.94,-297.18 928.44,-307.18 935.44,-307.18"/>
<text text-anchor="middle" x="941.44" y="-318.8" font-family="Times,serif" font-size="14.00">yes</text>
</g>
<!-- 6 -->
<g id="node11" class="node">
<title>6</title>
<ellipse fill="none" stroke="black" cx="1950.94" cy="-279" rx="102.08" ry="18"/>
<text text-anchor="middle" x="1950.94" y="-275.3" font-family="Times,serif" font-size="14.00">D_EMA20&lt;0.947351575</text>
</g>
<!-- 2&#45;&gt;6 -->
<g id="edge10" class="edge">
<title>2&#45;&gt;6</title>
<path fill="none" stroke="#0000ff" d="M1017.94,-357.83C1205.53,-342.18 1650.63,-305.05 1850.61,-288.37"/>
<polygon fill="#0000ff" stroke="#0000ff" points="1851.14,-291.84 1860.81,-287.52 1850.56,-284.86 1851.14,-291.84"/>
<text text-anchor="middle" x="1534.94" y="-318.8" font-family="Times,serif" font-size="14.00">no, missing</text>
</g>
<!-- 7 -->
<g id="node6" class="node">
<title>7</title>
<ellipse fill="none" stroke="black" cx="79.94" cy="-192" rx="79.89" ry="18"/>
<text text-anchor="middle" x="79.94" y="-188.3" font-family="Times,serif" font-size="14.00">leaf=0.0735077858</text>
</g>
<!-- 3&#45;&gt;7 -->
<g id="edge5" class="edge">
<title>3&#45;&gt;7</title>
<path fill="none" stroke="#ff0000" d="M239.08,-262.01C206.54,-247.9 159.03,-227.3 124.4,-212.28"/>
<polygon fill="#ff0000" stroke="#ff0000" points="125.56,-208.97 115,-208.2 122.78,-215.39 125.56,-208.97"/>
<text text-anchor="middle" x="199.44" y="-231.8" font-family="Times,serif" font-size="14.00">yes</text>
</g>
<!-- 8 -->
<g id="node7" class="node">
<title>8</title>
<ellipse fill="none" stroke="black" cx="275.94" cy="-192" rx="98.28" ry="18"/>
<text text-anchor="middle" x="275.94" y="-188.3" font-family="Times,serif" font-size="14.00">Vol_Chg&lt;0.0982659236</text>
</g>
<!-- 3&#45;&gt;8 -->
<g id="edge6" class="edge">
<title>3&#45;&gt;8</title>
<path fill="none" stroke="#0000ff" d="M275.94,-260.8C275.94,-249.16 275.94,-233.55 275.94,-220.24"/>
<polygon fill="#0000ff" stroke="#0000ff" points="279.44,-220.18 275.94,-210.18 272.44,-220.18 279.44,-220.18"/>
<text text-anchor="middle" x="307.94" y="-231.8" font-family="Times,serif" font-size="14.00">no, missing</text>
</g>
<!-- 13 -->
<g id="node8" class="node">
<title>13</title>
<ellipse fill="none" stroke="black" cx="94.94" cy="-105" rx="83.39" ry="18"/>
<text text-anchor="middle" x="94.94" y="-101.3" font-family="Times,serif" font-size="14.00">leaf=&#45;0.0119134579</text>
</g>
<!-- 8&#45;&gt;13 -->
<g id="edge7" class="edge">
<title>8&#45;&gt;13</title>
<path fill="none" stroke="#ff0000" d="M241.9,-175.01C212.26,-161.09 169.17,-140.86 137.31,-125.89"/>
<polygon fill="#ff0000" stroke="#ff0000" points="138.76,-122.71 128.22,-121.63 135.79,-129.05 138.76,-122.71"/>
<text text-anchor="middle" x="206.44" y="-144.8" font-family="Times,serif" font-size="14.00">yes</text>
</g>
<!-- 14 -->
<g id="node9" class="node">
<title>14</title>
<ellipse fill="none" stroke="black" cx="275.94" cy="-105" rx="79.89" ry="18"/>
<text text-anchor="middle" x="275.94" y="-101.3" font-family="Times,serif" font-size="14.00">leaf=0.0513573289</text>
</g>
<!-- 8&#45;&gt;14 -->
<g id="edge8" class="edge">
<title>8&#45;&gt;14</title>
<path fill="none" stroke="#0000ff" d="M275.94,-173.8C275.94,-162.16 275.94,-146.55 275.94,-133.24"/>
<polygon fill="#0000ff" stroke="#0000ff" points="279.44,-133.18 275.94,-123.18 272.44,-133.18 279.44,-133.18"/>
<text text-anchor="middle" x="307.94" y="-144.8" font-family="Times,serif" font-size="14.00">no, missing</text>
</g>
<!-- 9 -->
<g id="node12" class="node">
<title>9</title>
<ellipse fill="none" stroke="black" cx="757.94" cy="-192" rx="106.68" ry="18"/>
<text text-anchor="middle" x="757.94" y="-188.3" font-family="Times,serif" font-size="14.00">MACD_Hist&lt;&#45;543.404114</text>
</g>
<!-- 5&#45;&gt;9 -->
<g id="edge11" class="edge">
<title>5&#45;&gt;9</title>
<path fill="none" stroke="#ff0000" d="M898.81,-261.81C870.75,-248.11 830.37,-228.38 800.03,-213.56"/>
<polygon fill="#ff0000" stroke="#ff0000" points="801.48,-210.37 790.96,-209.13 798.41,-216.66 801.48,-210.37"/>
<text text-anchor="middle" x="865.44" y="-231.8" font-family="Times,serif" font-size="14.00">yes</text>
</g>
<!-- 10 -->
<g id="node13" class="node">
<title>10</title>
<ellipse fill="none" stroke="black" cx="1091.94" cy="-192" rx="137.28" ry="18"/>
<text text-anchor="middle" x="1091.94" y="-188.3" font-family="Times,serif" font-size="14.00">regime_ema_spread&lt;&#45;0.046448186</text>
</g>
<!-- 5&#45;&gt;10 -->
<g id="edge12" class="edge">
<title>5&#45;&gt;10</title>
<path fill="none" stroke="#0000ff" d="M962.41,-261.81C987.75,-248.35 1024.01,-229.09 1051.72,-214.37"/>
<polygon fill="#0000ff" stroke="#0000ff" points="1053.58,-217.35 1060.77,-209.56 1050.29,-211.16 1053.58,-217.35"/>
<text text-anchor="middle" x="1053.94" y="-231.8" font-family="Times,serif" font-size="14.00">no, missing</text>
</g>
<!-- 11 -->
<g id="node26" class="node">
<title>11</title>
<ellipse fill="none" stroke="black" cx="1950.94" cy="-192" rx="83.39" ry="18"/>
<text text-anchor="middle" x="1950.94" y="-188.3" font-family="Times,serif" font-size="14.00">BBW&lt;0.466772914</text>
</g>
<!-- 6&#45;&gt;11 -->
<g id="edge25" class="edge">
<title>6&#45;&gt;11</title>
<path fill="none" stroke="#ff0000" d="M1950.94,-260.8C1950.94,-249.16 1950.94,-233.55 1950.94,-220.24"/>
<polygon fill="#ff0000" stroke="#ff0000" points="1954.44,-220.18 1950.94,-210.18 1947.44,-220.18 1954.44,-220.18"/>
<text text-anchor="middle" x="1960.44" y="-231.8" font-family="Times,serif" font-size="14.00">yes</text>
</g>
<!-- 12 -->
<g id="node27" class="node">
<title>12</title>
<ellipse fill="none" stroke="black" cx="2498.94" cy="-192" rx="97.48" ry="18"/>
<text text-anchor="middle" x="2498.94" y="-188.3" font-family="Times,serif" font-size="14.00">D_EMA20&lt;1.03823972</text>
</g>
<!-- 6&#45;&gt;12 -->
<g id="edge26" class="edge">
<title>6&#45;&gt;12</title>
<path fill="none" stroke="#0000ff" d="M2024.85,-266.54C2126.88,-250.71 2310.3,-222.26 2416.6,-205.77"/>
<polygon fill="#0000ff" stroke="#0000ff" points="2417.3,-209.21 2426.64,-204.21 2416.22,-202.29 2417.3,-209.21"/>
<text text-anchor="middle" x="2289.94" y="-231.8" font-family="Times,serif" font-size="14.00">no, missing</text>
</g>
<!-- 15 -->
<g id="node14" class="node">
<title>15</title>
<ellipse fill="none" stroke="black" cx="468.94" cy="-105" rx="94.78" ry="18"/>
<text text-anchor="middle" x="468.94" y="-101.3" font-family="Times,serif" font-size="14.00">OBV&lt;1.51542917e+12</text>
</g>
<!-- 9&#45;&gt;15 -->
<g id="edge13" class="edge">
<title>9&#45;&gt;15</title>
<path fill="none" stroke="#ff0000" d="M707.27,-176.1C657.24,-161.38 580.76,-138.89 528,-123.37"/>
<polygon fill="#ff0000" stroke="#ff0000" points="528.69,-119.92 518.11,-120.46 526.71,-126.64 528.69,-119.92"/>
<text text-anchor="middle" x="640.44" y="-144.8" font-family="Times,serif" font-size="14.00">yes</text>
</g>
<!-- 16 -->
<g id="node15" class="node">
<title>16</title>
<ellipse fill="none" stroke="black" cx="757.94" cy="-105" rx="93.68" ry="18"/>
<text text-anchor="middle" x="757.94" y="-101.3" font-family="Times,serif" font-size="14.00">Vol_Chg&lt;0.230105728</text>
</g>
<!-- 9&#45;&gt;16 -->
<g id="edge14" class="edge">
<title>9&#45;&gt;16</title>
<path fill="none" stroke="#0000ff" d="M757.94,-173.8C757.94,-162.16 757.94,-146.55 757.94,-133.24"/>
<polygon fill="#0000ff" stroke="#0000ff" points="761.44,-133.18 757.94,-123.18 754.44,-133.18 761.44,-133.18"/>
<text text-anchor="middle" x="789.94" y="-144.8" font-family="Times,serif" font-size="14.00">no, missing</text>
</g>
<!-- 17 -->
<g id="node20" class="node">
<title>17</title>
<ellipse fill="none" stroke="black" cx="1091.94" cy="-105" rx="106.68" ry="18"/>
<text text-anchor="middle" x="1091.94" y="-101.3" font-family="Times,serif" font-size="14.00">MACD_Hist&lt;&#45;138.915878</text>
</g>
<!-- 10&#45;&gt;17 -->
<g id="edge19" class="edge">
<title>10&#45;&gt;17</title>
<path fill="none" stroke="#ff0000" d="M1091.94,-173.8C1091.94,-162.16 1091.94,-146.55 1091.94,-133.24"/>
<polygon fill="#ff0000" stroke="#ff0000" points="1095.44,-133.18 1091.94,-123.18 1088.44,-133.18 1095.44,-133.18"/>
<text text-anchor="middle" x="1101.44" y="-144.8" font-family="Times,serif" font-size="14.00">yes</text>
</g>
<!-- 18 -->
<g id="node21" class="node">
<title>18</title>
<ellipse fill="none" stroke="black" cx="1341.94" cy="-105" rx="94.78" ry="18"/>
<text text-anchor="middle" x="1341.94" y="-101.3" font-family="Times,serif" font-size="14.00">OBV&lt;1.54945297e+12</text>
</g>
<!-- 10&#45;&gt;18 -->
<g id="edge20" class="edge">
<title>10&#45;&gt;18</title>
<path fill="none" stroke="#0000ff" d="M1138.97,-175.01C1181.31,-160.62 1243.53,-139.46 1287.9,-124.37"/>
<polygon fill="#0000ff" stroke="#0000ff" points="1289.31,-127.59 1297.65,-121.06 1287.05,-120.97 1289.31,-127.59"/>
<text text-anchor="middle" x="1263.94" y="-144.8" font-family="Times,serif" font-size="14.00">no, missing</text>
</g>
<!-- 23 -->
<g id="node16" class="node">
<title>23</title>
<ellipse fill="none" stroke="black" cx="245.94" cy="-18" rx="79.89" ry="18"/>
<text text-anchor="middle" x="245.94" y="-14.3" font-family="Times,serif" font-size="14.00">leaf=0.0647865757</text>
</g>
<!-- 15&#45;&gt;23 -->
<g id="edge15" class="edge">
<title>15&#45;&gt;23</title>
<path fill="none" stroke="#ff0000" d="M428.56,-88.61C390.87,-74.24 334.59,-52.79 294.48,-37.5"/>
<polygon fill="#ff0000" stroke="#ff0000" points="295.5,-34.14 284.91,-33.85 293,-40.68 295.5,-34.14"/>
<text text-anchor="middle" x="380.44" y="-57.8" font-family="Times,serif" font-size="14.00">yes</text>
</g>
<!-- 24 -->
<g id="node17" class="node">
<title>24</title>
<ellipse fill="none" stroke="black" cx="426.94" cy="-18" rx="83.39" ry="18"/>
<text text-anchor="middle" x="426.94" y="-14.3" font-family="Times,serif" font-size="14.00">leaf=&#45;0.0331564173</text>
</g>
<!-- 15&#45;&gt;24 -->
<g id="edge16" class="edge">
<title>15&#45;&gt;24</title>
<path fill="none" stroke="#0000ff" d="M460.44,-86.8C454.58,-74.93 446.67,-58.93 440.01,-45.45"/>
<polygon fill="#0000ff" stroke="#0000ff" points="443,-43.59 435.43,-36.18 436.72,-46.69 443,-43.59"/>
<text text-anchor="middle" x="482.94" y="-57.8" font-family="Times,serif" font-size="14.00">no, missing</text>
</g>
<!-- 25 -->
<g id="node18" class="node">
<title>25</title>
<ellipse fill="none" stroke="black" cx="612.94" cy="-18" rx="84.49" ry="18"/>
<text text-anchor="middle" x="612.94" y="-14.3" font-family="Times,serif" font-size="14.00">leaf=0.00944263767</text>
</g>
<!-- 16&#45;&gt;25 -->
<g id="edge17" class="edge">
<title>16&#45;&gt;25</title>
<path fill="none" stroke="#ff0000" d="M729.99,-87.61C706.97,-74.12 674.18,-54.9 649.16,-40.23"/>
<polygon fill="#ff0000" stroke="#ff0000" points="650.72,-37.09 640.32,-35.05 647.18,-43.13 650.72,-37.09"/>
<text text-anchor="middle" x="704.44" y="-57.8" font-family="Times,serif" font-size="14.00">yes</text>
</g>
<!-- 26 -->
<g id="node19" class="node">
<title>26</title>
<ellipse fill="none" stroke="black" cx="798.94" cy="-18" rx="83.39" ry="18"/>
<text text-anchor="middle" x="798.94" y="-14.3" font-family="Times,serif" font-size="14.00">leaf=&#45;0.0450820178</text>
</g>
<!-- 16&#45;&gt;26 -->
<g id="edge18" class="edge">
<title>16&#45;&gt;26</title>
<path fill="none" stroke="#0000ff" d="M766.24,-86.8C771.96,-74.93 779.68,-58.93 786.19,-45.45"/>
<polygon fill="#0000ff" stroke="#0000ff" points="789.47,-46.7 790.66,-36.18 783.16,-43.66 789.47,-46.7"/>
<text text-anchor="middle" x="812.94" y="-57.8" font-family="Times,serif" font-size="14.00">no, missing</text>
</g>
<!-- 27 -->
<g id="node22" class="node">
<title>27</title>
<ellipse fill="none" stroke="black" cx="979.94" cy="-18" rx="79.89" ry="18"/>
<text text-anchor="middle" x="979.94" y="-14.3" font-family="Times,serif" font-size="14.00">leaf=0.0524288714</text>
</g>
<!-- 17&#45;&gt;27 -->
<g id="edge21" class="edge">
<title>17&#45;&gt;27</title>
<path fill="none" stroke="#ff0000" d="M1069.82,-87.21C1052.6,-74.14 1028.54,-55.88 1009.65,-41.55"/>
<polygon fill="#ff0000" stroke="#ff0000" points="1011.73,-38.73 1001.64,-35.47 1007.49,-44.3 1011.73,-38.73"/>
<text text-anchor="middle" x="1052.44" y="-57.8" font-family="Times,serif" font-size="14.00">yes</text>
</g>
<!-- 28 -->
<g id="node23" class="node">
<title>28</title>
<ellipse fill="none" stroke="black" cx="1160.94" cy="-18" rx="83.39" ry="18"/>
<text text-anchor="middle" x="1160.94" y="-14.3" font-family="Times,serif" font-size="14.00">leaf=&#45;0.0156510547</text>
</g>
<!-- 17&#45;&gt;28 -->
<g id="edge22" class="edge">
<title>17&#45;&gt;28</title>
<path fill="none" stroke="#0000ff" d="M1105.91,-86.8C1115.88,-74.51 1129.47,-57.77 1140.64,-44.01"/>
<polygon fill="#0000ff" stroke="#0000ff" points="1143.65,-45.86 1147.24,-35.89 1138.22,-41.44 1143.65,-45.86"/>
<text text-anchor="middle" x="1162.94" y="-57.8" font-family="Times,serif" font-size="14.00">no, missing</text>
</g>
<!-- 29 -->
<g id="node24" class="node">
<title>29</title>
<ellipse fill="none" stroke="black" cx="1341.94" cy="-18" rx="79.89" ry="18"/>
<text text-anchor="middle" x="1341.94" y="-14.3" font-family="Times,serif" font-size="14.00">leaf=0.0719067976</text>
</g>
<!-- 18&#45;&gt;29 -->
<g id="edge23" class="edge">
<title>18&#45;&gt;29</title>
<path fill="none" stroke="#ff0000" d="M1341.94,-86.8C1341.94,-75.16 1341.94,-59.55 1341.94,-46.24"/>
<polygon fill="#ff0000" stroke="#ff0000" points="1345.44,-46.18 1341.94,-36.18 1338.44,-46.18 1345.44,-46.18"/>
<text text-anchor="middle" x="1351.44" y="-57.8" font-family="Times,serif" font-size="14.00">yes</text>
</g>
<!-- 30 -->
<g id="node25" class="node">
<title>30</title>
<ellipse fill="none" stroke="black" cx="1519.94" cy="-18" rx="79.89" ry="18"/>
<text text-anchor="middle" x="1519.94" y="-14.3" font-family="Times,serif" font-size="14.00">leaf=0.0163568594</text>
</g>
<!-- 18&#45;&gt;30 -->
<g id="edge24" class="edge">
<title>18&#45;&gt;30</title>
<path fill="none" stroke="#0000ff" d="M1375.42,-88.01C1404.54,-74.11 1446.85,-53.9 1478.17,-38.95"/>
<polygon fill="#0000ff" stroke="#0000ff" points="1480,-41.95 1487.51,-34.49 1476.98,-35.64 1480,-41.95"/>
<text text-anchor="middle" x="1473.94" y="-57.8" font-family="Times,serif" font-size="14.00">no, missing</text>
</g>
<!-- 19 -->
<g id="node28" class="node">
<title>19</title>
<ellipse fill="none" stroke="black" cx="1858.94" cy="-105" rx="118.88" ry="18"/>
<text text-anchor="middle" x="1858.94" y="-101.3" font-family="Times,serif" font-size="14.00">regime_vol_ratio&lt;1.12616396</text>
</g>
<!-- 11&#45;&gt;19 -->
<g id="edge27" class="edge">
<title>11&#45;&gt;19</title>
<path fill="none" stroke="#ff0000" d="M1932.77,-174.21C1919.12,-161.6 1900.24,-144.16 1884.99,-130.07"/>
<polygon fill="#ff0000" stroke="#ff0000" points="1887.12,-127.26 1877.4,-123.05 1882.37,-132.41 1887.12,-127.26"/>
<text text-anchor="middle" x="1920.44" y="-144.8" font-family="Times,serif" font-size="14.00">yes</text>
</g>
<!-- 20 -->
<g id="node29" class="node">
<title>20</title>
<ellipse fill="none" stroke="black" cx="2090.94" cy="-105" rx="94.78" ry="18"/>
<text text-anchor="middle" x="2090.94" y="-101.3" font-family="Times,serif" font-size="14.00">OBV&lt;1.23144425e+12</text>
</g>
<!-- 11&#45;&gt;20 -->
<g id="edge28" class="edge">
<title>11&#45;&gt;20</title>
<path fill="none" stroke="#0000ff" d="M1977.61,-174.81C1999.65,-161.43 2031.15,-142.3 2055.35,-127.61"/>
<polygon fill="#0000ff" stroke="#0000ff" points="2057.17,-130.6 2063.9,-122.42 2053.54,-124.62 2057.17,-130.6"/>
<text text-anchor="middle" x="2061.94" y="-144.8" font-family="Times,serif" font-size="14.00">no, missing</text>
</g>
<!-- 21 -->
<g id="node34" class="node">
<title>21</title>
<ellipse fill="none" stroke="black" cx="2498.94" cy="-105" rx="132.68" ry="18"/>
<text text-anchor="middle" x="2498.94" y="-101.3" font-family="Times,serif" font-size="14.00">regime_vol_trend&lt;&#45;0.0102440277</text>
</g>
<!-- 12&#45;&gt;21 -->
<g id="edge33" class="edge">
<title>12&#45;&gt;21</title>
<path fill="none" stroke="#ff0000" d="M2498.94,-173.8C2498.94,-162.16 2498.94,-146.55 2498.94,-133.24"/>
<polygon fill="#ff0000" stroke="#ff0000" points="2502.44,-133.18 2498.94,-123.18 2495.44,-133.18 2502.44,-133.18"/>
<text text-anchor="middle" x="2508.44" y="-144.8" font-family="Times,serif" font-size="14.00">yes</text>
</g>
<!-- 22 -->
<g id="node35" class="node">
<title>22</title>
<ellipse fill="none" stroke="black" cx="2808.94" cy="-105" rx="96.38" ry="18"/>
<text text-anchor="middle" x="2808.94" y="-101.3" font-family="Times,serif" font-size="14.00">Day_Sin&lt;&#45;0.781831503</text>
</g>
<!-- 12&#45;&gt;22 -->
<g id="edge34" class="edge">
<title>12&#45;&gt;22</title>
<path fill="none" stroke="#0000ff" d="M2551.18,-176.68C2605.33,-161.83 2689.95,-138.63 2747.33,-122.89"/>
<polygon fill="#0000ff" stroke="#0000ff" points="2748.29,-126.26 2757.01,-120.24 2746.44,-119.51 2748.29,-126.26"/>
<text text-anchor="middle" x="2704.94" y="-144.8" font-family="Times,serif" font-size="14.00">no, missing</text>
</g>
<!-- 31 -->
<g id="node30" class="node">
<title>31</title>
<ellipse fill="none" stroke="black" cx="1697.94" cy="-18" rx="79.89" ry="18"/>
<text text-anchor="middle" x="1697.94" y="-14.3" font-family="Times,serif" font-size="14.00">leaf=0.0354201049</text>
</g>
<!-- 19&#45;&gt;31 -->
<g id="edge29" class="edge">
<title>19&#45;&gt;31</title>
<path fill="none" stroke="#ff0000" d="M1827.9,-87.61C1801.96,-73.91 1764.83,-54.31 1736.89,-39.56"/>
<polygon fill="#ff0000" stroke="#ff0000" points="1738.28,-36.34 1727.8,-34.76 1735.01,-42.53 1738.28,-36.34"/>
<text text-anchor="middle" x="1798.44" y="-57.8" font-family="Times,serif" font-size="14.00">yes</text>
</g>
<!-- 32 -->
<g id="node31" class="node">
<title>32</title>
<ellipse fill="none" stroke="black" cx="1882.94" cy="-18" rx="87.18" ry="18"/>
<text text-anchor="middle" x="1882.94" y="-14.3" font-family="Times,serif" font-size="14.00">leaf=&#45;0.00114972726</text>
</g>
<!-- 19&#45;&gt;32 -->
<g id="edge30" class="edge">
<title>19&#45;&gt;32</title>
<path fill="none" stroke="#0000ff" d="M1863.8,-86.8C1867.12,-75.05 1871.58,-59.24 1875.36,-45.84"/>
<polygon fill="#0000ff" stroke="#0000ff" points="1878.74,-46.75 1878.09,-36.18 1872.01,-44.85 1878.74,-46.75"/>
<text text-anchor="middle" x="1904.94" y="-57.8" font-family="Times,serif" font-size="14.00">no, missing</text>
</g>
<!-- 33 -->
<g id="node32" class="node">
<title>33</title>
<ellipse fill="none" stroke="black" cx="2067.94" cy="-18" rx="79.89" ry="18"/>
<text text-anchor="middle" x="2067.94" y="-14.3" font-family="Times,serif" font-size="14.00">leaf=0.0152224964</text>
</g>
<!-- 20&#45;&gt;33 -->
<g id="edge31" class="edge">
<title>20&#45;&gt;33</title>
<path fill="none" stroke="#ff0000" d="M2086.29,-86.8C2083.11,-75.05 2078.83,-59.24 2075.21,-45.84"/>
<polygon fill="#ff0000" stroke="#ff0000" points="2078.58,-44.91 2072.59,-36.18 2071.82,-46.74 2078.58,-44.91"/>
<text text-anchor="middle" x="2090.44" y="-57.8" font-family="Times,serif" font-size="14.00">yes</text>
</g>
<!-- 34 -->
<g id="node33" class="node">
<title>34</title>
<ellipse fill="none" stroke="black" cx="2248.94" cy="-18" rx="83.39" ry="18"/>
<text text-anchor="middle" x="2248.94" y="-14.3" font-family="Times,serif" font-size="14.00">leaf=&#45;0.0544401705</text>
</g>
<!-- 20&#45;&gt;34 -->
<g id="edge32" class="edge">
<title>20&#45;&gt;34</title>
<path fill="none" stroke="#0000ff" d="M2121.03,-87.81C2146.45,-74.14 2183.01,-54.47 2210.54,-39.66"/>
<polygon fill="#0000ff" stroke="#0000ff" points="2212.35,-42.66 2219.5,-34.84 2209.03,-36.5 2212.35,-42.66"/>
<text text-anchor="middle" x="2211.94" y="-57.8" font-family="Times,serif" font-size="14.00">no, missing</text>
</g>
<!-- 35 -->
<g id="node36" class="node">
<title>35</title>
<ellipse fill="none" stroke="black" cx="2436.94" cy="-18" rx="87.18" ry="18"/>
<text text-anchor="middle" x="2436.94" y="-14.3" font-family="Times,serif" font-size="14.00">leaf=&#45;0.00502261939</text>
</g>
<!-- 21&#45;&gt;35 -->
<g id="edge35" class="edge">
<title>21&#45;&gt;35</title>
<path fill="none" stroke="#ff0000" d="M2486.4,-86.8C2477.43,-74.51 2465.22,-57.77 2455.18,-44.01"/>
<polygon fill="#ff0000" stroke="#ff0000" points="2457.98,-41.9 2449.26,-35.89 2452.32,-46.03 2457.98,-41.9"/>
<text text-anchor="middle" x="2481.44" y="-57.8" font-family="Times,serif" font-size="14.00">yes</text>
</g>
<!-- 36 -->
<g id="node37" class="node">
<title>36</title>
<ellipse fill="none" stroke="black" cx="2624.94" cy="-18" rx="83.39" ry="18"/>
<text text-anchor="middle" x="2624.94" y="-14.3" font-family="Times,serif" font-size="14.00">leaf=&#45;0.0279191937</text>
</g>
<!-- 21&#45;&gt;36 -->
<g id="edge36" class="edge">
<title>21&#45;&gt;36</title>
<path fill="none" stroke="#0000ff" d="M2523.84,-87.21C2543.38,-74.02 2570.75,-55.56 2592.09,-41.16"/>
<polygon fill="#0000ff" stroke="#0000ff" points="2594.2,-43.96 2600.53,-35.47 2590.28,-38.16 2594.2,-43.96"/>
<text text-anchor="middle" x="2601.94" y="-57.8" font-family="Times,serif" font-size="14.00">no, missing</text>
</g>
<!-- 37 -->
<g id="node38" class="node">
<title>37</title>
<ellipse fill="none" stroke="black" cx="2808.94" cy="-18" rx="83.39" ry="18"/>
<text text-anchor="middle" x="2808.94" y="-14.3" font-family="Times,serif" font-size="14.00">leaf=&#45;0.0263982471</text>
</g>
<!-- 22&#45;&gt;37 -->
<g id="edge37" class="edge">
<title>22&#45;&gt;37</title>
<path fill="none" stroke="#ff0000" d="M2808.94,-86.8C2808.94,-75.16 2808.94,-59.55 2808.94,-46.24"/>
<polygon fill="#ff0000" stroke="#ff0000" points="2812.44,-46.18 2808.94,-36.18 2805.44,-46.18 2812.44,-46.18"/>
<text text-anchor="middle" x="2818.44" y="-57.8" font-family="Times,serif" font-size="14.00">yes</text>
</g>
<!-- 38 -->
<g id="node39" class="node">
<title>38</title>
<ellipse fill="none" stroke="black" cx="2994.94" cy="-18" rx="84.49" ry="18"/>
<text text-anchor="middle" x="2994.94" y="-14.3" font-family="Times,serif" font-size="14.00">leaf=0.00658666948</text>
</g>
<!-- 22&#45;&gt;38 -->
<g id="edge38" class="edge">
<title>22&#45;&gt;38</title>
<path fill="none" stroke="#0000ff" d="M2843.93,-88.01C2874.39,-74.09 2918.67,-53.86 2951.41,-38.89"/>
<polygon fill="#0000ff" stroke="#0000ff" points="2953.1,-41.97 2960.74,-34.63 2950.19,-35.6 2953.1,-41.97"/>
<text text-anchor="middle" x="2945.94" y="-57.8" font-family="Times,serif" font-size="14.00">no, missing</text>
</g>
</g>
</svg>
