<?xml version="1.0" encoding="UTF-8" standalone="no"?>
<!DOCTYPE svg PUBLIC "-//W3C//DTD SVG 1.1//EN"
 "http://www.w3.org/Graphics/SVG/1.1/DTD/svg11.dtd">
<!-- Generated by graphviz version 2.43.0 (0)
 -->
<!-- Title: %3 Pages: 1 -->
<svg width="2923pt" height="479pt"
 viewBox="0.00 0.00 2923.44 479.00" xmlns="http://www.w3.org/2000/svg" xmlns:xlink="http://www.w3.org/1999/xlink">
<g id="graph0" class="graph" transform="scale(1 1) rotate(0) translate(4 475)">
<title>%3</title>
<polygon fill="white" stroke="transparent" points="-4,4 -4,-475 2919.44,-475 2919.44,4 -4,4"/>
<!-- 0 -->
<g id="node1" class="node">
<title>0</title>
<ellipse fill="none" stroke="black" cx="1304.94" cy="-453" rx="102.08" ry="18"/>
<text text-anchor="middle" x="1304.94" y="-449.3" font-family="Times,serif" font-size="14.00">D_EMA20&lt;0.956429005</text>
</g>
<!-- 1 -->
<g id="node2" class="node">
<title>1</title>
<ellipse fill="none" stroke="black" cx="1182.94" cy="-366" rx="71.49" ry="18"/>
<text text-anchor="middle" x="1182.94" y="-362.3" font-family="Times,serif" font-size="14.00">RSI&lt;41.4746437</text>
</g>
<!-- 0&#45;&gt;1 -->
<g id="edge1" class="edge">
<title>0&#45;&gt;1</title>
<path fill="none" stroke="#ff0000" d="M1281.13,-435.41C1262.11,-422.16 1235.3,-403.48 1214.5,-388.99"/>
<polygon fill="#ff0000" stroke="#ff0000" points="1216.49,-386.1 1206.28,-383.26 1212.48,-391.85 1216.49,-386.1"/>
<text text-anchor="middle" x="1261.44" y="-405.8" font-family="Times,serif" font-size="14.00">yes</text>
</g>
<!-- 2 -->
<g id="node3" class="node">
<title>2</title>
<ellipse fill="none" stroke="black" cx="1525.94" cy="-366" rx="102.08" ry="18"/>
<text text-anchor="middle" x="1525.94" y="-362.3" font-family="Times,serif" font-size="14.00">D_EMA20&lt;0.958976328</text>
</g>
<!-- 0&#45;&gt;2 -->
<g id="edge2" class="edge">
<title>0&#45;&gt;2</title>
<path fill="none" stroke="#0000ff" d="M1345.48,-436.41C1382.12,-422.32 1436.21,-401.51 1475.61,-386.36"/>
<polygon fill="#0000ff" stroke="#0000ff" points="1477.21,-389.49 1485.29,-382.64 1474.7,-382.96 1477.21,-389.49"/>
<text text-anchor="middle" x="1460.94" y="-405.8" font-family="Times,serif" font-size="14.00">no, missing</text>
</g>
<!-- 3 -->
<g id="node4" class="node">
<title>3</title>
<ellipse fill="none" stroke="black" cx="726.94" cy="-279" rx="123.48" ry="18"/>
<text text-anchor="middle" x="726.94" y="-275.3" font-family="Times,serif" font-size="14.00">regime_vol_ratio&lt;0.962197721</text>
</g>
<!-- 1&#45;&gt;3 -->
<g id="edge3" class="edge">
<title>1&#45;&gt;3</title>
<path fill="none" stroke="#ff0000" d="M1127.03,-354.58C1047.63,-339.78 901.68,-312.57 809.72,-295.43"/>
<polygon fill="#ff0000" stroke="#ff0000" points="810.36,-291.99 799.89,-293.6 809.08,-298.87 810.36,-291.99"/>
<text text-anchor="middle" x="992.44" y="-318.8" font-family="Times,serif" font-size="14.00">yes</text>
</g>
<!-- 4 -->
<g id="node5" class="node">
<title>4</title>
<ellipse fill="none" stroke="black" cx="1182.94" cy="-279" rx="123.48" ry="18"/>
<text text-anchor="middle" x="1182.94" y="-275.3" font-family="Times,serif" font-size="14.00">regime_vol_ratio&lt;0.843840659</text>
</g>
<!-- 1&#45;&gt;4 -->
<g id="edge4" class="edge">
<title>1&#45;&gt;4</title>
<path fill="none" stroke="#0000ff" d="M1182.94,-347.8C1182.94,-336.16 1182.94,-320.55 1182.94,-307.24"/>
<polygon fill="#0000ff" stroke="#0000ff" points="1186.44,-307.18 1182.94,-297.18 1179.44,-307.18 1186.44,-307.18"/>
<text text-anchor="middle" x="1214.94" y="-318.8" font-family="Times,serif" font-size="14.00">no, missing</text>
</g>
<!-- 5 -->
<g id="node24" class="node">
<title>5</title>
<ellipse fill="none" stroke="black" cx="1525.94" cy="-279" rx="103.98" ry="18"/>
<text text-anchor="middle" x="1525.94" y="-275.3" font-family="Times,serif" font-size="14.00">MACD_Hist&lt;54.1845894</text>
</g>
<!-- 2&#45;&gt;5 -->
<g id="edge23" class="edge">
<title>2&#45;&gt;5</title>
<path fill="none" stroke="#ff0000" d="M1525.94,-347.8C1525.94,-336.16 1525.94,-320.55 1525.94,-307.24"/>
<polygon fill="#ff0000" stroke="#ff0000" points="1529.44,-307.18 1525.94,-297.18 1522.44,-307.18 1529.44,-307.18"/>
<text text-anchor="middle" x="1535.44" y="-318.8" font-family="Times,serif" font-size="14.00">yes</text>
</g>
<!-- 6 -->
<g id="node25" class="node">
<title>6</title>
<ellipse fill="none" stroke="black" cx="1890.94" cy="-279" rx="132.68" ry="18"/>
<text text-anchor="middle" x="1890.94" y="-275.3" font-family="Times,serif" font-size="14.00">regime_vol_trend&lt;&#45;0.0102440277</text>
</g>
<!-- 2&#45;&gt;6 -->
<g id="edge24" class="edge">
<title>2&#45;&gt;6</title>
<path fill="none" stroke="#0000ff" d="M1584.99,-351.25C1648.36,-336.49 1749.1,-313.03 1817.53,-297.1"/>
<polygon fill="#0000ff" stroke="#0000ff" points="1818.43,-300.48 1827.38,-294.8 1816.84,-293.66 1818.43,-300.48"/>
<text text-anchor="middle" x="1762.94" y="-318.8" font-family="Times,serif" font-size="14.00">no, missing</text>
</g>
<!-- 7 -->
<g id="node6" class="node">
<title>7</title>
<ellipse fill="none" stroke="black" cx="440.94" cy="-192" rx="83.39" ry="18"/>
<text text-anchor="middle" x="440.94" y="-188.3" font-family="Times,serif" font-size="14.00">BBW&lt;0.313195586</text>
</g>
<!-- 3&#45;&gt;7 -->
<g id="edge5" class="edge">
<title>3&#45;&gt;7</title>
<path fill="none" stroke="#ff0000" d="M675.15,-262.61C625.09,-247.73 549.45,-225.25 497.76,-209.89"/>
<polygon fill="#ff0000" stroke="#ff0000" points="498.66,-206.5 488.08,-207.01 496.67,-213.21 498.66,-206.5"/>
<text text-anchor="middle" x="611.44" y="-231.8" font-family="Times,serif" font-size="14.00">yes</text>
</g>
<!-- 8 -->
<g id="node7" class="node">
<title>8</title>
<ellipse fill="none" stroke="black" cx="726.94" cy="-192" rx="118.88" ry="18"/>
<text text-anchor="middle" x="726.94" y="-188.3" font-family="Times,serif" font-size="14.00">regime_vol_ratio&lt;1.00537086</text>
</g>
<!-- 3&#45;&gt;8 -->
<g id="edge6" class="edge">
<title>3&#45;&gt;8</title>
<path fill="none" stroke="#0000ff" d="M726.94,-260.8C726.94,-249.16 726.94,-233.55 726.94,-220.24"/>
<polygon fill="#0000ff" stroke="#0000ff" points="730.44,-220.18 726.94,-210.18 723.44,-220.18 730.44,-220.18"/>
<text text-anchor="middle" x="758.94" y="-231.8" font-family="Times,serif" font-size="14.00">no, missing</text>
</g>
<!-- 9 -->
<g id="node18" class="node">
<title>9</title>
<ellipse fill="none" stroke="black" cx="1070.94" cy="-192" rx="84.49" ry="18"/>
<text text-anchor="middle" x="1070.94" y="-188.3" font-family="Times,serif" font-size="14.00">leaf=0.00152049481</text>
</g>
<!-- 4&#45;&gt;9 -->
<g id="edge17" class="edge">
<title>4&#45;&gt;9</title>
<path fill="none" stroke="#ff0000" d="M1160.82,-261.21C1143.6,-248.14 1119.54,-229.88 1100.65,-215.55"/>
<polygon fill="#ff0000" stroke="#ff0000" points="1102.73,-212.73 1092.64,-209.47 1098.49,-218.3 1102.73,-212.73"/>
<text text-anchor="middle" x="1143.44" y="-231.8" font-family="Times,serif" font-size="14.00">yes</text>
</g>
<!-- 10 -->
<g id="node19" class="node">
<title>10</title>
<ellipse fill="none" stroke="black" cx="1271.94" cy="-192" rx="98.28" ry="18"/>
<text text-anchor="middle" x="1271.94" y="-188.3" font-family="Times,serif" font-size="14.00">Vol_Chg&lt;0.0447758175</text>
</g>
<!-- 4&#45;&gt;10 -->
<g id="edge18" class="edge">
<title>4&#45;&gt;10</title>
<path fill="none" stroke="#0000ff" d="M1200.95,-260.8C1214.19,-248.16 1232.34,-230.82 1246.97,-216.85"/>
<polygon fill="#0000ff" stroke="#0000ff" points="1249.45,-219.32 1254.26,-209.89 1244.61,-214.26 1249.45,-219.32"/>
<text text-anchor="middle" x="1264.94" y="-231.8" font-family="Times,serif" font-size="14.00">no, missing</text>
</g>
<!-- 15 -->
<g id="node8" class="node">
<title>15</title>
<ellipse fill="none" stroke="black" cx="243.94" cy="-105" rx="95.58" ry="18"/>
<text text-anchor="middle" x="243.94" y="-101.3" font-family="Times,serif" font-size="14.00">regime_adx&lt;36.513031</text>
</g>
<!-- 7&#45;&gt;15 -->
<g id="edge7" class="edge">
<title>7&#45;&gt;15</title>
<path fill="none" stroke="#ff0000" d="M405.27,-175.61C372.94,-161.66 325.11,-141.02 289.92,-125.84"/>
<polygon fill="#ff0000" stroke="#ff0000" points="290.92,-122.46 280.35,-121.71 288.15,-128.89 290.92,-122.46"/>
<text text-anchor="middle" x="364.44" y="-144.8" font-family="Times,serif" font-size="14.00">yes</text>
</g>
<!-- 16 -->
<g id="node9" class="node">
<title>16</title>
<ellipse fill="none" stroke="black" cx="440.94" cy="-105" rx="83.39" ry="18"/>
<text text-anchor="middle" x="440.94" y="-101.3" font-family="Times,serif" font-size="14.00">leaf=&#45;0.0414994657</text>
</g>
<!-- 7&#45;&gt;16 -->
<g id="edge8" class="edge">
<title>7&#45;&gt;16</title>
<path fill="none" stroke="#0000ff" d="M440.94,-173.8C440.94,-162.16 440.94,-146.55 440.94,-133.24"/>
<polygon fill="#0000ff" stroke="#0000ff" points="444.44,-133.18 440.94,-123.18 437.44,-133.18 444.44,-133.18"/>
<text text-anchor="middle" x="472.94" y="-144.8" font-family="Times,serif" font-size="14.00">no, missing</text>
</g>
<!-- 17 -->
<g id="node12" class="node">
<title>17</title>
<ellipse fill="none" stroke="black" cx="648.94" cy="-105" rx="106.68" ry="18"/>
<text text-anchor="middle" x="648.94" y="-101.3" font-family="Times,serif" font-size="14.00">D_EMA200&lt;0.698821008</text>
</g>
<!-- 8&#45;&gt;17 -->
<g id="edge11" class="edge">
<title>8&#45;&gt;17</title>
<path fill="none" stroke="#ff0000" d="M711.16,-173.8C699.77,-161.39 684.23,-144.46 671.53,-130.62"/>
<polygon fill="#ff0000" stroke="#ff0000" points="673.78,-127.89 664.44,-122.89 668.62,-132.62 673.78,-127.89"/>
<text text-anchor="middle" x="702.44" y="-144.8" font-family="Times,serif" font-size="14.00">yes</text>
</g>
<!-- 18 -->
<g id="node13" class="node">
<title>18</title>
<ellipse fill="none" stroke="black" cx="844.94" cy="-105" rx="71.49" ry="18"/>
<text text-anchor="middle" x="844.94" y="-101.3" font-family="Times,serif" font-size="14.00">RSI&lt;28.8334064</text>
</g>
<!-- 8&#45;&gt;18 -->
<g id="edge12" class="edge">
<title>8&#45;&gt;18</title>
<path fill="none" stroke="#0000ff" d="M750.26,-174.21C768.59,-161 794.29,-142.48 814.29,-128.08"/>
<polygon fill="#0000ff" stroke="#0000ff" points="816.41,-130.87 822.48,-122.18 812.32,-125.19 816.41,-130.87"/>
<text text-anchor="middle" x="825.94" y="-144.8" font-family="Times,serif" font-size="14.00">no, missing</text>
</g>
<!-- 25 -->
<g id="node10" class="node">
<title>25</title>
<ellipse fill="none" stroke="black" cx="79.94" cy="-18" rx="79.89" ry="18"/>
<text text-anchor="middle" x="79.94" y="-14.3" font-family="Times,serif" font-size="14.00">leaf=0.0078067095</text>
</g>
<!-- 15&#45;&gt;25 -->
<g id="edge9" class="edge">
<title>15&#45;&gt;25</title>
<path fill="none" stroke="#ff0000" d="M212.71,-87.81C186.13,-74.03 147.81,-54.17 119.16,-39.33"/>
<polygon fill="#ff0000" stroke="#ff0000" points="120.72,-36.19 110.23,-34.7 117.5,-42.41 120.72,-36.19"/>
<text text-anchor="middle" x="181.44" y="-57.8" font-family="Times,serif" font-size="14.00">yes</text>
</g>
<!-- 26 -->
<g id="node11" class="node">
<title>26</title>
<ellipse fill="none" stroke="black" cx="257.94" cy="-18" rx="79.89" ry="18"/>
<text text-anchor="middle" x="257.94" y="-14.3" font-family="Times,serif" font-size="14.00">leaf=0.0562868826</text>
</g>
<!-- 15&#45;&gt;26 -->
<g id="edge10" class="edge">
<title>15&#45;&gt;26</title>
<path fill="none" stroke="#0000ff" d="M246.78,-86.8C248.69,-75.16 251.26,-59.55 253.46,-46.24"/>
<polygon fill="#0000ff" stroke="#0000ff" points="256.94,-46.61 255.11,-36.18 250.04,-45.47 256.94,-46.61"/>
<text text-anchor="middle" x="283.94" y="-57.8" font-family="Times,serif" font-size="14.00">no, missing</text>
</g>
<!-- 27 -->
<g id="node14" class="node">
<title>27</title>
<ellipse fill="none" stroke="black" cx="458.94" cy="-18" rx="89.08" ry="18"/>
<text text-anchor="middle" x="458.94" y="-14.3" font-family="Times,serif" font-size="14.00">leaf=0.000594021112</text>
</g>
<!-- 17&#45;&gt;27 -->
<g id="edge13" class="edge">
<title>17&#45;&gt;27</title>
<path fill="none" stroke="#ff0000" d="M613.21,-88.01C582.09,-74.09 536.86,-53.86 503.41,-38.89"/>
<polygon fill="#ff0000" stroke="#ff0000" points="504.44,-35.52 493.88,-34.63 501.58,-41.91 504.44,-35.52"/>
<text text-anchor="middle" x="575.44" y="-57.8" font-family="Times,serif" font-size="14.00">yes</text>
</g>
<!-- 28 -->
<g id="node15" class="node">
<title>28</title>
<ellipse fill="none" stroke="black" cx="648.94" cy="-18" rx="83.39" ry="18"/>
<text text-anchor="middle" x="648.94" y="-14.3" font-family="Times,serif" font-size="14.00">leaf=&#45;0.0664876625</text>
</g>
<!-- 17&#45;&gt;28 -->
<g id="edge14" class="edge">
<title>17&#45;&gt;28</title>
<path fill="none" stroke="#0000ff" d="M648.94,-86.8C648.94,-75.16 648.94,-59.55 648.94,-46.24"/>
<polygon fill="#0000ff" stroke="#0000ff" points="652.44,-46.18 648.94,-36.18 645.44,-46.18 652.44,-46.18"/>
<text text-anchor="middle" x="680.94" y="-57.8" font-family="Times,serif" font-size="14.00">no, missing</text>
</g>
<!-- 29 -->
<g id="node16" class="node">
<title>29</title>
<ellipse fill="none" stroke="black" cx="829.94" cy="-18" rx="79.89" ry="18"/>
<text text-anchor="middle" x="829.94" y="-14.3" font-family="Times,serif" font-size="14.00">leaf=0.0344838947</text>
</g>
<!-- 18&#45;&gt;29 -->
<g id="edge15" class="edge">
<title>18&#45;&gt;29</title>
<path fill="none" stroke="#ff0000" d="M841.91,-86.8C839.85,-75.16 837.1,-59.55 834.75,-46.24"/>
<polygon fill="#ff0000" stroke="#ff0000" points="838.16,-45.41 832.97,-36.18 831.27,-46.63 838.16,-45.41"/>
<text text-anchor="middle" x="848.44" y="-57.8" font-family="Times,serif" font-size="14.00">yes</text>
</g>
<!-- 30 -->
<g id="node17" class="node">
<title>30</title>
<ellipse fill="none" stroke="black" cx="1014.94" cy="-18" rx="87.18" ry="18"/>
<text text-anchor="middle" x="1014.94" y="-14.3" font-family="Times,serif" font-size="14.00">leaf=&#45;0.00663539395</text>
</g>
<!-- 18&#45;&gt;30 -->
<g id="edge16" class="edge">
<title>18&#45;&gt;30</title>
<path fill="none" stroke="#0000ff" d="M875.73,-88.61C903.3,-74.82 943.94,-54.5 974.2,-39.37"/>
<polygon fill="#0000ff" stroke="#0000ff" points="975.85,-42.46 983.23,-34.85 972.72,-36.2 975.85,-42.46"/>
<text text-anchor="middle" x="972.94" y="-57.8" font-family="Times,serif" font-size="14.00">no, missing</text>
</g>
<!-- 19 -->
<g id="node20" class="node">
<title>19</title>
<ellipse fill="none" stroke="black" cx="1104.94" cy="-105" rx="79.89" ry="18"/>
<text text-anchor="middle" x="1104.94" y="-101.3" font-family="Times,serif" font-size="14.00">leaf=0.0677238554</text>
</g>
<!-- 10&#45;&gt;19 -->
<g id="edge19" class="edge">
<title>10&#45;&gt;19</title>
<path fill="none" stroke="#ff0000" d="M1240.14,-174.81C1213.07,-161.03 1174.05,-141.17 1144.88,-126.33"/>
<polygon fill="#ff0000" stroke="#ff0000" points="1146.28,-123.11 1135.78,-121.7 1143.11,-129.35 1146.28,-123.11"/>
<text text-anchor="middle" x="1208.44" y="-144.8" font-family="Times,serif" font-size="14.00">yes</text>
</g>
<!-- 20 -->
<g id="node21" class="node">
<title>20</title>
<ellipse fill="none" stroke="black" cx="1336.94" cy="-105" rx="133.78" ry="18"/>
<text text-anchor="middle" x="1336.94" y="-101.3" font-family="Times,serif" font-size="14.00">regime_vol_trend&lt;0.00736244908</text>
</g>
<!-- 10&#45;&gt;20 -->
<g id="edge20" class="edge">
<title>10&#45;&gt;20</title>
<path fill="none" stroke="#0000ff" d="M1285.1,-173.8C1294.44,-161.59 1307.13,-144.99 1317.61,-131.28"/>
<polygon fill="#0000ff" stroke="#0000ff" points="1320.51,-133.25 1323.81,-123.18 1314.95,-128.99 1320.51,-133.25"/>
<text text-anchor="middle" x="1340.94" y="-144.8" font-family="Times,serif" font-size="14.00">no, missing</text>
</g>
<!-- 31 -->
<g id="node22" class="node">
<title>31</title>
<ellipse fill="none" stroke="black" cx="1198.94" cy="-18" rx="78.79" ry="18"/>
<text text-anchor="middle" x="1198.94" y="-14.3" font-family="Times,serif" font-size="14.00">leaf=&#45;0.015497704</text>
</g>
<!-- 20&#45;&gt;31 -->
<g id="edge21" class="edge">
<title>20&#45;&gt;31</title>
<path fill="none" stroke="#ff0000" d="M1309.68,-87.21C1287.95,-73.82 1257.37,-54.99 1233.85,-40.5"/>
<polygon fill="#ff0000" stroke="#ff0000" points="1235.56,-37.45 1225.21,-35.18 1231.89,-43.41 1235.56,-37.45"/>
<text text-anchor="middle" x="1286.44" y="-57.8" font-family="Times,serif" font-size="14.00">yes</text>
</g>
<!-- 32 -->
<g id="node23" class="node">
<title>32</title>
<ellipse fill="none" stroke="black" cx="1375.94" cy="-18" rx="79.89" ry="18"/>
<text text-anchor="middle" x="1375.94" y="-14.3" font-family="Times,serif" font-size="14.00">leaf=0.0327334516</text>
</g>
<!-- 20&#45;&gt;32 -->
<g id="edge22" class="edge">
<title>20&#45;&gt;32</title>
<path fill="none" stroke="#0000ff" d="M1344.84,-86.8C1350.28,-74.93 1357.62,-58.93 1363.81,-45.45"/>
<polygon fill="#0000ff" stroke="#0000ff" points="1367.07,-46.72 1368.06,-36.18 1360.71,-43.8 1367.07,-46.72"/>
<text text-anchor="middle" x="1390.94" y="-57.8" font-family="Times,serif" font-size="14.00">no, missing</text>
</g>
<!-- 11 -->
<g id="node26" class="node">
<title>11</title>
<ellipse fill="none" stroke="black" cx="1502.94" cy="-192" rx="83.39" ry="18"/>
<text text-anchor="middle" x="1502.94" y="-188.3" font-family="Times,serif" font-size="14.00">leaf=&#45;0.0636759624</text>
</g>
<!-- 5&#45;&gt;11 -->
<g id="edge25" class="edge">
<title>5&#45;&gt;11</title>
<path fill="none" stroke="#ff0000" d="M1521.29,-260.8C1518.11,-249.05 1513.83,-233.24 1510.21,-219.84"/>
<polygon fill="#ff0000" stroke="#ff0000" points="1513.58,-218.91 1507.59,-210.18 1506.82,-220.74 1513.58,-218.91"/>
<text text-anchor="middle" x="1525.44" y="-231.8" font-family="Times,serif" font-size="14.00">yes</text>
</g>
<!-- 12 -->
<g id="node27" class="node">
<title>12</title>
<ellipse fill="none" stroke="black" cx="1683.94" cy="-192" rx="79.89" ry="18"/>
<text text-anchor="middle" x="1683.94" y="-188.3" font-family="Times,serif" font-size="14.00">leaf=0.0068561472</text>
</g>
<!-- 5&#45;&gt;12 -->
<g id="edge26" class="edge">
<title>5&#45;&gt;12</title>
<path fill="none" stroke="#0000ff" d="M1556.41,-261.61C1581.87,-247.91 1618.3,-228.31 1645.72,-213.56"/>
<polygon fill="#0000ff" stroke="#0000ff" points="1647.49,-216.58 1654.64,-208.76 1644.18,-210.42 1647.49,-216.58"/>
<text text-anchor="middle" x="1646.94" y="-231.8" font-family="Times,serif" font-size="14.00">no, missing</text>
</g>
<!-- 13 -->
<g id="node28" class="node">
<title>13</title>
<ellipse fill="none" stroke="black" cx="1890.94" cy="-192" rx="99.38" ry="18"/>
<text text-anchor="middle" x="1890.94" y="-188.3" font-family="Times,serif" font-size="14.00">MACD_Hist&lt;11.652216</text>
</g>
<!-- 6&#45;&gt;13 -->
<g id="edge27" class="edge">
<title>6&#45;&gt;13</title>
<path fill="none" stroke="#ff0000" d="M1890.94,-260.8C1890.94,-249.16 1890.94,-233.55 1890.94,-220.24"/>
<polygon fill="#ff0000" stroke="#ff0000" points="1894.44,-220.18 1890.94,-210.18 1887.44,-220.18 1894.44,-220.18"/>
<text text-anchor="middle" x="1900.44" y="-231.8" font-family="Times,serif" font-size="14.00">yes</text>
</g>
<!-- 14 -->
<g id="node29" class="node">
<title>14</title>
<ellipse fill="none" stroke="black" cx="2356.94" cy="-192" rx="137.28" ry="18"/>
<text text-anchor="middle" x="2356.94" y="-188.3" font-family="Times,serif" font-size="14.00">regime_ema_spread&lt;&#45;0.227524057</text>
</g>
<!-- 6&#45;&gt;14 -->
<g id="edge28" class="edge">
<title>6&#45;&gt;14</title>
<path fill="none" stroke="#0000ff" d="M1966.59,-264.2C2049.73,-249.04 2183.05,-224.72 2270.32,-208.8"/>
<polygon fill="#0000ff" stroke="#0000ff" points="2270.99,-212.24 2280.2,-207 2269.74,-205.35 2270.99,-212.24"/>
<text text-anchor="middle" x="2183.94" y="-231.8" font-family="Times,serif" font-size="14.00">no, missing</text>
</g>
<!-- 21 -->
<g id="node30" class="node">
<title>21</title>
<ellipse fill="none" stroke="black" cx="1708.94" cy="-105" rx="94.78" ry="18"/>
<text text-anchor="middle" x="1708.94" y="-101.3" font-family="Times,serif" font-size="14.00">OBV&lt;7.30638582e+11</text>
</g>
<!-- 13&#45;&gt;21 -->
<g id="edge29" class="edge">
<title>13&#45;&gt;21</title>
<path fill="none" stroke="#ff0000" d="M1856.71,-175.01C1827.09,-161.18 1784.12,-141.11 1752.15,-126.18"/>
<polygon fill="#ff0000" stroke="#ff0000" points="1753.56,-122.98 1743.02,-121.92 1750.6,-129.32 1753.56,-122.98"/>
<text text-anchor="middle" x="1820.44" y="-144.8" font-family="Times,serif" font-size="14.00">yes</text>
</g>
<!-- 22 -->
<g id="node31" class="node">
<title>22</title>
<ellipse fill="none" stroke="black" cx="1963.94" cy="-105" rx="141.88" ry="18"/>
<text text-anchor="middle" x="1963.94" y="-101.3" font-family="Times,serif" font-size="14.00">regime_ema_spread&lt;&#45;0.0420099571</text>
</g>
<!-- 13&#45;&gt;22 -->
<g id="edge30" class="edge">
<title>13&#45;&gt;22</title>
<path fill="none" stroke="#0000ff" d="M1905.72,-173.8C1916.3,-161.47 1930.72,-144.68 1942.57,-130.89"/>
<polygon fill="#0000ff" stroke="#0000ff" points="1945.33,-133.04 1949.19,-123.18 1940.02,-128.48 1945.33,-133.04"/>
<text text-anchor="middle" x="1963.94" y="-144.8" font-family="Times,serif" font-size="14.00">no, missing</text>
</g>
<!-- 23 -->
<g id="node36" class="node">
<title>23</title>
<ellipse fill="none" stroke="black" cx="2356.94" cy="-105" rx="100.18" ry="18"/>
<text text-anchor="middle" x="2356.94" y="-101.3" font-family="Times,serif" font-size="14.00">regime_adx&lt;24.0729065</text>
</g>
<!-- 14&#45;&gt;23 -->
<g id="edge35" class="edge">
<title>14&#45;&gt;23</title>
<path fill="none" stroke="#ff0000" d="M2356.94,-173.8C2356.94,-162.16 2356.94,-146.55 2356.94,-133.24"/>
<polygon fill="#ff0000" stroke="#ff0000" points="2360.44,-133.18 2356.94,-123.18 2353.44,-133.18 2360.44,-133.18"/>
<text text-anchor="middle" x="2366.44" y="-144.8" font-family="Times,serif" font-size="14.00">yes</text>
</g>
<!-- 24 -->
<g id="node37" class="node">
<title>24</title>
<ellipse fill="none" stroke="black" cx="2644.94" cy="-105" rx="96.38" ry="18"/>
<text text-anchor="middle" x="2644.94" y="-101.3" font-family="Times,serif" font-size="14.00">Day_Sin&lt;&#45;0.781831503</text>
</g>
<!-- 14&#45;&gt;24 -->
<g id="edge36" class="edge">
<title>14&#45;&gt;24</title>
<path fill="none" stroke="#0000ff" d="M2410.1,-175.31C2459.88,-160.62 2534.13,-138.7 2585.77,-123.46"/>
<polygon fill="#0000ff" stroke="#0000ff" points="2586.86,-126.79 2595.46,-120.6 2584.88,-120.08 2586.86,-126.79"/>
<text text-anchor="middle" x="2550.94" y="-144.8" font-family="Times,serif" font-size="14.00">no, missing</text>
</g>
<!-- 33 -->
<g id="node32" class="node">
<title>33</title>
<ellipse fill="none" stroke="black" cx="1557.94" cy="-18" rx="84.49" ry="18"/>
<text text-anchor="middle" x="1557.94" y="-14.3" font-family="Times,serif" font-size="14.00">leaf=0.00757061178</text>
</g>
<!-- 21&#45;&gt;33 -->
<g id="edge31" class="edge">
<title>21&#45;&gt;33</title>
<path fill="none" stroke="#ff0000" d="M1680.19,-87.81C1656.07,-74.24 1621.48,-54.76 1595.24,-39.99"/>
<polygon fill="#ff0000" stroke="#ff0000" points="1596.77,-36.84 1586.34,-34.98 1593.33,-42.94 1596.77,-36.84"/>
<text text-anchor="middle" x="1652.44" y="-57.8" font-family="Times,serif" font-size="14.00">yes</text>
</g>
<!-- 34 -->
<g id="node33" class="node">
<title>34</title>
<ellipse fill="none" stroke="black" cx="1739.94" cy="-18" rx="79.89" ry="18"/>
<text text-anchor="middle" x="1739.94" y="-14.3" font-family="Times,serif" font-size="14.00">leaf=0.0442811809</text>
</g>
<!-- 21&#45;&gt;34 -->
<g id="edge32" class="edge">
<title>21&#45;&gt;34</title>
<path fill="none" stroke="#0000ff" d="M1715.22,-86.8C1719.5,-75.05 1725.27,-59.24 1730.15,-45.84"/>
<polygon fill="#0000ff" stroke="#0000ff" points="1733.54,-46.77 1733.68,-36.18 1726.96,-44.37 1733.54,-46.77"/>
<text text-anchor="middle" x="1758.94" y="-57.8" font-family="Times,serif" font-size="14.00">no, missing</text>
</g>
<!-- 35 -->
<g id="node34" class="node">
<title>35</title>
<ellipse fill="none" stroke="black" cx="1917.94" cy="-18" rx="79.89" ry="18"/>
<text text-anchor="middle" x="1917.94" y="-14.3" font-family="Times,serif" font-size="14.00">leaf=0.0104066608</text>
</g>
<!-- 22&#45;&gt;35 -->
<g id="edge33" class="edge">
<title>22&#45;&gt;35</title>
<path fill="none" stroke="#ff0000" d="M1954.63,-86.8C1948.11,-74.74 1939.27,-58.4 1931.9,-44.79"/>
<polygon fill="#ff0000" stroke="#ff0000" points="1934.92,-43.01 1927.08,-35.89 1928.76,-46.35 1934.92,-43.01"/>
<text text-anchor="middle" x="1953.44" y="-57.8" font-family="Times,serif" font-size="14.00">yes</text>
</g>
<!-- 36 -->
<g id="node35" class="node">
<title>36</title>
<ellipse fill="none" stroke="black" cx="2098.94" cy="-18" rx="83.39" ry="18"/>
<text text-anchor="middle" x="2098.94" y="-14.3" font-family="Times,serif" font-size="14.00">leaf=&#45;0.0334450342</text>
</g>
<!-- 22&#45;&gt;36 -->
<g id="edge34" class="edge">
<title>22&#45;&gt;36</title>
<path fill="none" stroke="#0000ff" d="M1990.61,-87.21C2011.78,-73.88 2041.52,-55.15 2064.49,-40.69"/>
<polygon fill="#0000ff" stroke="#0000ff" points="2066.65,-43.47 2073.24,-35.18 2062.92,-37.55 2066.65,-43.47"/>
<text text-anchor="middle" x="2071.94" y="-57.8" font-family="Times,serif" font-size="14.00">no, missing</text>
</g>
<!-- 37 -->
<g id="node38" class="node">
<title>37</title>
<ellipse fill="none" stroke="black" cx="2282.94" cy="-18" rx="83.39" ry="18"/>
<text text-anchor="middle" x="2282.94" y="-14.3" font-family="Times,serif" font-size="14.00">leaf=&#45;0.0484714955</text>
</g>
<!-- 23&#45;&gt;37 -->
<g id="edge37" class="edge">
<title>23&#45;&gt;37</title>
<path fill="none" stroke="#ff0000" d="M2341.97,-86.8C2331.16,-74.39 2316.42,-57.46 2304.38,-43.62"/>
<polygon fill="#ff0000" stroke="#ff0000" points="2306.85,-41.13 2297.64,-35.89 2301.57,-45.73 2306.85,-41.13"/>
<text text-anchor="middle" x="2334.44" y="-57.8" font-family="Times,serif" font-size="14.00">yes</text>
</g>
<!-- 38 -->
<g id="node39" class="node">
<title>38</title>
<ellipse fill="none" stroke="black" cx="2463.94" cy="-18" rx="79.89" ry="18"/>
<text text-anchor="middle" x="2463.94" y="-14.3" font-family="Times,serif" font-size="14.00">leaf=0.0195483081</text>
</g>
<!-- 23&#45;&gt;38 -->
<g id="edge38" class="edge">
<title>23&#45;&gt;38</title>
<path fill="none" stroke="#0000ff" d="M2378.08,-87.21C2394.46,-74.2 2417.31,-56.05 2435.32,-41.74"/>
<polygon fill="#0000ff" stroke="#0000ff" points="2437.56,-44.43 2443.21,-35.47 2433.2,-38.95 2437.56,-44.43"/>
<text text-anchor="middle" x="2448.94" y="-57.8" font-family="Times,serif" font-size="14.00">no, missing</text>
</g>
<!-- 39 -->
<g id="node40" class="node">
<title>39</title>
<ellipse fill="none" stroke="black" cx="2644.94" cy="-18" rx="83.39" ry="18"/>
<text text-anchor="middle" x="2644.94" y="-14.3" font-family="Times,serif" font-size="14.00">leaf=&#45;0.0235391129</text>
</g>
<!-- 24&#45;&gt;39 -->
<g id="edge39" class="edge">
<title>24&#45;&gt;39</title>
<path fill="none" stroke="#ff0000" d="M2644.94,-86.8C2644.94,-75.16 2644.94,-59.55 2644.94,-46.24"/>
<polygon fill="#ff0000" stroke="#ff0000" points="2648.44,-46.18 2644.94,-36.18 2641.44,-46.18 2648.44,-46.18"/>
<text text-anchor="middle" x="2654.44" y="-57.8" font-family="Times,serif" font-size="14.00">yes</text>
</g>
<!-- 40 -->
<g id="node41" class="node">
<title>40</title>
<ellipse fill="none" stroke="black" cx="2830.94" cy="-18" rx="84.49" ry="18"/>
<text text-anchor="middle" x="2830.94" y="-14.3" font-family="Times,serif" font-size="14.00">leaf=0.00184017548</text>
</g>
<!-- 24&#45;&gt;40 -->
<g id="edge40" class="edge">
<title>24&#45;&gt;40</title>
<path fill="none" stroke="#0000ff" d="M2679.93,-88.01C2710.39,-74.09 2754.67,-53.86 2787.41,-38.89"/>
<polygon fill="#0000ff" stroke="#0000ff" points="2789.1,-41.97 2796.74,-34.63 2786.19,-35.6 2789.1,-41.97"/>
<text text-anchor="middle" x="2781.94" y="-57.8" font-family="Times,serif" font-size="14.00">no, missing</text>
</g>
</g>
</svg>
