<?xml version="1.0" encoding="UTF-8" standalone="no"?>
<!DOCTYPE svg PUBLIC "-//W3C//DTD SVG 1.1//EN"
 "http://www.w3.org/Graphics/SVG/1.1/DTD/svg11.dtd">
<!-- Generated by graphviz version 2.43.0 (0)
 -->
<!-- Title: %3 Pages: 1 -->
<svg width="4381pt" height="479pt"
 viewBox="0.00 0.00 4380.89 479.00" xmlns="http://www.w3.org/2000/svg" xmlns:xlink="http://www.w3.org/1999/xlink">
<g id="graph0" class="graph" transform="scale(1 1) rotate(0) translate(4 475)">
<title>%3</title>
<polygon fill="white" stroke="transparent" points="-4,4 -4,-475 4376.89,-475 4376.89,4 -4,4"/>
<!-- 0 -->
<g id="node1" class="node">
<title>0</title>
<ellipse fill="none" stroke="black" cx="2086.94" cy="-453" rx="94.78" ry="18"/>
<text text-anchor="middle" x="2086.94" y="-449.3" font-family="Times,serif" font-size="14.00">OBV&lt;7.12705704e+11</text>
</g>
<!-- 1 -->
<g id="node2" class="node">
<title>1</title>
<ellipse fill="none" stroke="black" cx="1669.94" cy="-366" rx="70.39" ry="18"/>
<text text-anchor="middle" x="1669.94" y="-362.3" font-family="Times,serif" font-size="14.00">ATR&lt;722.95929</text>
</g>
<!-- 0&#45;&gt;1 -->
<g id="edge1" class="edge">
<title>0&#45;&gt;1</title>
<path fill="none" stroke="#ff0000" d="M2024.96,-439.37C1946.42,-423.36 1811.78,-395.91 1732.81,-379.82"/>
<polygon fill="#ff0000" stroke="#ff0000" points="1733.49,-376.38 1723,-377.81 1732.09,-383.24 1733.49,-376.38"/>
<text text-anchor="middle" x="1913.44" y="-405.8" font-family="Times,serif" font-size="14.00">yes</text>
</g>
<!-- 2 -->
<g id="node3" class="node">
<title>2</title>
<ellipse fill="none" stroke="black" cx="2506.94" cy="-366" rx="90.18" ry="18"/>
<text text-anchor="middle" x="2506.94" y="-362.3" font-family="Times,serif" font-size="14.00">OBV&lt;8.0158353e+11</text>
</g>
<!-- 0&#45;&gt;2 -->
<g id="edge2" class="edge">
<title>0&#45;&gt;2</title>
<path fill="none" stroke="#0000ff" d="M2149.37,-439.37C2225.96,-423.87 2355.5,-397.65 2435.85,-381.39"/>
<polygon fill="#0000ff" stroke="#0000ff" points="2436.78,-384.77 2445.88,-379.36 2435.39,-377.91 2436.78,-384.77"/>
<text text-anchor="middle" x="2354.94" y="-405.8" font-family="Times,serif" font-size="14.00">no, missing</text>
</g>
<!-- 3 -->
<g id="node4" class="node">
<title>3</title>
<ellipse fill="none" stroke="black" cx="933.94" cy="-279" rx="83.39" ry="18"/>
<text text-anchor="middle" x="933.94" y="-275.3" font-family="Times,serif" font-size="14.00">BBW&lt;0.231002882</text>
</g>
<!-- 1&#45;&gt;3 -->
<g id="edge3" class="edge">
<title>1&#45;&gt;3</title>
<path fill="none" stroke="#ff0000" d="M1607.19,-357.75C1474.07,-342.38 1163.45,-306.51 1015.32,-289.4"/>
<polygon fill="#ff0000" stroke="#ff0000" points="1015.71,-285.92 1005.37,-288.25 1014.91,-292.87 1015.71,-285.92"/>
<text text-anchor="middle" x="1356.44" y="-318.8" font-family="Times,serif" font-size="14.00">yes</text>
</g>
<!-- 4 -->
<g id="node5" class="node">
<title>4</title>
<ellipse fill="none" stroke="black" cx="1669.94" cy="-279" rx="100.18" ry="18"/>
<text text-anchor="middle" x="1669.94" y="-275.3" font-family="Times,serif" font-size="14.00">regime_adx&lt;17.2329655</text>
</g>
<!-- 1&#45;&gt;4 -->
<g id="edge4" class="edge">
<title>1&#45;&gt;4</title>
<path fill="none" stroke="#0000ff" d="M1669.94,-347.8C1669.94,-336.16 1669.94,-320.55 1669.94,-307.24"/>
<polygon fill="#0000ff" stroke="#0000ff" points="1673.44,-307.18 1669.94,-297.18 1666.44,-307.18 1673.44,-307.18"/>
<text text-anchor="middle" x="1701.94" y="-318.8" font-family="Times,serif" font-size="14.00">no, missing</text>
</g>
<!-- 5 -->
<g id="node30" class="node">
<title>5</title>
<ellipse fill="none" stroke="black" cx="2506.94" cy="-279" rx="106.68" ry="18"/>
<text text-anchor="middle" x="2506.94" y="-275.3" font-family="Times,serif" font-size="14.00">MACD_Hist&lt;&#45;164.462204</text>
</g>
<!-- 2&#45;&gt;5 -->
<g id="edge29" class="edge">
<title>2&#45;&gt;5</title>
<path fill="none" stroke="#ff0000" d="M2506.94,-347.8C2506.94,-336.16 2506.94,-320.55 2506.94,-307.24"/>
<polygon fill="#ff0000" stroke="#ff0000" points="2510.44,-307.18 2506.94,-297.18 2503.44,-307.18 2510.44,-307.18"/>
<text text-anchor="middle" x="2516.44" y="-318.8" font-family="Times,serif" font-size="14.00">yes</text>
</g>
<!-- 6 -->
<g id="node31" class="node">
<title>6</title>
<ellipse fill="none" stroke="black" cx="3266.94" cy="-279" rx="106.68" ry="18"/>
<text text-anchor="middle" x="3266.94" y="-275.3" font-family="Times,serif" font-size="14.00">Mon_Sin&lt;1.22464685e&#45;16</text>
</g>
<!-- 2&#45;&gt;6 -->
<g id="edge30" class="edge">
<title>2&#45;&gt;6</title>
<path fill="none" stroke="#0000ff" d="M2583.65,-356.42C2723,-340.84 3017.45,-307.9 3170.29,-290.81"/>
<polygon fill="#0000ff" stroke="#0000ff" points="3171.05,-294.25 3180.6,-289.66 3170.28,-287.29 3171.05,-294.25"/>
<text text-anchor="middle" x="2964.94" y="-318.8" font-family="Times,serif" font-size="14.00">no, missing</text>
</g>
<!-- 7 -->
<g id="node6" class="node">
<title>7</title>
<ellipse fill="none" stroke="black" cx="553.94" cy="-192" rx="83.39" ry="18"/>
<text text-anchor="middle" x="553.94" y="-188.3" font-family="Times,serif" font-size="14.00">BBW&lt;0.138256222</text>
</g>
<!-- 3&#45;&gt;7 -->
<g id="edge5" class="edge">
<title>3&#45;&gt;7</title>
<path fill="none" stroke="#ff0000" d="M878.28,-265.55C809.47,-250.16 692.52,-224 619.45,-207.65"/>
<polygon fill="#ff0000" stroke="#ff0000" points="619.97,-204.18 609.44,-205.41 618.44,-211.01 619.97,-204.18"/>
<text text-anchor="middle" x="776.44" y="-231.8" font-family="Times,serif" font-size="14.00">yes</text>
</g>
<!-- 8 -->
<g id="node7" class="node">
<title>8</title>
<ellipse fill="none" stroke="black" cx="933.94" cy="-192" rx="102.08" ry="18"/>
<text text-anchor="middle" x="933.94" y="-188.3" font-family="Times,serif" font-size="14.00">D_EMA200&lt;1.30536854</text>
</g>
<!-- 3&#45;&gt;8 -->
<g id="edge6" class="edge">
<title>3&#45;&gt;8</title>
<path fill="none" stroke="#0000ff" d="M933.94,-260.8C933.94,-249.16 933.94,-233.55 933.94,-220.24"/>
<polygon fill="#0000ff" stroke="#0000ff" points="937.44,-220.18 933.94,-210.18 930.44,-220.18 937.44,-220.18"/>
<text text-anchor="middle" x="965.94" y="-231.8" font-family="Times,serif" font-size="14.00">no, missing</text>
</g>
<!-- 9 -->
<g id="node18" class="node">
<title>9</title>
<ellipse fill="none" stroke="black" cx="1572.94" cy="-192" rx="102.08" ry="18"/>
<text text-anchor="middle" x="1572.94" y="-188.3" font-family="Times,serif" font-size="14.00">D_EMA200&lt;1.08288264</text>
</g>
<!-- 4&#45;&gt;9 -->
<g id="edge17" class="edge">
<title>4&#45;&gt;9</title>
<path fill="none" stroke="#ff0000" d="M1650.78,-261.21C1636.16,-248.4 1615.86,-230.61 1599.65,-216.4"/>
<polygon fill="#ff0000" stroke="#ff0000" points="1601.89,-213.72 1592.07,-209.76 1597.28,-218.98 1601.89,-213.72"/>
<text text-anchor="middle" x="1637.44" y="-231.8" font-family="Times,serif" font-size="14.00">yes</text>
</g>
<!-- 10 -->
<g id="node19" class="node">
<title>10</title>
<ellipse fill="none" stroke="black" cx="1789.94" cy="-192" rx="96.68" ry="18"/>
<text text-anchor="middle" x="1789.94" y="-188.3" font-family="Times,serif" font-size="14.00">Vol_Chg&lt;&#45;0.312114716</text>
</g>
<!-- 4&#45;&gt;10 -->
<g id="edge18" class="edge">
<title>4&#45;&gt;10</title>
<path fill="none" stroke="#0000ff" d="M1693.36,-261.41C1711.87,-248.3 1737.87,-229.88 1758.24,-215.46"/>
<polygon fill="#0000ff" stroke="#0000ff" points="1760.44,-218.19 1766.58,-209.55 1756.4,-212.47 1760.44,-218.19"/>
<text text-anchor="middle" x="1769.94" y="-231.8" font-family="Times,serif" font-size="14.00">no, missing</text>
</g>
<!-- 15 -->
<g id="node8" class="node">
<title>15</title>
<ellipse fill="none" stroke="black" cx="260.94" cy="-105" rx="109.38" ry="18"/>
<text text-anchor="middle" x="260.94" y="-101.3" font-family="Times,serif" font-size="14.00">Log_Ret&lt;&#45;0.000320185092</text>
</g>
<!-- 7&#45;&gt;15 -->
<g id="edge7" class="edge">
<title>7&#45;&gt;15</title>
<path fill="none" stroke="#ff0000" d="M506.22,-177.15C456.14,-162.63 377.26,-139.74 322.52,-123.87"/>
<polygon fill="#ff0000" stroke="#ff0000" points="323.18,-120.41 312.6,-120.99 321.23,-127.13 323.18,-120.41"/>
<text text-anchor="middle" x="435.44" y="-144.8" font-family="Times,serif" font-size="14.00">yes</text>
</g>
<!-- 16 -->
<g id="node9" class="node">
<title>16</title>
<ellipse fill="none" stroke="black" cx="553.94" cy="-105" rx="96.68" ry="18"/>
<text text-anchor="middle" x="553.94" y="-101.3" font-family="Times,serif" font-size="14.00">Vol_Chg&lt;&#45;0.172185197</text>
</g>
<!-- 7&#45;&gt;16 -->
<g id="edge8" class="edge">
<title>7&#45;&gt;16</title>
<path fill="none" stroke="#0000ff" d="M553.94,-173.8C553.94,-162.16 553.94,-146.55 553.94,-133.24"/>
<polygon fill="#0000ff" stroke="#0000ff" points="557.44,-133.18 553.94,-123.18 550.44,-133.18 557.44,-133.18"/>
<text text-anchor="middle" x="585.94" y="-144.8" font-family="Times,serif" font-size="14.00">no, missing</text>
</g>
<!-- 17 -->
<g id="node14" class="node">
<title>17</title>
<ellipse fill="none" stroke="black" cx="834.94" cy="-105" rx="96.68" ry="18"/>
<text text-anchor="middle" x="834.94" y="-101.3" font-family="Times,serif" font-size="14.00">Vol_Chg&lt;&#45;0.166877151</text>
</g>
<!-- 8&#45;&gt;17 -->
<g id="edge13" class="edge">
<title>8&#45;&gt;17</title>
<path fill="none" stroke="#ff0000" d="M914.38,-174.21C899.47,-161.4 878.74,-143.61 862.2,-129.4"/>
<polygon fill="#ff0000" stroke="#ff0000" points="864.33,-126.62 854.46,-122.76 859.77,-131.93 864.33,-126.62"/>
<text text-anchor="middle" x="900.44" y="-144.8" font-family="Times,serif" font-size="14.00">yes</text>
</g>
<!-- 18 -->
<g id="node15" class="node">
<title>18</title>
<ellipse fill="none" stroke="black" cx="1032.94" cy="-105" rx="83.39" ry="18"/>
<text text-anchor="middle" x="1032.94" y="-101.3" font-family="Times,serif" font-size="14.00">leaf=&#45;0.0225193035</text>
</g>
<!-- 8&#45;&gt;18 -->
<g id="edge14" class="edge">
<title>8&#45;&gt;18</title>
<path fill="none" stroke="#0000ff" d="M953.5,-174.21C968.42,-161.4 989.14,-143.61 1005.68,-129.4"/>
<polygon fill="#0000ff" stroke="#0000ff" points="1008.12,-131.93 1013.42,-122.76 1003.56,-126.62 1008.12,-131.93"/>
<text text-anchor="middle" x="1021.94" y="-144.8" font-family="Times,serif" font-size="14.00">no, missing</text>
</g>
<!-- 31 -->
<g id="node10" class="node">
<title>31</title>
<ellipse fill="none" stroke="black" cx="79.94" cy="-18" rx="79.89" ry="18"/>
<text text-anchor="middle" x="79.94" y="-14.3" font-family="Times,serif" font-size="14.00">leaf=0.0171676483</text>
</g>
<!-- 15&#45;&gt;31 -->
<g id="edge9" class="edge">
<title>15&#45;&gt;31</title>
<path fill="none" stroke="#ff0000" d="M226.47,-87.81C196.91,-73.93 154.21,-53.88 122.52,-38.99"/>
<polygon fill="#ff0000" stroke="#ff0000" points="123.6,-35.64 113.06,-34.55 120.63,-41.97 123.6,-35.64"/>
<text text-anchor="middle" x="191.44" y="-57.8" font-family="Times,serif" font-size="14.00">yes</text>
</g>
<!-- 32 -->
<g id="node11" class="node">
<title>32</title>
<ellipse fill="none" stroke="black" cx="260.94" cy="-18" rx="83.39" ry="18"/>
<text text-anchor="middle" x="260.94" y="-14.3" font-family="Times,serif" font-size="14.00">leaf=&#45;0.0123471199</text>
</g>
<!-- 15&#45;&gt;32 -->
<g id="edge10" class="edge">
<title>15&#45;&gt;32</title>
<path fill="none" stroke="#0000ff" d="M260.94,-86.8C260.94,-75.16 260.94,-59.55 260.94,-46.24"/>
<polygon fill="#0000ff" stroke="#0000ff" points="264.44,-46.18 260.94,-36.18 257.44,-46.18 264.44,-46.18"/>
<text text-anchor="middle" x="292.94" y="-57.8" font-family="Times,serif" font-size="14.00">no, missing</text>
</g>
<!-- 33 -->
<g id="node12" class="node">
<title>33</title>
<ellipse fill="none" stroke="black" cx="441.94" cy="-18" rx="79.89" ry="18"/>
<text text-anchor="middle" x="441.94" y="-14.3" font-family="Times,serif" font-size="14.00">leaf=0.0219058115</text>
</g>
<!-- 16&#45;&gt;33 -->
<g id="edge11" class="edge">
<title>16&#45;&gt;33</title>
<path fill="none" stroke="#ff0000" d="M532.08,-87.41C514.89,-74.36 490.76,-56.05 471.79,-41.65"/>
<polygon fill="#ff0000" stroke="#ff0000" points="473.83,-38.81 463.75,-35.55 469.6,-44.38 473.83,-38.81"/>
<text text-anchor="middle" x="514.44" y="-57.8" font-family="Times,serif" font-size="14.00">yes</text>
</g>
<!-- 34 -->
<g id="node13" class="node">
<title>34</title>
<ellipse fill="none" stroke="black" cx="622.94" cy="-18" rx="83.39" ry="18"/>
<text text-anchor="middle" x="622.94" y="-14.3" font-family="Times,serif" font-size="14.00">leaf=&#45;0.0491288193</text>
</g>
<!-- 16&#45;&gt;34 -->
<g id="edge12" class="edge">
<title>16&#45;&gt;34</title>
<path fill="none" stroke="#0000ff" d="M567.91,-86.8C577.88,-74.51 591.47,-57.77 602.64,-44.01"/>
<polygon fill="#0000ff" stroke="#0000ff" points="605.65,-45.86 609.24,-35.89 600.22,-41.44 605.65,-45.86"/>
<text text-anchor="middle" x="624.94" y="-57.8" font-family="Times,serif" font-size="14.00">no, missing</text>
</g>
<!-- 35 -->
<g id="node16" class="node">
<title>35</title>
<ellipse fill="none" stroke="black" cx="808.94" cy="-18" rx="84.49" ry="18"/>
<text text-anchor="middle" x="808.94" y="-14.3" font-family="Times,serif" font-size="14.00">leaf=0.00800647214</text>
</g>
<!-- 17&#45;&gt;35 -->
<g id="edge15" class="edge">
<title>17&#45;&gt;35</title>
<path fill="none" stroke="#ff0000" d="M829.68,-86.8C826.09,-75.05 821.25,-59.24 817.15,-45.84"/>
<polygon fill="#ff0000" stroke="#ff0000" points="820.47,-44.71 814.2,-36.18 813.77,-46.76 820.47,-44.71"/>
<text text-anchor="middle" x="833.44" y="-57.8" font-family="Times,serif" font-size="14.00">yes</text>
</g>
<!-- 36 -->
<g id="node17" class="node">
<title>36</title>
<ellipse fill="none" stroke="black" cx="990.94" cy="-18" rx="79.89" ry="18"/>
<text text-anchor="middle" x="990.94" y="-14.3" font-family="Times,serif" font-size="14.00">leaf=0.0486310087</text>
</g>
<!-- 17&#45;&gt;36 -->
<g id="edge16" class="edge">
<title>17&#45;&gt;36</title>
<path fill="none" stroke="#0000ff" d="M864.65,-87.81C889.75,-74.14 925.85,-54.47 953.03,-39.66"/>
<polygon fill="#0000ff" stroke="#0000ff" points="954.77,-42.7 961.87,-34.84 951.42,-36.55 954.77,-42.7"/>
<text text-anchor="middle" x="954.94" y="-57.8" font-family="Times,serif" font-size="14.00">no, missing</text>
</g>
<!-- 19 -->
<g id="node20" class="node">
<title>19</title>
<ellipse fill="none" stroke="black" cx="1327.94" cy="-105" rx="141.88" ry="18"/>
<text text-anchor="middle" x="1327.94" y="-101.3" font-family="Times,serif" font-size="14.00">regime_vol_trend&lt;&#45;0.000947962806</text>
</g>
<!-- 9&#45;&gt;19 -->
<g id="edge19" class="edge">
<title>9&#45;&gt;19</title>
<path fill="none" stroke="#ff0000" d="M1528.86,-175.71C1488.26,-161.62 1427.83,-140.65 1383.85,-125.4"/>
<polygon fill="#ff0000" stroke="#ff0000" points="1384.76,-122.01 1374.17,-122.04 1382.47,-128.62 1384.76,-122.01"/>
<text text-anchor="middle" x="1475.44" y="-144.8" font-family="Times,serif" font-size="14.00">yes</text>
</g>
<!-- 20 -->
<g id="node21" class="node">
<title>20</title>
<ellipse fill="none" stroke="black" cx="1584.94" cy="-105" rx="97.48" ry="18"/>
<text text-anchor="middle" x="1584.94" y="-101.3" font-family="Times,serif" font-size="14.00">D_EMA200&lt;1.0903548</text>
</g>
<!-- 9&#45;&gt;20 -->
<g id="edge20" class="edge">
<title>9&#45;&gt;20</title>
<path fill="none" stroke="#0000ff" d="M1575.37,-173.8C1577.01,-162.16 1579.22,-146.55 1581.1,-133.24"/>
<polygon fill="#0000ff" stroke="#0000ff" points="1584.59,-133.57 1582.52,-123.18 1577.65,-132.59 1584.59,-133.57"/>
<text text-anchor="middle" x="1611.94" y="-144.8" font-family="Times,serif" font-size="14.00">no, missing</text>
</g>
<!-- 21 -->
<g id="node26" class="node">
<title>21</title>
<ellipse fill="none" stroke="black" cx="1787.94" cy="-105" rx="83.39" ry="18"/>
<text text-anchor="middle" x="1787.94" y="-101.3" font-family="Times,serif" font-size="14.00">leaf=&#45;0.0189592242</text>
</g>
<!-- 10&#45;&gt;21 -->
<g id="edge25" class="edge">
<title>10&#45;&gt;21</title>
<path fill="none" stroke="#ff0000" d="M1789.54,-173.8C1789.26,-162.16 1788.9,-146.55 1788.58,-133.24"/>
<polygon fill="#ff0000" stroke="#ff0000" points="1792.08,-133.09 1788.35,-123.18 1785.08,-133.26 1792.08,-133.09"/>
<text text-anchor="middle" x="1799.44" y="-144.8" font-family="Times,serif" font-size="14.00">yes</text>
</g>
<!-- 22 -->
<g id="node27" class="node">
<title>22</title>
<ellipse fill="none" stroke="black" cx="1989.94" cy="-105" rx="100.98" ry="18"/>
<text text-anchor="middle" x="1989.94" y="-101.3" font-family="Times,serif" font-size="14.00">Log_Ret&lt;&#45;0.0311153531</text>
</g>
<!-- 10&#45;&gt;22 -->
<g id="edge26" class="edge">
<title>10&#45;&gt;22</title>
<path fill="none" stroke="#0000ff" d="M1827.09,-175.21C1859.83,-161.3 1907.67,-140.97 1943.03,-125.94"/>
<polygon fill="#0000ff" stroke="#0000ff" points="1944.82,-128.98 1952.65,-121.85 1942.08,-122.54 1944.82,-128.98"/>
<text text-anchor="middle" x="1933.94" y="-144.8" font-family="Times,serif" font-size="14.00">no, missing</text>
</g>
<!-- 37 -->
<g id="node22" class="node">
<title>37</title>
<ellipse fill="none" stroke="black" cx="1168.94" cy="-18" rx="79.89" ry="18"/>
<text text-anchor="middle" x="1168.94" y="-14.3" font-family="Times,serif" font-size="14.00">leaf=0.0542440824</text>
</g>
<!-- 19&#45;&gt;37 -->
<g id="edge21" class="edge">
<title>19&#45;&gt;37</title>
<path fill="none" stroke="#ff0000" d="M1296.91,-87.41C1271.33,-73.74 1234.93,-54.28 1207.49,-39.61"/>
<polygon fill="#ff0000" stroke="#ff0000" points="1209.02,-36.46 1198.55,-34.83 1205.72,-42.63 1209.02,-36.46"/>
<text text-anchor="middle" x="1268.44" y="-57.8" font-family="Times,serif" font-size="14.00">yes</text>
</g>
<!-- 38 -->
<g id="node23" class="node">
<title>38</title>
<ellipse fill="none" stroke="black" cx="1353.94" cy="-18" rx="87.18" ry="18"/>
<text text-anchor="middle" x="1353.94" y="-14.3" font-family="Times,serif" font-size="14.00">leaf=&#45;0.00679480238</text>
</g>
<!-- 19&#45;&gt;38 -->
<g id="edge22" class="edge">
<title>19&#45;&gt;38</title>
<path fill="none" stroke="#0000ff" d="M1333.2,-86.8C1336.8,-75.05 1341.63,-59.24 1345.73,-45.84"/>
<polygon fill="#0000ff" stroke="#0000ff" points="1349.11,-46.76 1348.69,-36.18 1342.42,-44.71 1349.11,-46.76"/>
<text text-anchor="middle" x="1374.94" y="-57.8" font-family="Times,serif" font-size="14.00">no, missing</text>
</g>
<!-- 39 -->
<g id="node24" class="node">
<title>39</title>
<ellipse fill="none" stroke="black" cx="1545.94" cy="-18" rx="87.18" ry="18"/>
<text text-anchor="middle" x="1545.94" y="-14.3" font-family="Times,serif" font-size="14.00">leaf=&#45;0.00604908215</text>
</g>
<!-- 20&#45;&gt;39 -->
<g id="edge23" class="edge">
<title>20&#45;&gt;39</title>
<path fill="none" stroke="#ff0000" d="M1577.05,-86.8C1571.61,-74.93 1564.26,-58.93 1558.08,-45.45"/>
<polygon fill="#ff0000" stroke="#ff0000" points="1561.17,-43.8 1553.82,-36.18 1554.81,-46.72 1561.17,-43.8"/>
<text text-anchor="middle" x="1577.44" y="-57.8" font-family="Times,serif" font-size="14.00">yes</text>
</g>
<!-- 40 -->
<g id="node25" class="node">
<title>40</title>
<ellipse fill="none" stroke="black" cx="1729.94" cy="-18" rx="78.79" ry="18"/>
<text text-anchor="middle" x="1729.94" y="-14.3" font-family="Times,serif" font-size="14.00">leaf=&#45;0.053019356</text>
</g>
<!-- 20&#45;&gt;40 -->
<g id="edge24" class="edge">
<title>20&#45;&gt;40</title>
<path fill="none" stroke="#0000ff" d="M1612.9,-87.61C1635.91,-74.12 1668.71,-54.9 1693.73,-40.23"/>
<polygon fill="#0000ff" stroke="#0000ff" points="1695.71,-43.13 1702.56,-35.05 1692.17,-37.09 1695.71,-43.13"/>
<text text-anchor="middle" x="1698.94" y="-57.8" font-family="Times,serif" font-size="14.00">no, missing</text>
</g>
<!-- 41 -->
<g id="node28" class="node">
<title>41</title>
<ellipse fill="none" stroke="black" cx="1906.94" cy="-18" rx="79.89" ry="18"/>
<text text-anchor="middle" x="1906.94" y="-14.3" font-family="Times,serif" font-size="14.00">leaf=0.0070227175</text>
</g>
<!-- 22&#45;&gt;41 -->
<g id="edge27" class="edge">
<title>22&#45;&gt;41</title>
<path fill="none" stroke="#ff0000" d="M1973.54,-87.21C1961.27,-74.63 1944.29,-57.25 1930.56,-43.18"/>
<polygon fill="#ff0000" stroke="#ff0000" points="1932.8,-40.47 1923.31,-35.76 1927.79,-45.36 1932.8,-40.47"/>
<text text-anchor="middle" x="1963.44" y="-57.8" font-family="Times,serif" font-size="14.00">yes</text>
</g>
<!-- 42 -->
<g id="node29" class="node">
<title>42</title>
<ellipse fill="none" stroke="black" cx="2084.94" cy="-18" rx="79.89" ry="18"/>
<text text-anchor="middle" x="2084.94" y="-14.3" font-family="Times,serif" font-size="14.00">leaf=0.0496512651</text>
</g>
<!-- 22&#45;&gt;42 -->
<g id="edge28" class="edge">
<title>22&#45;&gt;42</title>
<path fill="none" stroke="#0000ff" d="M2008.71,-87.21C2022.89,-74.52 2042.55,-56.93 2058.35,-42.79"/>
<polygon fill="#0000ff" stroke="#0000ff" points="2061.09,-45.03 2066.21,-35.76 2056.43,-39.82 2061.09,-45.03"/>
<text text-anchor="middle" x="2075.94" y="-57.8" font-family="Times,serif" font-size="14.00">no, missing</text>
</g>
<!-- 11 -->
<g id="node32" class="node">
<title>11</title>
<ellipse fill="none" stroke="black" cx="2419.94" cy="-192" rx="96.68" ry="18"/>
<text text-anchor="middle" x="2419.94" y="-188.3" font-family="Times,serif" font-size="14.00">Vol_Chg&lt;&#45;0.190340638</text>
</g>
<!-- 5&#45;&gt;11 -->
<g id="edge31" class="edge">
<title>5&#45;&gt;11</title>
<path fill="none" stroke="#ff0000" d="M2489.75,-261.21C2476.77,-248.52 2458.77,-230.93 2444.3,-216.79"/>
<polygon fill="#ff0000" stroke="#ff0000" points="2446.69,-214.24 2437.1,-209.76 2441.8,-219.25 2446.69,-214.24"/>
<text text-anchor="middle" x="2478.44" y="-231.8" font-family="Times,serif" font-size="14.00">yes</text>
</g>
<!-- 12 -->
<g id="node33" class="node">
<title>12</title>
<ellipse fill="none" stroke="black" cx="2610.94" cy="-192" rx="74.99" ry="18"/>
<text text-anchor="middle" x="2610.94" y="-188.3" font-family="Times,serif" font-size="14.00">ATR&lt;340.712982</text>
</g>
<!-- 5&#45;&gt;12 -->
<g id="edge32" class="edge">
<title>5&#45;&gt;12</title>
<path fill="none" stroke="#0000ff" d="M2527.49,-261.21C2543.26,-248.32 2565.21,-230.38 2582.65,-216.13"/>
<polygon fill="#0000ff" stroke="#0000ff" points="2585.26,-218.51 2590.79,-209.47 2580.83,-213.09 2585.26,-218.51"/>
<text text-anchor="middle" x="2597.94" y="-231.8" font-family="Times,serif" font-size="14.00">no, missing</text>
</g>
<!-- 13 -->
<g id="node42" class="node">
<title>13</title>
<ellipse fill="none" stroke="black" cx="3266.94" cy="-192" rx="100.18" ry="18"/>
<text text-anchor="middle" x="3266.94" y="-188.3" font-family="Times,serif" font-size="14.00">regime_adx&lt;24.0729065</text>
</g>
<!-- 6&#45;&gt;13 -->
<g id="edge41" class="edge">
<title>6&#45;&gt;13</title>
<path fill="none" stroke="#ff0000" d="M3266.94,-260.8C3266.94,-249.16 3266.94,-233.55 3266.94,-220.24"/>
<polygon fill="#ff0000" stroke="#ff0000" points="3270.44,-220.18 3266.94,-210.18 3263.44,-220.18 3270.44,-220.18"/>
<text text-anchor="middle" x="3276.44" y="-231.8" font-family="Times,serif" font-size="14.00">yes</text>
</g>
<!-- 14 -->
<g id="node43" class="node">
<title>14</title>
<ellipse fill="none" stroke="black" cx="3829.94" cy="-192" rx="100.18" ry="18"/>
<text text-anchor="middle" x="3829.94" y="-188.3" font-family="Times,serif" font-size="14.00">regime_adx&lt;18.2739143</text>
</g>
<!-- 6&#45;&gt;14 -->
<g id="edge42" class="edge">
<title>6&#45;&gt;14</title>
<path fill="none" stroke="#0000ff" d="M3343.46,-266.45C3448.56,-250.58 3636.94,-222.14 3745.87,-205.69"/>
<polygon fill="#0000ff" stroke="#0000ff" points="3746.47,-209.14 3755.84,-204.19 3745.43,-202.22 3746.47,-209.14"/>
<text text-anchor="middle" x="3614.94" y="-231.8" font-family="Times,serif" font-size="14.00">no, missing</text>
</g>
<!-- 23 -->
<g id="node34" class="node">
<title>23</title>
<ellipse fill="none" stroke="black" cx="2225.94" cy="-105" rx="83.39" ry="18"/>
<text text-anchor="middle" x="2225.94" y="-101.3" font-family="Times,serif" font-size="14.00">leaf=&#45;0.0276619643</text>
</g>
<!-- 11&#45;&gt;23 -->
<g id="edge33" class="edge">
<title>11&#45;&gt;23</title>
<path fill="none" stroke="#ff0000" d="M2383.91,-175.21C2351.86,-161.17 2304.87,-140.58 2270.48,-125.51"/>
<polygon fill="#ff0000" stroke="#ff0000" points="2271.7,-122.22 2261.13,-121.42 2268.89,-128.64 2271.7,-122.22"/>
<text text-anchor="middle" x="2344.44" y="-144.8" font-family="Times,serif" font-size="14.00">yes</text>
</g>
<!-- 24 -->
<g id="node35" class="node">
<title>24</title>
<ellipse fill="none" stroke="black" cx="2419.94" cy="-105" rx="92.88" ry="18"/>
<text text-anchor="middle" x="2419.94" y="-101.3" font-family="Times,serif" font-size="14.00">Day_Sin&lt;0.433883727</text>
</g>
<!-- 11&#45;&gt;24 -->
<g id="edge34" class="edge">
<title>11&#45;&gt;24</title>
<path fill="none" stroke="#0000ff" d="M2419.94,-173.8C2419.94,-162.16 2419.94,-146.55 2419.94,-133.24"/>
<polygon fill="#0000ff" stroke="#0000ff" points="2423.44,-133.18 2419.94,-123.18 2416.44,-133.18 2423.44,-133.18"/>
<text text-anchor="middle" x="2451.94" y="-144.8" font-family="Times,serif" font-size="14.00">no, missing</text>
</g>
<!-- 25 -->
<g id="node38" class="node">
<title>25</title>
<ellipse fill="none" stroke="black" cx="2610.94" cy="-105" rx="79.89" ry="18"/>
<text text-anchor="middle" x="2610.94" y="-101.3" font-family="Times,serif" font-size="14.00">leaf=0.0182838086</text>
</g>
<!-- 12&#45;&gt;25 -->
<g id="edge37" class="edge">
<title>12&#45;&gt;25</title>
<path fill="none" stroke="#ff0000" d="M2610.94,-173.8C2610.94,-162.16 2610.94,-146.55 2610.94,-133.24"/>
<polygon fill="#ff0000" stroke="#ff0000" points="2614.44,-133.18 2610.94,-123.18 2607.44,-133.18 2614.44,-133.18"/>
<text text-anchor="middle" x="2620.44" y="-144.8" font-family="Times,serif" font-size="14.00">yes</text>
</g>
<!-- 26 -->
<g id="node39" class="node">
<title>26</title>
<ellipse fill="none" stroke="black" cx="2815.94" cy="-105" rx="107.48" ry="18"/>
<text text-anchor="middle" x="2815.94" y="-101.3" font-family="Times,serif" font-size="14.00">MACD_Signal&lt;709.44989</text>
</g>
<!-- 12&#45;&gt;26 -->
<g id="edge38" class="edge">
<title>12&#45;&gt;26</title>
<path fill="none" stroke="#0000ff" d="M2647.12,-176C2680.78,-162.04 2731.16,-141.15 2768.13,-125.83"/>
<polygon fill="#0000ff" stroke="#0000ff" points="2769.8,-128.92 2777.69,-121.86 2767.11,-122.46 2769.8,-128.92"/>
<text text-anchor="middle" x="2757.94" y="-144.8" font-family="Times,serif" font-size="14.00">no, missing</text>
</g>
<!-- 43 -->
<g id="node36" class="node">
<title>43</title>
<ellipse fill="none" stroke="black" cx="2262.94" cy="-18" rx="79.89" ry="18"/>
<text text-anchor="middle" x="2262.94" y="-14.3" font-family="Times,serif" font-size="14.00">leaf=0.0572180636</text>
</g>
<!-- 24&#45;&gt;43 -->
<g id="edge35" class="edge">
<title>24&#45;&gt;43</title>
<path fill="none" stroke="#ff0000" d="M2390.04,-87.81C2364.78,-74.14 2328.46,-54.47 2301.1,-39.66"/>
<polygon fill="#ff0000" stroke="#ff0000" points="2302.66,-36.52 2292.2,-34.84 2299.33,-42.68 2302.66,-36.52"/>
<text text-anchor="middle" x="2360.44" y="-57.8" font-family="Times,serif" font-size="14.00">yes</text>
</g>
<!-- 44 -->
<g id="node37" class="node">
<title>44</title>
<ellipse fill="none" stroke="black" cx="2447.94" cy="-18" rx="87.18" ry="18"/>
<text text-anchor="middle" x="2447.94" y="-14.3" font-family="Times,serif" font-size="14.00">leaf=&#45;0.00630604196</text>
</g>
<!-- 24&#45;&gt;44 -->
<g id="edge36" class="edge">
<title>24&#45;&gt;44</title>
<path fill="none" stroke="#0000ff" d="M2425.61,-86.8C2429.48,-75.05 2434.69,-59.24 2439.1,-45.84"/>
<polygon fill="#0000ff" stroke="#0000ff" points="2442.48,-46.77 2442.29,-36.18 2435.83,-44.58 2442.48,-46.77"/>
<text text-anchor="middle" x="2467.94" y="-57.8" font-family="Times,serif" font-size="14.00">no, missing</text>
</g>
<!-- 45 -->
<g id="node40" class="node">
<title>45</title>
<ellipse fill="none" stroke="black" cx="2635.94" cy="-18" rx="83.39" ry="18"/>
<text text-anchor="middle" x="2635.94" y="-14.3" font-family="Times,serif" font-size="14.00">leaf=&#45;0.0416921526</text>
</g>
<!-- 26&#45;&gt;45 -->
<g id="edge39" class="edge">
<title>26&#45;&gt;45</title>
<path fill="none" stroke="#ff0000" d="M2781.66,-87.81C2752.27,-73.93 2709.8,-53.88 2678.28,-38.99"/>
<polygon fill="#ff0000" stroke="#ff0000" points="2679.42,-35.66 2668.88,-34.55 2676.43,-41.99 2679.42,-35.66"/>
<text text-anchor="middle" x="2746.44" y="-57.8" font-family="Times,serif" font-size="14.00">yes</text>
</g>
<!-- 46 -->
<g id="node41" class="node">
<title>46</title>
<ellipse fill="none" stroke="black" cx="2823.94" cy="-18" rx="87.18" ry="18"/>
<text text-anchor="middle" x="2823.94" y="-14.3" font-family="Times,serif" font-size="14.00">leaf=&#45;0.00550071243</text>
</g>
<!-- 26&#45;&gt;46 -->
<g id="edge40" class="edge">
<title>26&#45;&gt;46</title>
<path fill="none" stroke="#0000ff" d="M2817.56,-86.8C2818.66,-75.16 2820.13,-59.55 2821.38,-46.24"/>
<polygon fill="#0000ff" stroke="#0000ff" points="2824.87,-46.46 2822.33,-36.18 2817.9,-45.8 2824.87,-46.46"/>
<text text-anchor="middle" x="2852.94" y="-57.8" font-family="Times,serif" font-size="14.00">no, missing</text>
</g>
<!-- 27 -->
<g id="node44" class="node">
<title>27</title>
<ellipse fill="none" stroke="black" cx="3161.94" cy="-105" rx="118.88" ry="18"/>
<text text-anchor="middle" x="3161.94" y="-101.3" font-family="Times,serif" font-size="14.00">regime_vol_ratio&lt;0.78643328</text>
</g>
<!-- 13&#45;&gt;27 -->
<g id="edge43" class="edge">
<title>13&#45;&gt;27</title>
<path fill="none" stroke="#ff0000" d="M3246.2,-174.21C3230.38,-161.4 3208.4,-143.61 3190.85,-129.4"/>
<polygon fill="#ff0000" stroke="#ff0000" points="3192.62,-126.33 3182.64,-122.76 3188.21,-131.77 3192.62,-126.33"/>
<text text-anchor="middle" x="3230.44" y="-144.8" font-family="Times,serif" font-size="14.00">yes</text>
</g>
<!-- 28 -->
<g id="node45" class="node">
<title>28</title>
<ellipse fill="none" stroke="black" cx="3398.94" cy="-105" rx="100.18" ry="18"/>
<text text-anchor="middle" x="3398.94" y="-101.3" font-family="Times,serif" font-size="14.00">regime_adx&lt;31.2437286</text>
</g>
<!-- 13&#45;&gt;28 -->
<g id="edge44" class="edge">
<title>13&#45;&gt;28</title>
<path fill="none" stroke="#0000ff" d="M3292.71,-174.41C3313.24,-161.19 3342.18,-142.56 3364.66,-128.07"/>
<polygon fill="#0000ff" stroke="#0000ff" points="3366.73,-130.91 3373.24,-122.55 3362.94,-125.02 3366.73,-130.91"/>
<text text-anchor="middle" x="3372.94" y="-144.8" font-family="Times,serif" font-size="14.00">no, missing</text>
</g>
<!-- 29 -->
<g id="node50" class="node">
<title>29</title>
<ellipse fill="none" stroke="black" cx="3829.94" cy="-105" rx="96.38" ry="18"/>
<text text-anchor="middle" x="3829.94" y="-101.3" font-family="Times,serif" font-size="14.00">Day_Sin&lt;&#45;0.433883727</text>
</g>
<!-- 14&#45;&gt;29 -->
<g id="edge49" class="edge">
<title>14&#45;&gt;29</title>
<path fill="none" stroke="#ff0000" d="M3829.94,-173.8C3829.94,-162.16 3829.94,-146.55 3829.94,-133.24"/>
<polygon fill="#ff0000" stroke="#ff0000" points="3833.44,-133.18 3829.94,-123.18 3826.44,-133.18 3833.44,-133.18"/>
<text text-anchor="middle" x="3839.44" y="-144.8" font-family="Times,serif" font-size="14.00">yes</text>
</g>
<!-- 30 -->
<g id="node51" class="node">
<title>30</title>
<ellipse fill="none" stroke="black" cx="4111.94" cy="-105" rx="53.09" ry="18"/>
<text text-anchor="middle" x="4111.94" y="-101.3" font-family="Times,serif" font-size="14.00">Day_Cos&lt;1</text>
</g>
<!-- 14&#45;&gt;30 -->
<g id="edge50" class="edge">
<title>14&#45;&gt;30</title>
<path fill="none" stroke="#0000ff" d="M3879.06,-176.19C3930.95,-160.55 4012.24,-136.05 4063.77,-120.52"/>
<polygon fill="#0000ff" stroke="#0000ff" points="4064.78,-123.87 4073.34,-117.64 4062.76,-117.17 4064.78,-123.87"/>
<text text-anchor="middle" x="4019.94" y="-144.8" font-family="Times,serif" font-size="14.00">no, missing</text>
</g>
<!-- 47 -->
<g id="node46" class="node">
<title>47</title>
<ellipse fill="none" stroke="black" cx="3008.94" cy="-18" rx="79.89" ry="18"/>
<text text-anchor="middle" x="3008.94" y="-14.3" font-family="Times,serif" font-size="14.00">leaf=0.0217786171</text>
</g>
<!-- 27&#45;&gt;47 -->
<g id="edge45" class="edge">
<title>27&#45;&gt;47</title>
<path fill="none" stroke="#ff0000" d="M3132.08,-87.41C3107.58,-73.8 3072.75,-54.45 3046.38,-39.8"/>
<polygon fill="#ff0000" stroke="#ff0000" points="3047.88,-36.63 3037.44,-34.83 3044.48,-42.75 3047.88,-36.63"/>
<text text-anchor="middle" x="3104.44" y="-57.8" font-family="Times,serif" font-size="14.00">yes</text>
</g>
<!-- 48 -->
<g id="node47" class="node">
<title>48</title>
<ellipse fill="none" stroke="black" cx="3189.94" cy="-18" rx="83.39" ry="18"/>
<text text-anchor="middle" x="3189.94" y="-14.3" font-family="Times,serif" font-size="14.00">leaf=&#45;0.0272568911</text>
</g>
<!-- 27&#45;&gt;48 -->
<g id="edge46" class="edge">
<title>27&#45;&gt;48</title>
<path fill="none" stroke="#0000ff" d="M3167.61,-86.8C3171.48,-75.05 3176.69,-59.24 3181.1,-45.84"/>
<polygon fill="#0000ff" stroke="#0000ff" points="3184.48,-46.77 3184.29,-36.18 3177.83,-44.58 3184.48,-46.77"/>
<text text-anchor="middle" x="3209.94" y="-57.8" font-family="Times,serif" font-size="14.00">no, missing</text>
</g>
<!-- 49 -->
<g id="node48" class="node">
<title>49</title>
<ellipse fill="none" stroke="black" cx="3370.94" cy="-18" rx="79.89" ry="18"/>
<text text-anchor="middle" x="3370.94" y="-14.3" font-family="Times,serif" font-size="14.00">leaf=0.0259016883</text>
</g>
<!-- 28&#45;&gt;49 -->
<g id="edge47" class="edge">
<title>28&#45;&gt;49</title>
<path fill="none" stroke="#ff0000" d="M3393.28,-86.8C3389.41,-75.05 3384.2,-59.24 3379.79,-45.84"/>
<polygon fill="#ff0000" stroke="#ff0000" points="3383.05,-44.58 3376.6,-36.18 3376.41,-46.77 3383.05,-44.58"/>
<text text-anchor="middle" x="3396.44" y="-57.8" font-family="Times,serif" font-size="14.00">yes</text>
</g>
<!-- 50 -->
<g id="node49" class="node">
<title>50</title>
<ellipse fill="none" stroke="black" cx="3558.94" cy="-18" rx="89.88" ry="18"/>
<text text-anchor="middle" x="3558.94" y="-14.3" font-family="Times,serif" font-size="14.00">leaf=&#45;4.85926139e&#45;05</text>
</g>
<!-- 28&#45;&gt;50 -->
<g id="edge48" class="edge">
<title>28&#45;&gt;50</title>
<path fill="none" stroke="#0000ff" d="M3429.41,-87.81C3455.07,-74.18 3491.94,-54.59 3519.79,-39.8"/>
<polygon fill="#0000ff" stroke="#0000ff" points="3521.67,-42.77 3528.86,-34.98 3518.38,-36.58 3521.67,-42.77"/>
<text text-anchor="middle" x="3520.94" y="-57.8" font-family="Times,serif" font-size="14.00">no, missing</text>
</g>
<!-- 51 -->
<g id="node52" class="node">
<title>51</title>
<ellipse fill="none" stroke="black" cx="3749.94" cy="-18" rx="83.39" ry="18"/>
<text text-anchor="middle" x="3749.94" y="-14.3" font-family="Times,serif" font-size="14.00">leaf=&#45;0.0112711545</text>
</g>
<!-- 29&#45;&gt;51 -->
<g id="edge51" class="edge">
<title>29&#45;&gt;51</title>
<path fill="none" stroke="#ff0000" d="M3814.14,-87.21C3802.3,-74.63 3785.94,-57.25 3772.7,-43.18"/>
<polygon fill="#ff0000" stroke="#ff0000" points="3775.12,-40.64 3765.72,-35.76 3770.02,-45.44 3775.12,-40.64"/>
<text text-anchor="middle" x="3804.44" y="-57.8" font-family="Times,serif" font-size="14.00">yes</text>
</g>
<!-- 52 -->
<g id="node53" class="node">
<title>52</title>
<ellipse fill="none" stroke="black" cx="3930.94" cy="-18" rx="79.89" ry="18"/>
<text text-anchor="middle" x="3930.94" y="-14.3" font-family="Times,serif" font-size="14.00">leaf=0.0496666692</text>
</g>
<!-- 29&#45;&gt;52 -->
<g id="edge52" class="edge">
<title>29&#45;&gt;52</title>
<path fill="none" stroke="#0000ff" d="M3849.9,-87.21C3865.21,-74.32 3886.53,-56.38 3903.46,-42.13"/>
<polygon fill="#0000ff" stroke="#0000ff" points="3905.98,-44.59 3911.37,-35.47 3901.47,-39.23 3905.98,-44.59"/>
<text text-anchor="middle" x="3918.94" y="-57.8" font-family="Times,serif" font-size="14.00">no, missing</text>
</g>
<!-- 53 -->
<g id="node54" class="node">
<title>53</title>
<ellipse fill="none" stroke="black" cx="4111.94" cy="-18" rx="83.39" ry="18"/>
<text text-anchor="middle" x="4111.94" y="-14.3" font-family="Times,serif" font-size="14.00">leaf=&#45;0.0122504085</text>
</g>
<!-- 30&#45;&gt;53 -->
<g id="edge53" class="edge">
<title>30&#45;&gt;53</title>
<path fill="none" stroke="#ff0000" d="M4111.94,-86.8C4111.94,-75.16 4111.94,-59.55 4111.94,-46.24"/>
<polygon fill="#ff0000" stroke="#ff0000" points="4115.44,-46.18 4111.94,-36.18 4108.44,-46.18 4115.44,-46.18"/>
<text text-anchor="middle" x="4121.44" y="-57.8" font-family="Times,serif" font-size="14.00">yes</text>
</g>
<!-- 54 -->
<g id="node55" class="node">
<title>54</title>
<ellipse fill="none" stroke="black" cx="4292.94" cy="-18" rx="79.89" ry="18"/>
<text text-anchor="middle" x="4292.94" y="-14.3" font-family="Times,serif" font-size="14.00">leaf=0.0178416576</text>
</g>
<!-- 30&#45;&gt;54 -->
<g id="edge54" class="edge">
<title>30&#45;&gt;54</title>
<path fill="none" stroke="#0000ff" d="M4141.83,-89.96C4171.57,-76 4217.46,-54.45 4250.87,-38.76"/>
<polygon fill="#0000ff" stroke="#0000ff" points="4252.38,-41.92 4259.94,-34.5 4249.4,-35.58 4252.38,-41.92"/>
<text text-anchor="middle" x="4245.94" y="-57.8" font-family="Times,serif" font-size="14.00">no, missing</text>
</g>
</g>
</svg>
