<?xml version="1.0" encoding="UTF-8" standalone="no"?>
<!DOCTYPE svg PUBLIC "-//W3C//DTD SVG 1.1//EN"
 "http://www.w3.org/Graphics/SVG/1.1/DTD/svg11.dtd">
<!-- Generated by graphviz version 2.43.0 (0)
 -->
<!-- Title: %3 Pages: 1 -->
<svg width="3464pt" height="479pt"
 viewBox="0.00 0.00 3463.84 479.00" xmlns="http://www.w3.org/2000/svg" xmlns:xlink="http://www.w3.org/1999/xlink">
<g id="graph0" class="graph" transform="scale(1 1) rotate(0) translate(4 475)">
<title>%3</title>
<polygon fill="white" stroke="transparent" points="-4,4 -4,-475 3459.84,-475 3459.84,4 -4,4"/>
<!-- 0 -->
<g id="node1" class="node">
<title>0</title>
<ellipse fill="none" stroke="black" cx="2050.64" cy="-453" rx="93.68" ry="18"/>
<text text-anchor="middle" x="2050.64" y="-449.3" font-family="Times,serif" font-size="14.00">Vol_Chg&lt;0.542774916</text>
</g>
<!-- 1 -->
<g id="node2" class="node">
<title>1</title>
<ellipse fill="none" stroke="black" cx="1738.64" cy="-366" rx="106.68" ry="18"/>
<text text-anchor="middle" x="1738.64" y="-362.3" font-family="Times,serif" font-size="14.00">Log_Ret&lt;0.000614627847</text>
</g>
<!-- 0&#45;&gt;1 -->
<g id="edge1" class="edge">
<title>0&#45;&gt;1</title>
<path fill="none" stroke="#ff0000" d="M1999.12,-437.96C1945.13,-423.25 1860.23,-400.13 1802.14,-384.3"/>
<polygon fill="#ff0000" stroke="#ff0000" points="1802.9,-380.88 1792.33,-381.63 1801.06,-387.63 1802.9,-380.88"/>
<text text-anchor="middle" x="1923.14" y="-405.8" font-family="Times,serif" font-size="14.00">yes</text>
</g>
<!-- 2 -->
<g id="node3" class="node">
<title>2</title>
<ellipse fill="none" stroke="black" cx="2672.64" cy="-366" rx="137.28" ry="18"/>
<text text-anchor="middle" x="2672.64" y="-362.3" font-family="Times,serif" font-size="14.00">regime_ema_spread&lt;&#45;0.255079329</text>
</g>
<!-- 0&#45;&gt;2 -->
<g id="edge2" class="edge">
<title>0&#45;&gt;2</title>
<path fill="none" stroke="#0000ff" d="M2124.44,-441.92C2235.51,-426.74 2445.96,-397.98 2571.32,-380.85"/>
<polygon fill="#0000ff" stroke="#0000ff" points="2571.88,-384.3 2581.32,-379.48 2570.93,-377.37 2571.88,-384.3"/>
<text text-anchor="middle" x="2431.64" y="-405.8" font-family="Times,serif" font-size="14.00">no, missing</text>
</g>
<!-- 3 -->
<g id="node4" class="node">
<title>3</title>
<ellipse fill="none" stroke="black" cx="669.64" cy="-279" rx="74.99" ry="18"/>
<text text-anchor="middle" x="669.64" y="-275.3" font-family="Times,serif" font-size="14.00">ATR&lt;426.617188</text>
</g>
<!-- 1&#45;&gt;3 -->
<g id="edge3" class="edge">
<title>1&#45;&gt;3</title>
<path fill="none" stroke="#ff0000" d="M1644.25,-357.49C1436.6,-340.98 943.29,-301.76 749.64,-286.36"/>
<polygon fill="#ff0000" stroke="#ff0000" points="749.78,-282.86 739.54,-285.56 749.23,-289.84 749.78,-282.86"/>
<text text-anchor="middle" x="1278.14" y="-318.8" font-family="Times,serif" font-size="14.00">yes</text>
</g>
<!-- 4 -->
<g id="node5" class="node">
<title>4</title>
<ellipse fill="none" stroke="black" cx="1738.64" cy="-279" rx="109.68" ry="18"/>
<text text-anchor="middle" x="1738.64" y="-275.3" font-family="Times,serif" font-size="14.00">Mon_Sin&lt;&#45;2.44929371e&#45;16</text>
</g>
<!-- 1&#45;&gt;4 -->
<g id="edge4" class="edge">
<title>1&#45;&gt;4</title>
<path fill="none" stroke="#0000ff" d="M1738.64,-347.8C1738.64,-336.16 1738.64,-320.55 1738.64,-307.24"/>
<polygon fill="#0000ff" stroke="#0000ff" points="1742.14,-307.18 1738.64,-297.18 1735.14,-307.18 1742.14,-307.18"/>
<text text-anchor="middle" x="1770.64" y="-318.8" font-family="Times,serif" font-size="14.00">no, missing</text>
</g>
<!-- 5 -->
<g id="node32" class="node">
<title>5</title>
<ellipse fill="none" stroke="black" cx="2672.64" cy="-279" rx="78.79" ry="18"/>
<text text-anchor="middle" x="2672.64" y="-275.3" font-family="Times,serif" font-size="14.00">leaf=&#45;0.021701619</text>
</g>
<!-- 2&#45;&gt;5 -->
<g id="edge31" class="edge">
<title>2&#45;&gt;5</title>
<path fill="none" stroke="#ff0000" d="M2672.64,-347.8C2672.64,-336.16 2672.64,-320.55 2672.64,-307.24"/>
<polygon fill="#ff0000" stroke="#ff0000" points="2676.14,-307.18 2672.64,-297.18 2669.14,-307.18 2676.14,-307.18"/>
<text text-anchor="middle" x="2682.14" y="-318.8" font-family="Times,serif" font-size="14.00">yes</text>
</g>
<!-- 6 -->
<g id="node33" class="node">
<title>6</title>
<ellipse fill="none" stroke="black" cx="2916.64" cy="-279" rx="74.99" ry="18"/>
<text text-anchor="middle" x="2916.64" y="-275.3" font-family="Times,serif" font-size="14.00">ATR&lt;1955.59827</text>
</g>
<!-- 2&#45;&gt;6 -->
<g id="edge32" class="edge">
<title>2&#45;&gt;6</title>
<path fill="none" stroke="#0000ff" d="M2718.54,-349.01C2760.63,-334.35 2822.86,-312.67 2866.3,-297.54"/>
<polygon fill="#0000ff" stroke="#0000ff" points="2867.53,-300.82 2875.82,-294.22 2865.23,-294.21 2867.53,-300.82"/>
<text text-anchor="middle" x="2841.64" y="-318.8" font-family="Times,serif" font-size="14.00">no, missing</text>
</g>
<!-- 7 -->
<g id="node6" class="node">
<title>7</title>
<ellipse fill="none" stroke="black" cx="275.64" cy="-192" rx="87.99" ry="18"/>
<text text-anchor="middle" x="275.64" y="-188.3" font-family="Times,serif" font-size="14.00">MACD&lt;&#45;124.595757</text>
</g>
<!-- 3&#45;&gt;7 -->
<g id="edge5" class="edge">
<title>3&#45;&gt;7</title>
<path fill="none" stroke="#ff0000" d="M615.69,-266.36C544.99,-251.11 420.97,-224.35 343.84,-207.71"/>
<polygon fill="#ff0000" stroke="#ff0000" points="344.26,-204.22 333.75,-205.54 342.79,-211.07 344.26,-204.22"/>
<text text-anchor="middle" x="506.14" y="-231.8" font-family="Times,serif" font-size="14.00">yes</text>
</g>
<!-- 8 -->
<g id="node7" class="node">
<title>8</title>
<ellipse fill="none" stroke="black" cx="669.64" cy="-192" rx="74.99" ry="18"/>
<text text-anchor="middle" x="669.64" y="-188.3" font-family="Times,serif" font-size="14.00">ATR&lt;2286.67529</text>
</g>
<!-- 3&#45;&gt;8 -->
<g id="edge6" class="edge">
<title>3&#45;&gt;8</title>
<path fill="none" stroke="#0000ff" d="M669.64,-260.8C669.64,-249.16 669.64,-233.55 669.64,-220.24"/>
<polygon fill="#0000ff" stroke="#0000ff" points="673.14,-220.18 669.64,-210.18 666.14,-220.18 673.14,-220.18"/>
<text text-anchor="middle" x="701.64" y="-231.8" font-family="Times,serif" font-size="14.00">no, missing</text>
</g>
<!-- 9 -->
<g id="node18" class="node">
<title>9</title>
<ellipse fill="none" stroke="black" cx="1649.64" cy="-192" rx="53.09" ry="18"/>
<text text-anchor="middle" x="1649.64" y="-188.3" font-family="Times,serif" font-size="14.00">Day_Cos&lt;1</text>
</g>
<!-- 4&#45;&gt;9 -->
<g id="edge17" class="edge">
<title>4&#45;&gt;9</title>
<path fill="none" stroke="#ff0000" d="M1721.06,-261.21C1707.6,-248.35 1688.88,-230.47 1673.98,-216.24"/>
<polygon fill="#ff0000" stroke="#ff0000" points="1676.24,-213.56 1666.59,-209.18 1671.4,-218.62 1676.24,-213.56"/>
<text text-anchor="middle" x="1709.14" y="-231.8" font-family="Times,serif" font-size="14.00">yes</text>
</g>
<!-- 10 -->
<g id="node19" class="node">
<title>10</title>
<ellipse fill="none" stroke="black" cx="1978.64" cy="-192" rx="132.68" ry="18"/>
<text text-anchor="middle" x="1978.64" y="-188.3" font-family="Times,serif" font-size="14.00">regime_vol_trend&lt;&#45;0.0017632778</text>
</g>
<!-- 4&#45;&gt;10 -->
<g id="edge18" class="edge">
<title>4&#45;&gt;10</title>
<path fill="none" stroke="#0000ff" d="M1782.66,-262.41C1822.33,-248.36 1880.83,-227.64 1923.58,-212.5"/>
<polygon fill="#0000ff" stroke="#0000ff" points="1925.01,-215.71 1933.27,-209.07 1922.68,-209.11 1925.01,-215.71"/>
<text text-anchor="middle" x="1905.64" y="-231.8" font-family="Times,serif" font-size="14.00">no, missing</text>
</g>
<!-- 13 -->
<g id="node8" class="node">
<title>13</title>
<ellipse fill="none" stroke="black" cx="78.64" cy="-105" rx="78.79" ry="18"/>
<text text-anchor="middle" x="78.64" y="-101.3" font-family="Times,serif" font-size="14.00">leaf=&#45;0.019895222</text>
</g>
<!-- 7&#45;&gt;13 -->
<g id="edge7" class="edge">
<title>7&#45;&gt;13</title>
<path fill="none" stroke="#ff0000" d="M239.51,-175.41C206.82,-161.3 158.55,-140.48 123.42,-125.32"/>
<polygon fill="#ff0000" stroke="#ff0000" points="124.45,-121.95 113.88,-121.21 121.68,-128.38 124.45,-121.95"/>
<text text-anchor="middle" x="199.14" y="-144.8" font-family="Times,serif" font-size="14.00">yes</text>
</g>
<!-- 14 -->
<g id="node9" class="node">
<title>14</title>
<ellipse fill="none" stroke="black" cx="275.64" cy="-105" rx="100.98" ry="18"/>
<text text-anchor="middle" x="275.64" y="-101.3" font-family="Times,serif" font-size="14.00">Log_Ret&lt;&#45;0.0118020689</text>
</g>
<!-- 7&#45;&gt;14 -->
<g id="edge8" class="edge">
<title>7&#45;&gt;14</title>
<path fill="none" stroke="#0000ff" d="M275.64,-173.8C275.64,-162.16 275.64,-146.55 275.64,-133.24"/>
<polygon fill="#0000ff" stroke="#0000ff" points="279.14,-133.18 275.64,-123.18 272.14,-133.18 279.14,-133.18"/>
<text text-anchor="middle" x="307.64" y="-144.8" font-family="Times,serif" font-size="14.00">no, missing</text>
</g>
<!-- 15 -->
<g id="node12" class="node">
<title>15</title>
<ellipse fill="none" stroke="black" cx="581.64" cy="-105" rx="133.78" ry="18"/>
<text text-anchor="middle" x="581.64" y="-101.3" font-family="Times,serif" font-size="14.00">regime_vol_trend&lt;0.00593745476</text>
</g>
<!-- 8&#45;&gt;15 -->
<g id="edge11" class="edge">
<title>8&#45;&gt;15</title>
<path fill="none" stroke="#ff0000" d="M652.26,-174.21C639.2,-161.6 621.15,-144.16 606.56,-130.07"/>
<polygon fill="#ff0000" stroke="#ff0000" points="608.92,-127.48 599.29,-123.05 604.06,-132.51 608.92,-127.48"/>
<text text-anchor="middle" x="641.14" y="-144.8" font-family="Times,serif" font-size="14.00">yes</text>
</g>
<!-- 16 -->
<g id="node13" class="node">
<title>16</title>
<ellipse fill="none" stroke="black" cx="867.64" cy="-105" rx="133.78" ry="18"/>
<text text-anchor="middle" x="867.64" y="-101.3" font-family="Times,serif" font-size="14.00">regime_vol_trend&lt;0.00593745476</text>
</g>
<!-- 8&#45;&gt;16 -->
<g id="edge12" class="edge">
<title>8&#45;&gt;16</title>
<path fill="none" stroke="#0000ff" d="M704.59,-176C736.79,-162.17 784.84,-141.55 820.45,-126.26"/>
<polygon fill="#0000ff" stroke="#0000ff" points="821.87,-129.46 829.68,-122.3 819.11,-123.03 821.87,-129.46"/>
<text text-anchor="middle" x="812.64" y="-144.8" font-family="Times,serif" font-size="14.00">no, missing</text>
</g>
<!-- 25 -->
<g id="node10" class="node">
<title>25</title>
<ellipse fill="none" stroke="black" cx="97.64" cy="-18" rx="84.49" ry="18"/>
<text text-anchor="middle" x="97.64" y="-14.3" font-family="Times,serif" font-size="14.00">leaf=0.00460118195</text>
</g>
<!-- 14&#45;&gt;25 -->
<g id="edge9" class="edge">
<title>14&#45;&gt;25</title>
<path fill="none" stroke="#ff0000" d="M242.16,-88.01C213.14,-74.15 171,-54.03 139.71,-39.09"/>
<polygon fill="#ff0000" stroke="#ff0000" points="140.9,-35.78 130.37,-34.63 137.89,-42.1 140.9,-35.78"/>
<text text-anchor="middle" x="207.14" y="-57.8" font-family="Times,serif" font-size="14.00">yes</text>
</g>
<!-- 26 -->
<g id="node11" class="node">
<title>26</title>
<ellipse fill="none" stroke="black" cx="275.64" cy="-18" rx="75.29" ry="18"/>
<text text-anchor="middle" x="275.64" y="-14.3" font-family="Times,serif" font-size="14.00">leaf=0.051593788</text>
</g>
<!-- 14&#45;&gt;26 -->
<g id="edge10" class="edge">
<title>14&#45;&gt;26</title>
<path fill="none" stroke="#0000ff" d="M275.64,-86.8C275.64,-75.16 275.64,-59.55 275.64,-46.24"/>
<polygon fill="#0000ff" stroke="#0000ff" points="279.14,-46.18 275.64,-36.18 272.14,-46.18 279.14,-46.18"/>
<text text-anchor="middle" x="307.64" y="-57.8" font-family="Times,serif" font-size="14.00">no, missing</text>
</g>
<!-- 27 -->
<g id="node14" class="node">
<title>27</title>
<ellipse fill="none" stroke="black" cx="452.64" cy="-18" rx="83.39" ry="18"/>
<text text-anchor="middle" x="452.64" y="-14.3" font-family="Times,serif" font-size="14.00">leaf=&#45;0.0115046669</text>
</g>
<!-- 15&#45;&gt;27 -->
<g id="edge13" class="edge">
<title>15&#45;&gt;27</title>
<path fill="none" stroke="#ff0000" d="M556.16,-87.21C536.15,-74.02 508.12,-55.56 486.28,-41.16"/>
<polygon fill="#ff0000" stroke="#ff0000" points="487.91,-38.05 477.64,-35.47 484.06,-43.89 487.91,-38.05"/>
<text text-anchor="middle" x="535.14" y="-57.8" font-family="Times,serif" font-size="14.00">yes</text>
</g>
<!-- 28 -->
<g id="node15" class="node">
<title>28</title>
<ellipse fill="none" stroke="black" cx="633.64" cy="-18" rx="79.89" ry="18"/>
<text text-anchor="middle" x="633.64" y="-14.3" font-family="Times,serif" font-size="14.00">leaf=0.0142576396</text>
</g>
<!-- 15&#45;&gt;28 -->
<g id="edge14" class="edge">
<title>15&#45;&gt;28</title>
<path fill="none" stroke="#0000ff" d="M592.17,-86.8C599.54,-74.74 609.54,-58.4 617.87,-44.79"/>
<polygon fill="#0000ff" stroke="#0000ff" points="621.08,-46.24 623.31,-35.89 615.11,-42.59 621.08,-46.24"/>
<text text-anchor="middle" x="643.64" y="-57.8" font-family="Times,serif" font-size="14.00">no, missing</text>
</g>
<!-- 29 -->
<g id="node16" class="node">
<title>29</title>
<ellipse fill="none" stroke="black" cx="811.64" cy="-18" rx="79.89" ry="18"/>
<text text-anchor="middle" x="811.64" y="-14.3" font-family="Times,serif" font-size="14.00">leaf=0.0253781974</text>
</g>
<!-- 16&#45;&gt;29 -->
<g id="edge15" class="edge">
<title>16&#45;&gt;29</title>
<path fill="none" stroke="#ff0000" d="M856.31,-86.8C848.29,-74.62 837.4,-58.09 828.38,-44.4"/>
<polygon fill="#ff0000" stroke="#ff0000" points="831.19,-42.31 822.77,-35.89 825.35,-46.16 831.19,-42.31"/>
<text text-anchor="middle" x="853.14" y="-57.8" font-family="Times,serif" font-size="14.00">yes</text>
</g>
<!-- 30 -->
<g id="node17" class="node">
<title>30</title>
<ellipse fill="none" stroke="black" cx="992.64" cy="-18" rx="83.39" ry="18"/>
<text text-anchor="middle" x="992.64" y="-14.3" font-family="Times,serif" font-size="14.00">leaf=&#45;0.0091499975</text>
</g>
<!-- 16&#45;&gt;30 -->
<g id="edge16" class="edge">
<title>16&#45;&gt;30</title>
<path fill="none" stroke="#0000ff" d="M892.34,-87.21C911.72,-74.02 938.88,-55.56 960.05,-41.16"/>
<polygon fill="#0000ff" stroke="#0000ff" points="962.12,-43.99 968.42,-35.47 958.19,-38.2 962.12,-43.99"/>
<text text-anchor="middle" x="969.64" y="-57.8" font-family="Times,serif" font-size="14.00">no, missing</text>
</g>
<!-- 17 -->
<g id="node20" class="node">
<title>17</title>
<ellipse fill="none" stroke="black" cx="1355.64" cy="-105" rx="87.99" ry="18"/>
<text text-anchor="middle" x="1355.64" y="-101.3" font-family="Times,serif" font-size="14.00">MACD&lt;&#45;1067.62842</text>
</g>
<!-- 9&#45;&gt;17 -->
<g id="edge19" class="edge">
<title>9&#45;&gt;17</title>
<path fill="none" stroke="#ff0000" d="M1610.6,-179.71C1560.25,-165.16 1472.24,-139.71 1413.95,-122.86"/>
<polygon fill="#ff0000" stroke="#ff0000" points="1414.72,-119.44 1404.14,-120.02 1412.78,-126.16 1414.72,-119.44"/>
<text text-anchor="middle" x="1530.14" y="-144.8" font-family="Times,serif" font-size="14.00">yes</text>
</g>
<!-- 18 -->
<g id="node21" class="node">
<title>18</title>
<ellipse fill="none" stroke="black" cx="1649.64" cy="-105" rx="108.58" ry="18"/>
<text text-anchor="middle" x="1649.64" y="-101.3" font-family="Times,serif" font-size="14.00">Mon_Cos&lt;6.12323426e&#45;17</text>
</g>
<!-- 9&#45;&gt;18 -->
<g id="edge20" class="edge">
<title>9&#45;&gt;18</title>
<path fill="none" stroke="#0000ff" d="M1649.64,-173.8C1649.64,-162.16 1649.64,-146.55 1649.64,-133.24"/>
<polygon fill="#0000ff" stroke="#0000ff" points="1653.14,-133.18 1649.64,-123.18 1646.14,-133.18 1653.14,-133.18"/>
<text text-anchor="middle" x="1681.64" y="-144.8" font-family="Times,serif" font-size="14.00">no, missing</text>
</g>
<!-- 19 -->
<g id="node26" class="node">
<title>19</title>
<ellipse fill="none" stroke="black" cx="1978.64" cy="-105" rx="137.28" ry="18"/>
<text text-anchor="middle" x="1978.64" y="-101.3" font-family="Times,serif" font-size="14.00">regime_vol_trend&lt;&#45;0.00215533748</text>
</g>
<!-- 10&#45;&gt;19 -->
<g id="edge25" class="edge">
<title>10&#45;&gt;19</title>
<path fill="none" stroke="#ff0000" d="M1978.64,-173.8C1978.64,-162.16 1978.64,-146.55 1978.64,-133.24"/>
<polygon fill="#ff0000" stroke="#ff0000" points="1982.14,-133.18 1978.64,-123.18 1975.14,-133.18 1982.14,-133.18"/>
<text text-anchor="middle" x="1988.14" y="-144.8" font-family="Times,serif" font-size="14.00">yes</text>
</g>
<!-- 20 -->
<g id="node27" class="node">
<title>20</title>
<ellipse fill="none" stroke="black" cx="2287.64" cy="-105" rx="97.48" ry="18"/>
<text text-anchor="middle" x="2287.64" y="-101.3" font-family="Times,serif" font-size="14.00">Log_Ret&lt;0.0100011025</text>
</g>
<!-- 10&#45;&gt;20 -->
<g id="edge26" class="edge">
<title>10&#45;&gt;20</title>
<path fill="none" stroke="#0000ff" d="M2034.6,-175.61C2088.58,-160.76 2170.1,-138.33 2225.93,-122.98"/>
<polygon fill="#0000ff" stroke="#0000ff" points="2226.99,-126.32 2235.7,-120.29 2225.13,-119.57 2226.99,-126.32"/>
<text text-anchor="middle" x="2184.64" y="-144.8" font-family="Times,serif" font-size="14.00">no, missing</text>
</g>
<!-- 31 -->
<g id="node22" class="node">
<title>31</title>
<ellipse fill="none" stroke="black" cx="1173.64" cy="-18" rx="79.89" ry="18"/>
<text text-anchor="middle" x="1173.64" y="-14.3" font-family="Times,serif" font-size="14.00">leaf=0.0608955026</text>
</g>
<!-- 17&#45;&gt;31 -->
<g id="edge21" class="edge">
<title>17&#45;&gt;31</title>
<path fill="none" stroke="#ff0000" d="M1321.84,-88.21C1291.9,-74.23 1248.07,-53.76 1215.84,-38.71"/>
<polygon fill="#ff0000" stroke="#ff0000" points="1217.2,-35.48 1206.65,-34.42 1214.23,-41.82 1217.2,-35.48"/>
<text text-anchor="middle" x="1285.14" y="-57.8" font-family="Times,serif" font-size="14.00">yes</text>
</g>
<!-- 32 -->
<g id="node23" class="node">
<title>32</title>
<ellipse fill="none" stroke="black" cx="1355.64" cy="-18" rx="84.49" ry="18"/>
<text text-anchor="middle" x="1355.64" y="-14.3" font-family="Times,serif" font-size="14.00">leaf=0.00458639441</text>
</g>
<!-- 17&#45;&gt;32 -->
<g id="edge22" class="edge">
<title>17&#45;&gt;32</title>
<path fill="none" stroke="#0000ff" d="M1355.64,-86.8C1355.64,-75.16 1355.64,-59.55 1355.64,-46.24"/>
<polygon fill="#0000ff" stroke="#0000ff" points="1359.14,-46.18 1355.64,-36.18 1352.14,-46.18 1359.14,-46.18"/>
<text text-anchor="middle" x="1387.64" y="-57.8" font-family="Times,serif" font-size="14.00">no, missing</text>
</g>
<!-- 33 -->
<g id="node24" class="node">
<title>33</title>
<ellipse fill="none" stroke="black" cx="1541.64" cy="-18" rx="83.39" ry="18"/>
<text text-anchor="middle" x="1541.64" y="-14.3" font-family="Times,serif" font-size="14.00">leaf=&#45;0.0526680611</text>
</g>
<!-- 18&#45;&gt;33 -->
<g id="edge23" class="edge">
<title>18&#45;&gt;33</title>
<path fill="none" stroke="#ff0000" d="M1628.31,-87.21C1611.78,-74.2 1588.72,-56.05 1570.54,-41.74"/>
<polygon fill="#ff0000" stroke="#ff0000" points="1572.59,-38.9 1562.57,-35.47 1568.26,-44.4 1572.59,-38.9"/>
<text text-anchor="middle" x="1612.14" y="-57.8" font-family="Times,serif" font-size="14.00">yes</text>
</g>
<!-- 34 -->
<g id="node25" class="node">
<title>34</title>
<ellipse fill="none" stroke="black" cx="1729.64" cy="-18" rx="87.18" ry="18"/>
<text text-anchor="middle" x="1729.64" y="-14.3" font-family="Times,serif" font-size="14.00">leaf=&#45;0.00376819493</text>
</g>
<!-- 18&#45;&gt;34 -->
<g id="edge24" class="edge">
<title>18&#45;&gt;34</title>
<path fill="none" stroke="#0000ff" d="M1665.83,-86.8C1677.62,-74.27 1693.75,-57.14 1706.84,-43.23"/>
<polygon fill="#0000ff" stroke="#0000ff" points="1709.45,-45.57 1713.75,-35.89 1704.35,-40.77 1709.45,-45.57"/>
<text text-anchor="middle" x="1726.64" y="-57.8" font-family="Times,serif" font-size="14.00">no, missing</text>
</g>
<!-- 35 -->
<g id="node28" class="node">
<title>35</title>
<ellipse fill="none" stroke="black" cx="1921.64" cy="-18" rx="87.18" ry="18"/>
<text text-anchor="middle" x="1921.64" y="-14.3" font-family="Times,serif" font-size="14.00">leaf=&#45;0.00559343165</text>
</g>
<!-- 19&#45;&gt;35 -->
<g id="edge27" class="edge">
<title>19&#45;&gt;35</title>
<path fill="none" stroke="#ff0000" d="M1967.11,-86.8C1958.94,-74.62 1947.86,-58.09 1938.67,-44.4"/>
<polygon fill="#ff0000" stroke="#ff0000" points="1941.44,-42.24 1932.97,-35.89 1935.63,-46.14 1941.44,-42.24"/>
<text text-anchor="middle" x="1963.14" y="-57.8" font-family="Times,serif" font-size="14.00">yes</text>
</g>
<!-- 36 -->
<g id="node29" class="node">
<title>36</title>
<ellipse fill="none" stroke="black" cx="2106.64" cy="-18" rx="79.89" ry="18"/>
<text text-anchor="middle" x="2106.64" y="-14.3" font-family="Times,serif" font-size="14.00">leaf=0.0556799434</text>
</g>
<!-- 19&#45;&gt;36 -->
<g id="edge28" class="edge">
<title>19&#45;&gt;36</title>
<path fill="none" stroke="#0000ff" d="M2003.93,-87.21C2023.91,-73.94 2051.95,-55.32 2073.69,-40.88"/>
<polygon fill="#0000ff" stroke="#0000ff" points="2075.88,-43.63 2082.28,-35.18 2072.01,-37.8 2075.88,-43.63"/>
<text text-anchor="middle" x="2082.64" y="-57.8" font-family="Times,serif" font-size="14.00">no, missing</text>
</g>
<!-- 37 -->
<g id="node30" class="node">
<title>37</title>
<ellipse fill="none" stroke="black" cx="2287.64" cy="-18" rx="83.39" ry="18"/>
<text text-anchor="middle" x="2287.64" y="-14.3" font-family="Times,serif" font-size="14.00">leaf=&#45;0.0493075587</text>
</g>
<!-- 20&#45;&gt;37 -->
<g id="edge29" class="edge">
<title>20&#45;&gt;37</title>
<path fill="none" stroke="#ff0000" d="M2287.64,-86.8C2287.64,-75.16 2287.64,-59.55 2287.64,-46.24"/>
<polygon fill="#ff0000" stroke="#ff0000" points="2291.14,-46.18 2287.64,-36.18 2284.14,-46.18 2291.14,-46.18"/>
<text text-anchor="middle" x="2297.14" y="-57.8" font-family="Times,serif" font-size="14.00">yes</text>
</g>
<!-- 38 -->
<g id="node31" class="node">
<title>38</title>
<ellipse fill="none" stroke="black" cx="2471.64" cy="-18" rx="83.39" ry="18"/>
<text text-anchor="middle" x="2471.64" y="-14.3" font-family="Times,serif" font-size="14.00">leaf=&#45;0.0128516257</text>
</g>
<!-- 20&#45;&gt;38 -->
<g id="edge30" class="edge">
<title>20&#45;&gt;38</title>
<path fill="none" stroke="#0000ff" d="M2322.25,-88.01C2352.48,-74.05 2396.46,-53.73 2428.88,-38.75"/>
<polygon fill="#0000ff" stroke="#0000ff" points="2430.51,-41.86 2438.12,-34.49 2427.57,-35.5 2430.51,-41.86"/>
<text text-anchor="middle" x="2423.64" y="-57.8" font-family="Times,serif" font-size="14.00">no, missing</text>
</g>
<!-- 11 -->
<g id="node34" class="node">
<title>11</title>
<ellipse fill="none" stroke="black" cx="2916.64" cy="-192" rx="74.99" ry="18"/>
<text text-anchor="middle" x="2916.64" y="-188.3" font-family="Times,serif" font-size="14.00">ATR&lt;846.041382</text>
</g>
<!-- 6&#45;&gt;11 -->
<g id="edge33" class="edge">
<title>6&#45;&gt;11</title>
<path fill="none" stroke="#ff0000" d="M2916.64,-260.8C2916.64,-249.16 2916.64,-233.55 2916.64,-220.24"/>
<polygon fill="#ff0000" stroke="#ff0000" points="2920.14,-220.18 2916.64,-210.18 2913.14,-220.18 2920.14,-220.18"/>
<text text-anchor="middle" x="2926.14" y="-231.8" font-family="Times,serif" font-size="14.00">yes</text>
</g>
<!-- 12 -->
<g id="node35" class="node">
<title>12</title>
<ellipse fill="none" stroke="black" cx="3191.64" cy="-192" rx="106.68" ry="18"/>
<text text-anchor="middle" x="3191.64" y="-188.3" font-family="Times,serif" font-size="14.00">MACD_Hist&lt;&#45;431.456085</text>
</g>
<!-- 6&#45;&gt;12 -->
<g id="edge34" class="edge">
<title>6&#45;&gt;12</title>
<path fill="none" stroke="#0000ff" d="M2960.83,-264.34C3007.61,-249.88 3081.69,-226.99 3133.26,-211.05"/>
<polygon fill="#0000ff" stroke="#0000ff" points="3134.41,-214.35 3142.93,-208.06 3132.35,-207.66 3134.41,-214.35"/>
<text text-anchor="middle" x="3102.64" y="-231.8" font-family="Times,serif" font-size="14.00">no, missing</text>
</g>
<!-- 21 -->
<g id="node36" class="node">
<title>21</title>
<ellipse fill="none" stroke="black" cx="2829.64" cy="-105" rx="97.48" ry="18"/>
<text text-anchor="middle" x="2829.64" y="-101.3" font-family="Times,serif" font-size="14.00">Log_Ret&lt;0.0125312461</text>
</g>
<!-- 11&#45;&gt;21 -->
<g id="edge35" class="edge">
<title>11&#45;&gt;21</title>
<path fill="none" stroke="#ff0000" d="M2899.45,-174.21C2886.47,-161.52 2868.47,-143.93 2854,-129.79"/>
<polygon fill="#ff0000" stroke="#ff0000" points="2856.39,-127.24 2846.8,-122.76 2851.5,-132.25 2856.39,-127.24"/>
<text text-anchor="middle" x="2888.14" y="-144.8" font-family="Times,serif" font-size="14.00">yes</text>
</g>
<!-- 22 -->
<g id="node37" class="node">
<title>22</title>
<ellipse fill="none" stroke="black" cx="3019.64" cy="-105" rx="74.19" ry="18"/>
<text text-anchor="middle" x="3019.64" y="-101.3" font-family="Times,serif" font-size="14.00">BBW&lt;0.1264797</text>
</g>
<!-- 11&#45;&gt;22 -->
<g id="edge36" class="edge">
<title>11&#45;&gt;22</title>
<path fill="none" stroke="#0000ff" d="M2936.5,-174.61C2952.08,-161.76 2973.95,-143.71 2991.36,-129.34"/>
<polygon fill="#0000ff" stroke="#0000ff" points="2994.01,-131.69 2999.49,-122.63 2989.55,-126.29 2994.01,-131.69"/>
<text text-anchor="middle" x="3006.64" y="-144.8" font-family="Times,serif" font-size="14.00">no, missing</text>
</g>
<!-- 23 -->
<g id="node42" class="node">
<title>23</title>
<ellipse fill="none" stroke="black" cx="3191.64" cy="-105" rx="79.89" ry="18"/>
<text text-anchor="middle" x="3191.64" y="-101.3" font-family="Times,serif" font-size="14.00">leaf=0.0227715634</text>
</g>
<!-- 12&#45;&gt;23 -->
<g id="edge41" class="edge">
<title>12&#45;&gt;23</title>
<path fill="none" stroke="#ff0000" d="M3191.64,-173.8C3191.64,-162.16 3191.64,-146.55 3191.64,-133.24"/>
<polygon fill="#ff0000" stroke="#ff0000" points="3195.14,-133.18 3191.64,-123.18 3188.14,-133.18 3195.14,-133.18"/>
<text text-anchor="middle" x="3201.14" y="-144.8" font-family="Times,serif" font-size="14.00">yes</text>
</g>
<!-- 24 -->
<g id="node43" class="node">
<title>24</title>
<ellipse fill="none" stroke="black" cx="3372.64" cy="-105" rx="83.39" ry="18"/>
<text text-anchor="middle" x="3372.64" y="-101.3" font-family="Times,serif" font-size="14.00">leaf=&#45;0.0385360047</text>
</g>
<!-- 12&#45;&gt;24 -->
<g id="edge42" class="edge">
<title>12&#45;&gt;24</title>
<path fill="none" stroke="#0000ff" d="M3226.11,-174.81C3255.67,-160.93 3298.38,-140.88 3330.07,-125.99"/>
<polygon fill="#0000ff" stroke="#0000ff" points="3331.96,-128.97 3339.52,-121.55 3328.98,-122.64 3331.96,-128.97"/>
<text text-anchor="middle" x="3325.64" y="-144.8" font-family="Times,serif" font-size="14.00">no, missing</text>
</g>
<!-- 39 -->
<g id="node38" class="node">
<title>39</title>
<ellipse fill="none" stroke="black" cx="2652.64" cy="-18" rx="79.89" ry="18"/>
<text text-anchor="middle" x="2652.64" y="-14.3" font-family="Times,serif" font-size="14.00">leaf=0.0270977207</text>
</g>
<!-- 21&#45;&gt;39 -->
<g id="edge37" class="edge">
<title>21&#45;&gt;39</title>
<path fill="none" stroke="#ff0000" d="M2796.35,-88.01C2767.4,-74.11 2725.33,-53.9 2694.18,-38.95"/>
<polygon fill="#ff0000" stroke="#ff0000" points="2695.42,-35.66 2684.89,-34.49 2692.39,-41.97 2695.42,-35.66"/>
<text text-anchor="middle" x="2762.14" y="-57.8" font-family="Times,serif" font-size="14.00">yes</text>
</g>
<!-- 40 -->
<g id="node39" class="node">
<title>40</title>
<ellipse fill="none" stroke="black" cx="2833.64" cy="-18" rx="83.39" ry="18"/>
<text text-anchor="middle" x="2833.64" y="-14.3" font-family="Times,serif" font-size="14.00">leaf=&#45;0.0209475923</text>
</g>
<!-- 21&#45;&gt;40 -->
<g id="edge38" class="edge">
<title>21&#45;&gt;40</title>
<path fill="none" stroke="#0000ff" d="M2830.45,-86.8C2831,-75.16 2831.73,-59.55 2832.36,-46.24"/>
<polygon fill="#0000ff" stroke="#0000ff" points="2835.86,-46.33 2832.83,-36.18 2828.87,-46 2835.86,-46.33"/>
<text text-anchor="middle" x="2864.64" y="-57.8" font-family="Times,serif" font-size="14.00">no, missing</text>
</g>
<!-- 41 -->
<g id="node40" class="node">
<title>41</title>
<ellipse fill="none" stroke="black" cx="3019.64" cy="-18" rx="84.49" ry="18"/>
<text text-anchor="middle" x="3019.64" y="-14.3" font-family="Times,serif" font-size="14.00">leaf=0.00167809613</text>
</g>
<!-- 22&#45;&gt;41 -->
<g id="edge39" class="edge">
<title>22&#45;&gt;41</title>
<path fill="none" stroke="#ff0000" d="M3019.64,-86.8C3019.64,-75.16 3019.64,-59.55 3019.64,-46.24"/>
<polygon fill="#ff0000" stroke="#ff0000" points="3023.14,-46.18 3019.64,-36.18 3016.14,-46.18 3023.14,-46.18"/>
<text text-anchor="middle" x="3029.14" y="-57.8" font-family="Times,serif" font-size="14.00">yes</text>
</g>
<!-- 42 -->
<g id="node41" class="node">
<title>42</title>
<ellipse fill="none" stroke="black" cx="3201.64" cy="-18" rx="79.89" ry="18"/>
<text text-anchor="middle" x="3201.64" y="-14.3" font-family="Times,serif" font-size="14.00">leaf=0.0614193268</text>
</g>
<!-- 22&#45;&gt;42 -->
<g id="edge40" class="edge">
<title>22&#45;&gt;42</title>
<path fill="none" stroke="#0000ff" d="M3052.18,-88.8C3082.05,-74.85 3126.5,-54.09 3159.16,-38.84"/>
<polygon fill="#0000ff" stroke="#0000ff" points="3160.89,-41.9 3168.46,-34.5 3157.92,-35.56 3160.89,-41.9"/>
<text text-anchor="middle" x="3153.64" y="-57.8" font-family="Times,serif" font-size="14.00">no, missing</text>
</g>
</g>
</svg>
