<?xml version="1.0" encoding="UTF-8" standalone="no"?>
<!DOCTYPE svg PUBLIC "-//W3C//DTD SVG 1.1//EN"
 "http://www.w3.org/Graphics/SVG/1.1/DTD/svg11.dtd">
<!-- Generated by graphviz version 2.43.0 (0)
 -->
<!-- Title: %3 Pages: 1 -->
<svg width="2120pt" height="479pt"
 viewBox="0.00 0.00 2120.49 479.00" xmlns="http://www.w3.org/2000/svg" xmlns:xlink="http://www.w3.org/1999/xlink">
<g id="graph0" class="graph" transform="scale(1 1) rotate(0) translate(4 475)">
<title>%3</title>
<polygon fill="white" stroke="transparent" points="-4,4 -4,-475 2116.49,-475 2116.49,4 -4,4"/>
<!-- 0 -->
<g id="node1" class="node">
<title>0</title>
<ellipse fill="none" stroke="black" cx="854.39" cy="-453" rx="123.48" ry="18"/>
<text text-anchor="middle" x="854.39" y="-449.3" font-family="Times,serif" font-size="14.00">regime_vol_ratio&lt;0.792340517</text>
</g>
<!-- 1 -->
<g id="node2" class="node">
<title>1</title>
<ellipse fill="none" stroke="black" cx="728.39" cy="-366" rx="106.68" ry="18"/>
<text text-anchor="middle" x="728.39" y="-362.3" font-family="Times,serif" font-size="14.00">D_EMA200&lt;0.747741222</text>
</g>
<!-- 0&#45;&gt;1 -->
<g id="edge1" class="edge">
<title>0&#45;&gt;1</title>
<path fill="none" stroke="#ff0000" d="M829.5,-435.21C810.09,-422.11 782.94,-403.8 761.66,-389.44"/>
<polygon fill="#ff0000" stroke="#ff0000" points="763.48,-386.45 753.24,-383.76 759.57,-392.25 763.48,-386.45"/>
<text text-anchor="middle" x="808.89" y="-405.8" font-family="Times,serif" font-size="14.00">yes</text>
</g>
<!-- 2 -->
<g id="node3" class="node">
<title>2</title>
<ellipse fill="none" stroke="black" cx="1046.39" cy="-366" rx="123.48" ry="18"/>
<text text-anchor="middle" x="1046.39" y="-362.3" font-family="Times,serif" font-size="14.00">regime_vol_ratio&lt;0.811057627</text>
</g>
<!-- 0&#45;&gt;2 -->
<g id="edge2" class="edge">
<title>0&#45;&gt;2</title>
<path fill="none" stroke="#0000ff" d="M891.41,-435.61C922.46,-421.87 966.93,-402.18 1000.29,-387.41"/>
<polygon fill="#0000ff" stroke="#0000ff" points="1002.09,-390.44 1009.81,-383.19 999.25,-384.04 1002.09,-390.44"/>
<text text-anchor="middle" x="994.39" y="-405.8" font-family="Times,serif" font-size="14.00">no, missing</text>
</g>
<!-- 3 -->
<g id="node4" class="node">
<title>3</title>
<ellipse fill="none" stroke="black" cx="379.39" cy="-279" rx="103.98" ry="18"/>
<text text-anchor="middle" x="379.39" y="-275.3" font-family="Times,serif" font-size="14.00">MACD_Hist&lt;321.458649</text>
</g>
<!-- 1&#45;&gt;3 -->
<g id="edge3" class="edge">
<title>1&#45;&gt;3</title>
<path fill="none" stroke="#ff0000" d="M670.37,-350.87C608.79,-335.87 511.6,-312.2 446.7,-296.39"/>
<polygon fill="#ff0000" stroke="#ff0000" points="447.52,-292.99 436.97,-294.02 445.86,-299.79 447.52,-292.99"/>
<text text-anchor="middle" x="584.89" y="-318.8" font-family="Times,serif" font-size="14.00">yes</text>
</g>
<!-- 4 -->
<g id="node5" class="node">
<title>4</title>
<ellipse fill="none" stroke="black" cx="728.39" cy="-279" rx="137.28" ry="18"/>
<text text-anchor="middle" x="728.39" y="-275.3" font-family="Times,serif" font-size="14.00">regime_ema_spread&lt;&#45;0.247444794</text>
</g>
<!-- 1&#45;&gt;4 -->
<g id="edge4" class="edge">
<title>1&#45;&gt;4</title>
<path fill="none" stroke="#0000ff" d="M728.39,-347.8C728.39,-336.16 728.39,-320.55 728.39,-307.24"/>
<polygon fill="#0000ff" stroke="#0000ff" points="731.89,-307.18 728.39,-297.18 724.89,-307.18 731.89,-307.18"/>
<text text-anchor="middle" x="760.39" y="-318.8" font-family="Times,serif" font-size="14.00">no, missing</text>
</g>
<!-- 5 -->
<g id="node18" class="node">
<title>5</title>
<ellipse fill="none" stroke="black" cx="1046.39" cy="-279" rx="97.48" ry="18"/>
<text text-anchor="middle" x="1046.39" y="-275.3" font-family="Times,serif" font-size="14.00">Log_Ret&lt;0.0139052384</text>
</g>
<!-- 2&#45;&gt;5 -->
<g id="edge17" class="edge">
<title>2&#45;&gt;5</title>
<path fill="none" stroke="#ff0000" d="M1046.39,-347.8C1046.39,-336.16 1046.39,-320.55 1046.39,-307.24"/>
<polygon fill="#ff0000" stroke="#ff0000" points="1049.89,-307.18 1046.39,-297.18 1042.89,-307.18 1049.89,-307.18"/>
<text text-anchor="middle" x="1055.89" y="-318.8" font-family="Times,serif" font-size="14.00">yes</text>
</g>
<!-- 6 -->
<g id="node19" class="node">
<title>6</title>
<ellipse fill="none" stroke="black" cx="1418.39" cy="-279" rx="137.28" ry="18"/>
<text text-anchor="middle" x="1418.39" y="-275.3" font-family="Times,serif" font-size="14.00">regime_ema_spread&lt;&#45;0.347843319</text>
</g>
<!-- 2&#45;&gt;6 -->
<g id="edge18" class="edge">
<title>2&#45;&gt;6</title>
<path fill="none" stroke="#0000ff" d="M1109.92,-350.48C1174.6,-335.71 1274.84,-312.8 1343.38,-297.14"/>
<polygon fill="#0000ff" stroke="#0000ff" points="1344.29,-300.52 1353.25,-294.88 1342.73,-293.7 1344.29,-300.52"/>
<text text-anchor="middle" x="1287.39" y="-318.8" font-family="Times,serif" font-size="14.00">no, missing</text>
</g>
<!-- 7 -->
<g id="node6" class="node">
<title>7</title>
<ellipse fill="none" stroke="black" cx="191.39" cy="-192" rx="83.39" ry="18"/>
<text text-anchor="middle" x="191.39" y="-188.3" font-family="Times,serif" font-size="14.00">BBW&lt;0.167772084</text>
</g>
<!-- 3&#45;&gt;7 -->
<g id="edge5" class="edge">
<title>3&#45;&gt;7</title>
<path fill="none" stroke="#ff0000" d="M344.03,-262.01C313.15,-248.05 268.21,-227.73 235.08,-212.75"/>
<polygon fill="#ff0000" stroke="#ff0000" points="236.2,-209.42 225.64,-208.49 233.31,-215.8 236.2,-209.42"/>
<text text-anchor="middle" x="306.89" y="-231.8" font-family="Times,serif" font-size="14.00">yes</text>
</g>
<!-- 8 -->
<g id="node7" class="node">
<title>8</title>
<ellipse fill="none" stroke="black" cx="379.39" cy="-192" rx="87.18" ry="18"/>
<text text-anchor="middle" x="379.39" y="-188.3" font-family="Times,serif" font-size="14.00">leaf=&#45;0.00631152093</text>
</g>
<!-- 3&#45;&gt;8 -->
<g id="edge6" class="edge">
<title>3&#45;&gt;8</title>
<path fill="none" stroke="#0000ff" d="M379.39,-260.8C379.39,-249.16 379.39,-233.55 379.39,-220.24"/>
<polygon fill="#0000ff" stroke="#0000ff" points="382.89,-220.18 379.39,-210.18 375.89,-220.18 382.89,-220.18"/>
<text text-anchor="middle" x="411.39" y="-231.8" font-family="Times,serif" font-size="14.00">no, missing</text>
</g>
<!-- 9 -->
<g id="node12" class="node">
<title>9</title>
<ellipse fill="none" stroke="black" cx="567.39" cy="-192" rx="83.39" ry="18"/>
<text text-anchor="middle" x="567.39" y="-188.3" font-family="Times,serif" font-size="14.00">leaf=&#45;0.0537230037</text>
</g>
<!-- 4&#45;&gt;9 -->
<g id="edge11" class="edge">
<title>4&#45;&gt;9</title>
<path fill="none" stroke="#ff0000" d="M696.97,-261.41C671.07,-247.74 634.21,-228.28 606.42,-213.61"/>
<polygon fill="#ff0000" stroke="#ff0000" points="607.85,-210.4 597.38,-208.83 604.59,-216.59 607.85,-210.4"/>
<text text-anchor="middle" x="667.89" y="-231.8" font-family="Times,serif" font-size="14.00">yes</text>
</g>
<!-- 10 -->
<g id="node13" class="node">
<title>10</title>
<ellipse fill="none" stroke="black" cx="772.39" cy="-192" rx="103.98" ry="18"/>
<text text-anchor="middle" x="772.39" y="-188.3" font-family="Times,serif" font-size="14.00">MACD_Hist&lt;376.484375</text>
</g>
<!-- 4&#45;&gt;10 -->
<g id="edge12" class="edge">
<title>4&#45;&gt;10</title>
<path fill="none" stroke="#0000ff" d="M737.3,-260.8C743.5,-248.82 751.89,-232.62 758.91,-219.06"/>
<polygon fill="#0000ff" stroke="#0000ff" points="762.01,-220.67 763.5,-210.18 755.8,-217.45 762.01,-220.67"/>
<text text-anchor="middle" x="785.39" y="-231.8" font-family="Times,serif" font-size="14.00">no, missing</text>
</g>
<!-- 15 -->
<g id="node8" class="node">
<title>15</title>
<ellipse fill="none" stroke="black" cx="149.39" cy="-105" rx="87.99" ry="18"/>
<text text-anchor="middle" x="149.39" y="-101.3" font-family="Times,serif" font-size="14.00">MACD&lt;&#45;143.097534</text>
</g>
<!-- 7&#45;&gt;15 -->
<g id="edge7" class="edge">
<title>7&#45;&gt;15</title>
<path fill="none" stroke="#ff0000" d="M182.89,-173.8C177.03,-161.93 169.12,-145.93 162.46,-132.45"/>
<polygon fill="#ff0000" stroke="#ff0000" points="165.45,-130.59 157.88,-123.18 159.17,-133.69 165.45,-130.59"/>
<text text-anchor="middle" x="182.89" y="-144.8" font-family="Times,serif" font-size="14.00">yes</text>
</g>
<!-- 16 -->
<g id="node9" class="node">
<title>16</title>
<ellipse fill="none" stroke="black" cx="342.39" cy="-105" rx="87.18" ry="18"/>
<text text-anchor="middle" x="342.39" y="-101.3" font-family="Times,serif" font-size="14.00">leaf=&#45;0.00364731997</text>
</g>
<!-- 7&#45;&gt;16 -->
<g id="edge8" class="edge">
<title>7&#45;&gt;16</title>
<path fill="none" stroke="#0000ff" d="M219.8,-175.01C243.87,-161.46 278.58,-141.92 304.92,-127.09"/>
<polygon fill="#0000ff" stroke="#0000ff" points="306.87,-130.02 313.86,-122.06 303.43,-123.92 306.87,-130.02"/>
<text text-anchor="middle" x="308.39" y="-144.8" font-family="Times,serif" font-size="14.00">no, missing</text>
</g>
<!-- 25 -->
<g id="node10" class="node">
<title>25</title>
<ellipse fill="none" stroke="black" cx="75.39" cy="-18" rx="75.29" ry="18"/>
<text text-anchor="middle" x="75.39" y="-14.3" font-family="Times,serif" font-size="14.00">leaf=0.068913646</text>
</g>
<!-- 15&#45;&gt;25 -->
<g id="edge9" class="edge">
<title>15&#45;&gt;25</title>
<path fill="none" stroke="#ff0000" d="M134.77,-87.21C123.93,-74.75 108.97,-57.57 96.79,-43.57"/>
<polygon fill="#ff0000" stroke="#ff0000" points="99.19,-41 89.98,-35.76 93.91,-45.6 99.19,-41"/>
<text text-anchor="middle" x="126.89" y="-57.8" font-family="Times,serif" font-size="14.00">yes</text>
</g>
<!-- 26 -->
<g id="node11" class="node">
<title>26</title>
<ellipse fill="none" stroke="black" cx="248.39" cy="-18" rx="79.89" ry="18"/>
<text text-anchor="middle" x="248.39" y="-14.3" font-family="Times,serif" font-size="14.00">leaf=0.0248028524</text>
</g>
<!-- 15&#45;&gt;26 -->
<g id="edge10" class="edge">
<title>15&#45;&gt;26</title>
<path fill="none" stroke="#0000ff" d="M168.95,-87.21C183.87,-74.4 204.59,-56.61 221.13,-42.4"/>
<polygon fill="#0000ff" stroke="#0000ff" points="223.57,-44.93 228.87,-35.76 219.01,-39.62 223.57,-44.93"/>
<text text-anchor="middle" x="237.39" y="-57.8" font-family="Times,serif" font-size="14.00">no, missing</text>
</g>
<!-- 17 -->
<g id="node14" class="node">
<title>17</title>
<ellipse fill="none" stroke="black" cx="579.39" cy="-105" rx="94.78" ry="18"/>
<text text-anchor="middle" x="579.39" y="-101.3" font-family="Times,serif" font-size="14.00">OBV&lt;1.26102261e+12</text>
</g>
<!-- 10&#45;&gt;17 -->
<g id="edge13" class="edge">
<title>10&#45;&gt;17</title>
<path fill="none" stroke="#ff0000" d="M736.09,-175.01C704.45,-161.08 658.44,-140.81 624.45,-125.84"/>
<polygon fill="#ff0000" stroke="#ff0000" points="625.77,-122.6 615.21,-121.77 622.95,-129.01 625.77,-122.6"/>
<text text-anchor="middle" x="697.89" y="-144.8" font-family="Times,serif" font-size="14.00">yes</text>
</g>
<!-- 18 -->
<g id="node15" class="node">
<title>18</title>
<ellipse fill="none" stroke="black" cx="772.39" cy="-105" rx="79.89" ry="18"/>
<text text-anchor="middle" x="772.39" y="-101.3" font-family="Times,serif" font-size="14.00">leaf=0.0554505251</text>
</g>
<!-- 10&#45;&gt;18 -->
<g id="edge14" class="edge">
<title>10&#45;&gt;18</title>
<path fill="none" stroke="#0000ff" d="M772.39,-173.8C772.39,-162.16 772.39,-146.55 772.39,-133.24"/>
<polygon fill="#0000ff" stroke="#0000ff" points="775.89,-133.18 772.39,-123.18 768.89,-133.18 775.89,-133.18"/>
<text text-anchor="middle" x="804.39" y="-144.8" font-family="Times,serif" font-size="14.00">no, missing</text>
</g>
<!-- 27 -->
<g id="node16" class="node">
<title>27</title>
<ellipse fill="none" stroke="black" cx="499.39" cy="-18" rx="84.49" ry="18"/>
<text text-anchor="middle" x="499.39" y="-14.3" font-family="Times,serif" font-size="14.00">leaf=0.00902033504</text>
</g>
<!-- 17&#45;&gt;27 -->
<g id="edge15" class="edge">
<title>17&#45;&gt;27</title>
<path fill="none" stroke="#ff0000" d="M563.59,-87.21C551.75,-74.63 535.4,-57.25 522.15,-43.18"/>
<polygon fill="#ff0000" stroke="#ff0000" points="524.57,-40.64 515.17,-35.76 519.47,-45.44 524.57,-40.64"/>
<text text-anchor="middle" x="553.89" y="-57.8" font-family="Times,serif" font-size="14.00">yes</text>
</g>
<!-- 28 -->
<g id="node17" class="node">
<title>28</title>
<ellipse fill="none" stroke="black" cx="685.39" cy="-18" rx="83.39" ry="18"/>
<text text-anchor="middle" x="685.39" y="-14.3" font-family="Times,serif" font-size="14.00">leaf=&#45;0.0209289268</text>
</g>
<!-- 17&#45;&gt;28 -->
<g id="edge16" class="edge">
<title>17&#45;&gt;28</title>
<path fill="none" stroke="#0000ff" d="M600.08,-87.41C616.28,-74.42 638.99,-56.21 656.9,-41.85"/>
<polygon fill="#0000ff" stroke="#0000ff" points="659.14,-44.54 664.76,-35.55 654.76,-39.07 659.14,-44.54"/>
<text text-anchor="middle" x="671.39" y="-57.8" font-family="Times,serif" font-size="14.00">no, missing</text>
</g>
<!-- 11 -->
<g id="node20" class="node">
<title>11</title>
<ellipse fill="none" stroke="black" cx="997.39" cy="-192" rx="94.78" ry="18"/>
<text text-anchor="middle" x="997.39" y="-188.3" font-family="Times,serif" font-size="14.00">OBV&lt;7.70523136e+11</text>
</g>
<!-- 5&#45;&gt;11 -->
<g id="edge19" class="edge">
<title>5&#45;&gt;11</title>
<path fill="none" stroke="#ff0000" d="M1036.48,-260.8C1029.57,-248.82 1020.23,-232.62 1012.41,-219.06"/>
<polygon fill="#ff0000" stroke="#ff0000" points="1015.32,-217.09 1007.29,-210.18 1009.26,-220.59 1015.32,-217.09"/>
<text text-anchor="middle" x="1034.89" y="-231.8" font-family="Times,serif" font-size="14.00">yes</text>
</g>
<!-- 12 -->
<g id="node21" class="node">
<title>12</title>
<ellipse fill="none" stroke="black" cx="1190.39" cy="-192" rx="79.89" ry="18"/>
<text text-anchor="middle" x="1190.39" y="-188.3" font-family="Times,serif" font-size="14.00">leaf=0.0301175602</text>
</g>
<!-- 5&#45;&gt;12 -->
<g id="edge20" class="edge">
<title>5&#45;&gt;12</title>
<path fill="none" stroke="#0000ff" d="M1074.16,-261.61C1097.01,-248.12 1129.58,-228.9 1154.43,-214.23"/>
<polygon fill="#0000ff" stroke="#0000ff" points="1156.37,-217.15 1163.2,-209.05 1152.81,-211.12 1156.37,-217.15"/>
<text text-anchor="middle" x="1159.39" y="-231.8" font-family="Times,serif" font-size="14.00">no, missing</text>
</g>
<!-- 13 -->
<g id="node26" class="node">
<title>13</title>
<ellipse fill="none" stroke="black" cx="1418.39" cy="-192" rx="114.28" ry="18"/>
<text text-anchor="middle" x="1418.39" y="-188.3" font-family="Times,serif" font-size="14.00">MACD_Signal&lt;&#45;2480.91016</text>
</g>
<!-- 6&#45;&gt;13 -->
<g id="edge25" class="edge">
<title>6&#45;&gt;13</title>
<path fill="none" stroke="#ff0000" d="M1418.39,-260.8C1418.39,-249.16 1418.39,-233.55 1418.39,-220.24"/>
<polygon fill="#ff0000" stroke="#ff0000" points="1421.89,-220.18 1418.39,-210.18 1414.89,-220.18 1421.89,-220.18"/>
<text text-anchor="middle" x="1427.89" y="-231.8" font-family="Times,serif" font-size="14.00">yes</text>
</g>
<!-- 14 -->
<g id="node27" class="node">
<title>14</title>
<ellipse fill="none" stroke="black" cx="1660.39" cy="-192" rx="102.08" ry="18"/>
<text text-anchor="middle" x="1660.39" y="-188.3" font-family="Times,serif" font-size="14.00">Log_Ret&lt;0.00583145302</text>
</g>
<!-- 6&#45;&gt;14 -->
<g id="edge26" class="edge">
<title>6&#45;&gt;14</title>
<path fill="none" stroke="#0000ff" d="M1463.91,-262.01C1504.56,-247.74 1564.13,-226.81 1607.01,-211.75"/>
<polygon fill="#0000ff" stroke="#0000ff" points="1608.43,-214.96 1616.71,-208.34 1606.11,-208.36 1608.43,-214.96"/>
<text text-anchor="middle" x="1586.39" y="-231.8" font-family="Times,serif" font-size="14.00">no, missing</text>
</g>
<!-- 19 -->
<g id="node22" class="node">
<title>19</title>
<ellipse fill="none" stroke="black" cx="954.39" cy="-105" rx="84.49" ry="18"/>
<text text-anchor="middle" x="954.39" y="-101.3" font-family="Times,serif" font-size="14.00">leaf=0.00233860244</text>
</g>
<!-- 11&#45;&gt;19 -->
<g id="edge21" class="edge">
<title>11&#45;&gt;19</title>
<path fill="none" stroke="#ff0000" d="M988.69,-173.8C982.69,-161.93 974.59,-145.93 967.77,-132.45"/>
<polygon fill="#ff0000" stroke="#ff0000" points="970.72,-130.52 963.08,-123.18 964.47,-133.68 970.72,-130.52"/>
<text text-anchor="middle" x="988.89" y="-144.8" font-family="Times,serif" font-size="14.00">yes</text>
</g>
<!-- 20 -->
<g id="node23" class="node">
<title>20</title>
<ellipse fill="none" stroke="black" cx="1122.39" cy="-105" rx="65.79" ry="18"/>
<text text-anchor="middle" x="1122.39" y="-101.3" font-family="Times,serif" font-size="14.00">Mon_Cos&lt;&#45;0.5</text>
</g>
<!-- 11&#45;&gt;20 -->
<g id="edge22" class="edge">
<title>11&#45;&gt;20</title>
<path fill="none" stroke="#0000ff" d="M1021.79,-174.41C1041.4,-161.08 1069.1,-142.24 1090.47,-127.71"/>
<polygon fill="#0000ff" stroke="#0000ff" points="1092.6,-130.49 1098.9,-121.97 1088.67,-124.7 1092.6,-130.49"/>
<text text-anchor="middle" x="1099.39" y="-144.8" font-family="Times,serif" font-size="14.00">no, missing</text>
</g>
<!-- 29 -->
<g id="node24" class="node">
<title>29</title>
<ellipse fill="none" stroke="black" cx="1025.39" cy="-18" rx="83.39" ry="18"/>
<text text-anchor="middle" x="1025.39" y="-14.3" font-family="Times,serif" font-size="14.00">leaf=&#45;0.0211994555</text>
</g>
<!-- 20&#45;&gt;29 -->
<g id="edge23" class="edge">
<title>20&#45;&gt;29</title>
<path fill="none" stroke="#ff0000" d="M1103.69,-87.61C1089.02,-74.76 1068.42,-56.71 1052.03,-42.34"/>
<polygon fill="#ff0000" stroke="#ff0000" points="1054.2,-39.59 1044.37,-35.63 1049.58,-44.85 1054.2,-39.59"/>
<text text-anchor="middle" x="1089.89" y="-57.8" font-family="Times,serif" font-size="14.00">yes</text>
</g>
<!-- 30 -->
<g id="node25" class="node">
<title>30</title>
<ellipse fill="none" stroke="black" cx="1209.39" cy="-18" rx="83.39" ry="18"/>
<text text-anchor="middle" x="1209.39" y="-14.3" font-family="Times,serif" font-size="14.00">leaf=&#45;0.0688713416</text>
</g>
<!-- 20&#45;&gt;30 -->
<g id="edge24" class="edge">
<title>20&#45;&gt;30</title>
<path fill="none" stroke="#0000ff" d="M1139.58,-87.21C1152.57,-74.52 1170.57,-56.93 1185.04,-42.79"/>
<polygon fill="#0000ff" stroke="#0000ff" points="1187.53,-45.25 1192.24,-35.76 1182.64,-40.24 1187.53,-45.25"/>
<text text-anchor="middle" x="1203.39" y="-57.8" font-family="Times,serif" font-size="14.00">no, missing</text>
</g>
<!-- 21 -->
<g id="node28" class="node">
<title>21</title>
<ellipse fill="none" stroke="black" cx="1290.39" cy="-105" rx="84.49" ry="18"/>
<text text-anchor="middle" x="1290.39" y="-101.3" font-family="Times,serif" font-size="14.00">leaf=0.00615330227</text>
</g>
<!-- 13&#45;&gt;21 -->
<g id="edge27" class="edge">
<title>13&#45;&gt;21</title>
<path fill="none" stroke="#ff0000" d="M1393.41,-174.41C1373.37,-161.1 1345.08,-142.31 1323.21,-127.79"/>
<polygon fill="#ff0000" stroke="#ff0000" points="1325.15,-124.88 1314.88,-122.26 1321.27,-130.71 1325.15,-124.88"/>
<text text-anchor="middle" x="1371.89" y="-144.8" font-family="Times,serif" font-size="14.00">yes</text>
</g>
<!-- 22 -->
<g id="node29" class="node">
<title>22</title>
<ellipse fill="none" stroke="black" cx="1476.39" cy="-105" rx="83.39" ry="18"/>
<text text-anchor="middle" x="1476.39" y="-101.3" font-family="Times,serif" font-size="14.00">leaf=&#45;0.0587990992</text>
</g>
<!-- 13&#45;&gt;22 -->
<g id="edge28" class="edge">
<title>13&#45;&gt;22</title>
<path fill="none" stroke="#0000ff" d="M1430.13,-173.8C1438.44,-161.62 1449.72,-145.09 1459.06,-131.4"/>
<polygon fill="#0000ff" stroke="#0000ff" points="1462.13,-133.12 1464.87,-122.89 1456.34,-129.17 1462.13,-133.12"/>
<text text-anchor="middle" x="1483.39" y="-144.8" font-family="Times,serif" font-size="14.00">no, missing</text>
</g>
<!-- 23 -->
<g id="node30" class="node">
<title>23</title>
<ellipse fill="none" stroke="black" cx="1660.39" cy="-105" rx="83.39" ry="18"/>
<text text-anchor="middle" x="1660.39" y="-101.3" font-family="Times,serif" font-size="14.00">BBW&lt;0.398140311</text>
</g>
<!-- 14&#45;&gt;23 -->
<g id="edge29" class="edge">
<title>14&#45;&gt;23</title>
<path fill="none" stroke="#ff0000" d="M1660.39,-173.8C1660.39,-162.16 1660.39,-146.55 1660.39,-133.24"/>
<polygon fill="#ff0000" stroke="#ff0000" points="1663.89,-133.18 1660.39,-123.18 1656.89,-133.18 1663.89,-133.18"/>
<text text-anchor="middle" x="1669.89" y="-144.8" font-family="Times,serif" font-size="14.00">yes</text>
</g>
<!-- 24 -->
<g id="node31" class="node">
<title>24</title>
<ellipse fill="none" stroke="black" cx="1837.39" cy="-105" rx="74.99" ry="18"/>
<text text-anchor="middle" x="1837.39" y="-101.3" font-family="Times,serif" font-size="14.00">ATR&lt;389.019073</text>
</g>
<!-- 14&#45;&gt;24 -->
<g id="edge30" class="edge">
<title>14&#45;&gt;24</title>
<path fill="none" stroke="#0000ff" d="M1694.1,-174.81C1723.1,-160.89 1765.03,-140.75 1796.05,-125.85"/>
<polygon fill="#0000ff" stroke="#0000ff" points="1797.8,-128.9 1805.3,-121.41 1794.77,-122.59 1797.8,-128.9"/>
<text text-anchor="middle" x="1792.39" y="-144.8" font-family="Times,serif" font-size="14.00">no, missing</text>
</g>
<!-- 31 -->
<g id="node32" class="node">
<title>31</title>
<ellipse fill="none" stroke="black" cx="1482.39" cy="-18" rx="84.49" ry="18"/>
<text text-anchor="middle" x="1482.39" y="-14.3" font-family="Times,serif" font-size="14.00">leaf=0.00107630156</text>
</g>
<!-- 23&#45;&gt;31 -->
<g id="edge31" class="edge">
<title>23&#45;&gt;31</title>
<path fill="none" stroke="#ff0000" d="M1627.75,-88.41C1598.73,-74.55 1556.14,-54.22 1524.56,-39.13"/>
<polygon fill="#ff0000" stroke="#ff0000" points="1525.67,-35.79 1515.14,-34.64 1522.65,-42.1 1525.67,-35.79"/>
<text text-anchor="middle" x="1591.89" y="-57.8" font-family="Times,serif" font-size="14.00">yes</text>
</g>
<!-- 32 -->
<g id="node33" class="node">
<title>32</title>
<ellipse fill="none" stroke="black" cx="1660.39" cy="-18" rx="75.29" ry="18"/>
<text text-anchor="middle" x="1660.39" y="-14.3" font-family="Times,serif" font-size="14.00">leaf=0.030413378</text>
</g>
<!-- 23&#45;&gt;32 -->
<g id="edge32" class="edge">
<title>23&#45;&gt;32</title>
<path fill="none" stroke="#0000ff" d="M1660.39,-86.8C1660.39,-75.16 1660.39,-59.55 1660.39,-46.24"/>
<polygon fill="#0000ff" stroke="#0000ff" points="1663.89,-46.18 1660.39,-36.18 1656.89,-46.18 1663.89,-46.18"/>
<text text-anchor="middle" x="1692.39" y="-57.8" font-family="Times,serif" font-size="14.00">no, missing</text>
</g>
<!-- 33 -->
<g id="node34" class="node">
<title>33</title>
<ellipse fill="none" stroke="black" cx="1837.39" cy="-18" rx="83.39" ry="18"/>
<text text-anchor="middle" x="1837.39" y="-14.3" font-family="Times,serif" font-size="14.00">leaf=&#45;0.0485295765</text>
</g>
<!-- 24&#45;&gt;33 -->
<g id="edge33" class="edge">
<title>24&#45;&gt;33</title>
<path fill="none" stroke="#ff0000" d="M1837.39,-86.8C1837.39,-75.16 1837.39,-59.55 1837.39,-46.24"/>
<polygon fill="#ff0000" stroke="#ff0000" points="1840.89,-46.18 1837.39,-36.18 1833.89,-46.18 1840.89,-46.18"/>
<text text-anchor="middle" x="1846.89" y="-57.8" font-family="Times,serif" font-size="14.00">yes</text>
</g>
<!-- 34 -->
<g id="node35" class="node">
<title>34</title>
<ellipse fill="none" stroke="black" cx="2025.39" cy="-18" rx="87.18" ry="18"/>
<text text-anchor="middle" x="2025.39" y="-14.3" font-family="Times,serif" font-size="14.00">leaf=&#45;0.00194686279</text>
</g>
<!-- 24&#45;&gt;34 -->
<g id="edge34" class="edge">
<title>24&#45;&gt;34</title>
<path fill="none" stroke="#0000ff" d="M1871,-88.8C1901.9,-74.84 1947.88,-54.05 1981.63,-38.79"/>
<polygon fill="#0000ff" stroke="#0000ff" points="1983.13,-41.95 1990.8,-34.64 1980.25,-35.57 1983.13,-41.95"/>
<text text-anchor="middle" x="1975.39" y="-57.8" font-family="Times,serif" font-size="14.00">no, missing</text>
</g>
</g>
</svg>
