<?xml version="1.0" encoding="UTF-8" standalone="no"?>
<!DOCTYPE svg PUBLIC "-//W3C//DTD SVG 1.1//EN"
 "http://www.w3.org/Graphics/SVG/1.1/DTD/svg11.dtd">
<!-- Generated by graphviz version 2.43.0 (0)
 -->
<!-- Title: %3 Pages: 1 -->
<svg width="3085pt" height="479pt"
 viewBox="0.00 0.00 3085.04 479.00" xmlns="http://www.w3.org/2000/svg" xmlns:xlink="http://www.w3.org/1999/xlink">
<g id="graph0" class="graph" transform="scale(1 1) rotate(0) translate(4 475)">
<title>%3</title>
<polygon fill="white" stroke="transparent" points="-4,4 -4,-475 3081.04,-475 3081.04,4 -4,4"/>
<!-- 0 -->
<g id="node1" class="node">
<title>0</title>
<ellipse fill="none" stroke="black" cx="763.94" cy="-453" rx="74.99" ry="18"/>
<text text-anchor="middle" x="763.94" y="-449.3" font-family="Times,serif" font-size="14.00">ATR&lt;305.443207</text>
</g>
<!-- 1 -->
<g id="node2" class="node">
<title>1</title>
<ellipse fill="none" stroke="black" cx="660.94" cy="-366" rx="53.09" ry="18"/>
<text text-anchor="middle" x="660.94" y="-362.3" font-family="Times,serif" font-size="14.00">Day_Cos&lt;1</text>
</g>
<!-- 0&#45;&gt;1 -->
<g id="edge1" class="edge">
<title>0&#45;&gt;1</title>
<path fill="none" stroke="#ff0000" d="M744.08,-435.61C728.31,-422.59 706.07,-404.24 688.56,-389.79"/>
<polygon fill="#ff0000" stroke="#ff0000" points="690.33,-386.72 680.39,-383.05 685.88,-392.11 690.33,-386.72"/>
<text text-anchor="middle" x="728.44" y="-405.8" font-family="Times,serif" font-size="14.00">yes</text>
</g>
<!-- 2 -->
<g id="node3" class="node">
<title>2</title>
<ellipse fill="none" stroke="black" cx="935.94" cy="-366" rx="96.38" ry="18"/>
<text text-anchor="middle" x="935.94" y="-362.3" font-family="Times,serif" font-size="14.00">Log_Ret&lt;&#45;0.023334248</text>
</g>
<!-- 0&#45;&gt;2 -->
<g id="edge2" class="edge">
<title>0&#45;&gt;2</title>
<path fill="none" stroke="#0000ff" d="M795.09,-436.61C822.9,-422.86 863.85,-402.63 894.43,-387.51"/>
<polygon fill="#0000ff" stroke="#0000ff" points="896.15,-390.57 903.57,-383 893.05,-384.29 896.15,-390.57"/>
<text text-anchor="middle" x="892.94" y="-405.8" font-family="Times,serif" font-size="14.00">no, missing</text>
</g>
<!-- 3 -->
<g id="node4" class="node">
<title>3</title>
<ellipse fill="none" stroke="black" cx="279.94" cy="-279" rx="96.68" ry="18"/>
<text text-anchor="middle" x="279.94" y="-275.3" font-family="Times,serif" font-size="14.00">Vol_Chg&lt;&#45;0.067652151</text>
</g>
<!-- 1&#45;&gt;3 -->
<g id="edge3" class="edge">
<title>1&#45;&gt;3</title>
<path fill="none" stroke="#ff0000" d="M617.61,-355.33C552.14,-340.73 427.4,-312.9 349.23,-295.46"/>
<polygon fill="#ff0000" stroke="#ff0000" points="349.98,-292.04 339.46,-293.28 348.46,-298.87 349.98,-292.04"/>
<text text-anchor="middle" x="503.44" y="-318.8" font-family="Times,serif" font-size="14.00">yes</text>
</g>
<!-- 4 -->
<g id="node5" class="node">
<title>4</title>
<ellipse fill="none" stroke="black" cx="660.94" cy="-279" rx="87.18" ry="18"/>
<text text-anchor="middle" x="660.94" y="-275.3" font-family="Times,serif" font-size="14.00">leaf=&#45;0.00934875757</text>
</g>
<!-- 1&#45;&gt;4 -->
<g id="edge4" class="edge">
<title>1&#45;&gt;4</title>
<path fill="none" stroke="#0000ff" d="M660.94,-347.8C660.94,-336.16 660.94,-320.55 660.94,-307.24"/>
<polygon fill="#0000ff" stroke="#0000ff" points="664.44,-307.18 660.94,-297.18 657.44,-307.18 664.44,-307.18"/>
<text text-anchor="middle" x="692.94" y="-318.8" font-family="Times,serif" font-size="14.00">no, missing</text>
</g>
<!-- 5 -->
<g id="node10" class="node">
<title>5</title>
<ellipse fill="none" stroke="black" cx="935.94" cy="-279" rx="100.98" ry="18"/>
<text text-anchor="middle" x="935.94" y="-275.3" font-family="Times,serif" font-size="14.00">Log_Ret&lt;&#45;0.0428305306</text>
</g>
<!-- 2&#45;&gt;5 -->
<g id="edge9" class="edge">
<title>2&#45;&gt;5</title>
<path fill="none" stroke="#ff0000" d="M935.94,-347.8C935.94,-336.16 935.94,-320.55 935.94,-307.24"/>
<polygon fill="#ff0000" stroke="#ff0000" points="939.44,-307.18 935.94,-297.18 932.44,-307.18 939.44,-307.18"/>
<text text-anchor="middle" x="945.44" y="-318.8" font-family="Times,serif" font-size="14.00">yes</text>
</g>
<!-- 6 -->
<g id="node11" class="node">
<title>6</title>
<ellipse fill="none" stroke="black" cx="1955.94" cy="-279" rx="102.08" ry="18"/>
<text text-anchor="middle" x="1955.94" y="-275.3" font-family="Times,serif" font-size="14.00">D_EMA20&lt;0.947351575</text>
</g>
<!-- 2&#45;&gt;6 -->
<g id="edge10" class="edge">
<title>2&#45;&gt;6</title>
<path fill="none" stroke="#0000ff" d="M1022.03,-357.83C1209.8,-342.18 1655.34,-305.05 1855.51,-288.37"/>
<polygon fill="#0000ff" stroke="#0000ff" points="1856.05,-291.84 1865.73,-287.52 1855.47,-284.86 1856.05,-291.84"/>
<text text-anchor="middle" x="1539.94" y="-318.8" font-family="Times,serif" font-size="14.00">no, missing</text>
</g>
<!-- 7 -->
<g id="node6" class="node">
<title>7</title>
<ellipse fill="none" stroke="black" cx="79.94" cy="-192" rx="79.89" ry="18"/>
<text text-anchor="middle" x="79.94" y="-188.3" font-family="Times,serif" font-size="14.00">leaf=0.0750446543</text>
</g>
<!-- 3&#45;&gt;7 -->
<g id="edge5" class="edge">
<title>3&#45;&gt;7</title>
<path fill="none" stroke="#ff0000" d="M242.79,-262.21C209.54,-248.08 160.71,-227.32 125.19,-212.23"/>
<polygon fill="#ff0000" stroke="#ff0000" points="126.12,-208.82 115.55,-208.13 123.38,-215.27 126.12,-208.82"/>
<text text-anchor="middle" x="201.44" y="-231.8" font-family="Times,serif" font-size="14.00">yes</text>
</g>
<!-- 8 -->
<g id="node7" class="node">
<title>8</title>
<ellipse fill="none" stroke="black" cx="279.94" cy="-192" rx="102.08" ry="18"/>
<text text-anchor="middle" x="279.94" y="-188.3" font-family="Times,serif" font-size="14.00">Log_Ret&lt;0.00613836618</text>
</g>
<!-- 3&#45;&gt;8 -->
<g id="edge6" class="edge">
<title>3&#45;&gt;8</title>
<path fill="none" stroke="#0000ff" d="M279.94,-260.8C279.94,-249.16 279.94,-233.55 279.94,-220.24"/>
<polygon fill="#0000ff" stroke="#0000ff" points="283.44,-220.18 279.94,-210.18 276.44,-220.18 283.44,-220.18"/>
<text text-anchor="middle" x="311.94" y="-231.8" font-family="Times,serif" font-size="14.00">no, missing</text>
</g>
<!-- 13 -->
<g id="node8" class="node">
<title>13</title>
<ellipse fill="none" stroke="black" cx="98.94" cy="-105" rx="83.39" ry="18"/>
<text text-anchor="middle" x="98.94" y="-101.3" font-family="Times,serif" font-size="14.00">leaf=&#45;0.0110974107</text>
</g>
<!-- 8&#45;&gt;13 -->
<g id="edge7" class="edge">
<title>8&#45;&gt;13</title>
<path fill="none" stroke="#ff0000" d="M245.9,-175.01C216.26,-161.09 173.17,-140.86 141.31,-125.89"/>
<polygon fill="#ff0000" stroke="#ff0000" points="142.76,-122.71 132.22,-121.63 139.79,-129.05 142.76,-122.71"/>
<text text-anchor="middle" x="210.44" y="-144.8" font-family="Times,serif" font-size="14.00">yes</text>
</g>
<!-- 14 -->
<g id="node9" class="node">
<title>14</title>
<ellipse fill="none" stroke="black" cx="279.94" cy="-105" rx="79.89" ry="18"/>
<text text-anchor="middle" x="279.94" y="-101.3" font-family="Times,serif" font-size="14.00">leaf=0.0575416759</text>
</g>
<!-- 8&#45;&gt;14 -->
<g id="edge8" class="edge">
<title>8&#45;&gt;14</title>
<path fill="none" stroke="#0000ff" d="M279.94,-173.8C279.94,-162.16 279.94,-146.55 279.94,-133.24"/>
<polygon fill="#0000ff" stroke="#0000ff" points="283.44,-133.18 279.94,-123.18 276.44,-133.18 283.44,-133.18"/>
<text text-anchor="middle" x="311.94" y="-144.8" font-family="Times,serif" font-size="14.00">no, missing</text>
</g>
<!-- 9 -->
<g id="node12" class="node">
<title>9</title>
<ellipse fill="none" stroke="black" cx="762.94" cy="-192" rx="106.68" ry="18"/>
<text text-anchor="middle" x="762.94" y="-188.3" font-family="Times,serif" font-size="14.00">MACD_Hist&lt;&#45;543.404114</text>
</g>
<!-- 5&#45;&gt;9 -->
<g id="edge11" class="edge">
<title>5&#45;&gt;9</title>
<path fill="none" stroke="#ff0000" d="M903,-261.81C875.1,-248.11 834.95,-228.38 804.78,-213.56"/>
<polygon fill="#ff0000" stroke="#ff0000" points="806.29,-210.4 795.77,-209.13 803.2,-216.68 806.29,-210.4"/>
<text text-anchor="middle" x="869.44" y="-231.8" font-family="Times,serif" font-size="14.00">yes</text>
</g>
<!-- 10 -->
<g id="node13" class="node">
<title>10</title>
<ellipse fill="none" stroke="black" cx="1096.94" cy="-192" rx="137.28" ry="18"/>
<text text-anchor="middle" x="1096.94" y="-188.3" font-family="Times,serif" font-size="14.00">regime_ema_spread&lt;&#45;0.046448186</text>
</g>
<!-- 5&#45;&gt;10 -->
<g id="edge12" class="edge">
<title>5&#45;&gt;10</title>
<path fill="none" stroke="#0000ff" d="M966.6,-261.81C992.1,-248.35 1028.58,-229.09 1056.47,-214.37"/>
<polygon fill="#0000ff" stroke="#0000ff" points="1058.36,-217.33 1065.57,-209.56 1055.09,-211.14 1058.36,-217.33"/>
<text text-anchor="middle" x="1058.94" y="-231.8" font-family="Times,serif" font-size="14.00">no, missing</text>
</g>
<!-- 11 -->
<g id="node26" class="node">
<title>11</title>
<ellipse fill="none" stroke="black" cx="1955.94" cy="-192" rx="83.39" ry="18"/>
<text text-anchor="middle" x="1955.94" y="-188.3" font-family="Times,serif" font-size="14.00">BBW&lt;0.466772914</text>
</g>
<!-- 6&#45;&gt;11 -->
<g id="edge25" class="edge">
<title>6&#45;&gt;11</title>
<path fill="none" stroke="#ff0000" d="M1955.94,-260.8C1955.94,-249.16 1955.94,-233.55 1955.94,-220.24"/>
<polygon fill="#ff0000" stroke="#ff0000" points="1959.44,-220.18 1955.94,-210.18 1952.44,-220.18 1959.44,-220.18"/>
<text text-anchor="middle" x="1965.44" y="-231.8" font-family="Times,serif" font-size="14.00">yes</text>
</g>
<!-- 12 -->
<g id="node27" class="node">
<title>12</title>
<ellipse fill="none" stroke="black" cx="2508.94" cy="-192" rx="97.48" ry="18"/>
<text text-anchor="middle" x="2508.94" y="-188.3" font-family="Times,serif" font-size="14.00">D_EMA20&lt;1.03823972</text>
</g>
<!-- 6&#45;&gt;12 -->
<g id="edge26" class="edge">
<title>6&#45;&gt;12</title>
<path fill="none" stroke="#0000ff" d="M2030.24,-266.58C2133.25,-250.75 2318.88,-222.21 2426.2,-205.72"/>
<polygon fill="#0000ff" stroke="#0000ff" points="2426.99,-209.14 2436.34,-204.16 2425.92,-202.22 2426.99,-209.14"/>
<text text-anchor="middle" x="2297.94" y="-231.8" font-family="Times,serif" font-size="14.00">no, missing</text>
</g>
<!-- 15 -->
<g id="node14" class="node">
<title>15</title>
<ellipse fill="none" stroke="black" cx="472.94" cy="-105" rx="94.78" ry="18"/>
<text text-anchor="middle" x="472.94" y="-101.3" font-family="Times,serif" font-size="14.00">OBV&lt;1.51542917e+12</text>
</g>
<!-- 9&#45;&gt;15 -->
<g id="edge13" class="edge">
<title>9&#45;&gt;15</title>
<path fill="none" stroke="#ff0000" d="M712.1,-176.1C661.78,-161.35 584.83,-138.79 531.87,-123.27"/>
<polygon fill="#ff0000" stroke="#ff0000" points="532.86,-119.91 522.28,-120.46 530.89,-126.63 532.86,-119.91"/>
<text text-anchor="middle" x="645.44" y="-144.8" font-family="Times,serif" font-size="14.00">yes</text>
</g>
<!-- 16 -->
<g id="node15" class="node">
<title>16</title>
<ellipse fill="none" stroke="black" cx="762.94" cy="-105" rx="98.28" ry="18"/>
<text text-anchor="middle" x="762.94" y="-101.3" font-family="Times,serif" font-size="14.00">Day_Cos&lt;&#45;0.222520933</text>
</g>
<!-- 9&#45;&gt;16 -->
<g id="edge14" class="edge">
<title>9&#45;&gt;16</title>
<path fill="none" stroke="#0000ff" d="M762.94,-173.8C762.94,-162.16 762.94,-146.55 762.94,-133.24"/>
<polygon fill="#0000ff" stroke="#0000ff" points="766.44,-133.18 762.94,-123.18 759.44,-133.18 766.44,-133.18"/>
<text text-anchor="middle" x="794.94" y="-144.8" font-family="Times,serif" font-size="14.00">no, missing</text>
</g>
<!-- 17 -->
<g id="node20" class="node">
<title>17</title>
<ellipse fill="none" stroke="black" cx="1096.94" cy="-105" rx="106.68" ry="18"/>
<text text-anchor="middle" x="1096.94" y="-101.3" font-family="Times,serif" font-size="14.00">MACD_Hist&lt;&#45;138.915878</text>
</g>
<!-- 10&#45;&gt;17 -->
<g id="edge19" class="edge">
<title>10&#45;&gt;17</title>
<path fill="none" stroke="#ff0000" d="M1096.94,-173.8C1096.94,-162.16 1096.94,-146.55 1096.94,-133.24"/>
<polygon fill="#ff0000" stroke="#ff0000" points="1100.44,-133.18 1096.94,-123.18 1093.44,-133.18 1100.44,-133.18"/>
<text text-anchor="middle" x="1106.44" y="-144.8" font-family="Times,serif" font-size="14.00">yes</text>
</g>
<!-- 18 -->
<g id="node21" class="node">
<title>18</title>
<ellipse fill="none" stroke="black" cx="1346.94" cy="-105" rx="94.78" ry="18"/>
<text text-anchor="middle" x="1346.94" y="-101.3" font-family="Times,serif" font-size="14.00">OBV&lt;1.54945297e+12</text>
</g>
<!-- 10&#45;&gt;18 -->
<g id="edge20" class="edge">
<title>10&#45;&gt;18</title>
<path fill="none" stroke="#0000ff" d="M1143.97,-175.01C1186.31,-160.62 1248.53,-139.46 1292.9,-124.37"/>
<polygon fill="#0000ff" stroke="#0000ff" points="1294.31,-127.59 1302.65,-121.06 1292.05,-120.97 1294.31,-127.59"/>
<text text-anchor="middle" x="1268.94" y="-144.8" font-family="Times,serif" font-size="14.00">no, missing</text>
</g>
<!-- 23 -->
<g id="node16" class="node">
<title>23</title>
<ellipse fill="none" stroke="black" cx="251.94" cy="-18" rx="79.89" ry="18"/>
<text text-anchor="middle" x="251.94" y="-14.3" font-family="Times,serif" font-size="14.00">leaf=0.0624379627</text>
</g>
<!-- 15&#45;&gt;23 -->
<g id="edge15" class="edge">
<title>15&#45;&gt;23</title>
<path fill="none" stroke="#ff0000" d="M432.92,-88.61C395.58,-74.24 339.79,-52.79 300.04,-37.5"/>
<polygon fill="#ff0000" stroke="#ff0000" points="301.15,-34.17 290.56,-33.85 298.63,-40.71 301.15,-34.17"/>
<text text-anchor="middle" x="385.44" y="-57.8" font-family="Times,serif" font-size="14.00">yes</text>
</g>
<!-- 24 -->
<g id="node17" class="node">
<title>24</title>
<ellipse fill="none" stroke="black" cx="432.94" cy="-18" rx="83.39" ry="18"/>
<text text-anchor="middle" x="432.94" y="-14.3" font-family="Times,serif" font-size="14.00">leaf=&#45;0.0322423577</text>
</g>
<!-- 15&#45;&gt;24 -->
<g id="edge16" class="edge">
<title>15&#45;&gt;24</title>
<path fill="none" stroke="#0000ff" d="M464.85,-86.8C459.26,-74.93 451.73,-58.93 445.39,-45.45"/>
<polygon fill="#0000ff" stroke="#0000ff" points="448.45,-43.73 441.03,-36.18 442.12,-46.71 448.45,-43.73"/>
<text text-anchor="middle" x="487.94" y="-57.8" font-family="Times,serif" font-size="14.00">no, missing</text>
</g>
<!-- 25 -->
<g id="node18" class="node">
<title>25</title>
<ellipse fill="none" stroke="black" cx="616.94" cy="-18" rx="83.39" ry="18"/>
<text text-anchor="middle" x="616.94" y="-14.3" font-family="Times,serif" font-size="14.00">leaf=&#45;0.0532989316</text>
</g>
<!-- 16&#45;&gt;25 -->
<g id="edge17" class="edge">
<title>16&#45;&gt;25</title>
<path fill="none" stroke="#ff0000" d="M734.79,-87.61C711.62,-74.12 678.6,-54.9 653.41,-40.23"/>
<polygon fill="#ff0000" stroke="#ff0000" points="654.91,-37.06 644.51,-35.05 651.39,-43.11 654.91,-37.06"/>
<text text-anchor="middle" x="708.44" y="-57.8" font-family="Times,serif" font-size="14.00">yes</text>
</g>
<!-- 26 -->
<g id="node19" class="node">
<title>26</title>
<ellipse fill="none" stroke="black" cx="802.94" cy="-18" rx="84.49" ry="18"/>
<text text-anchor="middle" x="802.94" y="-14.3" font-family="Times,serif" font-size="14.00">leaf=0.00246974733</text>
</g>
<!-- 16&#45;&gt;26 -->
<g id="edge18" class="edge">
<title>16&#45;&gt;26</title>
<path fill="none" stroke="#0000ff" d="M771.04,-86.8C776.62,-74.93 784.15,-58.93 790.5,-45.45"/>
<polygon fill="#0000ff" stroke="#0000ff" points="793.77,-46.71 794.86,-36.18 787.44,-43.73 793.77,-46.71"/>
<text text-anchor="middle" x="817.94" y="-57.8" font-family="Times,serif" font-size="14.00">no, missing</text>
</g>
<!-- 27 -->
<g id="node22" class="node">
<title>27</title>
<ellipse fill="none" stroke="black" cx="984.94" cy="-18" rx="79.89" ry="18"/>
<text text-anchor="middle" x="984.94" y="-14.3" font-family="Times,serif" font-size="14.00">leaf=0.0505047329</text>
</g>
<!-- 17&#45;&gt;27 -->
<g id="edge21" class="edge">
<title>17&#45;&gt;27</title>
<path fill="none" stroke="#ff0000" d="M1074.82,-87.21C1057.6,-74.14 1033.54,-55.88 1014.65,-41.55"/>
<polygon fill="#ff0000" stroke="#ff0000" points="1016.73,-38.73 1006.64,-35.47 1012.49,-44.3 1016.73,-38.73"/>
<text text-anchor="middle" x="1057.44" y="-57.8" font-family="Times,serif" font-size="14.00">yes</text>
</g>
<!-- 28 -->
<g id="node23" class="node">
<title>28</title>
<ellipse fill="none" stroke="black" cx="1165.94" cy="-18" rx="83.39" ry="18"/>
<text text-anchor="middle" x="1165.94" y="-14.3" font-family="Times,serif" font-size="14.00">leaf=&#45;0.0149629684</text>
</g>
<!-- 17&#45;&gt;28 -->
<g id="edge22" class="edge">
<title>17&#45;&gt;28</title>
<path fill="none" stroke="#0000ff" d="M1110.91,-86.8C1120.88,-74.51 1134.47,-57.77 1145.64,-44.01"/>
<polygon fill="#0000ff" stroke="#0000ff" points="1148.65,-45.86 1152.24,-35.89 1143.22,-41.44 1148.65,-45.86"/>
<text text-anchor="middle" x="1167.94" y="-57.8" font-family="Times,serif" font-size="14.00">no, missing</text>
</g>
<!-- 29 -->
<g id="node24" class="node">
<title>29</title>
<ellipse fill="none" stroke="black" cx="1346.94" cy="-18" rx="79.89" ry="18"/>
<text text-anchor="middle" x="1346.94" y="-14.3" font-family="Times,serif" font-size="14.00">leaf=0.0689174384</text>
</g>
<!-- 18&#45;&gt;29 -->
<g id="edge23" class="edge">
<title>18&#45;&gt;29</title>
<path fill="none" stroke="#ff0000" d="M1346.94,-86.8C1346.94,-75.16 1346.94,-59.55 1346.94,-46.24"/>
<polygon fill="#ff0000" stroke="#ff0000" points="1350.44,-46.18 1346.94,-36.18 1343.44,-46.18 1350.44,-46.18"/>
<text text-anchor="middle" x="1356.44" y="-57.8" font-family="Times,serif" font-size="14.00">yes</text>
</g>
<!-- 30 -->
<g id="node25" class="node">
<title>30</title>
<ellipse fill="none" stroke="black" cx="1524.94" cy="-18" rx="79.89" ry="18"/>
<text text-anchor="middle" x="1524.94" y="-14.3" font-family="Times,serif" font-size="14.00">leaf=0.0156934634</text>
</g>
<!-- 18&#45;&gt;30 -->
<g id="edge24" class="edge">
<title>18&#45;&gt;30</title>
<path fill="none" stroke="#0000ff" d="M1380.42,-88.01C1409.54,-74.11 1451.85,-53.9 1483.17,-38.95"/>
<polygon fill="#0000ff" stroke="#0000ff" points="1485,-41.95 1492.51,-34.49 1481.98,-35.64 1485,-41.95"/>
<text text-anchor="middle" x="1478.94" y="-57.8" font-family="Times,serif" font-size="14.00">no, missing</text>
</g>
<!-- 19 -->
<g id="node28" class="node">
<title>19</title>
<ellipse fill="none" stroke="black" cx="1870.94" cy="-105" rx="100.98" ry="18"/>
<text text-anchor="middle" x="1870.94" y="-101.3" font-family="Times,serif" font-size="14.00">Vol_Chg&lt;&#45;0.0883740261</text>
</g>
<!-- 11&#45;&gt;19 -->
<g id="edge27" class="edge">
<title>11&#45;&gt;19</title>
<path fill="none" stroke="#ff0000" d="M1939.15,-174.21C1926.58,-161.63 1909.19,-144.25 1895.13,-130.18"/>
<polygon fill="#ff0000" stroke="#ff0000" points="1897.25,-127.35 1887.7,-122.76 1892.3,-132.3 1897.25,-127.35"/>
<text text-anchor="middle" x="1928.44" y="-144.8" font-family="Times,serif" font-size="14.00">yes</text>
</g>
<!-- 20 -->
<g id="node29" class="node">
<title>20</title>
<ellipse fill="none" stroke="black" cx="2084.94" cy="-105" rx="94.78" ry="18"/>
<text text-anchor="middle" x="2084.94" y="-101.3" font-family="Times,serif" font-size="14.00">OBV&lt;1.23144425e+12</text>
</g>
<!-- 11&#45;&gt;20 -->
<g id="edge28" class="edge">
<title>11&#45;&gt;20</title>
<path fill="none" stroke="#0000ff" d="M1980.82,-174.61C2000.85,-161.41 2029.22,-142.72 2051.29,-128.18"/>
<polygon fill="#0000ff" stroke="#0000ff" points="2053.28,-131.05 2059.71,-122.63 2049.43,-125.21 2053.28,-131.05"/>
<text text-anchor="middle" x="2060.94" y="-144.8" font-family="Times,serif" font-size="14.00">no, missing</text>
</g>
<!-- 21 -->
<g id="node34" class="node">
<title>21</title>
<ellipse fill="none" stroke="black" cx="2508.94" cy="-105" rx="132.68" ry="18"/>
<text text-anchor="middle" x="2508.94" y="-101.3" font-family="Times,serif" font-size="14.00">regime_vol_trend&lt;&#45;0.0102440277</text>
</g>
<!-- 12&#45;&gt;21 -->
<g id="edge33" class="edge">
<title>12&#45;&gt;21</title>
<path fill="none" stroke="#ff0000" d="M2508.94,-173.8C2508.94,-162.16 2508.94,-146.55 2508.94,-133.24"/>
<polygon fill="#ff0000" stroke="#ff0000" points="2512.44,-133.18 2508.94,-123.18 2505.44,-133.18 2512.44,-133.18"/>
<text text-anchor="middle" x="2518.44" y="-144.8" font-family="Times,serif" font-size="14.00">yes</text>
</g>
<!-- 22 -->
<g id="node35" class="node">
<title>22</title>
<ellipse fill="none" stroke="black" cx="2804.94" cy="-105" rx="71.49" ry="18"/>
<text text-anchor="middle" x="2804.94" y="-101.3" font-family="Times,serif" font-size="14.00">RSI&lt;59.2041817</text>
</g>
<!-- 12&#45;&gt;22 -->
<g id="edge34" class="edge">
<title>12&#45;&gt;22</title>
<path fill="none" stroke="#0000ff" d="M2559.49,-176.48C2612.34,-161.31 2695.04,-137.56 2749.61,-121.89"/>
<polygon fill="#0000ff" stroke="#0000ff" points="2750.81,-125.19 2759.46,-119.06 2748.88,-118.46 2750.81,-125.19"/>
<text text-anchor="middle" x="2706.94" y="-144.8" font-family="Times,serif" font-size="14.00">no, missing</text>
</g>
<!-- 31 -->
<g id="node30" class="node">
<title>31</title>
<ellipse fill="none" stroke="black" cx="1706.94" cy="-18" rx="84.49" ry="18"/>
<text text-anchor="middle" x="1706.94" y="-14.3" font-family="Times,serif" font-size="14.00">leaf=0.00868629199</text>
</g>
<!-- 19&#45;&gt;31 -->
<g id="edge29" class="edge">
<title>19&#45;&gt;31</title>
<path fill="none" stroke="#ff0000" d="M1839.71,-87.81C1813.21,-74.08 1775.05,-54.3 1746.43,-39.47"/>
<polygon fill="#ff0000" stroke="#ff0000" points="1747.99,-36.33 1737.5,-34.84 1744.77,-42.55 1747.99,-36.33"/>
<text text-anchor="middle" x="1808.44" y="-57.8" font-family="Times,serif" font-size="14.00">yes</text>
</g>
<!-- 32 -->
<g id="node31" class="node">
<title>32</title>
<ellipse fill="none" stroke="black" cx="1888.94" cy="-18" rx="79.89" ry="18"/>
<text text-anchor="middle" x="1888.94" y="-14.3" font-family="Times,serif" font-size="14.00">leaf=0.0412903056</text>
</g>
<!-- 19&#45;&gt;32 -->
<g id="edge30" class="edge">
<title>19&#45;&gt;32</title>
<path fill="none" stroke="#0000ff" d="M1874.59,-86.8C1877.05,-75.16 1880.36,-59.55 1883.18,-46.24"/>
<polygon fill="#0000ff" stroke="#0000ff" points="1886.66,-46.68 1885.31,-36.18 1879.81,-45.23 1886.66,-46.68"/>
<text text-anchor="middle" x="1913.94" y="-57.8" font-family="Times,serif" font-size="14.00">no, missing</text>
</g>
<!-- 33 -->
<g id="node32" class="node">
<title>33</title>
<ellipse fill="none" stroke="black" cx="2066.94" cy="-18" rx="79.89" ry="18"/>
<text text-anchor="middle" x="2066.94" y="-14.3" font-family="Times,serif" font-size="14.00">leaf=0.0147190643</text>
</g>
<!-- 20&#45;&gt;33 -->
<g id="edge31" class="edge">
<title>20&#45;&gt;33</title>
<path fill="none" stroke="#ff0000" d="M2081.3,-86.8C2078.84,-75.16 2075.53,-59.55 2072.71,-46.24"/>
<polygon fill="#ff0000" stroke="#ff0000" points="2076.08,-45.23 2070.58,-36.18 2069.23,-46.68 2076.08,-45.23"/>
<text text-anchor="middle" x="2087.44" y="-57.8" font-family="Times,serif" font-size="14.00">yes</text>
</g>
<!-- 34 -->
<g id="node33" class="node">
<title>34</title>
<ellipse fill="none" stroke="black" cx="2247.94" cy="-18" rx="83.39" ry="18"/>
<text text-anchor="middle" x="2247.94" y="-14.3" font-family="Times,serif" font-size="14.00">leaf=&#45;0.0523867011</text>
</g>
<!-- 20&#45;&gt;34 -->
<g id="edge32" class="edge">
<title>20&#45;&gt;34</title>
<path fill="none" stroke="#0000ff" d="M2115.99,-87.81C2142.32,-74.08 2180.25,-54.3 2208.69,-39.47"/>
<polygon fill="#0000ff" stroke="#0000ff" points="2210.32,-42.57 2217.57,-34.84 2207.08,-36.36 2210.32,-42.57"/>
<text text-anchor="middle" x="2208.94" y="-57.8" font-family="Times,serif" font-size="14.00">no, missing</text>
</g>
<!-- 35 -->
<g id="node36" class="node">
<title>35</title>
<ellipse fill="none" stroke="black" cx="2435.94" cy="-18" rx="87.18" ry="18"/>
<text text-anchor="middle" x="2435.94" y="-14.3" font-family="Times,serif" font-size="14.00">leaf=&#45;0.00477616396</text>
</g>
<!-- 21&#45;&gt;35 -->
<g id="edge35" class="edge">
<title>21&#45;&gt;35</title>
<path fill="none" stroke="#ff0000" d="M2494.17,-86.8C2483.51,-74.39 2468.97,-57.46 2457.09,-43.62"/>
<polygon fill="#ff0000" stroke="#ff0000" points="2459.61,-41.19 2450.44,-35.89 2454.3,-45.75 2459.61,-41.19"/>
<text text-anchor="middle" x="2486.44" y="-57.8" font-family="Times,serif" font-size="14.00">yes</text>
</g>
<!-- 36 -->
<g id="node37" class="node">
<title>36</title>
<ellipse fill="none" stroke="black" cx="2623.94" cy="-18" rx="83.39" ry="18"/>
<text text-anchor="middle" x="2623.94" y="-14.3" font-family="Times,serif" font-size="14.00">leaf=&#45;0.0265493449</text>
</g>
<!-- 21&#45;&gt;36 -->
<g id="edge36" class="edge">
<title>21&#45;&gt;36</title>
<path fill="none" stroke="#0000ff" d="M2531.66,-87.21C2549.34,-74.14 2574.04,-55.88 2593.44,-41.55"/>
<polygon fill="#0000ff" stroke="#0000ff" points="2595.7,-44.23 2601.66,-35.47 2591.54,-38.6 2595.7,-44.23"/>
<text text-anchor="middle" x="2605.94" y="-57.8" font-family="Times,serif" font-size="14.00">no, missing</text>
</g>
<!-- 37 -->
<g id="node38" class="node">
<title>37</title>
<ellipse fill="none" stroke="black" cx="2804.94" cy="-18" rx="79.89" ry="18"/>
<text text-anchor="middle" x="2804.94" y="-14.3" font-family="Times,serif" font-size="14.00">leaf=0.0337962694</text>
</g>
<!-- 22&#45;&gt;37 -->
<g id="edge37" class="edge">
<title>22&#45;&gt;37</title>
<path fill="none" stroke="#ff0000" d="M2804.94,-86.8C2804.94,-75.16 2804.94,-59.55 2804.94,-46.24"/>
<polygon fill="#ff0000" stroke="#ff0000" points="2808.44,-46.18 2804.94,-36.18 2801.44,-46.18 2808.44,-46.18"/>
<text text-anchor="middle" x="2814.44" y="-57.8" font-family="Times,serif" font-size="14.00">yes</text>
</g>
<!-- 38 -->
<g id="node39" class="node">
<title>38</title>
<ellipse fill="none" stroke="black" cx="2989.94" cy="-18" rx="87.18" ry="18"/>
<text text-anchor="middle" x="2989.94" y="-14.3" font-family="Times,serif" font-size="14.00">leaf=&#45;0.00366297597</text>
</g>
<!-- 22&#45;&gt;38 -->
<g id="edge38" class="edge">
<title>22&#45;&gt;38</title>
<path fill="none" stroke="#0000ff" d="M2838.02,-88.8C2868.29,-74.9 2913.28,-54.22 2946.45,-38.98"/>
<polygon fill="#0000ff" stroke="#0000ff" points="2948.28,-42 2955.9,-34.64 2945.36,-35.63 2948.28,-42"/>
<text text-anchor="middle" x="2940.94" y="-57.8" font-family="Times,serif" font-size="14.00">no, missing</text>
</g>
</g>
</svg>
